<svg width="80" height="80" viewBox="0 0 80 80" fill="none" xmlns="http://www.w3.org/2000/svg">
<g clip-path="url(#clip0_2801_3412)">
<path d="M76.875 30H73.75V20.625C73.75 18.8991 72.3509 17.5 70.625 17.5H58.125C56.3991 17.5 55 18.8991 55 20.625V30H25V20.625C25 18.8991 23.6009 17.5 21.875 17.5H9.375C7.64906 17.5 6.25 18.8991 6.25 20.625V30H3.125C1.39906 30 0 31.3991 0 33.125C0 34.8509 1.39906 36.25 3.125 36.25H6.25V76.875C6.25 78.6009 7.64906 80 9.375 80H70.625C72.3509 80 73.75 78.6009 73.75 76.875V36.25H76.875C78.6009 36.25 80 34.8509 80 33.125C80 31.3991 78.6009 30 76.875 30ZM61.25 23.75H67.5V30H61.25V23.75ZM12.5 23.75H18.75V30H12.5V23.75ZM67.5 42.5H64.375C62.6491 42.5 61.25 43.8991 61.25 45.625C61.25 47.3509 62.6491 48.75 64.375 48.75H67.5V61.25H64.375C62.6491 61.25 61.25 62.6491 61.25 64.375C61.25 66.1009 62.6491 67.5 64.375 67.5H67.5V73.75H12.5V67.5H15.625C17.3509 67.5 18.75 66.1009 18.75 64.375C18.75 62.6491 17.3509 61.25 15.625 61.25H12.5V48.75H15.625C17.3509 48.75 18.75 47.3509 18.75 45.625C18.75 43.8991 17.3509 42.5 15.625 42.5H12.5V36.25H67.5V42.5Z" fill="#52C459"/>
<path d="M46.2501 51.8752H39.5892L42.6001 47.3587C43.5576 45.9226 43.1695 43.9824 41.7334 43.0251C40.2975 42.0679 38.3573 42.4559 37.4 43.8918L31.15 53.2668C30.5106 54.2257 30.4509 55.4587 30.9948 56.4748C31.5387 57.4909 32.5976 58.1252 33.7501 58.1252H40.4111L37.4001 62.6418C36.4426 64.0779 36.8307 66.018 38.2668 66.9754C39.7028 67.9327 41.6431 67.5446 42.6003 66.1087L48.8503 56.7337C49.4897 55.7748 49.5493 54.5418 49.0054 53.5257C48.4615 52.5096 47.4026 51.8752 46.2501 51.8752Z" fill="#FFDD02"/>
<path d="M21.25 12.5001H26.7622L38.6023 18.4203C39.5712 18.9045 40.7214 18.8529 41.6428 18.2835C42.5642 17.714 43.125 16.7082 43.125 15.6251V8.18152L51.1025 12.1703C51.5364 12.3871 52.015 12.5001 52.5 12.5001H58.75C60.4759 12.5001 61.875 11.101 61.875 9.37511C61.875 7.64917 60.4759 6.25011 58.75 6.25011H53.2378L41.3975 0.329954C40.4286 -0.154421 39.2784 -0.102702 38.357 0.466673C37.4356 1.03605 36.875 2.04199 36.875 3.12511V10.5687L28.8975 6.57995C28.4636 6.36308 27.9852 6.25011 27.5 6.25011H21.25C19.5241 6.25011 18.125 7.64917 18.125 9.37511C18.125 11.101 19.5241 12.5001 21.25 12.5001Z" fill="#FFDD02"/>
</g>
<defs>
<clipPath id="clip0_2801_3412">
<rect width="80" height="80" fill="white"/>
</clipPath>
</defs>
</svg>
