<svg width="50" height="50" viewBox="0 0 50 50" fill="none" xmlns="http://www.w3.org/2000/svg">
<path d="M38.4678 18.1951C37.1476 19.6134 39.1137 21.5883 40.5384 20.2657C44.7781 16.026 44.7781 9.12756 40.5383 4.88784C39.9665 4.31603 39.0395 4.31603 38.4677 4.88784C37.8959 5.45964 37.8959 6.38665 38.4677 6.95845C41.5657 10.0565 41.5657 15.0971 38.4678 18.1951Z" fill="white"/>
<path d="M42.9035 22.6311C41.584 24.0462 43.5474 26.0256 44.9741 24.7017C51.6597 18.0162 51.6597 7.13794 44.974 0.45229C44.4022 -0.119513 43.4752 -0.119513 42.9034 0.45229C42.3316 1.02409 42.3316 1.9511 42.9034 2.52291C48.4474 8.0668 48.4474 17.0872 42.9035 22.6311Z" fill="white"/>
<path d="M34.0321 13.7594C32.7112 15.1807 34.6799 17.1515 36.1027 15.8301C37.8965 14.0363 37.8965 11.1174 36.1027 9.32363C35.5309 8.75182 34.6039 8.75182 34.0321 9.32363C33.4602 9.89543 33.4602 10.8224 34.0321 11.3942C34.684 12.0464 34.6841 13.1074 34.0321 13.7594Z" fill="white"/>
<path d="M48.5242 47.0717H18.6228V42.2627C18.6228 41.4541 17.9672 40.7985 17.1586 40.7985H16.758L14.0557 28.9564C15.9994 26.7425 15.9315 23.0488 13.9179 20.9076V10.793H20.3993V20.9077C15.7965 26.2641 22.0793 33.8345 28.2004 30.2838L29.8089 31.8916V35.9897C29.8089 36.3781 29.9633 36.7505 30.2378 37.025L31.8062 38.5932C32.3781 39.1652 33.3051 39.1648 33.8768 38.5932C34.4485 38.0214 34.4485 37.0944 33.8768 36.5226L32.7374 35.3832V32.749H35.3716L36.511 33.8884C37.0827 34.4601 38.0098 34.4601 38.5816 33.8884C39.1534 33.3167 39.1534 32.3896 38.5816 31.8178L37.0133 30.2495C36.7387 29.975 36.3663 29.8206 35.978 29.8206H31.8795L30.2713 28.2134C31.686 26.0271 31.3677 22.7749 29.6008 20.9077V10.2964C34.5744 4.35168 26.8346 -3.37987 20.8962 1.59164H13.4212C7.4765 -3.38192 -0.254953 4.35802 4.71655 10.2964V20.9077C2.70245 23.0493 2.6354 26.743 4.57873 28.9565L1.87647 40.7986H1.47588C0.667272 40.7986 0.0117188 41.4542 0.0117188 42.2628V48.5359C0.0117188 49.3445 0.667272 50.0001 1.47588 50.0001H48.5242C50.4446 49.9369 50.482 47.1501 48.5242 47.0717ZM25.0001 2.95165C26.787 2.95165 28.2407 4.40546 28.2407 6.19232C28.0778 10.4856 21.9216 10.4845 21.7594 6.19232C21.7593 4.40546 23.2131 2.95165 25.0001 2.95165ZM26.6724 12.131V19.073C25.5975 18.7666 24.4025 18.7666 23.3276 19.073V12.131C24.4025 12.4374 25.5975 12.4374 26.6724 12.131ZM25.0001 21.771C26.787 21.771 28.2407 23.2248 28.2407 25.0117C28.0778 29.305 21.9216 29.3038 21.7594 25.0117C21.7593 23.2248 23.2131 21.771 25.0001 21.771ZM19.0619 4.51996C18.7549 5.59553 18.7548 6.78911 19.0619 7.86478H15.2553C15.5623 6.78921 15.5623 5.59563 15.2553 4.51996H19.0619ZM9.31724 2.95165C11.1041 2.95165 12.5579 4.40546 12.5579 6.19232C12.395 10.4856 6.23889 10.4845 6.07656 6.19232C6.07656 4.40546 7.53038 2.95165 9.31724 2.95165ZM10.9896 12.131V19.073C9.91471 18.7667 8.71967 18.7666 7.64478 19.073V12.131C8.71976 12.4375 9.91471 12.4373 10.9896 12.131ZM9.31724 21.771C11.1041 21.771 12.5579 23.2248 12.5579 25.0117C12.395 29.305 6.23889 29.3038 6.07656 25.0117C6.07656 23.2248 7.53038 21.771 9.31724 21.771ZM7.16317 30.7931C8.522 31.3081 10.1125 31.3081 11.4713 30.7931L13.7544 40.7986H4.88005L7.16317 30.7931ZM15.6944 47.0717H2.94004V43.7268H15.6945V47.0717H15.6944Z" fill="white"/>
</svg>
