<svg width="37" height="25" viewBox="0 0 37 25" fill="none" xmlns="http://www.w3.org/2000/svg">
<path d="M0.999221 25C8.99299 23.8055 13.9058 16.4676 13.7393 8.53243C13.7393 6.14335 13.0731 4.09557 11.8241 2.47441C10.5751 0.767922 8.74318 0 6.49494 0C4.7463 0 3.1642 0.511951 1.91517 1.70649C0.666147 2.90103 0 4.35154 0 6.22867C0 7.93515 0.582879 9.38567 1.66537 10.4949C2.74786 11.6894 4.16342 12.2867 5.82879 12.2867C6.82801 12.2867 7.57743 12.0307 8.16031 11.6894C8.07704 13.8225 7.41089 15.785 6.0786 17.4061C4.7463 19.1126 3.08093 20.1365 0.999221 20.5631V25Z" fill="white"/>
<path d="M24.2558 25C32.2496 23.8055 37.1624 16.4676 36.9959 8.53243C36.9959 6.14335 36.3298 4.09557 35.0807 2.47441C33.8317 0.767922 31.9998 0 29.7515 0C28.0029 0 26.4208 0.511951 25.1718 1.70649C23.9228 2.90103 23.2566 4.35154 23.2566 6.22867C23.2566 7.93515 23.8395 9.38567 24.922 10.4949C26.0045 11.6894 27.42 12.2867 29.0854 12.2867C30.0846 12.2867 30.834 12.0307 31.4169 11.6894C31.3336 13.8225 30.6675 15.785 29.3352 17.4061C28.0029 19.1126 26.3375 20.1365 24.2558 20.5631V25Z" fill="white"/>
</svg>
