<svg width="30" height="30" viewBox="0 0 30 30" fill="none" xmlns="http://www.w3.org/2000/svg">
<path d="M28.2422 18.7297V15.9418C28.2422 13.0187 27.2922 10.2459 25.4948 7.92335C23.8775 5.83331 21.6391 4.2511 19.1461 3.42417C18.9823 2.74712 18.5578 2.15099 17.9411 1.79198C16.1269 0.736006 13.8729 0.736006 12.0588 1.79198C11.4421 2.15099 11.0176 2.74706 10.8538 3.42417C8.36086 4.25116 6.12252 5.83331 4.5051 7.92335C2.70779 10.2459 1.75781 13.0187 1.75781 15.9418V18.7297C0.734824 19.0926 0 20.0695 0 21.2153C0 22.4488 0.851601 23.4868 1.99764 23.7733C2.60654 25.2681 3.6225 26.5512 4.96301 27.5065C6.44918 28.5656 8.19504 29.1254 10.0118 29.1254H19.9882C21.805 29.1254 23.5508 28.5656 25.037 27.5065C26.3775 26.5512 27.3935 25.2681 28.0024 23.7733C29.1484 23.4868 30 22.4488 30 21.2153C30 20.0695 29.2652 19.0926 28.2422 18.7297ZM22.8123 7.58884C25.0924 9.70729 26.4844 12.712 26.4844 15.9418V18.5785H15.8789V13.3051H16.7578H19.0065C20.1432 13.3051 21.1484 12.5806 21.5079 11.5021L22.8123 7.58884ZM19.0406 5.25024C19.8606 5.55933 20.6321 5.95765 21.3451 6.43167L19.8403 10.9463C19.7205 11.3058 19.3854 11.5473 19.0065 11.5473H17.823L19.0406 5.25024ZM12.9431 3.3112C14.2119 2.57269 15.7881 2.57269 17.0568 3.3112C17.3576 3.48628 17.5177 3.86679 17.4462 4.23651L16.0326 11.5473H13.9675L12.5538 4.23651C12.4823 3.86673 12.6424 3.48628 12.9431 3.3112ZM10.9594 5.25024L12.1771 11.5473H10.9935C10.6146 11.5473 10.2796 11.3057 10.1597 10.9463L8.65488 6.43161C9.36791 5.95771 10.1394 5.55933 10.9594 5.25024ZM3.51562 15.9418C3.51562 12.712 4.90758 9.7073 7.1877 7.5889L8.49211 11.5022C8.85158 12.5806 9.85682 13.3051 10.9935 13.3051H13.2422H14.1211V18.5786H3.51562V15.9418ZM19.9882 27.3676H10.0118C7.46385 27.3676 5.17318 25.984 3.97975 23.8403H26.0202C24.8268 25.984 22.5362 27.3676 19.9882 27.3676ZM27.3633 22.0942H2.63672C2.15209 22.0942 1.75781 21.6999 1.75781 21.2153C1.75781 20.7307 2.15209 20.3364 2.63672 20.3364H27.3633C27.8479 20.3364 28.2422 20.7307 28.2422 21.2153C28.2422 21.6999 27.8479 22.0942 27.3633 22.0942Z" fill="white"/>
</svg>
