<svg width="36" height="36" viewBox="0 0 36 36" fill="none" xmlns="http://www.w3.org/2000/svg">
<path d="M15.2011 15.804L17.6176 13.59C18.2784 12.9834 18.7428 12.1933 18.9513 11.3209C19.1597 10.4485 19.1028 9.53376 18.7876 8.694L17.7571 5.94225C17.3721 4.91494 16.61 4.07306 15.6259 3.58813C14.6418 3.10319 13.5098 3.01168 12.4606 3.33225C8.59964 4.5135 5.63189 8.10225 6.54539 12.3638C7.14614 15.1673 8.29589 18.6863 10.4739 22.4303C12.6564 26.1833 15.1494 28.9553 17.2869 30.9038C20.5134 33.84 25.1259 33.1065 28.0936 30.339C28.8892 29.5973 29.3719 28.5801 29.4434 27.4947C29.5149 26.4094 29.1698 25.3377 28.4784 24.498L26.5884 22.203C26.0184 21.509 25.2537 21.0014 24.3928 20.7456C23.5319 20.4898 22.6142 20.4974 21.7576 20.7675L18.6346 21.7508C17.8281 20.9184 17.1214 19.9949 16.5286 18.999C15.9565 17.9918 15.5107 16.918 15.2011 15.8018V15.804Z" fill="#181818"/>
</svg>
