<svg width="138" height="138" viewBox="0 0 138 138" fill="none" xmlns="http://www.w3.org/2000/svg">
<path d="M135.5 0.307794C134.946 0.0787003 134.362 -0.0188665 133.787 0.00485139H106.192C105.12 0.00485139 104.091 0.430696 103.334 1.18913L84.7446 19.7783L84.6333 4.01938C84.6573 1.86024 82.7507 -0.0339597 80.5913 0.00512091L52.8352 0C52.8349 0 52.8346 0 52.8343 0C51.7619 0 50.7337 0.425844 49.9758 1.18428L1.69341 49.4667C0.669492 50.2 0 51.397 0 52.7524V133.957C0 136.19 1.81011 138 4.04283 138C4.04283 138 87.4892 137.999 87.9455 137.999C88.985 137.999 90.0243 137.601 90.8148 136.805L136.822 90.4599C137.574 89.7025 137.996 88.6789 137.996 87.6118V4.04283C137.996 2.40764 137.01 0.933354 135.5 0.307794ZM107.867 8.0905H124.189L83.5755 48.7096H67.2481L107.867 8.0905ZM31.8855 82.3998C32.9461 82.4001 33.9953 81.9653 34.7449 81.215L53.4472 62.5126V76.6824L24.2588 105.871V82.3998H31.8855ZM59.1646 82.3998H65.0364V111.588H29.9767L59.1646 82.3998ZM54.6304 49.8925C54.6234 49.8995 54.6175 49.9073 54.6105 49.9144L35.9283 68.5965V54.4267L76.6159 13.7394L76.715 27.8076L54.6304 49.8925ZM54.5086 8.08592L70.8319 8.08889L30.2112 48.7096H13.885L54.5086 8.08592ZM81.208 129.914H8.08565V56.7952H27.8429V74.3142H20.216C17.9833 74.3142 16.1732 76.1243 16.1732 78.357V115.631C16.1355 117.803 18.0488 119.717 20.2219 119.673H69.0795C71.3122 119.673 73.1223 117.863 73.1223 115.631V78.357C73.1223 76.1243 71.3122 74.3142 69.0795 74.3142H61.5332V56.7952H81.2082L81.208 129.914ZM129.91 85.9459L89.2936 126.86V54.4259L129.91 13.8041V85.9459Z" fill="white"/>
</svg>
