<svg width="50" height="50" viewBox="0 0 50 50" fill="none" xmlns="http://www.w3.org/2000/svg">
<g clip-path="url(#clip0_2677_992)">
<path d="M42.1875 9.10039V7.32422C42.1875 3.28564 38.9019 0 34.8633 0H25.0977C21.0591 0 17.7734 3.28564 17.7734 7.32422V9.10039C13.3515 9.80488 9.96094 13.6445 9.96094 18.2617V23.6328H7.32422C4.90107 23.6328 2.92969 25.6042 2.92969 28.0273V31.4453H1.46484C0.655859 31.4453 0 32.1012 0 32.9102V48.5352C0 49.3441 0.655859 50 1.46484 50H48.5352C49.3441 50 50 49.3441 50 48.5352V18.2617C50 13.6445 46.6095 9.80488 42.1875 9.10039ZM44.6289 38.2812H47.0703V41.2109H34.375V20.7031H47.0703V23.6328H44.6289C43.8199 23.6328 43.1641 24.2887 43.1641 25.0977C43.1641 25.9066 43.8199 26.5625 44.6289 26.5625H47.0703V29.4922H44.6289C43.8199 29.4922 43.1641 30.148 43.1641 30.957C43.1641 31.766 43.8199 32.4219 44.6289 32.4219H47.0703V35.3516H44.6289C43.8199 35.3516 43.1641 36.0074 43.1641 36.8164C43.1641 37.6254 43.8199 38.2812 44.6289 38.2812ZM47.0497 17.7734H34.3956C34.646 14.5009 37.387 11.9141 40.7227 11.9141C44.0583 11.9141 46.7992 14.5009 47.0497 17.7734ZM25.0977 2.92969H34.8633C37.2864 2.92969 39.2578 4.90107 39.2578 7.32422V9.10039C34.8358 9.80488 31.4453 13.6445 31.4453 18.2617V47.0703H28.5156V18.2617C28.5156 13.6445 25.1251 9.80488 20.7031 9.10039V7.32422C20.7031 4.90107 22.6745 2.92969 25.0977 2.92969ZM12.8906 20.7031H25.5859V23.6328H23.1445C22.3355 23.6328 21.6797 24.2887 21.6797 25.0977C21.6797 25.9066 22.3355 26.5625 23.1445 26.5625H25.5859V29.4922H23.1445C22.3355 29.4922 21.6797 30.148 21.6797 30.957C21.6797 31.766 22.3355 32.4219 23.1445 32.4219H25.5859V35.3516H23.1445C22.3355 35.3516 21.6797 36.0074 21.6797 36.8164C21.6797 37.6254 22.3355 38.2812 23.1445 38.2812H25.5859V41.2109H12.8906V20.7031ZM19.2383 11.9141C22.5739 11.9141 25.3148 14.5009 25.5653 17.7734H12.9112C13.1617 14.5009 15.9026 11.9141 19.2383 11.9141ZM5.85938 28.0273C5.85938 27.2196 6.5165 26.5625 7.32422 26.5625H9.96094V31.4453H5.85938V28.0273ZM9.96094 34.375V37.3047H2.92969V34.375H9.96094ZM2.92969 40.2344H9.96094V47.0703H2.92969V40.2344ZM12.8906 47.0703V44.1406H25.5859V47.0703H12.8906ZM34.375 47.0703V44.1406H47.0703V47.0703H34.375Z" fill="white"/>
</g>
<defs>
<clipPath id="clip0_2677_992">
<rect width="50" height="50" fill="white"/>
</clipPath>
</defs>
</svg>
