<svg width="40" height="36" viewBox="0 0 40 36" fill="none" xmlns="http://www.w3.org/2000/svg">
<path d="M29.8788 0C32.5608 0 35.1408 1.06 37.0388 2.962C38.9388 4.86 40.0008 7.42 40.0008 10.1V25.9C40.0008 31.48 35.4608 36 29.8788 36H10.1208C4.53879 36 0.000793457 31.48 0.000793457 25.9V10.1C0.000793457 4.52 4.51879 0 10.1208 0H29.8788ZM32.1408 10.4C31.7208 10.378 31.3208 10.52 31.0188 10.8L22.0008 18C20.8408 18.962 19.1788 18.962 18.0008 18L9.00079 10.8C8.37879 10.34 7.51879 10.4 7.00079 10.94C6.46079 11.48 6.40079 12.34 6.85879 12.94L7.12079 13.2L16.2208 20.3C17.3408 21.18 18.6988 21.66 20.1208 21.66C21.5388 21.66 22.9208 21.18 24.0388 20.3L33.0608 13.08L33.2208 12.92C33.6988 12.34 33.6988 11.5 33.1988 10.92C32.9208 10.622 32.5388 10.44 32.1408 10.4Z" fill="#E8112B"/>
</svg>
