<svg width="32" height="32" viewBox="0 0 32 32" fill="none" xmlns="http://www.w3.org/2000/svg">
<path d="M27.6936 26.04C27.6936 26.52 27.5869 27.0133 27.3602 27.4933C27.1336 27.9733 26.8402 28.4267 26.4536 28.8533C25.8002 29.5733 25.0802 30.0933 24.2669 30.4267C23.4669 30.76 22.6002 30.9333 21.6669 30.9333C20.3069 30.9333 18.8536 30.6133 17.3202 29.96C15.7869 29.3067 14.2536 28.4267 12.7336 27.32C11.2002 26.2 9.74689 24.96 8.36023 23.5867C6.98689 22.2 5.74689 20.7467 4.64023 19.2267C3.54689 17.7067 2.66689 16.1867 2.02689 14.68C1.38689 13.16 1.06689 11.7067 1.06689 10.32C1.06689 9.41333 1.22689 8.54667 1.54689 7.74667C1.86689 6.93333 2.37356 6.18667 3.08023 5.52C3.93356 4.68 4.86689 4.26667 5.85356 4.26667C6.22689 4.26667 6.60023 4.34667 6.93356 4.50667C7.28023 4.66667 7.58689 4.90667 7.82689 5.25333L10.9202 9.61333C11.1602 9.94667 11.3336 10.2533 11.4536 10.5467C11.5736 10.8267 11.6402 11.1067 11.6402 11.36C11.6402 11.68 11.5469 12 11.3602 12.3067C11.1869 12.6133 10.9336 12.9333 10.6136 13.2533L9.60023 14.3067C9.45356 14.4533 9.38689 14.6267 9.38689 14.84C9.38689 14.9467 9.40023 15.04 9.42689 15.1467C9.46689 15.2533 9.50689 15.3333 9.53356 15.4133C9.77356 15.8533 10.1869 16.4267 10.7736 17.12C11.3736 17.8133 12.0136 18.52 12.7069 19.2267C13.4269 19.9333 14.1202 20.5867 14.8269 21.1867C15.5202 21.7733 16.0936 22.1733 16.5469 22.4133C16.6136 22.44 16.6936 22.48 16.7869 22.52C16.8936 22.56 17.0002 22.5733 17.1202 22.5733C17.3469 22.5733 17.5202 22.4933 17.6669 22.3467L18.6802 21.3467C19.0136 21.0133 19.3336 20.76 19.6402 20.6C19.9469 20.4133 20.2536 20.32 20.5869 20.32C20.8402 20.32 21.1069 20.3733 21.4002 20.4933C21.6936 20.6133 22.0002 20.7867 22.3336 21.0133L26.7469 24.1467C27.0936 24.3867 27.3336 24.6667 27.4802 25C27.6136 25.3333 27.6936 25.6667 27.6936 26.04Z" stroke="#FFDD02" stroke-width="1.2" stroke-miterlimit="10"/>
<path d="M23.0671 13.6001C23.0671 12.8001 22.4404 11.5735 21.5071 10.5735C20.6537 9.65346 19.5204 8.93346 18.4004 8.93346" stroke="#FFDD02" stroke-width="1.2" stroke-linecap="round" stroke-linejoin="round"/>
<path d="M27.7337 13.6C27.7337 8.44 23.5604 4.26667 18.4004 4.26667" stroke="#FFDD02" stroke-width="1.2" stroke-linecap="round" stroke-linejoin="round"/>
</svg>
