<svg width="30" height="30" viewBox="0 0 30 30" fill="none" xmlns="http://www.w3.org/2000/svg">
<path d="M29.457 0.0669117C29.3366 0.0171088 29.2096 -0.00410142 29.0846 0.00105465H23.0857C22.8527 0.00105465 22.6291 0.0936295 22.4643 0.258507L18.4232 4.29963L18.399 0.873778C18.4043 0.4044 17.9898 -0.00738255 17.5203 0.00111324L11.4864 0C11.4863 0 11.4863 0 11.4862 0C11.2531 0 11.0296 0.0925749 10.8648 0.257452L0.36862 10.7536C0.14603 10.9131 0.000488281 11.1733 0.000488281 11.4679V29.1211C0.000488281 29.6065 0.39399 30 0.879364 30C0.879364 30 19.0199 29.9999 19.1191 29.9999C19.3451 29.9999 19.571 29.9132 19.7428 29.7401L29.7444 19.6652C29.9079 19.5005 29.9996 19.278 29.9996 19.046V0.878875C29.9995 0.5234 29.7853 0.202903 29.457 0.0669117ZM23.4498 1.75881H26.9981L18.1691 10.589H14.6196L23.4498 1.75881ZM6.93212 17.913C7.16268 17.9131 7.39078 17.8186 7.55372 17.6554L11.6195 13.5897V16.6701L5.27415 23.0155V17.913H6.93212ZM12.8624 17.913H14.1388V24.2582H6.51717L12.8624 17.913ZM11.8767 10.8462C11.8751 10.8477 11.8739 10.8494 11.8723 10.8509L7.81099 14.9123V11.8319L16.6561 2.98683L16.6777 6.04514L11.8767 10.8462ZM11.8502 1.75781L15.3987 1.75845L6.56815 10.589H3.01896L11.8502 1.75781ZM17.6544 28.2423H1.75824V12.3468H6.0533V16.1553H4.39527C3.9099 16.1553 3.5164 16.5488 3.5164 17.0341V25.1371C3.5082 25.6093 3.92414 26.0254 4.39656 26.0159H15.0178C15.5031 26.0159 15.8966 25.6224 15.8966 25.1371V17.0341C15.8966 16.5488 15.5031 16.1553 15.0178 16.1553H13.3773V12.3468H17.6545L17.6544 28.2423ZM28.2418 18.6839L19.4121 27.5782V11.8317L28.2418 3.00089V18.6839Z" fill="white"/>
</svg>
