<svg width="60" height="60" viewBox="0 0 60 60" fill="none" xmlns="http://www.w3.org/2000/svg">
<g clip-path="url(#clip0_2801_3225)">
<path d="M22.1616 33.831C22.1616 28.8821 25.372 24.6835 29.8236 23.203C28.7119 22.8333 27.5231 22.6326 26.2873 22.6326C20.1026 22.6326 15.0889 27.6463 15.0889 33.831C15.0889 40.0157 20.1026 45.0294 26.2873 45.0294C27.5231 45.0294 28.7119 44.8287 29.8236 44.459C25.372 42.9785 22.1616 38.7799 22.1616 33.831Z" fill="#181818" fill-opacity="0.1"/>
<path d="M26.2871 47.387C18.8123 47.387 12.7311 41.3058 12.7311 33.831C12.7311 26.3563 18.8123 20.275 26.2871 20.275C33.7619 20.275 39.8431 26.3563 39.8431 33.831C39.8431 41.3058 33.7619 47.387 26.2871 47.387ZM26.2871 24.9902C21.4123 24.9902 17.4463 28.9562 17.4463 33.831C17.4463 38.7059 21.4123 42.6719 26.2871 42.6719C31.162 42.6719 35.128 38.7059 35.128 33.831C35.128 28.9562 31.162 24.9902 26.2871 24.9902ZM32.4168 2.94695C32.4168 4.5745 33.7362 5.89391 35.3637 5.89391C36.9913 5.89391 38.3107 4.5745 38.3107 2.94695C38.3107 1.31941 36.9913 0 35.3637 0C33.7362 0 32.4168 1.31941 32.4168 2.94695ZM21.1005 3.30059C21.1005 4.92813 22.4199 6.24754 24.0474 6.24754C25.675 6.24754 26.9944 4.92813 26.9944 3.30059C26.9944 1.67305 25.675 0.353635 24.0474 0.353635C22.4199 0.353635 21.1005 1.67305 21.1005 3.30059ZM10.6093 8.25147C10.6093 9.87902 11.9287 11.1984 13.5563 11.1984C15.1838 11.1984 16.5032 9.87902 16.5032 8.25147C16.5032 6.62393 15.1838 5.30452 13.5563 5.30452C11.9287 5.30452 10.6093 6.62393 10.6093 8.25147ZM3.183 16.9745C3.183 18.602 4.50241 19.9214 6.12995 19.9214C7.7575 19.9214 9.07691 18.602 9.07691 16.9745C9.07691 15.3469 7.7575 14.0275 6.12995 14.0275C4.50241 14.0275 3.183 15.3469 3.183 16.9745ZM0.118164 28.055C0.118164 29.6826 1.43757 31.002 3.06512 31.002C4.69266 31.002 6.01207 29.6826 6.01207 28.055C6.01207 26.4275 4.69266 25.1081 3.06512 25.1081C1.43757 25.1081 0.118164 26.4275 0.118164 28.055ZM1.76846 39.4892C1.76846 41.1167 3.08787 42.4361 4.71541 42.4361C6.34296 42.4361 7.66237 41.1167 7.66237 39.4892C7.66237 37.8616 6.34296 36.5422 4.71541 36.5422C3.08787 36.5422 1.76846 37.8616 1.76846 39.4892ZM8.016 49.1552C8.016 50.7827 9.33541 52.1022 10.963 52.1022C12.5905 52.1022 13.9099 50.7827 13.9099 49.1552C13.9099 47.5277 12.5905 46.2083 10.963 46.2083C9.33541 46.2083 8.016 47.5277 8.016 49.1552ZM17.682 55.4027C17.682 57.0303 19.0014 58.3497 20.629 58.3497C22.2565 58.3497 23.5759 57.0303 23.5759 55.4027C23.5759 53.7752 22.2565 52.4558 20.629 52.4558C19.0014 52.4558 17.682 53.7752 17.682 55.4027ZM28.9983 57.053C28.9983 58.6806 30.3177 60 31.9453 60C33.5728 60 34.8922 58.6806 34.8922 57.053C34.8922 55.4255 33.5728 54.1061 31.9453 54.1061C30.3177 54.1061 28.9983 55.4255 28.9983 57.053ZM40.1968 53.8703C40.1968 55.4979 41.5162 56.8173 43.1437 56.8173C44.7712 56.8173 46.0907 55.4979 46.0907 53.8703C46.0907 52.2428 44.7712 50.9234 43.1437 50.9234C41.5162 50.9234 40.1968 52.2428 40.1968 53.8703ZM48.9197 46.444C48.9197 48.0716 50.2391 49.391 51.8667 49.391C53.4942 49.391 54.8136 48.0716 54.8136 46.444C54.8136 44.8165 53.4942 43.4971 51.8667 43.4971C50.2391 43.4971 48.9197 44.8165 48.9197 46.444ZM53.8706 36.0707C53.8706 37.6983 55.19 39.0177 56.8176 39.0177C58.4451 39.0177 59.7645 37.6983 59.7645 36.0707C59.7645 34.4432 58.4451 33.1238 56.8176 33.1238C55.19 33.1238 53.8706 34.4432 53.8706 36.0707ZM53.9885 24.5187C53.9885 26.1462 55.3079 27.4656 56.9355 27.4656C58.563 27.4656 59.8824 26.1462 59.8824 24.5187C59.8824 22.8911 58.563 21.5717 56.9355 21.5717C55.3079 21.5717 53.9885 22.8911 53.9885 24.5187Z" fill="#52C459"/>
<path d="M49.981 18.3889C45.4311 18.3889 41.7295 14.6873 41.7295 10.1375C41.7295 5.5876 45.4311 1.88599 49.981 1.88599C54.5308 1.88599 58.2324 5.5876 58.2324 10.1375C58.2324 14.6873 54.5308 18.3889 49.981 18.3889ZM49.981 6.60111C48.031 6.60111 46.4446 8.18752 46.4446 10.1375C46.4446 12.0874 48.031 13.6738 49.981 13.6738C51.9309 13.6738 53.5173 12.0874 53.5173 10.1375C53.5173 8.18752 51.9309 6.60111 49.981 6.60111Z" fill="#FFDD02"/>
</g>
<defs>
<clipPath id="clip0_2801_3225">
<rect width="60" height="60" fill="white"/>
</clipPath>
</defs>
</svg>
