<svg width="50" height="50" viewBox="0 0 50 50" fill="none" xmlns="http://www.w3.org/2000/svg">
<g clip-path="url(#clip0_2925_4196)">
<path d="M19.1406 0H10.3516C9.54258 0 8.88672 0.655859 8.88672 1.46484V5.85938H5.95703C3.53389 5.85938 1.5625 7.83076 1.5625 10.2539V45.6055C1.5625 48.0286 3.53389 50 5.95703 50H23.5352C25.4448 50 27.073 48.7753 27.6777 47.0703H32.3242C33.1332 47.0703 33.7891 46.4145 33.7891 45.6055V43.5289C34.9858 43.1878 36.1396 42.7054 37.239 42.0866L38.7167 43.5644C39.2887 44.1364 40.2162 44.1363 40.7883 43.5644L44.9316 39.4211C45.5033 38.8495 45.5037 37.9215 44.9316 37.3495L43.4539 35.8718C44.0727 34.7726 44.555 33.6187 44.8962 32.4219H46.9727C47.7816 32.4219 48.4375 31.766 48.4375 30.957V25.0977C48.4375 24.2887 47.7816 23.6328 46.9727 23.6328H44.8961C44.555 22.436 44.0726 21.2821 43.4538 20.1829L44.9315 18.7052C45.5032 18.1336 45.5036 17.2056 44.9315 16.6336L40.7883 12.4902C40.2163 11.9182 39.2888 11.9183 38.7167 12.4902L37.239 13.968C36.1396 13.3492 34.9859 12.8669 33.7891 12.5257V10.2539C33.7891 9.44492 33.1332 8.78906 32.3242 8.78906H27.6777C27.073 7.08408 25.4448 5.85938 23.5352 5.85938H20.6055V1.46484C20.6055 0.655859 19.9496 0 19.1406 0ZM27.9297 20.8506C28.409 20.7533 28.8987 20.7031 29.3945 20.7031C33.4331 20.7031 36.7188 23.9888 36.7188 28.0273C36.7188 32.0659 33.4331 35.3516 29.3945 35.3516C28.8987 35.3516 28.409 35.3013 27.9297 35.2041V20.8506ZM27.9297 38.1752C28.4126 38.2443 28.9015 38.2812 29.3945 38.2812C35.0485 38.2812 39.6484 33.6813 39.6484 28.0273C39.6484 22.3733 35.0485 17.7734 29.3945 17.7734C28.9015 17.7734 28.4126 17.8104 27.9297 17.8795V11.7188H30.8594V13.675C30.8594 14.3712 31.3494 14.9712 32.0316 15.1104C33.6674 15.4438 35.2213 16.0932 36.6501 17.0401C37.2308 17.4251 38.0024 17.3477 38.4952 16.855L39.7525 15.5977L41.8243 17.6693L40.567 18.9267C40.0742 19.4193 39.9968 20.191 40.3818 20.7718C41.3288 22.2006 41.9782 23.7545 42.3117 25.3902C42.4508 26.0725 43.0508 26.5625 43.747 26.5625H45.5078V29.4922H43.7469C43.0507 29.4922 42.4507 29.9822 42.3116 30.6645C41.9781 32.3002 41.3288 33.8541 40.3817 35.2829C39.9968 35.8637 40.0742 36.6353 40.5669 37.128L41.8242 38.3854L39.7524 40.457L38.4951 39.1997C38.0024 38.707 37.231 38.6296 36.65 39.0145C35.2212 39.9616 33.6673 40.6108 32.0315 40.9443C31.3493 41.0834 30.8593 41.6834 30.8593 42.3797V44.1406H27.9296V38.1752H27.9297ZM11.8164 2.92969H17.6758V5.85938H11.8164V2.92969ZM23.5352 8.78906C24.3429 8.78906 25 9.44619 25 10.2539V45.6055C25 46.4132 24.3429 47.0703 23.5352 47.0703H5.95703C5.14932 47.0703 4.49219 46.4132 4.49219 45.6055V10.2539C4.49219 9.44619 5.14932 8.78906 5.95703 8.78906H23.5352Z" fill="white"/>
<path d="M8.88672 44.1406H20.6055C21.4145 44.1406 22.0703 43.4848 22.0703 42.6758V19.2383C22.0703 18.4293 21.4145 17.7734 20.6055 17.7734H8.88672C8.07773 17.7734 7.42188 18.4293 7.42188 19.2383V42.6758C7.42188 43.4848 8.07773 44.1406 8.88672 44.1406ZM10.3516 20.7031H19.1406V23.6328H10.3516V20.7031ZM10.3516 26.5625H19.1406V29.4922H10.3516V26.5625ZM10.3516 32.4219H19.1406V35.3516H10.3516V32.4219ZM10.3516 38.2812H19.1406V41.2109H10.3516V38.2812Z" fill="white"/>
</g>
<defs>
<clipPath id="clip0_2925_4196">
<rect width="50" height="50" fill="white"/>
</clipPath>
</defs>
</svg>
