<svg width="110" height="110" viewBox="0 0 110 110" fill="none" xmlns="http://www.w3.org/2000/svg">
<path d="M108.381 30.7213C107.379 30.1468 106.147 30.1517 105.151 30.7348L73.2617 49.3832V33.5166C73.2617 32.362 72.644 31.2958 71.6427 30.7213C70.6411 30.1468 69.4089 30.1517 68.4123 30.7348L36.5234 49.3832V3.22363C36.5234 1.44387 35.0805 0.000976562 33.3008 0.000976562H3.22266C1.44289 0.000976562 0 1.44387 0 3.22363V106.778C0 108.558 1.44289 110.001 3.22266 110.001H106.777C108.557 110.001 110 108.558 110 106.778V33.5166C110 32.362 109.382 31.2958 108.381 30.7213ZM6.44531 6.44629H30.0781V10.7432H6.44531V6.44629ZM103.555 103.556H6.44531V17.1885H30.0781V55.001C30.0781 57.488 32.7839 59.0364 34.9276 57.7828L66.8164 39.1343V55.001C66.8164 57.488 69.5221 59.0364 71.6659 57.7828L103.555 39.1343V103.556Z" fill="white"/>
</svg>
