<svg width="50" height="50" viewBox="0 0 50 50" fill="none" xmlns="http://www.w3.org/2000/svg">
<g clip-path="url(#clip0_2925_4132)">
<path d="M25 44.1406C25.809 44.1406 26.4648 43.4848 26.4648 42.6758C26.4648 41.8668 25.809 41.2109 25 41.2109C24.191 41.2109 23.5352 41.8668 23.5352 42.6758C23.5352 43.4848 24.191 44.1406 25 44.1406Z" fill="white"/>
<path d="M13.2812 44.1406C14.0903 44.1406 14.7461 43.4848 14.7461 42.6758C14.7461 41.8668 14.0903 41.2109 13.2812 41.2109C12.4722 41.2109 11.8164 41.8668 11.8164 42.6758C11.8164 43.4848 12.4722 44.1406 13.2812 44.1406Z" fill="white"/>
<path d="M7.42188 44.1406C8.23089 44.1406 8.88672 43.4848 8.88672 42.6758C8.88672 41.8668 8.23089 41.2109 7.42188 41.2109C6.61286 41.2109 5.95703 41.8668 5.95703 42.6758C5.95703 43.4848 6.61286 44.1406 7.42188 44.1406Z" fill="white"/>
<path d="M30.8594 44.1406C31.6684 44.1406 32.3242 43.4848 32.3242 42.6758C32.3242 41.8668 31.6684 41.2109 30.8594 41.2109C30.0504 41.2109 29.3945 41.8668 29.3945 42.6758C29.3945 43.4848 30.0504 44.1406 30.8594 44.1406Z" fill="white"/>
<path d="M19.1406 44.1406C19.9496 44.1406 20.6055 43.4848 20.6055 42.6758C20.6055 41.8668 19.9496 41.2109 19.1406 41.2109C18.3316 41.2109 17.6758 41.8668 17.6758 42.6758C17.6758 43.4848 18.3316 44.1406 19.1406 44.1406Z" fill="white"/>
<path d="M36.7188 44.1406C37.5278 44.1406 38.1836 43.4848 38.1836 42.6758C38.1836 41.8668 37.5278 41.2109 36.7188 41.2109C35.9097 41.2109 35.2539 41.8668 35.2539 42.6758C35.2539 43.4848 35.9097 44.1406 36.7188 44.1406Z" fill="white"/>
<path d="M42.5781 44.1406C43.3871 44.1406 44.043 43.4848 44.043 42.6758C44.043 41.8668 43.3871 41.2109 42.5781 41.2109C41.7691 41.2109 41.1133 41.8668 41.1133 42.6758C41.1133 43.4848 41.7691 44.1406 42.5781 44.1406Z" fill="white"/>
<path d="M48.5352 2.92969C49.3441 2.92969 50 2.27383 50 1.46484C50 0.655859 49.3441 0 48.5352 0H25C24.191 0 23.5352 0.655859 23.5352 1.46484C23.5352 2.27383 24.191 2.92969 25 2.92969H32.3242V11.8164H30.8594C30.4708 11.8164 30.0982 11.9708 29.8236 12.2455L23.9643 18.1049C23.6895 18.3796 23.5352 18.7521 23.5352 19.1406V25.0977C23.5352 25.4861 23.6895 25.8587 23.9643 26.1334L29.3945 31.5638V35.3516H20.6055V25.0977C20.6055 24.2887 19.9496 23.6328 19.1406 23.6328H7.42188C6.61289 23.6328 5.95703 24.2887 5.95703 25.0977V35.4965C2.64844 36.1576 0 39.0766 0 42.6758C0 46.7244 3.37246 50 7.42188 50H42.5781C46.6268 50 50 46.7251 50 42.6758C50 39.0766 47.3515 36.1576 44.043 35.4965V31.5709L49.5624 26.142C49.8424 25.8666 50 25.4903 50 25.0977V19.1406C50 18.7479 49.8424 18.3717 49.5624 18.0963L43.6054 12.2369C43.3313 11.9674 42.9625 11.8164 42.5781 11.8164H41.1133V2.92969H48.5352ZM35.2539 2.92969H38.1836V11.8164H35.2539V2.92969ZM8.88672 26.5625H17.6758V35.3516H8.88672V26.5625ZM47.0703 42.6758C47.0703 45.0579 45.0132 47.0703 42.5781 47.0703H7.42188C4.98682 47.0703 2.92969 45.0579 2.92969 42.6758C2.92969 40.2937 4.98682 38.2812 7.42188 38.2812H42.5781C45.0132 38.2812 47.0703 40.2937 47.0703 42.6758ZM32.3242 35.3516C32.3242 32.2044 32.3242 29.7061 32.3242 26.5625H41.1133V35.3516H32.3242ZM41.9784 14.7461L47.0703 19.7545V24.4838L44.043 27.4615V25.0977C44.043 24.2887 43.3871 23.6328 42.5781 23.6328H30.8594C30.0504 23.6328 29.3945 24.2887 29.3945 25.0977V27.4206L26.4648 24.4909V19.7475L31.4661 14.7461H41.9784Z" fill="white"/>
</g>
<defs>
<clipPath id="clip0_2925_4132">
<rect width="50" height="50" fill="white"/>
</clipPath>
</defs>
</svg>
