<svg width="184" height="184" viewBox="0 0 184 184" fill="none" xmlns="http://www.w3.org/2000/svg">
<path d="M183.996 57.7006C184.003 54.8443 181.462 52.3556 178.609 52.4084H150.577V5.39133C150.63 2.4991 148.08 -0.0538859 145.187 0.00073877H112.843C111.286 0.00073877 109.805 0.674204 108.781 1.84792L34.7502 86.721C33.902 87.6964 33.4223 88.9718 33.4219 90.2644V104.309L1.42731 139.018C0.517382 140.005 0.000962886 141.331 0.000244141 142.672V178.609C0.000244141 181.586 2.41379 184 5.39084 184H104.573C106.118 184.007 107.622 183.309 108.64 182.153L182.671 97.2797C183.528 96.2979 183.999 95.0394 183.999 93.7363V57.799C183.999 57.766 183.996 57.7333 183.996 57.7006ZM102.126 137.281H83.0114L147.638 63.1893H166.753L102.126 137.281ZM76.5467 92.2852L139.796 19.7724V55.7783L76.5467 128.291V92.2852ZM115.295 10.7819H133.332L68.7051 84.8738H50.6679L115.295 10.7819ZM33.4219 120.216V137.281H17.6915L33.4219 120.216ZM10.7814 148.062H38.8125C41.7896 148.062 44.2031 145.649 44.2031 142.672V95.655H65.7655V142.672C65.7119 145.566 68.2642 148.118 71.1582 148.062H99.1872V173.218H10.7814V148.062ZM173.218 91.7156L109.968 164.228V144.693L173.218 72.179V91.7156Z" fill="white"/>
</svg>
