<svg width="75" height="75" viewBox="0 0 75 75" fill="none" xmlns="http://www.w3.org/2000/svg">
<g clip-path="url(#clip0_2801_3332)">
<path d="M74.8392 59.3967L63.1206 25.4126C62.7132 24.2309 61.601 23.438 60.351 23.438H49.2183C47.6002 23.438 46.2886 24.7496 46.2886 26.3677V40.43H28.7106V26.3677C28.7106 24.7496 27.399 23.438 25.781 23.438H14.6483C13.3983 23.438 12.2861 24.231 11.8787 25.4126L0.160035 59.3967C-0.148605 60.292 -0.00563755 61.2813 0.544114 62.0524C1.09401 62.8235 1.98258 63.2814 2.92959 63.2814H34.57V69.1408H25.781C24.1629 69.1408 22.8513 70.4524 22.8513 72.0704C22.8513 73.6885 24.1629 75.0001 25.781 75.0001H49.2183C50.8363 75.0001 52.148 73.6885 52.148 72.0704C52.148 70.4524 50.8363 69.1408 49.2183 69.1408H40.4293V63.2814H72.0697C73.0167 63.2814 73.9053 62.8237 74.4552 62.0524C75.0049 61.2813 75.148 60.292 74.8392 59.3967ZM52.148 29.2972H58.2623L62.1012 40.4299H52.148V29.2972ZM46.2886 46.2892V57.4219H28.7106V46.2892H46.2886ZM16.737 29.2972H22.8513V40.4299H12.8981L16.737 29.2972ZM10.8776 46.2892H22.8513V57.4219H7.03874L10.8776 46.2892ZM52.148 57.4219V46.2892H64.1217L67.9605 57.4219H52.148Z" fill="#52C459"/>
<path d="M31.6407 17.5785H38.6192L34.8797 25.0573C34.1562 26.5046 34.7426 28.2643 36.1899 28.9879C37.637 29.7116 39.397 29.1249 40.1205 27.6778L45.9798 15.9591C46.4339 15.0509 46.3854 13.9725 45.8515 13.1087C45.3177 12.245 44.3748 11.7193 43.3594 11.7193H36.3809L40.1203 4.24046C40.8438 2.79321 40.2574 1.0335 38.8102 0.309877C37.3629 -0.413603 35.6031 0.172916 34.8796 1.62002L29.0203 13.3387C28.5662 14.2469 28.6146 15.3253 29.1486 16.1891C29.6824 17.0528 30.6254 17.5785 31.6407 17.5785Z" fill="#FFDD02"/>
</g>
<defs>
<clipPath id="clip0_2801_3332">
<rect width="75" height="75" fill="white"/>
</clipPath>
</defs>
</svg>
