<svg width="48" height="48" viewBox="0 0 48 48" fill="none" xmlns="http://www.w3.org/2000/svg">
<g clip-path="url(#clip0_2927_957)" filter="url(#filter0_d_2927_957)">
<path d="M14.5469 11.0938C8.73133 11.0938 4 15.8251 4 21.6406C4 24.4652 5.10414 27.1181 7.10906 29.1106C8.50477 30.4977 9.27344 32.2841 9.27344 34.1406V36.4844C9.27344 38.4229 10.8505 40 12.7891 40H16.3047C18.2432 40 19.8203 38.4229 19.8203 36.4844V34.1406C19.8203 32.2841 20.589 30.4977 21.9848 29.1106C23.9896 27.1181 25.0938 24.4652 25.0938 21.6406C25.0938 15.8251 20.3624 11.0938 14.5469 11.0938ZM17.4766 36.4844C17.4766 37.1305 16.9509 37.6562 16.3047 37.6562H12.7891C12.1429 37.6562 11.6172 37.1305 11.6172 36.4844V35.3125H17.4766V36.4844ZM20.3327 27.4482C18.7828 28.9884 17.8189 30.9155 17.5523 32.9688H15.7188V25.251L18.5005 22.4693C18.9581 22.0116 18.9581 21.2697 18.5005 20.812C18.0429 20.3544 17.3009 20.3544 16.8432 20.812L14.5469 23.1084L12.2505 20.812C11.7929 20.3544 11.0509 20.3544 10.5932 20.812C10.1355 21.2697 10.1355 22.0116 10.5932 22.4693L13.375 25.251V32.9688H11.5415C11.2748 30.9155 10.3109 28.9884 8.76117 27.4482C7.20227 25.899 6.34375 23.8365 6.34375 21.6406C6.34375 17.1174 10.0237 13.4375 14.5469 13.4375C19.0701 13.4375 22.75 17.1174 22.75 21.6406C22.75 23.8365 21.8915 25.899 20.3327 27.4482Z" fill="#E8112B"/>
<path d="M43.4636 32.2461L42.482 31.612C42.4988 31.4114 42.5072 31.2123 42.5072 31.0156C42.5072 30.819 42.4988 30.6198 42.482 30.4193L43.4636 29.7852C43.9881 29.4463 44.1548 28.7557 43.8426 28.2148L41.8895 24.832C41.5772 24.2912 40.8956 24.0901 40.3401 24.375L39.2967 24.9098C38.9701 24.6841 38.6263 24.4857 38.2674 24.3155L38.2088 23.1446C38.1777 22.5209 37.6629 22.0312 37.0385 22.0312H33.1322C32.5077 22.0312 31.993 22.5209 31.9618 23.1446L31.9033 24.3155C31.5443 24.4858 31.2006 24.6842 30.874 24.9098L29.8306 24.375C29.275 24.0902 28.5935 24.2912 28.2812 24.832L26.3281 28.2148C26.0158 28.7556 26.1825 29.4462 26.707 29.7852L27.6887 30.4193C27.6719 30.6198 27.6635 30.819 27.6635 31.0156C27.6635 31.2123 27.6719 31.4114 27.6887 31.612L26.7071 32.2461C26.1826 32.5849 26.0159 33.2755 26.3281 33.8164L28.2813 37.1993C28.5935 37.74 29.2747 37.9412 29.8306 37.6562L30.874 37.1215C31.2007 37.3472 31.5443 37.5455 31.9033 37.7158L31.9618 38.8867C31.993 39.5104 32.5077 40.0001 33.1322 40.0001H37.0385C37.6629 40.0001 38.1777 39.5104 38.2088 38.8867L38.2674 37.7158C38.6264 37.5455 38.97 37.3472 39.2967 37.1215L40.3401 37.6562C40.8959 37.9411 41.5772 37.7401 41.8895 37.1993L43.8426 33.8164C44.1549 33.2755 43.9882 32.5848 43.4636 32.2461ZM40.0699 30.0583C40.132 30.3839 40.1635 30.7061 40.1635 31.0156C40.1635 31.3252 40.132 31.6473 40.0699 31.973C39.9805 32.4417 40.1842 32.9179 40.5851 33.1768L41.2555 33.6098L40.4171 35.062L39.7043 34.6966C39.279 34.4787 38.7642 34.5406 38.4029 34.8534C37.9157 35.2749 37.3595 35.5962 36.7496 35.808C36.2985 35.9646 35.9876 36.3795 35.9637 36.8564L35.9238 37.6562H34.247L34.207 36.8565C34.1832 36.3795 33.8723 35.9647 33.4211 35.808C32.8113 35.5962 32.255 35.275 31.7678 34.8534C31.4065 34.5408 30.8916 34.4788 30.4664 34.6967L29.7536 35.062L28.9152 33.6099L29.5856 33.1769C29.9865 32.918 30.1903 32.4417 30.1009 31.9729C30.0388 31.6473 30.0073 31.3252 30.0073 31.0157C30.0073 30.7062 30.0388 30.3841 30.1009 30.0585C30.1903 29.5898 29.9865 29.1135 29.5856 28.8545L28.9152 28.4215L29.7535 26.9694L30.4663 27.3347C30.8915 27.5527 31.4065 27.4906 31.7677 27.178C32.2549 26.7564 32.8111 26.4352 33.421 26.2234C33.8722 26.0667 34.1831 25.6519 34.207 25.1749L34.247 24.375H35.9237L35.9637 25.1748C35.9876 25.6517 36.2985 26.0666 36.7496 26.2232C37.3595 26.4351 37.9158 26.7563 38.4029 27.1778C38.7642 27.4904 39.2791 27.5525 39.7043 27.3345L40.4171 26.9691L41.2555 28.4212L40.585 28.8543C40.1843 29.1134 39.9805 29.5895 40.0699 30.0583Z" fill="#E8112B"/>
<path d="M35.0859 27.5C33.1474 27.5 31.5703 29.0771 31.5703 31.0156C31.5703 32.9541 33.1474 34.5312 35.0859 34.5312C37.0245 34.5312 38.6016 32.9541 38.6016 31.0156C38.6016 29.0771 37.0245 27.5 35.0859 27.5ZM35.0859 32.1875C34.4398 32.1875 33.9141 31.6618 33.9141 31.0156C33.9141 30.3695 34.4398 29.8438 35.0859 29.8438C35.7321 29.8438 36.2578 30.3695 36.2578 31.0156C36.2578 31.6618 35.7321 32.1875 35.0859 32.1875Z" fill="#E8112B"/>
<path d="M14.5469 8.75C15.1941 8.75 15.7188 8.22531 15.7188 7.57813V5.85938C15.7188 3.92086 17.2959 2.34375 19.2344 2.34375H30.3982C32.3367 2.34375 33.9138 3.92086 33.9138 5.85938V15.6865L32.0081 13.7808C31.5505 13.3231 30.8085 13.3231 30.3509 13.7808C29.8932 14.2384 29.8932 14.9804 30.3509 15.438L34.2571 19.3443C34.7148 19.802 35.4567 19.802 35.9144 19.3443L39.8206 15.438C40.2783 14.9804 40.2783 14.2384 39.8206 13.7808C39.363 13.3231 38.621 13.3231 38.1634 13.7808L36.2577 15.6865V5.85938C36.2577 2.62852 33.6291 0 30.3983 0H19.2344C16.0035 0 13.375 2.62852 13.375 5.85938V7.57813C13.375 8.22531 13.8997 8.75 14.5469 8.75Z" fill="#E8112B"/>
</g>
<defs>
<filter id="filter0_d_2927_957" x="0" y="0" width="48" height="48" filterUnits="userSpaceOnUse" color-interpolation-filters="sRGB">
<feFlood flood-opacity="0" result="BackgroundImageFix"/>
<feColorMatrix in="SourceAlpha" type="matrix" values="0 0 0 0 0 0 0 0 0 0 0 0 0 0 0 0 0 0 127 0" result="hardAlpha"/>
<feOffset dy="4"/>
<feGaussianBlur stdDeviation="2"/>
<feComposite in2="hardAlpha" operator="out"/>
<feColorMatrix type="matrix" values="0 0 0 0 0 0 0 0 0 0 0 0 0 0 0 0 0 0 0.25 0"/>
<feBlend mode="normal" in2="BackgroundImageFix" result="effect1_dropShadow_2927_957"/>
<feBlend mode="normal" in="SourceGraphic" in2="effect1_dropShadow_2927_957" result="shape"/>
</filter>
<clipPath id="clip0_2927_957">
<rect width="40" height="40" fill="white" transform="translate(4)"/>
</clipPath>
</defs>
</svg>
