<svg width="30" height="30" viewBox="0 0 30 30" fill="none" xmlns="http://www.w3.org/2000/svg">
<path d="M15 30C12.0333 30 9.13319 29.1203 6.66645 27.472C4.19972 25.8238 2.27713 23.4811 1.14181 20.7403C0.00649925 17.9994 -0.290551 14.9834 0.288228 12.0737C0.867006 9.16394 2.29562 6.49119 4.3934 4.3934C6.49119 2.29562 9.16394 0.867006 12.0737 0.288228C14.9834 -0.290551 17.9994 0.00649925 20.7403 1.14181C23.4811 2.27713 25.8238 4.19972 27.472 6.66645C29.1203 9.13319 30 12.0333 30 15C30 18.9783 28.4197 22.7936 25.6066 25.6066C22.7936 28.4197 18.9783 30 15 30ZM15 2.14286C12.4571 2.14286 9.97131 2.89692 7.85696 4.30968C5.74261 5.72244 4.09468 7.73046 3.12156 10.0798C2.14843 12.4291 1.89381 15.0143 2.38991 17.5083C2.88601 20.0024 4.11053 22.2933 5.90863 24.0914C7.70674 25.8895 9.99766 27.114 12.4917 27.6101C14.9857 28.1062 17.5709 27.8516 19.9202 26.8785C22.2696 25.9053 24.2776 24.2574 25.6903 22.1431C27.1031 20.0287 27.8571 17.5429 27.8571 15C27.8571 11.5901 26.5026 8.31982 24.0914 5.90863C21.6802 3.49745 18.4099 2.14286 15 2.14286Z" fill="#FFDD02"/>
<path d="M19.918 21.4286L13.9287 15.4393V5.35715H16.0716V14.55L21.4287 19.9179L19.918 21.4286Z" fill="#FFDD02"/>
</svg>
