<svg width="80" height="80" viewBox="0 0 80 80" fill="none" xmlns="http://www.w3.org/2000/svg">
<path d="M62.1564 7.415C56.508 2.63328 48.7281 0 40.25 0C31.7841 0 24.0073 2.63656 18.3523 7.42406C12.3275 12.5247 9 19.7556 9 28.125C9 36.9389 13.2675 42.9134 17.3945 48.6914C21.113 53.897 24.625 58.8139 24.625 65.625V70.625C24.625 75.7944 28.8306 80 34 80H46.5C51.6694 80 55.875 75.7944 55.875 70.625V65.625C55.875 58.8139 59.3872 53.897 63.1053 48.6914C67.2323 42.9134 71.5 36.9389 71.5 28.125C71.5 19.5253 68.0158 12.3748 62.1564 7.415ZM49.625 70.625C49.625 72.3481 48.2231 73.75 46.5 73.75H34C32.2769 73.75 30.875 72.3481 30.875 70.625V68.7498H40.2484H40.25C40.25 68.7498 40.2509 68.7498 40.2516 68.7498H49.625V70.625ZM40.25 31.25C38.5241 31.25 37.125 32.6491 37.125 34.375V43.202C33.5387 41.935 30.875 38.6969 30.875 35.9375C30.875 32.6577 32.7361 30.2745 36.3023 26.0005C37.5361 24.5219 38.8709 22.9222 40.25 21.0825C41.6291 22.9222 42.9639 24.522 44.1977 26.0005C47.7641 30.2747 49.625 32.6577 49.625 35.9375C49.625 38.6969 46.9613 41.935 43.375 43.202V34.375C43.375 32.6491 41.9759 31.25 40.25 31.25ZM58.0195 45.0586C54.3997 50.1264 50.6723 55.3461 49.8108 62.5H43.375V49.6848C46.2553 49.1008 48.9623 47.7166 51.2078 45.6445C54.1739 42.908 55.875 39.3698 55.875 35.9375C55.875 30.2398 52.6875 26.4197 48.9966 21.9964C47.1058 19.7305 44.963 17.1622 42.8753 13.9297C42.2995 13.0383 41.3111 12.5 40.25 12.5C39.1889 12.5 38.2005 13.0383 37.6248 13.9297C35.5372 17.1622 33.3942 19.7305 31.5034 21.9964C27.8127 26.4197 24.625 30.2398 24.625 35.9375C24.625 39.3698 26.3261 42.908 29.292 45.6445C31.5377 47.7164 34.2447 49.1006 37.125 49.6848V62.4998H30.6892C29.8277 55.3461 26.1003 50.1264 22.4805 45.0586C18.7622 39.853 15.25 34.9361 15.25 28.125C15.25 15.2453 25.5303 6.25 40.25 6.25C54.9697 6.25 65.25 15.2453 65.25 28.125C65.25 34.9361 61.7378 39.853 58.0195 45.0586Z" fill="#52C459"/>
</svg>
