<svg width="60" height="60" viewBox="0 0 60 60" fill="none" xmlns="http://www.w3.org/2000/svg">
<g clip-path="url(#clip0_2801_3219)">
<path d="M18.2812 21.0938C18.2812 11.9402 24.8409 4.32 33.5156 2.67422C32.3767 2.45812 31.2018 2.34375 30 2.34375C19.6447 2.34375 11.25 10.7384 11.25 21.0938C11.25 31.4491 19.6447 39.8438 30 39.8438C31.2018 39.8438 32.3767 39.7293 33.5156 39.5133C24.8411 37.8675 18.2812 30.2473 18.2812 21.0938Z" fill="#181818" fill-opacity="0.1"/>
<path d="M30 42.1875C41.6311 42.1875 51.0938 32.7248 51.0938 21.0938C51.0938 9.46266 41.6311 0 30 0C18.3689 0 8.90625 9.46266 8.90625 21.0938C8.90625 32.7248 18.3689 42.1875 30 42.1875ZM30 4.6875C39.0464 4.6875 46.4062 12.0473 46.4062 21.0938C46.4062 30.1402 39.0464 37.5 30 37.5C20.9536 37.5 13.5938 30.1402 13.5938 21.0938C13.5938 12.0473 20.9536 4.6875 30 4.6875Z" fill="#52C459"/>
<path d="M20.625 44.3312C19.3305 44.3312 18.2812 45.3805 18.2812 46.6749V57.6562C18.2812 58.6041 18.8523 59.4588 19.7282 59.8216C20.6039 60.1843 21.612 59.9839 22.2824 59.3136L30 51.5957L37.7176 59.3135C38.3905 59.9863 39.3994 60.183 40.2718 59.8215C41.1477 59.4588 41.7188 58.6041 41.7188 57.6562V46.6749C41.7188 45.3805 40.6695 44.3312 39.375 44.3312C38.0805 44.3312 37.0312 45.3805 37.0312 46.6749V51.9979L31.6574 46.624C30.742 45.7086 29.258 45.7086 28.3427 46.624L22.9688 51.9979V46.6749C22.9688 45.3806 21.9195 44.3312 20.625 44.3312Z" fill="#52C459"/>
<path d="M27.6562 28.125C28.256 28.125 28.8558 27.8962 29.3136 27.4385L38.6886 18.0635C39.6038 17.1483 39.6038 15.6642 38.6886 14.749C37.7732 13.8337 36.2892 13.8337 35.3739 14.749L27.6562 22.4667L24.6261 19.4365C23.7107 18.5212 22.2267 18.5212 21.3114 19.4365C20.3962 20.3517 20.3962 21.8358 21.3114 22.751L25.9989 27.4385C26.4565 27.8962 27.0564 28.125 27.6562 28.125Z" fill="#FFDD02"/>
</g>
<defs>
<clipPath id="clip0_2801_3219">
<rect width="60" height="60" fill="white"/>
</clipPath>
</defs>
</svg>
