<svg width="80" height="80" viewBox="0 0 80 80" fill="none" xmlns="http://www.w3.org/2000/svg">
<g clip-path="url(#clip0_2801_3417)">
<path d="M76.875 73.75H61.3973L56.1891 42.5H61.875V45.625C61.875 47.3509 63.2741 48.75 65 48.75C66.7259 48.75 68.125 47.3509 68.125 45.625V39.375C68.125 37.6491 66.7259 36.25 65 36.25H55.1473L53.0641 23.75H61.875V26.875C61.875 28.6009 63.2741 30 65 30C66.7259 30 68.125 28.6009 68.125 26.875V20.625C68.125 18.8991 66.7259 17.5 65 17.5H51.2461L42.7545 1.64937C42.2106 0.63375 41.152 0 40 0C38.848 0 37.7894 0.63375 37.2455 1.64937L28.7539 17.5H15C13.2741 17.5 11.875 18.8991 11.875 20.625V26.875C11.875 28.6009 13.2741 30 15 30C16.7259 30 18.125 28.6009 18.125 26.875V23.75H26.9361L24.8528 36.25H15C13.2741 36.25 11.875 37.6491 11.875 39.375V45.625C11.875 47.3509 13.2741 48.75 15 48.75C16.7259 48.75 18.125 47.3509 18.125 45.625V42.5H23.8111L18.6028 73.75H3.125C1.39906 73.75 0 75.1491 0 76.875C0 78.6009 1.39906 80 3.125 80H76.875C78.6009 80 80 78.6009 80 76.875C80 75.1491 78.6009 73.75 76.875 73.75ZM54.0644 67.77L44.4194 58.125L51.3086 51.2358L54.0644 67.77ZM40 9.74266L44.1558 17.5H35.8444L40 9.74266ZM33.2723 23.75H46.7278L48.8111 36.25H31.1889L33.2723 23.75ZM49.8528 42.5L50.0461 43.6595L40 53.7056L29.9541 43.6597L30.1473 42.5002H49.8528V42.5ZM35.5806 58.125L25.9356 67.77L28.6914 51.2358L35.5806 58.125ZM40 62.5444L51.2056 73.75H28.7944L40 62.5444Z" fill="#52C459"/>
</g>
<defs>
<clipPath id="clip0_2801_3417">
<rect width="80" height="80" fill="white"/>
</clipPath>
</defs>
</svg>
