<svg width="80" height="80" viewBox="0 0 80 80" fill="none" xmlns="http://www.w3.org/2000/svg">
<path d="M77.9467 32.6534L71.4328 31.8397C70.6781 28.9239 69.5259 26.1466 67.9934 23.5489L72.0278 18.3619C72.7536 17.4289 72.6708 16.1016 71.835 15.2658L64.7344 8.16516C63.8986 7.32937 62.5711 7.24672 61.6383 7.97234L56.4511 12.0069C53.8525 10.4741 51.0752 9.32172 48.1605 8.56734L47.3467 2.05328C47.2 0.880156 46.203 0 45.0208 0H34.9791C33.797 0 32.8 0.880156 32.6534 2.05328L31.8397 8.56719C28.9239 9.32188 26.1466 10.4741 23.5489 12.0066L18.3619 7.97219C17.4289 7.24656 16.1014 7.32906 15.2658 8.165L8.165 15.2658C7.32922 16.1016 7.24656 17.4289 7.97219 18.3619L12.0067 23.5491C10.4739 26.1477 9.32156 28.925 8.56719 31.8397L2.05313 32.6534C0.880156 32.8 0 33.797 0 34.9792V45.0209C0 46.203 0.880156 47.2 2.05328 47.3466L8.56719 48.1603C9.32188 51.0761 10.4741 53.8534 12.0066 56.4511L7.97219 61.6381C7.24641 62.5711 7.32922 63.8984 8.165 64.7342L15.2656 71.8348C16.1014 72.6709 17.4289 72.7534 18.3617 72.0277L23.5489 67.9931C26.1475 69.5259 28.9248 70.6783 31.8395 71.4327L32.6533 77.9467C32.7998 79.1197 33.7969 80 34.9789 80H45.0206C46.2027 80 47.1997 79.1198 47.3462 77.9467L48.16 71.4328C51.0758 70.6781 53.8531 69.5259 56.4508 67.9934L61.6378 72.0278C62.5708 72.7534 63.8983 72.6709 64.7339 71.835L71.8345 64.7344C72.6703 63.8986 72.753 62.5712 72.0273 61.6383L67.9928 56.4511C69.5256 53.8525 70.678 51.0752 71.4323 48.1605L77.9464 47.3467C79.1194 47.2002 79.9997 46.2031 79.9997 45.0211V34.9794C80 33.797 79.1198 32.8 77.9467 32.6534ZM75.3125 42.9517L69.2281 43.7119C68.2303 43.8366 67.4231 44.5839 67.2222 45.5692C66.5117 49.0536 65.1528 52.3289 63.1836 55.3039C62.6283 56.1428 62.6703 57.2423 63.288 58.0364L67.0573 62.8827L62.8827 67.0573L58.0364 63.288C57.2422 62.6702 56.1422 62.6283 55.3036 63.1838C52.3303 65.1525 49.0552 66.5111 45.5692 67.222C44.5839 67.423 43.8366 68.2302 43.7119 69.228L42.9517 75.3125H37.0484L36.2883 69.2281C36.1636 68.2303 35.4163 67.4231 34.4309 67.2222C30.9466 66.5117 27.6712 65.1528 24.6963 63.1836C23.857 62.6283 22.7577 62.6703 21.9637 63.288L17.1175 67.0573L12.9427 62.8828L16.712 58.0366C17.3297 57.2423 17.3717 56.1425 16.8162 55.3037C14.8475 52.3305 13.4889 49.0553 12.778 45.5694C12.577 44.5841 11.7698 43.8367 10.772 43.712L4.6875 42.9517V37.0484L10.7719 36.2883C11.7697 36.1636 12.5769 35.4163 12.7778 34.4309C13.4883 30.9466 14.8472 27.6712 16.8164 24.6963C17.3717 23.8573 17.3297 22.7578 16.712 21.9637L12.9427 17.1172L17.1173 12.9425L21.9636 16.7119C22.7577 17.3295 23.8577 17.3714 24.6964 16.8161C27.6697 14.8473 30.9448 13.4888 34.4308 12.7778C35.4161 12.5769 36.1634 11.7697 36.2881 10.7719L37.0483 4.6875H42.9516L43.7117 10.7719C43.8364 11.7697 44.5837 12.5769 45.5691 12.7778C49.0534 13.4883 52.3288 14.8472 55.3037 16.8164C56.1427 17.3716 57.2422 17.3295 58.0363 16.712L62.8825 12.9427L67.0572 17.1173L63.2878 21.9636C62.6702 22.7578 62.6281 23.8577 63.1836 24.6964C65.1523 27.6697 66.5109 30.9448 67.2219 34.4308C67.4228 35.4161 68.23 36.1634 69.2278 36.2881L75.3122 37.0483V42.9517H75.3125Z" fill="#E8112B"/>
<path d="M55.0625 35.1458H47.3645V22.427C47.3645 21.4791 46.7934 20.6244 45.9177 20.2617C45.0417 19.8989 44.0336 20.0995 43.3634 20.7699L23.2803 40.8531C22.61 41.5234 22.4095 42.5316 22.7722 43.4074C23.135 44.2831 23.9897 44.8542 24.9375 44.8542H32.6355V57.573C32.6355 58.521 33.2066 59.3756 34.0823 59.7383C34.9583 60.1011 35.9664 59.9005 36.6366 59.2302L56.7197 39.1469C57.39 38.4766 57.5905 37.4684 57.2278 36.5927C56.8652 35.7169 56.0105 35.1458 55.0625 35.1458ZM37.323 51.9145V42.5103C37.323 41.216 36.2736 40.1666 34.9792 40.1666H30.5959L42.6772 28.0853V37.4895C42.6772 38.7839 43.7266 39.8333 45.0209 39.8333H49.4042L37.323 51.9145Z" fill="#E8112B"/>
</svg>
