<svg width="50" height="50" viewBox="0 0 50 50" fill="none" xmlns="http://www.w3.org/2000/svg">
<g clip-path="url(#clip0_2925_4166)">
<path d="M41.4629 26.4648C42.0676 28.1698 43.6958 29.3945 45.6055 29.3945C48.0286 29.3945 50 27.4231 50 25C50 22.5769 48.0286 20.6055 45.6055 20.6055C43.6958 20.6055 42.0676 21.8302 41.4629 23.5352H30.2734V19.6289H39.7461C40.0888 19.6289 40.4206 19.5088 40.6839 19.2894L43.3617 17.0578C44.019 17.4498 44.7862 17.6758 45.6055 17.6758C48.0286 17.6758 50 15.7044 50 13.2812C50 10.8581 48.0286 8.88672 45.6055 8.88672C43.1823 8.88672 41.2109 10.8581 41.2109 13.2812C41.2109 13.818 41.308 14.3323 41.485 14.8082L39.2157 16.6992H30.2734V5.95703H34.627C35.2316 7.66201 36.8599 8.88672 38.7695 8.88672C41.1927 8.88672 43.1641 6.91533 43.1641 4.49219C43.1641 2.06904 41.1927 0.0976562 38.7695 0.0976562C36.8599 0.0976562 35.2316 1.32236 34.627 3.02734H30.2734V1.5625C30.2734 0.753516 29.6176 0.0976562 28.8086 0.0976562H20.9961C20.1871 0.0976562 19.5312 0.753516 19.5312 1.5625V3.69854C17.4438 4.22021 15.468 5.03623 13.6327 6.13447L12.1274 4.6292C11.5554 4.05713 10.6279 4.05713 10.0559 4.6292L4.53154 10.1534C3.95947 10.7254 3.95947 11.6529 4.53154 12.225L6.03682 13.7303C4.93857 15.5654 4.12266 17.5413 3.60088 19.6289H1.46484C0.655859 19.6289 0 20.2848 0 21.0938V28.9062C0 29.7152 0.655859 30.3711 1.46484 30.3711H3.60088C4.12266 32.4586 4.93857 34.4344 6.03682 36.2696L4.53154 37.7749C4.25684 38.0495 4.10244 38.4222 4.10244 38.8106C4.10244 39.1991 4.25684 39.5718 4.53154 39.8464L10.0559 45.3705C10.6278 45.9425 11.5554 45.9425 12.1274 45.3705L13.6327 43.8653C15.4679 44.9636 17.4438 45.7797 19.5312 46.3013V48.4375C19.5312 49.2465 20.1871 49.9023 20.9961 49.9023H28.8086C29.6176 49.9023 30.2734 49.2465 30.2734 48.4375V46.9727H34.627C35.2316 48.6776 36.8599 49.9023 38.7695 49.9023C41.1927 49.9023 43.1641 47.931 43.1641 45.5078C43.1641 43.0847 41.1927 41.1133 38.7695 41.1133C36.8599 41.1133 35.2316 42.338 34.627 44.043H30.2734V33.3008H39.2157L41.485 35.1918C41.308 35.6677 41.2109 36.182 41.2109 36.7188C41.2109 39.1419 43.1823 41.1133 45.6055 41.1133C48.0286 41.1133 50 39.1419 50 36.7188C50 34.2956 48.0286 32.3242 45.6055 32.3242C44.7862 32.3242 44.019 32.5502 43.3617 32.9422L40.6839 30.7106C40.4206 30.4912 40.0888 30.3711 39.7461 30.3711H30.2734V26.4648H41.4629ZM45.6055 23.5352C46.4132 23.5352 47.0703 24.1923 47.0703 25C47.0703 25.8077 46.4132 26.4648 45.6055 26.4648C44.7978 26.4648 44.1406 25.8077 44.1406 25C44.1406 24.1923 44.7978 23.5352 45.6055 23.5352ZM45.6055 11.8164C46.4132 11.8164 47.0703 12.4735 47.0703 13.2812C47.0703 14.089 46.4132 14.7461 45.6055 14.7461C44.7978 14.7461 44.1406 14.089 44.1406 13.2812C44.1406 12.4735 44.7978 11.8164 45.6055 11.8164ZM38.7695 3.02734C39.5772 3.02734 40.2344 3.68447 40.2344 4.49219C40.2344 5.2999 39.5772 5.95703 38.7695 5.95703C37.9618 5.95703 37.3047 5.2999 37.3047 4.49219C37.3047 3.68447 37.9618 3.02734 38.7695 3.02734ZM38.7695 44.043C39.5772 44.043 40.2344 44.7001 40.2344 45.5078C40.2344 46.3155 39.5772 46.9727 38.7695 46.9727C37.9618 46.9727 37.3047 46.3155 37.3047 45.5078C37.3047 44.7001 37.9618 44.043 38.7695 44.043ZM45.6055 35.2539C46.4132 35.2539 47.0703 35.911 47.0703 36.7188C47.0703 37.5265 46.4132 38.1836 45.6055 38.1836C44.7978 38.1836 44.1406 37.5265 44.1406 36.7188C44.1406 35.911 44.7978 35.2539 45.6055 35.2539ZM27.3438 34.9489C26.5369 35.1503 25.7194 35.2539 24.9023 35.2539C19.2483 35.2539 14.6484 30.654 14.6484 25C14.6484 19.346 19.2483 14.7461 24.9023 14.7461C25.7194 14.7461 26.5369 14.8498 27.3438 15.0511V34.9489ZM22.4609 46.9727V45.1258C22.4609 44.4238 21.9629 43.8205 21.2736 43.6874C18.7343 43.1973 16.3705 42.221 14.2483 40.7855C13.6669 40.3924 12.8883 40.4667 12.3919 40.9631L11.0917 42.2632L7.63906 38.8106L8.93926 37.5104C9.43565 37.0142 9.51006 36.2354 9.1168 35.654C7.68145 33.5317 6.70508 31.168 6.21484 28.6286C6.08174 27.9395 5.47852 27.4414 4.77656 27.4414H2.92969V22.5586H4.77656C5.47852 22.5586 6.08184 22.0605 6.21484 21.3714C6.70508 18.8317 7.68145 16.4681 9.1167 14.346C9.50996 13.7646 9.43555 12.9859 8.93916 12.4896L7.63896 11.1894L11.0916 7.73672L12.3918 9.03691C12.8881 9.5333 13.6668 9.60781 14.2482 9.21445C16.3706 7.779 18.7343 6.80273 21.2735 6.3126C21.9629 6.17949 22.4609 5.57627 22.4609 4.87422V3.02734H27.3438V12.0504C26.5356 11.8951 25.7196 11.8164 24.9023 11.8164C17.6329 11.8164 11.7188 17.7306 11.7188 25C11.7188 32.2694 17.6329 38.1836 24.9023 38.1836C25.7196 38.1836 26.5356 38.105 27.3438 37.9496V46.9727H22.4609Z" fill="white"/>
</g>
<defs>
<clipPath id="clip0_2925_4166">
<rect width="50" height="50" fill="white"/>
</clipPath>
</defs>
</svg>
