<svg width="40" height="40" viewBox="0 0 40 40" fill="none" xmlns="http://www.w3.org/2000/svg">
<path d="M31.3281 31.3281C29.7132 31.3281 28.3395 32.3766 27.8491 33.8281H6.17188C4.06102 33.8281 2.34375 32.1109 2.34375 30C2.34375 27.8891 4.06102 26.1719 6.17188 26.1719H13.6719C17.0751 26.1719 19.8438 23.4032 19.8438 20C19.8438 16.5968 17.0751 13.8281 13.6719 13.8281H7.15086C6.785 12.7448 5.92703 11.8869 4.84375 11.521V8.67188H11.1719C11.8191 8.67188 12.3438 8.14719 12.3438 7.5V2.5C12.3438 1.85281 11.8191 1.32812 11.1719 1.32812H3.67188C3.02469 1.32812 2.5 1.85281 2.5 2.5V7.5V11.521C1.04844 12.0113 0 13.3851 0 15C0 17.0247 1.64719 18.6719 3.67188 18.6719C5.2868 18.6719 6.66055 17.6234 7.15086 16.1719H13.6719C15.7827 16.1719 17.5 17.8891 17.5 20C17.5 22.1109 15.7827 23.8281 13.6719 23.8281H6.17188C2.76867 23.8281 0 26.5968 0 30C0 33.4032 2.76867 36.1719 6.17188 36.1719H27.8491C28.3395 37.6234 29.7132 38.6719 31.3281 38.6719C33.3528 38.6719 35 37.0247 35 35C35 32.9753 33.3528 31.3281 31.3281 31.3281ZM4.84375 3.67188H10V6.32812H4.84375V3.67188ZM3.67188 16.3281C2.93953 16.3281 2.34375 15.7323 2.34375 15C2.34375 14.2677 2.93953 13.6719 3.67188 13.6719C4.40422 13.6719 5 14.2677 5 15C5 15.7323 4.40422 16.3281 3.67188 16.3281ZM31.3281 36.3281C30.5958 36.3281 30 35.7323 30 35C30 34.2677 30.5958 33.6719 31.3281 33.6719C32.0605 33.6719 32.6562 34.2677 32.6562 35C32.6562 35.7323 32.0605 36.3281 31.3281 36.3281Z" fill="#E8112B"/>
<path d="M31.3281 8.82812C29.3034 8.82812 27.6562 10.4753 27.6562 12.5C27.6562 14.5247 29.3034 16.1719 31.3281 16.1719C33.3528 16.1719 35 14.5247 35 12.5C35 10.4753 33.3528 8.82812 31.3281 8.82812ZM31.3281 13.8281C30.5958 13.8281 30 13.2323 30 12.5C30 11.7677 30.5958 11.1719 31.3281 11.1719C32.0605 11.1719 32.6562 11.7677 32.6562 12.5C32.6562 13.2323 32.0605 13.8281 31.3281 13.8281Z" fill="#E8112B"/>
<path d="M31.3281 3.82812C26.5464 3.82812 22.6562 7.71828 22.6562 12.5C22.6562 15.0821 23.7812 17.4878 25.752 19.1418L30.2841 28.0322C30.4841 28.4248 30.8875 28.6719 31.3281 28.6719C31.7688 28.6719 32.1721 28.4248 32.3722 28.0322L36.9042 19.1418C38.8751 17.4878 40 15.0821 40 12.5C40 7.71828 36.1098 3.82812 31.3281 3.82812ZM35.2461 17.4698C35.1134 17.5745 35.0051 17.7066 34.9283 17.8573L31.3281 24.9197L27.728 17.8573C27.6512 17.7067 27.5428 17.5745 27.4102 17.4698C25.8784 16.2603 25 14.4489 25 12.5C25 9.01062 27.8387 6.17188 31.3281 6.17188C34.8175 6.17188 37.6562 9.01062 37.6562 12.5C37.6562 14.4489 36.7778 16.2603 35.2461 17.4698Z" fill="#E8112B"/>
</svg>
