<svg width="40" height="40" viewBox="0 0 40 40" fill="none" xmlns="http://www.w3.org/2000/svg">
<g clip-path="url(#clip0_2786_1078)">
<path d="M39.8808 33.201L37.5357 24.3484C37.3996 23.8345 36.9346 23.4766 36.403 23.4766H29.8739C30.1084 22.8176 30.1418 22.0983 29.9552 21.399L27.6164 12.6282C27.4796 12.1152 27.015 11.7583 26.4841 11.7583H13.5158C12.9849 11.7583 12.5203 12.1152 12.3835 12.6282L10.0447 21.399C9.85825 22.0983 9.89161 22.8175 10.126 23.4766H3.59707C3.06545 23.4766 2.60047 23.8345 2.4643 24.3484L0.119235 33.2009C-0.471759 35.4316 1.20849 37.6166 3.51747 37.6166H16.4886C18.4328 37.6166 19.9079 36.0768 20 34.2892C20.0922 36.0793 21.5697 37.6166 23.5113 37.6166H36.4825C38.7901 37.6167 40.4721 35.433 39.8808 33.201ZM12.3092 22.0028L14.4161 14.1019H25.5838L27.6906 22.0028C27.8891 22.7469 27.3288 23.4765 26.5584 23.4765C25.0901 23.4765 14.8584 23.4765 13.4415 23.4765C12.6715 23.4766 12.1107 22.7473 12.3092 22.0028ZM16.4886 35.2731H3.51747C2.74828 35.2731 2.18767 34.5452 2.3847 33.8012L4.49892 25.8203H13.4416H15.5073L17.6214 33.8012C17.8183 34.5446 17.2584 35.2731 16.4886 35.2731ZM20.1131 33.2009C20.0491 33.4423 20.0126 33.6862 20 33.929C19.9874 33.6862 19.9508 33.4424 19.8869 33.201L17.9317 25.8202H22.0682L20.1131 33.2009ZM36.4825 35.2731H23.5113C22.7421 35.2731 22.1815 34.5452 22.3786 33.8012L24.4927 25.8203H35.501L37.6152 33.8012C37.8122 34.5446 37.2522 35.2731 36.4825 35.2731Z" fill="white"/>
<path d="M20 7.07087C20.6471 7.07087 21.1718 6.5462 21.1718 5.89904V3.55538C21.1718 2.90821 20.6471 2.38354 20 2.38354C19.3528 2.38354 18.8281 2.90821 18.8281 3.55538V5.89904C18.8281 6.5462 19.3528 7.07087 20 7.07087Z" fill="white"/>
<path d="M26.445 8.79779C27.0029 9.12004 27.7208 8.93177 28.0457 8.3689L30.4648 4.17889C30.7884 3.61845 30.5964 2.90175 30.0359 2.57817C29.4754 2.25443 28.7587 2.44654 28.4352 3.00706L26.0161 7.19706C25.6925 7.75751 25.8845 8.4742 26.445 8.79779Z" fill="white"/>
<path d="M32.764 13.9449L34.7936 12.773C35.3541 12.4495 35.5461 11.7328 35.2225 11.1723C34.8989 10.6118 34.1823 10.4198 33.6218 10.7434L31.5922 11.9153C31.0317 12.2388 30.8397 12.9555 31.1633 13.516C31.4884 14.0792 32.2062 14.267 32.764 13.9449Z" fill="white"/>
<path d="M11.9542 8.36884C12.2795 8.9321 12.9972 9.11983 13.555 8.79773C14.1154 8.47415 14.3074 7.75746 13.9839 7.19701L11.5647 3.00701C11.2411 2.44656 10.5245 2.25446 9.96401 2.57812C9.40356 2.9017 9.21154 3.61839 9.53512 4.17884L11.9542 8.36884Z" fill="white"/>
<path d="M5.20644 12.7731L7.23605 13.9449C7.79392 14.2671 8.51179 14.0789 8.83677 13.516C9.16035 12.9555 8.96833 12.2389 8.40788 11.9153L6.37827 10.7434C5.81774 10.4197 5.10113 10.6119 4.77755 11.1723C4.45397 11.7328 4.64599 12.4495 5.20644 12.7731Z" fill="white"/>
</g>
<defs>
<clipPath id="clip0_2786_1078">
<rect width="40" height="40" fill="white"/>
</clipPath>
</defs>
</svg>
