<svg width="100" height="100" viewBox="0 0 100 100" fill="none" xmlns="http://www.w3.org/2000/svg">
<path d="M98.5281 27.9275C97.6176 27.4053 96.4975 27.4098 95.5914 27.9398L66.6016 44.893V30.4688C66.6016 29.4191 66.04 28.4498 65.1297 27.9275C64.2191 27.4053 63.099 27.4098 62.193 27.9398L33.2031 44.893V2.92969C33.2031 1.31172 31.8914 0 30.2734 0H2.92969C1.31172 0 0 1.31172 0 2.92969V97.0703C0 98.6883 1.31172 100 2.92969 100H97.0703C98.6883 100 100 98.6883 100 97.0703V30.4688C100 29.4191 99.4385 28.4498 98.5281 27.9275ZM5.85938 5.85938H27.3438V9.76562H5.85938V5.85938ZM94.1406 94.1406H5.85938V15.625H27.3438V50C27.3438 52.2609 29.8035 53.6686 31.7523 52.5289L60.7422 35.5758V50C60.7422 52.2609 63.202 53.6686 65.1508 52.5289L94.1406 35.5758V94.1406Z" fill="white"/>
</svg>
