<svg width="80" height="80" viewBox="0 0 80 80" fill="none" xmlns="http://www.w3.org/2000/svg">
<g clip-path="url(#clip0_2684_1372)">
<path d="M9.89125 30.625H7.1875C5.89312 30.625 4.84375 31.6744 4.84375 32.9688V40C4.84375 41.0464 5.53734 41.9661 6.54359 42.2536C6.70797 42.3006 7.77625 42.6023 9.53125 43.033V54.0625C9.53125 55.3569 10.5806 56.4062 11.875 56.4062H15.1975C15.7433 58.3211 16.515 60.1673 17.505 61.9261L15.1406 64.2905C14.2253 65.2058 14.2253 66.6897 15.1406 67.605L21.7698 74.2342C22.685 75.1495 24.1691 75.1495 25.0844 74.2342L27.4487 71.8698C29.2075 72.8598 31.0537 73.6316 32.9686 74.1775V77.6562C32.9686 78.9506 34.018 80 35.3123 80H44.6873C45.9817 80 47.0311 78.9506 47.0311 77.6562V74.1775C48.9459 73.6317 50.792 72.86 52.5509 71.87L54.9153 74.2344C55.8305 75.1497 57.3144 75.1497 58.2298 74.2344L64.8592 67.6052C65.7739 66.6903 65.7744 65.2058 64.8592 64.2906L62.4948 61.9263C63.4848 60.1675 64.2566 58.3213 64.8023 56.4064H68.125C69.4194 56.4064 70.4688 55.357 70.4688 54.0627V43.0331C72.2237 42.6025 73.2919 42.3006 73.4564 42.2538C74.4627 41.9661 75.1562 41.0464 75.1562 40V32.9688C75.1562 31.6744 74.1069 30.625 72.8125 30.625H70.1087C68.5988 20.8459 62.4933 12.5691 54.1512 8.17094L55.1255 5.99219C55.3813 5.42031 55.3973 4.76984 55.1703 4.18594C54.9431 3.60203 54.4919 3.13344 53.9169 2.88453C49.4945 0.970469 44.8122 0 40 0C35.1878 0 30.5055 0.970469 26.0831 2.88437C25.5081 3.13328 25.0569 3.60187 24.8297 4.18578C24.6027 4.76969 24.6188 5.42016 24.8745 5.99203L25.8488 8.17078C17.5042 12.5705 11.4009 20.8489 9.89125 30.625ZM65.7812 51.7188H62.9637C61.8498 51.7188 60.8898 52.5028 60.6672 53.5942C60.1336 56.2116 59.0948 58.6978 57.5795 60.9839C56.9636 61.9131 57.0875 63.1478 57.8758 63.9361L59.8875 65.9478L56.5728 69.2625L54.5611 67.2508C53.7728 66.4623 52.5381 66.3386 51.6089 66.9545C49.3228 68.4698 46.8366 69.5086 44.2194 70.0422C43.128 70.2647 42.3439 71.2247 42.3439 72.3387V75.3125H37.6564V72.3387C37.6564 71.2248 36.8723 70.2648 35.7809 70.0422C33.1636 69.5086 30.6773 68.4698 28.3912 66.9545C27.462 66.3386 26.2273 66.4625 25.4391 67.2508L23.4273 69.2625L20.1127 65.9478L22.1244 63.9361C22.9127 63.1478 23.0366 61.9133 22.4206 60.9839C20.9053 58.6978 19.8666 56.2116 19.333 53.5942C19.1105 52.5028 18.1505 51.7188 17.0364 51.7188H14.2188V44.0972C16.9648 44.6736 20.3 45.2939 23.9814 45.8153C23.7244 46.9759 23.5938 48.1655 23.5938 49.375C23.5938 58.4214 30.9536 65.7812 40 65.7812C49.0464 65.7812 56.4062 58.4214 56.4062 49.375C56.4062 48.1655 56.2756 46.9759 56.0186 45.8153C59.7 45.2939 63.0352 44.6736 65.7812 44.0972V51.7188ZM28.2812 49.375C28.2812 48.358 28.41 47.3617 28.6631 46.3964C32.2959 46.7816 36.1394 47.0312 40 47.0312C43.8606 47.0312 47.7041 46.7816 51.3369 46.3964C51.59 47.3617 51.7188 48.358 51.7188 49.375C51.7188 55.8367 46.4617 61.0938 40 61.0938C33.5383 61.0938 28.2812 55.8367 28.2812 49.375ZM70.4688 35.3125V38.1958C65.9048 39.353 52.8644 42.3438 40 42.3438C27.1356 42.3438 14.095 39.353 9.53125 38.1958V35.3125H70.4688ZM27.7684 12.4641L33.173 24.5506C33.7014 25.7323 35.0881 26.2617 36.2692 25.7334C37.4509 25.205 37.9805 23.8188 37.452 22.6372L30.1592 6.3275C33.3261 5.23828 36.6264 4.6875 40 4.6875C43.3736 4.6875 46.6739 5.23828 49.8408 6.3275L42.548 22.637C42.0195 23.8188 42.5492 25.205 43.7308 25.7333C44.9148 26.2627 46.2998 25.7297 46.827 24.5505L52.2316 12.4639C59.0295 16.1678 63.9291 22.9591 65.352 30.6248H14.6478C16.0708 22.9591 20.9705 16.168 27.7684 12.4641Z" fill="#E8112B"/>
</g>
<defs>
<clipPath id="clip0_2684_1372">
<rect width="80" height="80" fill="white"/>
</clipPath>
</defs>
</svg>
