<svg width="232" height="232" viewBox="0 0 232 232" fill="none" xmlns="http://www.w3.org/2000/svg">
<path d="M231.994 72.7531C232.003 69.1516 228.8 66.0138 225.202 66.0804H189.858V6.79792C189.925 3.15119 186.71 -0.0677892 183.062 0.00108541H142.281C140.317 0.00108541 138.449 0.850237 137.159 2.33013L43.8154 109.344C42.746 110.574 42.1411 112.182 42.1406 113.812V131.52L1.79959 175.284C0.652287 176.528 0.00115039 178.2 0.000244141 179.891V225.203C0.000244141 228.957 3.04341 232 6.79708 232H131.852C133.8 232.009 135.697 231.128 136.981 229.671L230.324 122.657C231.404 121.419 231.999 119.832 231.999 118.189V72.8772C231.999 72.8355 231.995 72.7943 231.994 72.7531ZM128.768 173.094H104.667L186.152 79.6736H210.254L128.768 173.094ZM96.5153 116.36L176.265 24.9305V70.3293L96.5153 161.759V116.36ZM145.371 13.5948H168.114L86.6282 107.015H63.8855L145.371 13.5948ZM42.1406 151.577V173.094H22.3065L42.1406 151.577ZM13.5939 186.688H48.9375C52.6911 186.688 55.7343 183.644 55.7343 179.891V120.609H82.9216V179.891C82.8541 183.54 86.0722 186.757 89.7212 186.688H125.062V218.406H13.5939V186.688ZM218.405 115.642L138.656 207.071V182.439L218.405 91.0084V115.642Z" fill="white"/>
</svg>
