<svg width="60" height="60" viewBox="0 0 60 60" fill="none" xmlns="http://www.w3.org/2000/svg">
<g clip-path="url(#clip0_2801_3271)">
<path d="M28.9518 46.1588C29.2884 46.3271 29.6459 46.4068 29.9982 46.4068C30.8579 46.4068 31.6857 45.932 32.0963 45.1107L39.1276 31.0482C39.4909 30.3216 39.4521 29.4588 39.025 28.7679C38.598 28.0769 37.8436 27.6562 37.0312 27.6562H26.761L32.0963 16.9856C32.6751 15.8278 32.2059 14.42 31.0482 13.8411C29.8904 13.2622 28.4826 13.7315 27.9037 14.8892L20.8725 28.9517C20.5092 29.6783 20.548 30.5411 20.975 31.2321C21.402 31.923 22.1564 32.3437 22.9687 32.3437H33.2389L27.9036 43.0143C27.3248 44.172 27.794 45.5799 28.9518 46.1588Z" fill="#FFDD02"/>
<path d="M56.8682 23.0021C55.5921 23.2193 54.7338 24.43 54.9512 25.7061C55.191 27.1138 55.3125 28.5585 55.3125 30C55.3125 43.9574 43.9574 55.3125 30 55.3125C22.5529 55.3125 15.4889 51.9803 10.722 46.4063H15C16.2945 46.4063 17.3438 45.357 17.3438 44.0625C17.3438 42.7681 16.2945 41.7188 15 41.7188H6.21094C4.94121 41.7188 3.90984 42.7292 3.87082 43.9894C3.87082 43.9905 3.8707 43.9914 3.8707 43.9925C3.87 44.0159 3.86719 44.0389 3.86719 44.0625V53.4375C3.86719 54.732 4.91648 55.7813 6.21094 55.7813C7.50539 55.7813 8.55469 54.732 8.55469 53.4375V50.9805C10.4456 52.9128 12.5929 54.5935 14.9412 55.9574C19.4946 58.6021 24.7018 60 30 60C38.0217 60 45.5584 56.8797 51.2216 51.2139C56.8825 45.5505 60 38.0165 60 30C60 28.2956 59.856 26.586 59.5721 24.919C59.3549 23.643 58.1442 22.7846 56.8682 23.0021Z" fill="#52C459"/>
<path d="M2.73551 37.0316C2.86617 37.0316 2.99871 37.0206 3.13184 36.998C4.40789 36.7807 5.26617 35.57 5.04879 34.294C4.80902 32.8862 4.6875 31.4415 4.6875 30C4.6875 16.0426 16.0426 4.6875 30 4.6875C37.4471 4.6875 44.5111 8.01973 49.278 13.5938H44.4141C43.1196 13.5938 42.0703 14.643 42.0703 15.9375C42.0703 17.232 43.1196 18.2812 44.4141 18.2812H53.7891C55.0588 18.2812 56.0902 17.2709 56.1292 16.0106C56.1293 16.0096 56.1293 16.0085 56.1293 16.0076C56.13 15.9841 56.1328 15.9612 56.1328 15.9375V6.5625C56.1328 5.26805 55.0835 4.21875 53.7891 4.21875C52.4946 4.21875 51.4453 5.26805 51.4453 6.5625V9.01957C49.5544 7.08727 47.4072 5.40656 45.0588 4.04262C40.5054 1.39793 35.2982 0 30 0C21.9783 0 14.4416 3.12035 8.7784 8.78613C3.11754 14.4497 0 21.9836 0 30C0 31.7045 0.144023 33.414 0.427852 35.081C0.6225 36.2239 1.61391 37.0316 2.73551 37.0316Z" fill="#52C459"/>
</g>
<defs>
<clipPath id="clip0_2801_3271">
<rect width="60" height="60" fill="white"/>
</clipPath>
</defs>
</svg>
