<svg width="60" height="60" viewBox="0 0 60 60" fill="none" xmlns="http://www.w3.org/2000/svg">
<path d="M11.25 48.2812V11.7188C11.25 6.54105 15.4473 2.34375 20.625 2.34375H13.5938C8.41605 2.34375 4.21875 6.54105 4.21875 11.7188V48.2812C4.21875 53.4589 8.41605 57.6562 13.5938 57.6562H20.625C15.4473 57.6562 11.25 53.4589 11.25 48.2812Z" fill="#181818" fill-opacity="0.1"/>
<path d="M37.0312 60H13.5938C7.13191 60 1.875 54.743 1.875 48.2812V11.7188C1.875 5.25703 7.13191 0 13.5938 0H28.6366C29.9311 0 30.9804 1.0493 30.9804 2.34375C30.9804 3.6382 29.9311 4.6875 28.6366 4.6875H13.5938C9.71672 4.6875 6.5625 7.84172 6.5625 11.7188V48.2812C6.5625 52.1583 9.71672 55.3125 13.5938 55.3125H37.0312C40.9083 55.3125 44.0625 52.1583 44.0625 48.2812V35.1562C44.0625 33.8618 45.1118 32.8125 46.4062 32.8125C47.7007 32.8125 48.75 33.8618 48.75 35.1562V48.2812C48.75 54.743 43.4931 60 37.0312 60Z" fill="#52C459"/>
<path d="M22.9688 18.75H13.5938C12.2993 18.75 11.25 17.7007 11.25 16.4062C11.25 15.1118 12.2993 14.0625 13.5938 14.0625H22.9688C24.2632 14.0625 25.3125 15.1118 25.3125 16.4062C25.3125 17.7007 24.2632 18.75 22.9688 18.75Z" fill="#52C459"/>
<path d="M22.9688 28.125H13.5938C12.2993 28.125 11.25 27.0757 11.25 25.7812C11.25 24.4868 12.2993 23.4375 13.5938 23.4375H22.9688C24.2632 23.4375 25.3125 24.4868 25.3125 25.7812C25.3125 27.0757 24.2632 28.125 22.9688 28.125Z" fill="#52C459"/>
<path d="M27.6563 50.625C27.0565 50.625 26.4567 50.3962 25.9989 49.9385L21.3114 45.251C20.3962 44.3357 20.3962 42.8517 21.3114 41.9365C22.2268 41.0212 23.7108 41.0212 24.6261 41.9365L27.6563 44.9667L35.3739 37.249C36.2893 36.3337 37.7733 36.3337 38.6886 37.249C39.6038 38.1644 39.6038 39.6483 38.6886 40.5635L29.3136 49.9385C28.856 50.3962 28.2561 50.625 27.6563 50.625Z" fill="#52C459"/>
<path d="M46.4062 28.125C46.0496 28.125 45.6929 28.0437 45.3649 27.8809C42.1482 26.2856 39.4495 23.8206 37.5607 20.752C35.6811 17.6985 34.6875 14.1858 34.6875 10.5938V7.03125C34.6875 6.45223 34.9018 5.89371 35.2893 5.4634C35.49 5.24027 40.2768 0 46.4062 0C52.5357 0 57.3225 5.24027 57.5232 5.4634C57.9107 5.89371 58.125 6.45223 58.125 7.03125V10.5938C58.125 14.1857 57.1314 17.6984 55.2517 20.752C53.3629 23.8206 50.6643 26.2856 47.4475 27.8809C47.1196 28.0437 46.7629 28.125 46.4062 28.125ZM39.375 8.01094V10.5938C39.375 15.7111 42.0998 20.5007 46.4062 23.1091C50.7127 20.5005 53.4375 15.7111 53.4375 10.5938V8.00918C52.2471 6.91324 49.4539 4.6875 46.4062 4.6875C43.3698 4.6875 40.5655 6.91863 39.375 8.01094Z" fill="#52C459"/>
</svg>
