<svg width="50" height="50" viewBox="0 0 50 50" fill="none" xmlns="http://www.w3.org/2000/svg">
<g clip-path="url(#clip0_2677_984)">
<path d="M45.5078 39.3484V31.9336C45.5078 31.1246 44.852 30.4688 44.043 30.4688H35.2539C34.4449 30.4688 33.7891 31.1246 33.7891 31.9336V39.2578H30.8594V31.9336C30.8594 31.1246 30.2035 30.4688 29.3945 30.4688H20.6055C19.7965 30.4688 19.1406 31.1246 19.1406 31.9336V39.2578H16.2109V31.9336C16.2109 31.1246 15.5551 30.4688 14.7461 30.4688H5.95703C5.14805 30.4688 4.49219 31.1246 4.49219 31.9336V39.3484C1.99541 39.8091 0.0976562 42.0009 0.0976562 44.6289C0.0976562 47.5905 2.50713 50 5.46875 50H44.5312C47.4929 50 49.9023 47.5905 49.9023 44.6289C49.9023 42.0009 48.0046 39.8091 45.5078 39.3484ZM20.2183 42.1875C19.8425 42.9206 19.6289 43.75 19.6289 44.6289C19.6289 45.5078 19.8425 46.3372 20.2183 47.0703H10.2505C10.6263 46.3372 10.8398 45.5078 10.8398 44.6289C10.8398 43.75 10.6263 42.9206 10.2505 42.1875H20.2183ZM22.5586 44.6289C22.5586 43.2827 23.6538 42.1875 25 42.1875C26.3462 42.1875 27.4414 43.2827 27.4414 44.6289C27.4414 45.9751 26.3462 47.0703 25 47.0703C23.6538 47.0703 22.5586 45.9751 22.5586 44.6289ZM29.7817 42.1875H39.7495C39.3737 42.9206 39.1602 43.75 39.1602 44.6289C39.1602 45.5078 39.3737 46.3372 39.7495 47.0703H29.7817C30.1575 46.3372 30.3711 45.5078 30.3711 44.6289C30.3711 43.75 30.1575 42.9206 29.7817 42.1875ZM36.7188 33.3984H42.5781V39.2578H36.7188V33.3984ZM22.0703 33.3984H27.9297V39.2578H22.0703V33.3984ZM7.42188 33.3984H13.2812V39.2578H7.42188V33.3984ZM3.02734 44.6289C3.02734 43.2827 4.12256 42.1875 5.46875 42.1875C6.81494 42.1875 7.91016 43.2827 7.91016 44.6289C7.91016 45.9751 6.81494 47.0703 5.46875 47.0703C4.12256 47.0703 3.02734 45.9751 3.02734 44.6289ZM44.5312 47.0703C43.1851 47.0703 42.0898 45.9751 42.0898 44.6289C42.0898 43.2827 43.1851 42.1875 44.5312 42.1875C45.8774 42.1875 46.9727 43.2827 46.9727 44.6289C46.9727 45.9751 45.8774 47.0703 44.5312 47.0703Z" fill="white"/>
<path d="M25 17.4729C27.4231 17.4729 29.3945 15.5015 29.3945 13.0784C29.3945 10.6552 27.4231 8.68384 25 8.68384C22.5769 8.68384 20.6055 10.6552 20.6055 13.0784C20.6055 15.5015 22.5769 17.4729 25 17.4729ZM25 11.6135C25.8077 11.6135 26.4648 12.2707 26.4648 13.0784C26.4648 13.8861 25.8077 14.5432 25 14.5432C24.1923 14.5432 23.5352 13.8861 23.5352 13.0784C23.5352 12.2707 24.1923 11.6135 25 11.6135Z" fill="white"/>
<path d="M3.93076 28.4142C4.50283 27.8422 4.50283 26.9147 3.93076 26.3426C2.59814 25.01 2.59814 22.8415 3.93076 21.5088C4.57637 20.8633 5.43467 20.5078 6.34766 20.5078C7.26064 20.5078 8.11895 20.8633 8.76455 21.5088C10.0972 22.8415 10.0972 25.01 8.76455 26.3426C8.19248 26.9146 8.19248 27.8421 8.76455 28.4142C9.05059 28.7002 9.42549 28.8433 9.80029 28.8433C10.1751 28.8433 10.5501 28.7002 10.836 28.4142C12.0351 27.2154 12.6953 25.6212 12.6953 23.9257C12.6953 22.2302 12.0351 20.6361 10.8361 19.4373C9.99062 18.5916 8.94814 18.0156 7.8125 17.7485V14.5431H11.8164V16.008C11.8164 16.8169 12.4723 17.4728 13.2812 17.4728H15.7432C15.9788 17.9708 16.2533 18.4471 16.5651 18.899L15.3349 21.0298C14.9303 21.7305 15.1703 22.6264 15.871 23.0308L20.9453 25.9605C21.2816 26.1547 21.6815 26.2072 22.0569 26.1069C22.4321 26.0063 22.7521 25.7608 22.9463 25.4244L24.1745 23.297C24.7251 23.3438 25.263 23.3443 25.825 23.2964L27.0535 25.4244C27.2478 25.7608 27.5678 26.0063 27.9429 26.1069C28.0676 26.1403 28.195 26.1568 28.3221 26.1568C28.577 26.1568 28.8299 26.0902 29.0545 25.9605L34.1288 23.0308C34.8295 22.6263 35.0695 21.7305 34.6649 21.0298L33.4347 18.8991C33.7465 18.4471 34.0209 17.9709 34.2566 17.4729H36.7188C37.5277 17.4729 38.1836 16.817 38.1836 16.0081V14.5432H42.1875V17.7486C41.0519 18.0156 40.0094 18.5917 39.1639 19.4374C37.9649 20.6361 37.3047 22.2302 37.3047 23.9257C37.3047 25.6212 37.9649 27.2154 39.1639 28.4142C39.7358 28.9862 40.6634 28.9862 41.2355 28.4142C41.8075 27.8422 41.8075 26.9147 41.2355 26.3426C39.9028 25.01 39.9028 22.8415 41.2355 21.5088C41.8811 20.8633 42.7394 20.5078 43.6523 20.5078C44.5653 20.5078 45.4236 20.8633 46.0692 21.5088C47.4019 22.8415 47.4019 25.01 46.0692 26.3426C45.4972 26.9146 45.4972 27.8421 46.0692 28.4142C46.3553 28.7002 46.7302 28.8433 47.105 28.8433C47.4798 28.8433 47.8548 28.7002 48.1407 28.4142C49.3397 27.2154 50 25.6212 50 23.9257C50 22.2302 49.3397 20.6361 48.1408 19.4373C47.2953 18.5916 46.2528 18.0156 45.1172 17.7485V13.0783C45.1172 12.2693 44.4613 11.6134 43.6523 11.6134H38.1836V10.1486C38.1836 9.3396 37.5277 8.68374 36.7188 8.68374H34.2568C34.0211 8.18559 33.7467 7.70942 33.4349 7.25757L34.6651 5.1269C35.0697 4.42622 34.8297 3.53032 34.129 3.12593L29.0547 0.196239C28.7183 0.00200054 28.3183 -0.0505385 27.9431 0.0498521C27.5679 0.150438 27.2479 0.395946 27.0537 0.732372L25.8252 2.8603C25.2629 2.81235 24.725 2.81274 24.1747 2.85972L22.9464 0.732372C22.7521 0.395946 22.4321 0.150438 22.057 0.0498521C21.6819 -0.0505385 21.2819 0.00190288 20.9454 0.196239L15.8711 3.12593C15.1704 3.53042 14.9304 4.42622 15.335 5.1269L16.5652 7.25776C16.2534 7.70962 15.9789 8.18589 15.7433 8.68384H13.2812C12.4723 8.68384 11.8164 9.3397 11.8164 10.1487V11.6135H6.34766C5.53867 11.6135 4.88281 12.2694 4.88281 13.0784V17.7486C3.74717 18.0156 2.70469 18.5917 1.85918 19.4374C0.660254 20.6361 0 22.2302 0 23.9257C0 25.6212 0.660254 27.2154 1.85918 28.4142C2.43125 28.9862 3.35879 28.9862 3.93076 28.4142ZM14.7461 11.6135H16.7217C17.3422 11.6135 17.8955 11.2225 18.1025 10.6375C18.4049 9.78374 18.8534 9.00552 19.4359 8.32456C19.8395 7.85268 19.9018 7.17768 19.5913 6.63999L18.6045 4.93061L21.1416 3.46577L22.1282 5.17466C22.4384 5.71186 23.0537 5.99507 23.6628 5.88276C24.6003 5.70962 25.4001 5.70962 26.3372 5.88276C26.9473 5.99507 27.5618 5.71177 27.8719 5.17466L28.8584 3.46577L31.3955 4.93061L30.4087 6.63999C30.0981 7.17778 30.1605 7.85278 30.5642 8.32466C31.1464 9.00522 31.595 9.78345 31.8975 10.6377C32.1046 11.2226 32.6578 11.6135 33.2783 11.6135H35.2539V14.5432H33.2783C32.6578 14.5432 32.1046 14.9341 31.8975 15.5191C31.5949 16.3733 31.1464 17.1516 30.5642 17.8322C30.1605 18.3041 30.0982 18.979 30.4087 19.5168L31.3955 21.2262L28.8584 22.6911L27.8718 20.9822C27.6069 20.5235 27.12 20.2497 26.6036 20.2497C26.5153 20.2497 26.4263 20.2577 26.3371 20.2741C25.4009 20.447 24.5995 20.447 23.6627 20.2741C23.0536 20.1619 22.4383 20.4451 22.1281 20.9822L21.1415 22.6911L18.6044 21.2262L19.5912 19.5168C19.9017 18.9791 19.8394 18.3041 19.4358 17.8323C18.8533 17.1513 18.4047 16.3731 18.1024 15.5192C17.8954 14.9342 17.3422 14.5432 16.7216 14.5432H14.7461V11.6135Z" fill="white"/>
</g>
<defs>
<clipPath id="clip0_2677_984">
<rect width="50" height="50" fill="white"/>
</clipPath>
</defs>
</svg>
