<svg width="50" height="50" viewBox="0 0 50 50" fill="none" xmlns="http://www.w3.org/2000/svg">
<g clip-path="url(#clip0_2925_4142)">
<path d="M48.5352 29.4922H47.8752L46.0824 15.1504C45.9908 14.4173 45.3677 13.8672 44.6289 13.8672H39.7461C39.0073 13.8672 38.3842 14.4173 38.2926 15.1504L36.4998 29.4922H34.2033L32.4105 15.1504C32.3189 14.4173 31.6958 13.8672 30.957 13.8672H26.0742C25.3354 13.8672 24.7123 14.4173 24.6207 15.1504L22.8279 29.4922H20.7031V19.2383C20.7031 18.4293 20.0473 17.7734 19.2383 17.7734H1.46484C0.655859 17.7734 0 18.4293 0 19.2383V48.5352C0 49.3441 0.655859 50 1.46484 50H48.5352C49.3441 50 50 49.3441 50 48.5352V30.957C50 30.148 49.3441 29.4922 48.5352 29.4922ZM41.0393 16.7969H43.3358L44.9228 29.4922H39.4523L41.0393 16.7969ZM27.3674 16.7969H29.664L31.2509 29.4922H25.7805L27.3674 16.7969ZM2.92969 20.7031H17.7734V30.957V47.0703H14.7461V40.7227C14.7461 39.9137 14.0902 39.2578 13.2812 39.2578H7.42188C6.61289 39.2578 5.95703 39.9137 5.95703 40.7227V47.0703H2.92969V20.7031ZM8.88672 47.0703V42.1875H11.8164V47.0703H8.88672ZM28.5156 47.0703V44.1406H39.2578V47.0703H28.5156ZM47.0703 47.0703H42.1875V42.6758C42.1875 41.8668 41.5316 41.2109 40.7227 41.2109H27.0508C26.2418 41.2109 25.5859 41.8668 25.5859 42.6758V47.0703H20.7031V32.4219H47.0703V47.0703Z" fill="white"/>
<path d="M34.8633 35.3516H32.9102C32.1012 35.3516 31.4453 36.0074 31.4453 36.8164C31.4453 37.6254 32.1012 38.2812 32.9102 38.2812H34.8633C35.6723 38.2812 36.3281 37.6254 36.3281 36.8164C36.3281 36.0074 35.6723 35.3516 34.8633 35.3516Z" fill="white"/>
<path d="M42.6758 35.3516H40.7227C39.9137 35.3516 39.2578 36.0074 39.2578 36.8164C39.2578 37.6254 39.9137 38.2812 40.7227 38.2812H42.6758C43.4848 38.2812 44.1406 37.6254 44.1406 36.8164C44.1406 36.0074 43.4848 35.3516 42.6758 35.3516Z" fill="white"/>
<path d="M19.2383 5.85938H39.2578C40.0655 5.85938 40.7227 6.5165 40.7227 7.32422V10.2539C40.7227 11.0629 41.3785 11.7188 42.1875 11.7188C42.9965 11.7188 43.6523 11.0629 43.6523 10.2539V7.32422C43.6523 4.90107 41.681 2.92969 39.2578 2.92969H19.2383C18.4306 2.92969 17.7734 2.27256 17.7734 1.46484C17.7734 0.655859 17.1176 0 16.3086 0C15.4996 0 14.8438 0.655859 14.8438 1.46484C14.8438 3.88799 16.8151 5.85938 19.2383 5.85938Z" fill="white"/>
<path d="M13.3789 11.7188H28.5156C29.3246 11.7188 29.9805 11.0629 29.9805 10.2539C29.9805 9.44492 29.3246 8.78906 28.5156 8.78906H13.3789C12.5712 8.78906 11.9141 8.13193 11.9141 7.32422C11.9141 6.51523 11.2582 5.85938 10.4492 5.85938C9.64023 5.85938 8.98438 6.51523 8.98438 7.32422C8.98438 9.74736 10.9558 11.7188 13.3789 11.7188Z" fill="white"/>
<path d="M13.2812 36.3281C14.0902 36.3281 14.7461 35.6723 14.7461 34.8633V32.9102C14.7461 32.1012 14.0902 31.4453 13.2812 31.4453C12.4723 31.4453 11.8164 32.1012 11.8164 32.9102V34.8633C11.8164 35.6723 12.4723 36.3281 13.2812 36.3281Z" fill="white"/>
<path d="M7.42188 36.3281C8.23086 36.3281 8.88672 35.6723 8.88672 34.8633V32.9102C8.88672 32.1012 8.23086 31.4453 7.42188 31.4453C6.61289 31.4453 5.95703 32.1012 5.95703 32.9102V34.8633C5.95703 35.6723 6.61289 36.3281 7.42188 36.3281Z" fill="white"/>
<path d="M13.2812 28.5156C14.0902 28.5156 14.7461 27.8598 14.7461 27.0508V25.0977C14.7461 24.2887 14.0902 23.6328 13.2812 23.6328C12.4723 23.6328 11.8164 24.2887 11.8164 25.0977V27.0508C11.8164 27.8598 12.4723 28.5156 13.2812 28.5156Z" fill="white"/>
<path d="M7.42188 28.5156C8.23086 28.5156 8.88672 27.8598 8.88672 27.0508V25.0977C8.88672 24.2887 8.23086 23.6328 7.42188 23.6328C6.61289 23.6328 5.95703 24.2887 5.95703 25.0977V27.0508C5.95703 27.8598 6.61289 28.5156 7.42188 28.5156Z" fill="white"/>
<path d="M27.0508 35.3516H25.0977C24.2887 35.3516 23.6328 36.0074 23.6328 36.8164C23.6328 37.6254 24.2887 38.2812 25.0977 38.2812H27.0508C27.8598 38.2812 28.5156 37.6254 28.5156 36.8164C28.5156 36.0074 27.8598 35.3516 27.0508 35.3516Z" fill="white"/>
</g>
<defs>
<clipPath id="clip0_2925_4142">
<rect width="50" height="50" fill="white"/>
</clipPath>
</defs>
</svg>
