<svg width="80" height="80" viewBox="0 0 80 80" fill="none" xmlns="http://www.w3.org/2000/svg">
<g clip-path="url(#clip0_2801_3405)">
<path d="M53.125 67.5C54.8509 67.5 56.25 66.1009 56.25 64.375C56.25 62.6491 54.8509 61.25 53.125 61.25C51.3991 61.25 50 62.6491 50 64.375C50 66.1009 51.3991 67.5 53.125 67.5Z" fill="#52C459"/>
<path d="M40.625 67.5C42.3509 67.5 43.75 66.1009 43.75 64.375C43.75 62.6491 42.3509 61.25 40.625 61.25C38.8991 61.25 37.5 62.6491 37.5 64.375C37.5 66.1009 38.8991 67.5 40.625 67.5Z" fill="#52C459"/>
<path d="M65.625 67.5C67.3509 67.5 68.75 66.1009 68.75 64.375C68.75 62.6491 67.3509 61.25 65.625 61.25C63.8991 61.25 62.5 62.6491 62.5 64.375C62.5 66.1009 63.8991 67.5 65.625 67.5Z" fill="#52C459"/>
<path d="M61.25 37.1857V40.625C61.25 42.3509 62.6491 43.75 64.375 43.75C66.1009 43.75 67.5 42.3509 67.5 40.625V37.1857C74.6233 35.734 80 29.4206 80 21.875C80 17.1986 77.6316 12.1631 72.9606 6.90824C69.6645 3.20012 66.3878 0.728242 66.25 0.624961C65.1389 -0.20832 63.6111 -0.20832 62.5 0.624961C62.3622 0.728398 59.0855 3.20012 55.7894 6.90824C51.1184 12.1631 48.75 17.1986 48.75 21.875C48.75 29.4206 54.1267 35.734 61.25 37.1857ZM64.3781 7.16184C68.0677 10.3936 73.75 16.5139 73.75 21.875C73.75 25.9489 71.1372 29.4225 67.5 30.7125V21.875C67.5 20.149 66.1009 18.75 64.375 18.75C62.6491 18.75 61.25 20.149 61.25 21.875V30.7125C57.6128 29.4225 55 25.9489 55 21.875C55 16.5351 60.6891 10.4011 64.3781 7.16184Z" fill="#FFDD02"/>
<path d="M78.6891 43.0805C77.8666 42.4939 76.8112 42.3413 75.8563 42.6706L61.875 47.4919V45.625C61.875 44.6148 61.3867 43.6669 60.5641 43.0805C59.7416 42.4939 58.6864 42.3413 57.7313 42.6706L43.75 47.4919V8.125C43.75 6.39906 42.3509 5 40.625 5H28.125C26.3991 5 25 6.39906 25 8.125V48.75H18.75V8.125C18.75 6.39906 17.3509 5 15.625 5H3.125C1.39906 5 0 6.39906 0 8.125V76.875C0 78.6009 1.39906 80 3.125 80H76.875C78.6009 80 80 78.6009 80 76.875V45.625C80 44.6148 79.5117 43.6669 78.6891 43.0805ZM37.5 30H31.25V23.75H37.5V30ZM31.25 36.25H37.5V48.75H31.25V36.25ZM37.5 11.25V17.5H31.25V11.25H37.5ZM6.25 48.75V36.25H12.5V48.75H6.25ZM12.5 30H6.25V23.75H12.5V30ZM12.5 11.25V17.5H6.25V11.25H12.5ZM25 73.75H18.75V67.5H25V73.75ZM73.75 73.75H31.25V64.375C31.25 62.6491 29.8509 61.25 28.125 61.25H15.625C13.8991 61.25 12.5 62.6491 12.5 64.375V73.75H6.25V55H40.5523C40.9386 55.0086 41.3342 54.9459 41.7127 54.8055L55.625 50.0081V51.875C55.625 52.8852 56.1133 53.8331 56.9359 54.4195C57.7586 55.0061 58.8137 55.1586 59.7687 54.8294L73.75 50.0081V73.75Z" fill="#52C459"/>
</g>
<defs>
<clipPath id="clip0_2801_3405">
<rect width="80" height="80" fill="white"/>
</clipPath>
</defs>
</svg>
