<svg width="40" height="40" viewBox="0 0 40 40" fill="none" xmlns="http://www.w3.org/2000/svg">
<g clip-path="url(#clip0_2927_998)">
<path d="M36.9885 37.5961H35.9775V11.7285C35.9775 11.0647 35.4391 10.5264 34.7754 10.5264H28.5489C27.8851 10.5264 27.3468 11.0647 27.3468 11.7285V37.5961H24.3869V20.7308C24.3869 20.0671 23.8489 19.5287 23.1851 19.5287H16.9583C16.2946 19.5287 15.7565 20.0671 15.7565 20.7308V37.5961H12.7963V18.5229C12.7963 17.8591 12.258 17.3211 11.5942 17.3211H5.36774C4.70367 17.3211 4.16565 17.8591 4.16565 18.5229V37.5961H3.15521C2.49115 37.5961 1.95312 38.1341 1.95312 38.7979C1.95312 39.4619 2.49115 39.9999 3.15521 39.9999H36.9885C37.6523 39.9999 38.1906 39.4619 38.1906 38.7979C38.1906 38.1341 37.6523 37.5961 36.9885 37.5961ZM29.7507 12.9302H33.5736V37.5961H29.7507V12.9302ZM18.1604 21.9326H21.983V37.5961H18.1604V21.9326ZM6.56952 19.725H10.3922V37.5961H6.56952V19.725Z" fill="#E8112B"/>
<path d="M10.341 13.7708C10.3764 13.7708 10.4124 13.7692 10.4481 13.7662C10.5568 13.7564 13.1496 13.5165 16.8303 12.2125C20.2098 11.015 25.201 8.64746 29.7884 4.16779C29.8112 4.14551 29.832 4.12201 29.8527 4.09821V5.94788C29.8527 6.61194 30.3908 7.14996 31.0545 7.14996C31.7183 7.14996 32.2566 6.61194 32.2566 5.94788V1.20209C32.2566 0.538025 31.7183 0 31.0545 0H26.3084C25.6447 0 25.1067 0.538025 25.1067 1.20209C25.1067 1.86584 25.6447 2.40387 26.3084 2.40387H28.159C28.1422 2.41852 28.1248 2.43225 28.1087 2.44812C26.8718 3.65601 25.6029 4.69818 24.3486 5.59784C21.2947 7.78717 18.3253 9.12598 16.1064 9.91852C15.645 10.0833 15.2022 10.2295 14.7801 10.3601C12.0808 11.1954 10.2562 11.3696 10.2354 11.3718C9.57504 11.4307 9.08706 12.0139 9.14535 12.6746C9.20058 13.2999 9.72518 13.7708 10.341 13.7708Z" fill="#E8112B"/>
</g>
<defs>
<clipPath id="clip0_2927_998">
<rect width="40" height="40" fill="white"/>
</clipPath>
</defs>
</svg>
