<svg width="40" height="40" viewBox="0 0 40 40" fill="none" xmlns="http://www.w3.org/2000/svg">
<path d="M28.026 19.0786L21.2068 24.4366C20.4962 24.9947 19.5037 24.9948 18.7933 24.4366L11.974 19.0786C11.4652 18.6788 10.7285 18.7671 10.3286 19.276C9.92872 19.7849 10.0172 20.5216 10.526 20.9214L17.3454 26.2795C18.1268 26.8935 19.0634 27.2005 20 27.2005C20.9365 27.2005 21.8732 26.8935 22.6547 26.2795L29.474 20.9214C29.9829 20.5216 30.0713 19.7849 29.6714 19.276C29.2717 18.7671 28.5349 18.6788 28.026 19.0786Z" fill="white"/>
<path d="M38.8281 35.0781H38.0469V20.625C38.0469 19.9778 37.5222 19.4531 36.875 19.4531C36.2278 19.4531 35.7031 19.9778 35.7031 20.625V24.4531H29.375C29.1273 24.4531 28.886 24.5316 28.6858 24.6773L21.8108 29.6773C21.5075 29.8977 21.3281 30.2501 21.3281 30.625V35.0781H18.6719V30.625C18.6719 30.269 18.5101 29.9323 18.232 29.7099L11.982 24.7099C11.7743 24.5437 11.5161 24.4531 11.25 24.4531H4.29688V20.625C4.29688 19.9778 3.77219 19.4531 3.125 19.4531C2.47781 19.4531 1.95312 19.9778 1.95312 20.625V35.0781H1.17188C0.524687 35.0781 0 35.6028 0 36.25C0 36.8972 0.524687 37.4219 1.17188 37.4219H38.8281C39.4753 37.4219 40 36.8972 40 36.25C40 35.6028 39.4753 35.0781 38.8281 35.0781ZM23.6719 31.2217L29.7561 26.7969H35.7031V35.0781H23.6719V31.2217ZM4.29688 26.7969H10.8389L16.3281 31.1882V35.0781H4.29688V26.7969Z" fill="white"/>
<path d="M1.17188 4.92188H11.9531V8.75C11.9531 9.39719 12.4778 9.92188 13.125 9.92188H13.8281V13.125C13.8281 13.7722 14.3528 14.2969 15 14.2969H16.3281V19.375C16.3281 19.7438 16.5018 20.0912 16.7969 20.3125L19.2969 22.1875C19.5052 22.3438 19.7526 22.4219 20 22.4219C20.2474 22.4219 20.4948 22.3438 20.7031 22.1875L23.2031 20.3125C23.4982 20.0912 23.6719 19.7438 23.6719 19.375V14.2969H25C25.6472 14.2969 26.1719 13.7722 26.1719 13.125V9.92188H26.875C27.5222 9.92188 28.0469 9.39719 28.0469 8.75V4.92188H38.8281C39.4753 4.92188 40 4.39719 40 3.75C40 3.10281 39.4753 2.57812 38.8281 2.57812H1.17188C0.524687 2.57812 0 3.10281 0 3.75C0 4.39719 0.524687 4.92188 1.17188 4.92188ZM21.3281 18.7891L20 19.7852L18.6719 18.7891V14.2969H21.3281V18.7891ZM23.8281 11.9531H16.1719V9.92188H23.8281V11.9531ZM25.7031 7.57812H14.2969V4.92188H25.7031V7.57812Z" fill="white"/>
</svg>
