<svg width="30" height="30" viewBox="0 0 30 30" fill="none" xmlns="http://www.w3.org/2000/svg">
<g clip-path="url(#clip0_2786_1391)">
<path d="M29.344 16.8951L27.5451 16.0576C27.5806 15.682 27.5976 15.3366 27.5976 15C27.5976 14.6634 27.5806 14.318 27.5451 13.9424L29.344 13.1049C29.7467 12.9174 29.9462 12.459 29.809 12.0365L28.7226 8.69297C28.5854 8.27045 28.1546 8.01668 27.7185 8.10188L25.7776 8.48033C25.4135 7.88209 24.9953 7.31021 24.5274 6.77086L25.4906 5.03555C25.7062 4.64713 25.5981 4.15898 25.2388 3.89789L22.3946 1.83146C22.0352 1.57049 21.5376 1.61848 21.2348 1.9435L19.8805 3.39756C19.2281 3.12229 18.5557 2.90314 17.8709 2.74271L17.6301 0.772207C17.5763 0.331406 17.2019 0 16.7577 0H13.2421C12.7979 0 12.4236 0.331406 12.3697 0.772324L12.1289 2.74283C11.444 2.90326 10.7717 3.12234 10.1194 3.39768L8.76502 1.94355C8.46227 1.61848 7.96457 1.57055 7.60528 1.83152L4.76102 3.89789C4.40166 4.15898 4.29362 4.64713 4.50918 5.03555L5.4724 6.77086C5.00448 7.31021 4.58623 7.88209 4.22219 8.48033L2.28133 8.10188C1.84516 8.01668 1.41449 8.27051 1.27721 8.69297L0.190881 12.0365C0.0535958 12.459 0.253107 12.9174 0.655822 13.1049L2.45477 13.9424C2.41926 14.318 2.40227 14.6634 2.40227 15C2.40227 15.3366 2.41926 15.682 2.45477 16.0576L0.655822 16.8951C0.253107 17.0826 0.0536543 17.541 0.190881 17.9635L1.27727 21.307C1.41449 21.7295 1.84516 21.9831 2.28139 21.8981L4.22225 21.5197C4.58635 22.1179 5.00459 22.6897 5.47252 23.2291L4.50924 24.9645C4.29367 25.3529 4.40172 25.841 4.76108 26.1021L7.60528 28.1685C7.96469 28.4296 8.46227 28.3815 8.76502 28.0565L10.1194 26.6024C10.7717 26.8777 11.4441 27.0969 12.1289 27.2573L12.3697 29.2278C12.4236 29.6686 12.7979 30 13.2421 30H16.7577C17.2019 30 17.5763 29.6686 17.6301 29.2277L17.8709 27.2572C18.5558 27.0967 19.2281 26.8777 19.8805 26.6023L21.2348 28.0564C21.5376 28.3815 22.0352 28.4293 22.3946 28.1684L25.2388 26.102C25.5981 25.8409 25.7062 25.3528 25.4906 24.9643L24.5274 23.229C24.9953 22.6897 25.4136 22.1178 25.7776 21.5196L27.7185 21.898C28.1546 21.9831 28.5853 21.7294 28.7226 21.3069L29.809 17.9634C29.9462 17.541 29.7467 17.0826 29.344 16.8951ZM27.2912 20.0239L25.5046 19.6755C25.5006 19.6747 25.4965 19.6739 25.4925 19.6731L25.4835 19.6714C25.056 19.5899 24.6419 19.833 24.4953 20.2279C24.0467 21.0397 23.4829 21.802 22.8181 22.4953C22.5609 22.7635 22.5003 23.1645 22.6664 23.4968C22.6721 23.5081 22.6779 23.5193 22.684 23.5303L23.5761 25.1373L21.9908 26.289L20.7407 24.9469C20.4783 24.6613 20.0596 24.5815 19.7105 24.7504C18.8204 25.1814 17.8815 25.4872 16.9201 25.6593C16.5404 25.7272 16.2493 26.0349 16.2025 26.4178L15.9797 28.2422H14.0202L13.7973 26.4178C13.7505 26.0349 13.4594 25.7272 13.0797 25.6593C12.1183 25.4872 11.1795 25.1814 10.2894 24.7504C9.94481 24.5837 9.53043 24.6606 9.26705 24.9384C9.26524 24.9403 9.26342 24.9422 9.26166 24.9441L8.00899 26.289L6.42373 25.1373L7.3058 23.5482C7.50022 23.2171 7.45973 22.7852 7.18176 22.4953C6.5169 21.802 5.95305 21.0397 5.50451 20.2279C5.35797 19.8331 4.94383 19.5901 4.51633 19.6714L4.50731 19.6731C4.50326 19.6739 4.49922 19.6747 4.49518 19.6755L2.7086 20.0239L2.10309 18.1603L3.76932 17.3845C3.77319 17.3827 3.77969 17.3796 3.78356 17.3777C4.12592 17.2122 4.32303 16.8452 4.27188 16.4683C4.19559 15.9063 4.16008 15.4397 4.16008 15C4.16008 14.5603 4.19559 14.0937 4.27188 13.5316C4.32303 13.1548 4.12334 12.7865 3.78092 12.621C3.77705 12.6191 3.77319 12.6173 3.76932 12.6154L2.10309 11.8397L2.7086 9.97605L4.49518 10.3245C4.49916 10.3253 4.50326 10.326 4.50731 10.3269L4.51633 10.3286C4.9436 10.4101 5.35791 10.1669 5.50451 9.77203C5.95305 8.96027 6.5169 8.19791 7.1817 7.50463C7.43887 7.23644 7.49951 6.83543 7.3334 6.50314C7.32772 6.49184 7.32186 6.48064 7.31576 6.46963L6.42373 4.8627L8.00899 3.71098L9.25908 5.05312C9.52141 5.33871 9.94012 5.41846 10.2893 5.24959C11.1794 4.81863 12.1183 4.51283 13.0797 4.34074C13.4594 4.27277 13.7505 3.9651 13.7973 3.58219L14.0202 1.75781H15.9797L16.2026 3.58219C16.2493 3.9651 16.5404 4.27277 16.9202 4.34074C17.8816 4.51283 18.8204 4.81857 19.7105 5.24959C20.055 5.41635 20.4694 5.33936 20.7328 5.06162C20.7346 5.05975 20.7364 5.05781 20.7382 5.05588L21.9909 3.71098L23.5761 4.8627L22.6841 6.46969C22.678 6.4807 22.672 6.49201 22.6664 6.50332C22.5003 6.83561 22.561 7.2365 22.8181 7.50469C23.483 8.19797 24.0468 8.96033 24.4953 9.77209C24.6419 10.167 25.0563 10.4103 25.4835 10.3286L25.4925 10.3269C25.4966 10.3261 25.5006 10.3253 25.5047 10.3245L27.2913 9.97611L27.8968 11.8397L26.2306 12.6155C25.88 12.7773 25.6761 13.149 25.728 13.5316C25.8043 14.0937 25.8398 14.5603 25.8398 15C25.8398 15.4397 25.8043 15.9063 25.728 16.4684C25.6768 16.8452 25.8765 17.2135 26.2189 17.379C26.2228 17.3809 26.2267 17.3827 26.2305 17.3846L27.8968 18.1603L27.2912 20.0239Z" fill="white"/>
<path d="M15 6.50391C10.3153 6.50391 6.50391 10.3153 6.50391 15C6.50391 19.6847 10.3153 23.4961 15 23.4961C19.6847 23.4961 23.4961 19.6847 23.4961 15C23.4961 10.3153 19.6847 6.50391 15 6.50391ZM16.3802 17.9079C16.074 18.0536 15.8789 18.3625 15.8789 18.7015V21.681C15.5912 21.7187 15.2978 21.7383 15 21.7383C14.7022 21.7383 14.4088 21.7186 14.1211 21.681V18.7015C14.1211 18.3625 13.926 18.0536 13.6198 17.9079C12.5006 17.3753 11.7773 16.2339 11.7773 15C11.7773 14.1828 12.0946 13.4061 12.634 12.82L12.9644 14.5765C13.0425 14.992 13.4054 15.293 13.8281 15.293H16.1719C16.5946 15.293 16.9575 14.992 17.0357 14.5765L17.366 12.82C17.9054 13.4061 18.2227 14.1828 18.2227 15C18.2227 16.2339 17.4994 17.3753 16.3802 17.9079ZM17.6367 21.2007V19.22C19.0766 18.3173 19.9805 16.7169 19.9805 15.0001C19.9805 13.0917 18.8637 11.3272 17.1354 10.5049C16.8892 10.3877 16.6025 10.3915 16.3594 10.5151C16.1164 10.6386 15.9444 10.8681 15.894 11.1361L15.4429 13.5352H14.5571L14.106 11.1361C14.0556 10.8681 13.8837 10.6387 13.6406 10.5151C13.3975 10.3915 13.1108 10.3877 12.8646 10.5049C11.1363 11.3271 10.0195 13.0916 10.0195 15C10.0195 16.7169 10.9234 18.3173 12.3633 19.22V21.2007C9.95443 20.1725 8.26172 17.7803 8.26172 15C8.26172 11.2845 11.2845 8.26172 15 8.26172C18.7155 8.26172 21.7383 11.2845 21.7383 15C21.7383 17.7803 20.0456 20.1725 17.6367 21.2007Z" fill="white"/>
</g>
<defs>
<clipPath id="clip0_2786_1391">
<rect width="30" height="30" fill="white"/>
</clipPath>
</defs>
</svg>
