<svg width="80" height="80" viewBox="0 0 80 80" fill="none" xmlns="http://www.w3.org/2000/svg">
<g clip-path="url(#clip0_2684_1368)">
<path d="M4.26391 31.485C4.54711 31.6004 4.84679 31.6578 5.14648 31.6578C5.45653 31.6578 5.76659 31.5961 6.05773 31.4728L13.0682 28.5144C14.2603 28.0109 14.8193 26.6364 14.3158 25.4438C13.8129 24.2511 12.4377 23.6927 11.2451 24.1956L9.53064 24.9195C14.8511 12.8076 26.8897 4.84376 40.2845 4.84376C55.5994 4.84376 68.9734 15.1996 72.8077 30.0269C73.0811 31.0834 74.0321 31.7847 75.0751 31.7847C75.2692 31.7847 75.467 31.7603 75.6635 31.7096C76.9166 31.3855 77.6698 30.1068 77.3457 28.8538C72.9768 11.9568 57.7363 0.15625 40.2845 0.15625C24.9347 0.15625 11.1493 9.33473 5.13854 23.2672L4.34753 21.3922C3.84398 20.2002 2.46947 19.6411 1.27684 20.1441C0.0842143 20.6476 -0.474258 22.0227 0.0286724 23.2147L2.98705 30.2253C3.22875 30.7978 3.68773 31.2513 4.26391 31.485Z" fill="#E8112B"/>
<path d="M79.6589 56.6211L76.7006 49.6112C76.4589 49.0381 75.9993 48.5852 75.4237 48.3508C74.8475 48.1171 74.2024 48.1213 73.6299 48.363L66.6194 51.322C65.4273 51.825 64.8683 53.2001 65.3718 54.3927C65.8747 55.5853 67.2499 56.1438 68.4425 55.6403L70.4048 54.812C65.2174 67.2486 53.0103 75.4676 39.4038 75.4676C24.0882 75.4676 10.7141 65.1117 6.87992 50.2844C6.55582 49.0308 5.27713 48.2788 4.02408 48.6017C2.77102 48.9258 2.01785 50.2045 2.34195 51.4575C6.71085 68.3545 21.9513 80.1551 39.4038 80.1551C54.8396 80.1551 68.6939 70.8728 74.6498 56.8079L75.3401 58.4436C75.7179 59.339 76.5864 59.8767 77.5007 59.8767C77.8041 59.8767 78.1135 59.8175 78.4108 59.6918C79.6034 59.1883 80.1619 57.8137 79.6589 56.6211Z" fill="#E8112B"/>
<path d="M35.144 65.954C35.4034 66.048 35.672 66.0925 35.9375 66.0925C36.6229 66.0925 37.29 65.7916 37.7441 65.2423L57.3779 41.4929C57.9566 40.7928 58.0786 39.8224 57.6923 39.0008C57.3053 38.1799 56.4795 37.6556 55.5719 37.6556H47.0313V16.4062C47.0313 15.4174 46.4111 14.5355 45.481 14.2004C44.5514 13.8659 43.5114 14.151 42.8809 14.9127L23.2471 38.6621C22.6684 39.3616 22.5464 40.3326 22.9327 41.1536C23.3197 41.9751 24.1461 42.4994 25.0537 42.4994H33.5944V63.7488C33.5937 64.7376 34.2139 65.6195 35.144 65.954ZM30.0317 37.8119L42.3438 22.9193V39.9994C42.3438 41.2939 43.3929 42.3431 44.6875 42.3431H50.5927L38.2812 57.2357V40.1556C38.2812 38.8611 37.2314 37.8119 35.9375 37.8119H30.0317Z" fill="#E8112B"/>
</g>
<defs>
<clipPath id="clip0_2684_1368">
<rect width="80" height="80" fill="white"/>
</clipPath>
</defs>
</svg>
