<svg width="80" height="80" viewBox="0 0 80 80" fill="none" xmlns="http://www.w3.org/2000/svg">
<g clip-path="url(#clip0_2684_1357)">
<path d="M63.4244 80.0001H16.5756C12.7058 80.0001 9.5575 76.8518 9.5575 72.9819V26.133C9.5575 22.2632 12.7058 19.1147 16.5756 19.1147H63.4244C67.2942 19.1147 70.4425 22.263 70.4425 26.133V72.9819C70.4425 76.8518 67.2942 80.0001 63.4244 80.0001ZM16.5756 23.8024C15.2905 23.8024 14.245 24.8479 14.245 26.1332V72.9821C14.245 74.2672 15.2905 75.3127 16.5756 75.3127H63.4244C64.7095 75.3127 65.755 74.2672 65.755 72.9821V26.133C65.755 24.8479 64.7095 23.8022 63.4244 23.8022H16.5756V23.8024Z" fill="#E8112B"/>
<path d="M51.3149 45.37H28.6852C27.3908 45.37 26.3414 44.3207 26.3414 43.0263V30.0524C26.3414 28.758 27.3908 27.7086 28.6852 27.7086H51.3149C52.6092 27.7086 53.6586 28.758 53.6586 30.0524V43.0263C53.6586 44.3207 52.6092 45.37 51.3149 45.37ZM31.0289 40.6825H48.9711V32.3961H31.0289V40.6825Z" fill="#E8112B"/>
<path d="M60.2862 72.2782C61.6308 72.2782 62.7207 71.1883 62.7207 69.8437C62.7207 68.4992 61.6308 67.4092 60.2862 67.4092C58.9417 67.4092 57.8517 68.4992 57.8517 69.8437C57.8517 71.1883 58.9417 72.2782 60.2862 72.2782Z" fill="#E8112B"/>
<path d="M19.7138 72.2782C21.0583 72.2782 22.1483 71.1883 22.1483 69.8437C22.1483 68.4992 21.0583 67.4092 19.7138 67.4092C18.3692 67.4092 17.2792 68.4992 17.2792 69.8437C17.2792 71.1883 18.3692 72.2782 19.7138 72.2782Z" fill="#E8112B"/>
<path d="M60.2862 31.7056C61.6308 31.7056 62.7207 30.6156 62.7207 29.2711C62.7207 27.9265 61.6308 26.8365 60.2862 26.8365C58.9417 26.8365 57.8517 27.9265 57.8517 29.2711C57.8517 30.6156 58.9417 31.7056 60.2862 31.7056Z" fill="#E8112B"/>
<path d="M19.7138 31.7056C21.0583 31.7056 22.1483 30.6156 22.1483 29.2711C22.1483 27.9265 21.0583 26.8365 19.7138 26.8365C18.3692 26.8365 17.2792 27.9265 17.2792 29.2711C17.2792 30.6156 18.3692 31.7056 19.7138 31.7056Z" fill="#E8112B"/>
<path d="M44.5931 14.5633C44.1061 14.5633 43.6148 14.412 43.1942 14.0984C41.4812 12.8215 37.5039 12.8097 35.857 14.0768C34.8312 14.8661 33.3595 14.6743 32.5703 13.6484C31.7809 12.6225 31.9728 11.1509 32.9987 10.3617C36.2934 7.82685 42.6098 7.81622 45.9958 10.3401C47.0336 11.1137 47.2478 12.5822 46.4742 13.62C46.014 14.2373 45.3081 14.5633 44.5931 14.5633Z" fill="#E8112B"/>
<path d="M48.7667 7.19344C48.2881 7.19344 47.8052 7.04734 47.3886 6.74391C43.6528 4.02219 35.2745 4.01141 31.6614 6.72391C30.6261 7.50094 29.157 7.29187 28.3799 6.25672C27.6027 5.22156 27.8119 3.75234 28.847 2.97531C31.3674 1.08312 35.2258 0 39.4406 0H39.5017C43.7047 0.0103125 47.5855 1.0875 50.1491 2.95516C51.1952 3.71734 51.4255 5.18344 50.6633 6.22969C50.2044 6.85922 49.4905 7.19344 48.7667 7.19344Z" fill="#E8112B"/>
</g>
<defs>
<clipPath id="clip0_2684_1357">
<rect width="80" height="80" fill="white"/>
</clipPath>
</defs>
</svg>
