<svg width="80" height="80" viewBox="0 0 80 80" fill="none" xmlns="http://www.w3.org/2000/svg">
<path d="M76.875 49.6868C72.9402 49.6868 70.9883 50.7712 69.4198 51.6426C68.1897 52.326 67.3608 52.7829 65.1964 52.8093C66.3497 50.4974 67.1717 48.0466 67.6455 45.5087C68.7522 45.9537 69.8733 46.1868 71.0038 46.1982C71.0334 46.1985 71.0633 46.1987 71.093 46.1987C73.8684 46.1987 76.587 44.8871 79.1748 42.2995C80.2725 41.2018 80.2725 39.4221 79.175 38.3245C78.0772 37.2268 76.2975 37.2268 75.2 38.3245C73.705 39.8195 72.3228 40.5773 71.0911 40.5773C71.0809 40.5773 71.0708 40.5773 71.0608 40.5771C70.1534 40.5679 69.163 40.1459 68.1056 39.3213C67.9137 33.8095 66.1289 28.6963 63.1972 24.4282C64.3394 23.9396 65.3423 23.2777 66.1966 22.4401C68.2741 20.4027 69.3273 17.4943 69.3273 13.7956C69.3273 12.2432 68.0689 10.9848 66.5166 10.9848C64.9642 10.9848 63.7058 12.2432 63.7058 13.7956C63.7058 17.4912 62.3264 19.3335 59.1534 19.7373C55.3297 16.1754 50.5163 13.6638 45.1758 12.6662C45.6348 11.5167 45.8748 10.3432 45.8864 9.15087C45.9148 6.24134 44.603 3.43993 41.9875 0.824463C40.8898 -0.273193 39.1102 -0.273193 38.0125 0.824463C36.9148 1.92212 36.9148 3.70181 38.0125 4.79946C40.6211 7.40806 40.9517 9.68259 39.0052 12.2065C33.4948 12.3992 28.3831 14.1838 24.1162 17.1146C23.6277 15.9724 22.9658 14.9695 22.1281 14.1154C20.0908 12.0377 17.1823 10.9845 13.4834 10.9845C11.9311 10.9845 10.6727 12.2429 10.6727 13.7952C10.6727 15.3476 11.9311 16.606 13.4834 16.606C17.1791 16.606 19.0214 17.9852 19.4252 21.1584C15.8677 24.9773 13.358 29.7837 12.358 35.1163C11.25 34.6704 10.1278 34.4368 8.99609 34.4254C6.18734 34.3962 3.44031 35.7088 0.825 38.3242C-0.272656 39.4218 -0.272656 41.2015 0.825 42.2991C1.92266 43.3968 3.70234 43.3968 4.8 42.2991C6.30719 40.792 7.69922 40.0412 8.93922 40.0465C9.84609 40.0557 10.8361 40.4774 11.893 41.3013C12.0322 45.341 13.0234 49.2406 14.8036 52.809C12.6392 52.7826 11.8102 52.3257 10.5802 51.6423C9.01172 50.7709 7.05984 49.6865 3.125 49.6865C1.39906 49.6865 0 51.0856 0 52.8115V76.874C0 78.5999 1.39906 79.999 3.125 79.999H76.875C78.6009 79.999 80 78.5999 80 76.874V52.8115C80 51.0859 78.6009 49.6868 76.875 49.6868ZM40 18.4368C52.0619 18.4368 61.875 28.2499 61.875 40.3118C61.875 44.1187 60.9059 47.7846 59.0545 51.0493C57.5333 50.3524 55.5764 49.6868 52.5 49.6868C48.6372 49.6868 46.5387 50.736 44.8525 51.5791C44.5117 51.7496 44.1933 51.9082 43.8739 52.0518L49.0452 41.7093C49.5295 40.7406 49.4778 39.5901 48.9083 38.6688C48.3389 37.7476 47.3331 37.1868 46.25 37.1868H38.8064L42.7952 29.2093C43.5669 27.6656 42.9412 25.7885 41.3977 25.0167C39.8539 24.2449 37.9769 24.8706 37.205 26.4142L30.955 38.9142C30.4706 39.8829 30.5223 41.0332 31.0917 41.9546C31.6612 42.8759 32.667 43.4366 33.75 43.4366H41.1936L36.7567 52.3102C36.2111 52.1098 35.7095 51.8601 35.1475 51.579C33.4613 50.7359 31.3627 49.6866 27.5 49.6866C24.4236 49.6866 22.4667 50.3523 20.9453 51.0491C19.0939 47.7845 18.125 44.1184 18.125 40.3116C18.125 28.2498 27.9381 18.4368 40 18.4368ZM73.75 73.7493H6.25V56.4473C6.68547 56.6285 7.08703 56.8516 7.54484 57.106C9.11328 57.9774 11.0652 59.0618 15 59.0618C18.8627 59.0618 20.9613 58.0126 22.6475 57.1695C24.0786 56.4538 25.1127 55.9368 27.5 55.9368C29.8873 55.9368 30.9212 56.4538 32.3525 57.1695C34.5336 58.2599 36.5273 59.0618 40 59.0618C43.8628 59.0618 45.9613 58.0126 47.6475 57.1695C49.0786 56.4538 50.1127 55.9368 52.5 55.9368C54.8873 55.9368 55.9212 56.4538 57.3525 57.1695C59.3989 58.1926 61.3591 59.0618 65 59.0618C68.9348 59.0618 70.8867 57.9774 72.4552 57.106C72.913 56.8516 73.3145 56.6285 73.75 56.4473V73.7493Z" fill="#52C459"/>
</svg>
