<svg width="40" height="40" viewBox="0 0 40 40" fill="none" xmlns="http://www.w3.org/2000/svg">
<g clip-path="url(#clip0_2786_1137)">
<path d="M39.2351 10.2292L33.6709 8.16844C33.6522 6.24586 32.0831 4.6875 30.1562 4.6875H29.7656V3.51562C29.7656 1.57711 28.1885 0 26.25 0H13.75C11.8115 0 10.2344 1.57711 10.2344 3.51562V4.6875H9.84375C7.91687 4.6875 6.34781 6.24586 6.32898 8.16844L0.764922 10.2292C0.305156 10.3995 0 10.8379 0 11.3281V20.7031C0 21.1934 0.305156 21.6318 0.764922 21.802L6.32812 23.8625V27.7344C6.32812 30.8051 8.21516 33.5212 11.0156 34.6281V38.8281C11.0156 39.4753 11.5403 40 12.1875 40H18.4375C19.0847 40 19.6094 39.4753 19.6094 38.8281V35.1562H26.25C30.3424 35.1562 33.6719 31.8268 33.6719 27.7344V23.8625L39.2351 21.802C39.6948 21.6317 40 21.1933 40 20.7031V11.3281C40 10.8379 39.6948 10.3995 39.2351 10.2292ZM2.34375 19.8875V12.1438L6.32812 10.668V21.3631L2.34375 19.8875ZM12.5781 3.51562C12.5781 2.86945 13.1038 2.34375 13.75 2.34375H26.25C26.8962 2.34375 27.4219 2.86945 27.4219 3.51562V4.6875H12.5781V3.51562ZM17.2656 37.6562H13.3594V30.8594C13.3594 30.644 13.5346 30.4688 13.75 30.4688H16.875C17.0904 30.4688 17.2656 30.644 17.2656 30.8594V37.6562ZM31.3281 27.7344C31.3281 30.5345 29.0501 32.8125 26.25 32.8125H19.6094V30.8594C19.6094 29.3516 18.3827 28.125 16.875 28.125H16.4844V26.1719C16.4844 25.5257 17.0101 25 17.6562 25H20.5991C20.8695 25.7316 21.3927 26.3492 22.1099 26.7467C22.6219 27.0305 23.1766 27.1718 23.73 27.1718C24.3402 27.1718 24.9487 26.9999 25.4961 26.6578L28.4336 24.8219C28.7763 24.6077 28.9844 24.2322 28.9844 23.8281C28.9844 23.4241 28.7763 23.0485 28.4336 22.8344L25.4961 20.9984C24.4524 20.3461 23.1866 20.3129 22.1099 20.9095C21.3927 21.307 20.8695 21.9247 20.5991 22.6562H17.6562C15.7177 22.6562 14.1406 24.2334 14.1406 26.1719V28.125H13.75C12.2423 28.125 11.0156 29.3516 11.0156 30.8594V32.0073C9.58562 31.0945 8.67188 29.5005 8.67188 27.7344V8.20312C8.67188 7.55695 9.19758 7.03125 9.84375 7.03125H30.1562C30.8024 7.03125 31.3281 7.55695 31.3281 8.20312V27.7344ZM22.7344 23.8281C22.7344 23.3001 23.0923 23.0448 23.2461 22.9595C23.3362 22.9095 23.5131 22.831 23.7344 22.831C23.8905 22.831 24.0687 22.8701 24.2539 22.9859L25.6014 23.8281L24.2539 24.6703C23.806 24.9502 23.3998 24.7821 23.2461 24.6968C23.0923 24.6115 22.7344 24.3562 22.7344 23.8281ZM37.6562 19.8875L33.6719 21.3632V10.6681L37.6562 12.1438V19.8875Z" fill="white"/>
<path d="M27.8125 9.375H12.1875C11.5403 9.375 11.0156 9.89969 11.0156 10.5469V16.7969C11.0156 17.4441 11.5403 17.9688 12.1875 17.9688H27.8125C28.4597 17.9688 28.9844 17.4441 28.9844 16.7969V10.5469C28.9844 9.89969 28.4597 9.375 27.8125 9.375ZM26.6406 15.625H13.3594V11.7188H26.6406V15.625Z" fill="white"/>
</g>
<defs>
<clipPath id="clip0_2786_1137">
<rect width="40" height="40" fill="white"/>
</clipPath>
</defs>
</svg>
