<svg width="50" height="50" viewBox="0 0 50 50" fill="none" xmlns="http://www.w3.org/2000/svg">
<path d="M28.5754 12.3471C28.9502 12.3471 29.3252 12.2041 29.6112 11.9181C30.1831 11.3461 30.1832 10.4186 29.6113 9.84644C28.3799 8.61499 26.7423 7.93677 25.0001 7.93677C23.2579 7.93677 21.6203 8.61489 20.3889 9.84644C19.8169 10.4185 19.817 11.346 20.389 11.9181C20.9612 12.4901 21.8886 12.49 22.4607 11.918C23.1386 11.24 24.0406 10.8665 25.0001 10.8665C25.9597 10.8665 26.8616 11.2399 27.5396 11.918C27.8257 12.2041 28.2005 12.3471 28.5754 12.3471Z" fill="white"/>
<path d="M18.8866 7.56201C20.5191 5.92871 22.6904 5.0293 25.0004 5.0293C27.3105 5.0293 29.4818 5.92871 31.1143 7.56201C31.4003 7.84824 31.7753 7.99131 32.1502 7.99131C32.525 7.99131 32.8999 7.84834 33.1858 7.5624C33.758 6.99053 33.7582 6.06299 33.1862 5.49082C31.0003 3.30391 28.0933 2.09961 25.0004 2.09961C21.9076 2.09961 19.0005 3.30391 16.8146 5.49082C16.2426 6.06299 16.2428 6.99043 16.815 7.5624C17.3871 8.13428 18.3146 8.13398 18.8866 7.56201Z" fill="white"/>
<path d="M43.8965 33.3557V28.1738H44.6289C45.4379 28.1738 46.0938 27.518 46.0938 26.709V20.8496C46.0938 20.0406 45.4379 19.3848 44.6289 19.3848H27.9297C27.1207 19.3848 26.4648 20.0406 26.4648 20.8496V26.709C26.4648 27.518 27.1207 28.1738 27.9297 28.1738H28.6621V33.252H21.3379V28.1738H22.0703C22.8793 28.1738 23.5352 27.518 23.5352 26.709V20.8496C23.5352 20.0406 22.8793 19.3848 22.0703 19.3848H5.37109C4.56211 19.3848 3.90625 20.0406 3.90625 20.8496V26.709C3.90625 27.518 4.56211 28.1738 5.37109 28.1738H6.10352V33.3557C2.64414 33.9387 0 36.9536 0 40.5762C0 44.6147 3.28564 47.9004 7.32422 47.9004H42.6758C46.7144 47.9004 50 44.6147 50 40.5762C50 36.9536 47.3559 33.9387 43.8965 33.3557ZM29.3945 22.3145H43.1641V25.2441H29.3945V22.3145ZM31.5918 28.1738H40.9668V33.252H31.5918V28.1738ZM6.83594 22.3145H20.6055V25.2441H6.83594V22.3145ZM18.4082 28.1738V33.252H9.0332V28.1738H18.4082ZM42.6758 44.9707H7.32422C4.90107 44.9707 2.92969 42.9993 2.92969 40.5762C2.92969 38.153 4.90107 36.1816 7.32422 36.1816H42.6758C45.0989 36.1816 47.0703 38.153 47.0703 40.5762C47.0703 42.9993 45.0989 44.9707 42.6758 44.9707Z" fill="white"/>
<path d="M25 16.6992C25.809 16.6992 26.4648 16.0434 26.4648 15.2344C26.4648 14.4254 25.809 13.7695 25 13.7695C24.191 13.7695 23.5352 14.4254 23.5352 15.2344C23.5352 16.0434 24.191 16.6992 25 16.6992Z" fill="white"/>
<path d="M8.20312 42.0898C9.01214 42.0898 9.66797 41.434 9.66797 40.625C9.66797 39.816 9.01214 39.1602 8.20312 39.1602C7.39411 39.1602 6.73828 39.816 6.73828 40.625C6.73828 41.434 7.39411 42.0898 8.20312 42.0898Z" fill="white"/>
<path d="M14.9414 42.0898C15.7504 42.0898 16.4062 41.434 16.4062 40.625C16.4062 39.816 15.7504 39.1602 14.9414 39.1602C14.1324 39.1602 13.4766 39.816 13.4766 40.625C13.4766 41.434 14.1324 42.0898 14.9414 42.0898Z" fill="white"/>
<path d="M35.1562 42.0898C35.9653 42.0898 36.6211 41.434 36.6211 40.625C36.6211 39.816 35.9653 39.1602 35.1562 39.1602C34.3472 39.1602 33.6914 39.816 33.6914 40.625C33.6914 41.434 34.3472 42.0898 35.1562 42.0898Z" fill="white"/>
<path d="M28.418 42.0898C29.227 42.0898 29.8828 41.434 29.8828 40.625C29.8828 39.816 29.227 39.1602 28.418 39.1602C27.609 39.1602 26.9531 39.816 26.9531 40.625C26.9531 41.434 27.609 42.0898 28.418 42.0898Z" fill="white"/>
<path d="M41.8945 42.0898C42.7035 42.0898 43.3594 41.434 43.3594 40.625C43.3594 39.816 42.7035 39.1602 41.8945 39.1602C41.0855 39.1602 40.4297 39.816 40.4297 40.625C40.4297 41.434 41.0855 42.0898 41.8945 42.0898Z" fill="white"/>
<path d="M21.6797 42.0898C22.4887 42.0898 23.1445 41.434 23.1445 40.625C23.1445 39.816 22.4887 39.1602 21.6797 39.1602C20.8707 39.1602 20.2148 39.816 20.2148 40.625C20.2148 41.434 20.8707 42.0898 21.6797 42.0898Z" fill="white"/>
</svg>
