<svg width="30" height="30" viewBox="0 0 30 30" fill="none" xmlns="http://www.w3.org/2000/svg">
<g clip-path="url(#clip0_2786_1370)">
<path d="M25.6036 4.39348C22.7713 1.56029 19.0055 0 15 0C10.9945 0 7.22871 1.56029 4.39641 4.39348C1.56416 7.2266 0.00439453 10.9934 0.00439453 15C0.00439453 19.0066 1.56416 22.7734 4.39641 25.6065C7.22871 28.4397 10.9945 30 15 30C19.0055 30 22.7713 28.4397 25.6036 25.6065C28.4358 22.7734 29.9956 19.0066 29.9956 15C29.9956 10.9934 28.4358 7.2266 25.6036 4.39348ZM15 28.2422C14.0129 28.2422 12.9254 26.9095 12.0911 24.6774C11.7826 23.8519 11.5185 22.9371 11.3022 21.954C12.1656 21.5552 12.8265 20.7913 13.0863 19.8612H19.0714C18.8195 21.6521 18.4271 23.2908 17.9088 24.6774C17.0746 26.9095 15.9871 28.2422 15 28.2422ZM6.78393 18.1034H2.12666C1.8866 17.0988 1.76221 16.059 1.76221 15C1.76221 13.6052 1.97719 12.2437 2.38986 10.9523H9.05748C8.91633 12.2529 8.84297 13.6122 8.84297 15C8.84297 15.2998 8.8476 15.5977 8.85439 15.8945C7.85203 16.2463 7.07174 17.0729 6.78393 18.1034ZM9.93516 17.4681C10.7701 17.4681 11.4495 18.1474 11.4495 18.9824C11.4495 19.8174 10.7701 20.4967 9.93516 20.4967C9.10019 20.4967 8.42086 19.8173 8.42086 18.9824C8.42086 18.1474 9.10019 17.4681 9.93516 17.4681ZM13.0863 18.1034C12.7607 16.9374 11.8046 16.0321 10.6099 15.7806C10.6045 15.5215 10.6008 15.2616 10.6008 15C10.6008 13.6055 10.6775 12.2449 10.825 10.9523H16.7843C17.1189 12.1503 18.1192 13.0726 19.3599 13.2938C19.3856 13.8552 19.3991 14.4246 19.3991 15C19.3991 16.059 19.3547 17.0984 19.269 18.1034H13.0863ZM15 1.75781C15.9871 1.75781 17.0746 3.09047 17.9089 5.3226C18.1209 5.88967 18.3116 6.49922 18.4805 7.14387C17.6602 7.55297 17.0353 8.29623 16.7844 9.19453H11.0768C11.3246 7.77076 11.6654 6.46166 12.0912 5.3226C12.9254 3.09047 14.0129 1.75781 15 1.75781ZM19.9355 11.5877C19.1006 11.5877 18.4212 10.9084 18.4212 10.0734C18.4212 9.23836 19.1006 8.55908 19.9355 8.55908C20.7705 8.55908 21.4498 9.23836 21.4498 10.0734C21.4498 10.9084 20.7705 11.5877 19.9355 11.5877ZM21.1116 13.1261C22.068 12.7563 22.8081 11.95 23.0868 10.9523H27.6101C28.0228 12.2437 28.2378 13.6052 28.2378 15.0001C28.2378 16.0591 28.1134 17.0989 27.8733 18.1035H21.0322C21.1145 17.0943 21.157 16.0554 21.157 15.0001C21.157 14.3684 21.1414 13.743 21.1116 13.1261ZM26.9043 9.19447H23.0868C22.7254 7.90072 21.5876 6.92842 20.2093 6.81363C20.0184 6.06732 19.8002 5.36191 19.5554 4.70713C19.1826 3.70963 18.7573 2.86049 18.2906 2.16844C20.5675 2.74852 22.6556 3.93088 24.3605 5.63625C25.4148 6.69094 26.2685 7.89258 26.9043 9.19447ZM5.63953 5.63625C7.34438 3.93088 9.43248 2.74852 11.7094 2.16844C11.2427 2.86049 10.8174 3.70963 10.4446 4.70713C9.95221 6.02437 9.56566 7.54465 9.29555 9.19447H3.09568C3.73154 7.89258 4.5852 6.69094 5.63953 5.63625ZM2.67967 19.8612H6.78393C7.13684 21.1249 8.23043 22.0821 9.56549 22.233C9.80356 23.3365 10.0978 24.3651 10.4446 25.2928C10.8175 26.2903 11.2428 27.1395 11.7094 27.8315C9.43254 27.2514 7.34443 26.0691 5.63959 24.3637C4.33471 23.0585 3.33656 21.5285 2.67967 19.8612ZM24.3605 24.3638C22.6556 26.0691 20.5675 27.2515 18.2906 27.8316C18.7573 27.1395 19.1826 26.2904 19.5554 25.2929C20.1404 23.7278 20.5763 21.8764 20.8446 19.8613H27.3203C26.6634 21.5285 25.6653 23.0585 24.3605 24.3638Z" fill="white"/>
</g>
<defs>
<clipPath id="clip0_2786_1370">
<rect width="30" height="30" fill="white"/>
</clipPath>
</defs>
</svg>
