<svg width="40" height="40" viewBox="0 0 40 40" fill="none" xmlns="http://www.w3.org/2000/svg">
<g clip-path="url(#clip0_2927_963)">
<path d="M33.0623 14.2063L28.3635 11.6364L25.7937 6.93773C25.5882 6.56188 25.194 6.32812 24.7656 6.32812C24.3373 6.32812 23.943 6.56188 23.7375 6.93773L21.1677 11.6365L16.4689 14.2063C16.0931 14.4118 15.8594 14.806 15.8594 15.2344C15.8594 15.6627 16.0931 16.057 16.469 16.2625L21.1677 18.8323L23.7376 23.5311C23.9431 23.907 24.3373 24.1407 24.7657 24.1407C25.1941 24.1407 25.5883 23.907 25.7938 23.5311L28.3637 18.8323L33.0624 16.2625C33.4383 16.057 33.672 15.6627 33.672 15.2344C33.672 14.806 33.4381 14.4118 33.0623 14.2063ZM26.9379 16.9408C26.7412 17.0483 26.5795 17.2099 26.472 17.4066L24.7656 20.5266L23.0592 17.4066C22.9517 17.2098 22.7901 17.0482 22.5934 16.9407L19.4734 15.2344L22.5934 13.528C22.7902 13.4205 22.9518 13.2588 23.0593 13.0621L24.7656 9.94219L26.472 13.0622C26.5795 13.2589 26.7412 13.4205 26.9379 13.528L30.0578 15.2344L26.9379 16.9408Z" fill="#E8112B"/>
<path d="M1.17188 4.45312H2.10938V5.39062C2.10938 6.03781 2.63406 6.5625 3.28125 6.5625C3.92844 6.5625 4.45312 6.03781 4.45312 5.39062V4.45312H5.39062C6.03781 4.45312 6.5625 3.92844 6.5625 3.28125C6.5625 2.63406 6.03781 2.10938 5.39062 2.10938H4.45312V1.17188C4.45312 0.524687 3.92844 0 3.28125 0C2.63406 0 2.10938 0.524687 2.10938 1.17188V2.10938H1.17188C0.524687 2.10938 0 2.63406 0 3.28125C0 3.92844 0.524687 4.45312 1.17188 4.45312Z" fill="#E8112B"/>
<path d="M35.7031 35.5469H34.7656V34.6094C34.7656 33.9622 34.2409 33.4375 33.5938 33.4375C32.9466 33.4375 32.4219 33.9622 32.4219 34.6094V35.5469H31.4844C30.8372 35.5469 30.3125 36.0716 30.3125 36.7188C30.3125 37.3659 30.8372 37.8906 31.4844 37.8906H32.4219V38.8281C32.4219 39.4753 32.9466 40 33.5938 40C34.2409 40 34.7656 39.4753 34.7656 38.8281V37.8906H35.7031C36.3503 37.8906 36.875 37.3659 36.875 36.7188C36.875 36.0716 36.3503 35.5469 35.7031 35.5469Z" fill="#E8112B"/>
<path d="M40 15.2344C40 6.83414 33.1659 0 24.7656 0C16.3654 0 9.53125 6.83414 9.53125 15.2344C9.53125 17.8402 10.1894 20.295 11.3474 22.4422L1.11281 32.6768C0.395234 33.3944 0 34.3484 0 35.3633C0 36.378 0.395234 37.3321 1.11281 38.0498L1.95023 38.8872C2.66781 39.6048 3.62187 40 4.63672 40C5.65156 40 6.60563 39.6048 7.3232 38.8872L17.5578 28.6526C19.7049 29.8106 22.1598 30.4688 24.7656 30.4688C33.1659 30.4688 40 23.6346 40 15.2344ZM5.66578 37.2299C5.39102 37.5048 5.02547 37.6562 4.63672 37.6562C4.24797 37.6562 3.8825 37.5048 3.6075 37.2299L2.77008 36.3925C2.49516 36.1176 2.34375 35.7521 2.34375 35.3633C2.34375 34.9745 2.49516 34.609 2.77008 34.3341L8.88437 28.2197L11.7802 31.1155L5.66578 37.2299ZM13.4375 29.4584L10.5416 26.5625L12.648 24.4561C13.4795 25.5459 14.4541 26.5205 15.5439 27.352L13.4375 29.4584ZM24.7656 28.125C17.6577 28.125 11.875 22.3423 11.875 15.2344C11.875 8.12648 17.6577 2.34375 24.7656 2.34375C31.8735 2.34375 37.6562 8.12648 37.6562 15.2344C37.6562 22.3423 31.8735 28.125 24.7656 28.125Z" fill="#E8112B"/>
<path d="M6.17188 11.875C6.81908 11.875 7.34375 11.3503 7.34375 10.7031C7.34375 10.0559 6.81908 9.53125 6.17188 9.53125C5.52467 9.53125 5 10.0559 5 10.7031C5 11.3503 5.52467 11.875 6.17188 11.875Z" fill="#E8112B"/>
<path d="M2.89062 18.5156C3.53783 18.5156 4.0625 17.991 4.0625 17.3438C4.0625 16.6965 3.53783 16.1719 2.89062 16.1719C2.24342 16.1719 1.71875 16.6965 1.71875 17.3438C1.71875 17.991 2.24342 18.5156 2.89062 18.5156Z" fill="#E8112B"/>
<path d="M23.2812 36.4062C23.9285 36.4062 24.4531 35.8816 24.4531 35.2344C24.4531 34.5872 23.9285 34.0625 23.2812 34.0625C22.634 34.0625 22.1094 34.5872 22.1094 35.2344C22.1094 35.8816 22.634 36.4062 23.2812 36.4062Z" fill="#E8112B"/>
<path d="M38.8281 31.0156C39.4753 31.0156 40 30.491 40 29.8438C40 29.1965 39.4753 28.6719 38.8281 28.6719C38.1809 28.6719 37.6562 29.1965 37.6562 29.8438C37.6562 30.491 38.1809 31.0156 38.8281 31.0156Z" fill="#E8112B"/>
</g>
<defs>
<clipPath id="clip0_2927_963">
<rect width="40" height="40" fill="white"/>
</clipPath>
</defs>
</svg>
