<svg width="40" height="40" viewBox="0 0 40 40" fill="none" xmlns="http://www.w3.org/2000/svg">
<path d="M24.8366 6.97952C23.8845 6.80364 23.0101 7.41122 22.8288 8.34058C22.6476 9.26995 23.2571 10.1773 24.1833 10.3592C26.9718 10.9028 29.1249 13.0613 29.6707 15.8594V15.8614C29.8261 16.6669 30.5351 17.2525 31.3518 17.2525C31.4613 17.2525 31.5709 17.2425 31.6824 17.2225C32.6086 17.0366 33.2181 16.1312 33.0368 15.1999C32.2222 11.0207 29.0054 7.79296 24.8366 6.97952Z" fill="#E8112B"/>
<path d="M24.7121 0.0158595C24.266 -0.0480965 23.8178 0.0838129 23.4613 0.367618C23.0948 0.65542 22.8657 1.07113 22.8159 1.53682C22.7104 2.47817 23.3896 3.32958 24.3297 3.43551C30.813 4.15901 35.8523 9.20955 36.5813 15.7131C36.6789 16.5845 37.4099 17.242 38.2823 17.242C38.348 17.242 38.4117 17.238 38.4775 17.23C38.9336 17.1801 39.3399 16.9542 39.6268 16.5945C39.9116 16.2347 40.041 15.787 39.9893 15.3293C39.081 7.21492 32.8008 0.917241 24.7121 0.0158595Z" fill="#E8112B"/>
<path fill-rule="evenodd" clip-rule="evenodd" d="M18.0635 21.9448C26.0416 29.9207 27.8515 20.6934 32.9313 25.7696C37.8286 30.6655 40.6432 31.6464 34.4385 37.8494C33.6613 38.474 28.7232 45.9885 11.3692 28.6393C-5.98696 11.288 1.52317 6.34489 2.14794 5.5679C8.36773 -0.652308 9.33173 2.17877 14.229 7.07466C19.3087 12.153 10.0853 13.9688 18.0635 21.9448Z" fill="#E8112B"/>
</svg>
