<svg width="80" height="80" viewBox="0 0 80 80" fill="none" xmlns="http://www.w3.org/2000/svg">
<g clip-path="url(#clip0_2801_3398)">
<path d="M54.0653 17.6535C57.9775 20.9044 60.6351 25.5069 61.5489 30.613C61.8534 32.3146 63.4793 33.4424 65.1754 33.1386C66.8743 32.8346 68.0051 31.211 67.7012 29.5121C66.5282 22.9571 63.1042 17.0385 58.0598 12.8466C56.7329 11.7436 54.7623 11.9254 53.6592 13.2529C52.5561 14.5802 52.7379 16.5505 54.0653 17.6535Z" fill="#FFDD02"/>
<path d="M14.8246 33.1385C16.5199 33.4421 18.1466 32.3148 18.4512 30.6129C19.3649 25.5068 22.0224 20.9045 25.9347 17.6534C27.2621 16.5503 27.444 14.5801 26.341 13.2526C25.2379 11.9251 23.2677 11.7434 21.9404 12.8464C16.896 17.0382 13.4719 22.9568 12.299 29.5118C11.9947 31.2109 13.1257 32.8346 14.8246 33.1385Z" fill="#FFDD02"/>
<path d="M64.2134 37.8391C64.2052 37.8367 64.1971 37.8345 64.1891 37.8323L49.3754 33.7247C49.1713 30.7636 47.5887 28.1756 45.2635 26.6034L49.1132 11.7202C49.1154 11.7122 49.1173 11.7041 49.1195 11.6961C50.6173 5.70484 46.079 0 40.0254 0C33.9718 0 29.4335 5.70484 30.9315 11.6959C30.9337 11.7041 30.9356 11.712 30.9377 11.72L34.7874 26.6031C32.4621 28.1753 30.8796 30.7634 30.6756 33.7245L15.862 37.8322C15.8538 37.8344 15.8459 37.8366 15.8381 37.8389C9.90055 39.5361 7.22899 46.3198 10.2557 51.5625C13.2773 56.7961 20.4857 57.8892 24.9313 53.5903C24.9374 53.5844 24.9435 53.5786 24.9495 53.5727L35.9132 42.7978C36.2324 42.9544 36.5621 43.0925 36.9002 43.2125V73.75H21.2754C19.5495 73.75 18.1504 75.1491 18.1504 76.875C18.1504 78.6009 19.5495 80 21.2754 80H58.7754C60.5013 80 61.9004 78.6009 61.9004 76.875C61.9004 75.1491 60.5013 73.75 58.7754 73.75H43.1504V43.2125C43.4887 43.0925 43.8182 42.9544 44.1376 42.7978L55.1013 53.5727C55.1071 53.5784 55.1131 53.5842 55.119 53.5898C59.5476 57.8745 66.7662 56.8088 69.7949 51.5625C72.8216 46.3202 70.1506 39.537 64.2134 37.8391ZM36.9004 34.375C36.9004 32.6519 38.3023 31.25 40.0254 31.25C41.7485 31.25 43.1504 32.6519 43.1504 34.375C43.1504 36.0981 41.7485 37.5 40.0254 37.5C38.3023 37.5 36.9004 36.0981 36.9004 34.375ZM40.0254 6.25C42.0413 6.25 43.5584 8.14641 43.0585 10.1692L40.0254 21.8958L36.9921 10.1686C36.4935 8.15234 38.0032 6.25 40.0254 6.25ZM20.5791 49.1048C19.0788 50.5477 16.6776 50.1855 15.6684 48.4377C14.6604 46.6917 15.5443 44.4303 17.5457 43.8512L29.2182 40.6147L20.5791 49.1048ZM64.3823 48.4375C63.3893 50.1577 60.9835 50.5575 59.4721 49.1052L50.8327 40.6145L62.5049 43.8511C64.5082 44.4306 65.3895 46.6931 64.3823 48.4375Z" fill="#52C459"/>
</g>
<defs>
<clipPath id="clip0_2801_3398">
<rect width="80" height="80" fill="white"/>
</clipPath>
</defs>
</svg>
