<svg width="50" height="50" viewBox="0 0 50 50" fill="none" xmlns="http://www.w3.org/2000/svg">
<path d="M44.5312 7.91016H30.3711V1.46484C30.3711 0.655859 29.7152 0 28.9062 0H5.46875C4.65977 0 4.00391 0.655859 4.00391 1.46484V40.625C4.00391 41.434 4.65977 42.0898 5.46875 42.0898H19.6289V48.5352C19.6289 49.3441 20.2848 50 21.0938 50H44.5312C45.3402 50 45.9961 49.3441 45.9961 48.5352V9.375C45.9961 8.56602 45.3402 7.91016 44.5312 7.91016ZM6.93359 39.1602V2.92969H27.4414V39.1602H6.93359ZM43.0664 47.0703H22.5586V42.0898H28.9062C29.7152 42.0898 30.3711 41.434 30.3711 40.625V10.8398H43.0664V47.0703Z" fill="white"/>
<path d="M34.375 24.9023C34.75 24.9023 35.1249 24.7593 35.4108 24.4732L36.192 23.692C36.7641 23.12 36.7641 22.1925 36.192 21.6204C35.6201 21.0484 34.6925 21.0484 34.1205 21.6204L33.3392 22.4016C32.7671 22.9736 32.7671 23.9011 33.3392 24.4732C33.6252 24.7593 34.0001 24.9023 34.375 24.9023Z" fill="white"/>
<path d="M38.0268 28.3795C38.3127 28.6655 38.6876 28.8086 39.0625 28.8086C39.4375 28.8086 39.8124 28.6655 40.0983 28.3795C40.6704 27.8075 40.6704 26.88 40.0983 26.3079L39.317 25.5266C38.7451 24.9547 37.8175 24.9547 37.2455 25.5266C36.6734 26.0986 36.6734 27.0261 37.2455 27.5982L38.0268 28.3795Z" fill="white"/>
<path d="M34.375 17.0898C34.75 17.0898 35.1249 16.9468 35.4108 16.6607L36.192 15.8795C36.7641 15.3075 36.7641 14.38 36.192 13.8079C35.6201 13.2359 34.6925 13.2359 34.1205 13.8079L33.3392 14.5891C32.7671 15.1611 32.7671 16.0886 33.3392 16.6607C33.6252 16.9468 34.0001 17.0898 34.375 17.0898Z" fill="white"/>
<path d="M38.0268 20.567C38.3127 20.853 38.6876 20.9961 39.0625 20.9961C39.4375 20.9961 39.8124 20.853 40.0983 20.567C40.6704 19.995 40.6704 19.0675 40.0983 18.4954L39.317 17.7141C38.7451 17.1422 37.8175 17.1422 37.2455 17.7141C36.6734 18.2861 36.6734 19.2136 37.2455 19.7857L38.0268 20.567Z" fill="white"/>
<path d="M34.375 32.7148C34.75 32.7148 35.1249 32.5718 35.4108 32.2857L36.192 31.5045C36.7641 30.9325 36.7641 30.005 36.192 29.4329C35.6201 28.8609 34.6925 28.8609 34.1205 29.4329L33.3392 30.2141C32.7671 30.7861 32.7671 31.7136 33.3392 32.2857C33.6252 32.5718 34.0001 32.7148 34.375 32.7148Z" fill="white"/>
<path d="M38.0268 36.192C38.3127 36.478 38.6876 36.6211 39.0625 36.6211C39.4375 36.6211 39.8124 36.478 40.0983 36.192C40.6704 35.62 40.6704 34.6925 40.0983 34.1204L39.317 33.3391C38.7451 32.7672 37.8175 32.7672 37.2455 33.3391C36.6734 33.9111 36.6734 34.8386 37.2455 35.4107L38.0268 36.192Z" fill="white"/>
<path d="M34.375 40.5273C34.75 40.5273 35.1249 40.3843 35.4108 40.0982L36.192 39.317C36.7641 38.745 36.7641 37.8175 36.192 37.2454C35.6201 36.6734 34.6925 36.6734 34.1205 37.2454L33.3392 38.0266C32.7671 38.5986 32.7671 39.5261 33.3392 40.0982C33.6252 40.3843 34.0001 40.5273 34.375 40.5273Z" fill="white"/>
<path d="M38.0268 44.0045C38.3127 44.2905 38.6876 44.4336 39.0625 44.4336C39.4375 44.4336 39.8124 44.2905 40.0983 44.0045C40.6704 43.4325 40.6704 42.505 40.0983 41.9329L39.317 41.1516C38.7451 40.5797 37.8175 40.5797 37.2455 41.1516C36.6734 41.7236 36.6734 42.6511 37.2455 43.2232L38.0268 44.0045Z" fill="white"/>
<path d="M10.683 5.99547L9.90171 6.77672C9.32964 7.34869 9.32964 8.27623 9.90171 8.8483C10.1876 9.13424 10.5625 9.27731 10.9375 9.27731C11.3124 9.27731 11.6873 9.13424 11.9732 8.84821L12.7544 8.06696C13.3265 7.49498 13.3265 6.56744 12.7544 5.99537C12.1825 5.4234 11.2549 5.4234 10.683 5.99547Z" fill="white"/>
<path d="M15.8795 9.90164C15.3076 9.32966 14.38 9.32966 13.808 9.90164C13.2359 10.4736 13.2359 11.4011 13.808 11.9732L14.5892 12.7545C14.8752 13.0404 15.2501 13.1835 15.625 13.1835C16 13.1835 16.3749 13.0404 16.6608 12.7544C17.2329 12.1824 17.2329 11.2549 16.6608 10.6828L15.8795 9.90164Z" fill="white"/>
<path d="M18.4955 13.808L17.7142 14.5892C17.1421 15.1612 17.1421 16.0887 17.7142 16.6608C18.0001 16.9467 18.375 17.0898 18.75 17.0898C19.1249 17.0898 19.4998 16.9467 19.7857 16.6607L20.5669 15.8795C21.139 15.3075 21.139 14.3799 20.5669 13.8079C19.995 13.2359 19.0674 13.2359 18.4955 13.808Z" fill="white"/>
<path d="M23.692 17.7141C23.1201 17.1422 22.1925 17.1422 21.6205 17.7141C21.0484 18.2861 21.0484 19.2136 21.6205 19.7857L22.4017 20.567C22.6877 20.8529 23.0626 20.996 23.4375 20.996C23.8125 20.996 24.1874 20.8529 24.4733 20.5669C25.0454 19.9949 25.0454 19.0674 24.4733 18.4953L23.692 17.7141Z" fill="white"/>
<path d="M18.4955 5.99547L17.7142 6.77672C17.1421 7.34869 17.1421 8.27623 17.7142 8.8483C18.0001 9.13424 18.375 9.27731 18.75 9.27731C19.1249 9.27731 19.4998 9.13424 19.7857 8.84821L20.5669 8.06696C21.139 7.49498 21.139 6.56744 20.5669 5.99537C19.995 5.4234 19.0674 5.4234 18.4955 5.99547Z" fill="white"/>
<path d="M23.692 9.90164C23.1201 9.32966 22.1925 9.32966 21.6205 9.90164C21.0484 10.4736 21.0484 11.4011 21.6205 11.9732L22.4017 12.7545C22.6877 13.0404 23.0626 13.1835 23.4375 13.1835C23.8125 13.1835 24.1874 13.0404 24.4733 12.7544C25.0454 12.1824 25.0454 11.2549 24.4733 10.6828L23.692 9.90164Z" fill="white"/>
<path d="M10.683 13.808L9.90171 14.5892C9.32964 15.1612 9.32964 16.0887 9.90171 16.6608C10.1876 16.9467 10.5625 17.0898 10.9375 17.0898C11.3124 17.0898 11.6873 16.9467 11.9732 16.6607L12.7544 15.8795C13.3265 15.3075 13.3265 14.3799 12.7544 13.8079C12.1825 13.2359 11.2549 13.2359 10.683 13.808Z" fill="white"/>
<path d="M15.8795 17.7141C15.3076 17.1422 14.38 17.1422 13.808 17.7141C13.2359 18.2861 13.2359 19.2136 13.808 19.7857L14.5892 20.567C14.8752 20.8529 15.2501 20.996 15.625 20.996C16 20.996 16.3749 20.8529 16.6608 20.5669C17.2329 19.9949 17.2329 19.0674 16.6608 18.4953L15.8795 17.7141Z" fill="white"/>
<path d="M18.4955 21.6205L17.7142 22.4017C17.1421 22.9737 17.1421 23.9012 17.7142 24.4733C18.0001 24.7592 18.375 24.9023 18.75 24.9023C19.1249 24.9023 19.4998 24.7592 19.7857 24.4732L20.5669 23.692C21.139 23.12 21.139 22.1924 20.5669 21.6204C19.995 21.0484 19.0674 21.0484 18.4955 21.6205Z" fill="white"/>
<path d="M23.692 25.5266C23.1201 24.9547 22.1925 24.9547 21.6205 25.5266C21.0484 26.0986 21.0484 27.0261 21.6205 27.5982L22.4017 28.3795C22.6877 28.6654 23.0626 28.8085 23.4375 28.8085C23.8125 28.8085 24.1874 28.6654 24.4733 28.3794C25.0454 27.8074 25.0454 26.8799 24.4733 26.3078L23.692 25.5266Z" fill="white"/>
<path d="M10.683 21.6205L9.90171 22.4017C9.32964 22.9737 9.32964 23.9012 9.90171 24.4733C10.1876 24.7592 10.5625 24.9023 10.9375 24.9023C11.3124 24.9023 11.6873 24.7592 11.9732 24.4732L12.7544 23.692C13.3265 23.12 13.3265 22.1924 12.7544 21.6204C12.1825 21.0484 11.2549 21.0484 10.683 21.6205Z" fill="white"/>
<path d="M15.8795 25.5266C15.3076 24.9547 14.38 24.9547 13.808 25.5266C13.2359 26.0986 13.2359 27.0261 13.808 27.5982L14.5892 28.3795C14.8752 28.6654 15.2501 28.8085 15.625 28.8085C16 28.8085 16.3749 28.6654 16.6608 28.3794C17.2329 27.8074 17.2329 26.8799 16.6608 26.3078L15.8795 25.5266Z" fill="white"/>
<path d="M18.4955 29.433L17.7142 30.2142C17.1421 30.7862 17.1421 31.7137 17.7142 32.2858C18.0001 32.5717 18.375 32.7148 18.75 32.7148C19.1249 32.7148 19.4998 32.5717 19.7857 32.2857L20.5669 31.5045C21.139 30.9325 21.139 30.0049 20.5669 29.4329C19.995 28.8609 19.0674 28.8609 18.4955 29.433Z" fill="white"/>
<path d="M23.692 33.3391C23.1201 32.7672 22.1925 32.7672 21.6205 33.3391C21.0484 33.9111 21.0484 34.8386 21.6205 35.4107L22.4017 36.192C22.6877 36.4779 23.0626 36.621 23.4375 36.621C23.8125 36.621 24.1874 36.4779 24.4733 36.1919C25.0454 35.6199 25.0454 34.6924 24.4733 34.1203L23.692 33.3391Z" fill="white"/>
<path d="M10.683 29.433L9.90171 30.2142C9.32964 30.7862 9.32964 31.7137 9.90171 32.2858C10.1876 32.5717 10.5625 32.7148 10.9375 32.7148C11.3124 32.7148 11.6873 32.5717 11.9732 32.2857L12.7544 31.5045C13.3265 30.9325 13.3265 30.0049 12.7544 29.4329C12.1825 28.8609 11.2549 28.8609 10.683 29.433Z" fill="white"/>
<path d="M15.8795 33.3391C15.3076 32.7672 14.38 32.7672 13.808 33.3391C13.2359 33.9111 13.2359 34.8386 13.808 35.4107L14.5892 36.192C14.8752 36.4779 15.2501 36.621 15.625 36.621C16 36.621 16.3749 36.4779 16.6608 36.1919C17.2329 35.6199 17.2329 34.6924 16.6608 34.1203L15.8795 33.3391Z" fill="white"/>
</svg>
