<svg width="80" height="80" viewBox="0 0 80 80" fill="none" xmlns="http://www.w3.org/2000/svg">
<g clip-path="url(#clip0_2801_3419)">
<path d="M76.875 43.75C72.8011 43.75 69.3277 41.1372 68.0375 37.5H70.625C72.3509 37.5 73.75 36.1009 73.75 34.375V28.125C73.75 26.3991 72.3509 25 70.625 25C68.8991 25 67.5 26.3991 67.5 28.125V31.25H61.25V28.125C61.25 26.3991 59.8509 25 58.125 25C56.3991 25 55 26.3991 55 28.125V31.25H49.375V18.75H70.625C72.3509 18.75 73.75 17.3509 73.75 15.625V9.375C73.75 7.64906 72.3509 6.25 70.625 6.25C68.8991 6.25 67.5 7.64906 67.5 9.375V12.5H61.25V9.375C61.25 7.64906 59.8509 6.25 58.125 6.25C56.3991 6.25 55 7.64906 55 9.375V12.5H49.375V9.375C49.375 4.20563 45.1694 0 40 0C34.8306 0 30.625 4.20563 30.625 9.375V12.5H25V9.375C25 7.64906 23.6009 6.25 21.875 6.25C20.1491 6.25 18.75 7.64906 18.75 9.375V12.5H12.5V9.375C12.5 7.64906 11.1009 6.25 9.375 6.25C7.64906 6.25 6.25 7.64906 6.25 9.375V15.625C6.25 17.3509 7.64906 18.75 9.375 18.75H30.625V31.25H25V28.125C25 26.3991 23.6009 25 21.875 25C20.1491 25 18.75 26.3991 18.75 28.125V31.25H12.5V28.125C12.5 26.3991 11.1009 25 9.375 25C7.64906 25 6.25 26.3991 6.25 28.125V34.375C6.25 36.1009 7.64906 37.5 9.375 37.5H11.9625C10.6725 41.1372 7.19891 43.75 3.125 43.75C1.39906 43.75 0 45.1491 0 46.875C0 48.6009 1.39906 50 3.125 50C10.6708 50 16.9841 44.6233 18.4358 37.5H30.625V73.75H21.25C19.5241 73.75 18.125 75.1491 18.125 76.875C18.125 78.6009 19.5241 80 21.25 80H58.75C60.4759 80 61.875 78.6009 61.875 76.875C61.875 75.1491 60.4759 73.75 58.75 73.75H49.375V37.5H61.5642C63.0159 44.6233 69.3292 50 76.875 50C78.6009 50 80 48.6009 80 46.875C80 45.1491 78.6009 43.75 76.875 43.75ZM36.875 9.375C36.875 7.65188 38.2769 6.25 40 6.25C41.7231 6.25 43.125 7.65188 43.125 9.375V12.5H36.875V9.375ZM36.875 18.75H43.125V31.25H36.875V18.75ZM43.125 73.75H36.875V37.5H43.125V73.75Z" fill="#52C459"/>
</g>
<defs>
<clipPath id="clip0_2801_3419">
<rect width="80" height="80" fill="white"/>
</clipPath>
</defs>
</svg>
