<svg width="32" height="32" viewBox="0 0 32 32" fill="none" xmlns="http://www.w3.org/2000/svg">
<path d="M27.6933 26.04C27.6933 26.52 27.5866 27.0133 27.36 27.4933C27.1333 27.9733 26.84 28.4267 26.4533 28.8533C25.8 29.5733 25.08 30.0933 24.2666 30.4267C23.4666 30.76 22.6 30.9333 21.6667 30.9333C20.3067 30.9333 18.8533 30.6133 17.32 29.96C15.7866 29.3067 14.2533 28.4267 12.7333 27.32C11.2 26.2 9.74665 24.96 8.35998 23.5867C6.98665 22.2 5.74665 20.7467 4.63998 19.2267C3.54665 17.7067 2.66665 16.1867 2.02665 14.68C1.38665 13.16 1.06665 11.7067 1.06665 10.32C1.06665 9.41333 1.22665 8.54667 1.54665 7.74667C1.86665 6.93333 2.37332 6.18667 3.07998 5.52C3.93332 4.68 4.86665 4.26667 5.85332 4.26667C6.22665 4.26667 6.59998 4.34667 6.93332 4.50667C7.27998 4.66667 7.58665 4.90667 7.82665 5.25333L10.92 9.61333C11.16 9.94667 11.3333 10.2533 11.4533 10.5467C11.5733 10.8267 11.64 11.1067 11.64 11.36C11.64 11.68 11.5467 12 11.36 12.3067C11.1867 12.6133 10.9333 12.9333 10.6133 13.2533L9.59998 14.3067C9.45332 14.4533 9.38665 14.6267 9.38665 14.84C9.38665 14.9467 9.39998 15.04 9.42665 15.1467C9.46665 15.2533 9.50665 15.3333 9.53332 15.4133C9.77332 15.8533 10.1866 16.4267 10.7733 17.12C11.3733 17.8133 12.0133 18.52 12.7066 19.2267C13.4266 19.9333 14.12 20.5867 14.8266 21.1867C15.52 21.7733 16.0933 22.1733 16.5466 22.4133C16.6133 22.44 16.6933 22.48 16.7866 22.52C16.8933 22.56 17 22.5733 17.12 22.5733C17.3466 22.5733 17.52 22.4933 17.6666 22.3467L18.68 21.3467C19.0133 21.0133 19.3333 20.76 19.64 20.6C19.9466 20.4133 20.2533 20.32 20.5866 20.32C20.84 20.32 21.1066 20.3733 21.4 20.4933C21.6933 20.6133 22 20.7867 22.3333 21.0133L26.7466 24.1467C27.0933 24.3867 27.3333 24.6667 27.48 25C27.6133 25.3333 27.6933 25.6667 27.6933 26.04Z" stroke="#E8112B" stroke-width="1.2" stroke-miterlimit="10"/>
<path d="M23.0667 13.6001C23.0667 12.8001 22.44 11.5735 21.5067 10.5735C20.6534 9.65346 19.52 8.93346 18.4 8.93346" stroke="#E8112B" stroke-width="1.2" stroke-linecap="round" stroke-linejoin="round"/>
<path d="M27.7334 13.6C27.7334 8.44 23.56 4.26667 18.4 4.26667" stroke="#E8112B" stroke-width="1.2" stroke-linecap="round" stroke-linejoin="round"/>
</svg>
