<svg width="76" height="59" viewBox="0 0 76 59" fill="none" xmlns="http://www.w3.org/2000/svg">
<path d="M70.1241 6.73264C67.8808 4.27608 65.2055 2.45669 62.0998 1.27366C59.8566 0.455002 57.5267 0 55.1968 0C48.2078 0 41.8223 3.63878 38.0259 9.55282C37.4216 8.55203 36.7319 7.64197 35.8688 6.73268C33.6255 4.27612 30.9502 2.45672 27.8445 1.27369C25.6012 0.455034 23.2713 3.22263e-05 20.9415 3.22263e-05C12.054 3.22263e-05 4.11573 5.91326 1.18201 14.7383C-0.630303 20.2879 -0.370829 26.2926 2.04511 31.5691C4.46112 36.8458 8.68928 40.849 13.9527 42.8505C14.988 43.2142 16.0237 43.5784 17.1451 43.7606C15.5056 46.5807 13.5211 49.2196 11.1053 51.5847C10.2422 52.4033 9.72457 53.5862 9.81124 54.7692C9.89731 55.8607 10.4155 56.8615 11.278 57.4072C11.8823 57.7709 12.486 58.0444 13.2624 58.0444C13.7801 58.0444 14.2116 57.9536 14.7292 57.7715C20.3375 55.4971 25.6877 51.676 30.2607 46.6722C32.2451 44.4886 34.8338 41.4862 36.991 37.8474C37.5086 37.0287 37.9402 36.1186 38.3717 35.2094C40.8737 38.7575 44.2388 41.3955 48.2083 42.8513C49.2435 43.215 50.2793 43.5792 51.4007 43.7613C49.7611 46.5815 47.7767 49.2203 45.3609 51.5854C44.4977 52.4041 43.9801 53.5869 44.0668 54.77C44.1529 55.8615 44.6711 56.8623 45.5336 57.408C46.1379 57.7716 46.7416 58.0452 47.518 58.0452C48.0356 58.0452 48.4672 57.9544 48.9848 57.7723C54.5931 55.4978 59.9433 51.6768 64.5163 46.673C66.5007 44.4894 69.0894 41.4869 71.2466 37.8482C72.8861 35.1187 74.094 32.2985 74.8706 29.2961C77.1998 21.1978 75.3876 12.5546 70.1241 6.73199L70.1241 6.73264ZM70.038 27.7485C69.3477 30.2959 68.3125 32.661 66.9318 35.0269C65.0335 38.2114 62.7902 40.8494 60.8051 42.9418C58.9069 45.0341 56.8357 46.945 54.5926 48.4914C55.8005 46.5806 56.8358 44.6704 57.6989 42.5782C58.0437 41.7595 57.9577 40.7588 57.5261 39.9402C57.0946 39.2123 56.2321 38.7573 55.369 38.7573C53.4707 38.7573 51.659 38.4844 49.9328 37.8472C45.9633 36.3914 42.7711 33.3891 40.9594 29.3866C40.8733 29.2045 40.8733 29.1137 40.7866 28.9316C39.1471 25.0199 38.9743 20.7439 40.269 16.6493C40.3551 16.2856 40.5278 16.0121 40.6139 15.6485C43.1171 9.46233 48.8115 5.45915 55.197 5.45915C57.0093 5.45915 58.7349 5.82279 60.4604 6.36919C62.7903 7.18784 64.7747 8.64363 66.5003 10.463C70.383 14.8298 71.7637 21.471 70.0381 27.7488L70.038 27.7485ZM32.6763 34.9354C30.778 38.12 28.5347 40.758 26.5497 42.8503C24.6514 44.9426 22.5802 46.8535 20.3371 48.4C21.545 46.4891 22.5803 44.5789 23.4434 42.4867C23.7882 41.6681 23.7022 40.6673 23.2706 39.8487C22.8391 39.1208 21.9766 38.6658 21.1135 38.6658C19.2152 38.6658 17.4035 38.3929 15.6773 37.7558C11.7079 36.3 8.51558 33.2977 6.70389 29.2952C4.89158 25.292 4.63287 20.7431 6.01353 16.5586C8.2568 9.91738 14.2105 5.45931 20.9408 5.45931C22.7531 5.45931 24.4787 5.82295 26.2043 6.36935C28.5341 7.188 30.5186 8.64379 32.2441 10.4632C33.5382 11.919 34.574 13.6477 35.3504 15.5578C34.0564 20.0158 34.0564 24.6555 35.4365 29.0223C34.6606 31.1146 33.7981 33.0255 32.6763 34.9355V34.9354Z" fill="#E8112B"/>
</svg>
