<svg width="44" height="44" viewBox="0 0 44 44" fill="none" xmlns="http://www.w3.org/2000/svg">
<path d="M19.5938 10.2266C20.0684 10.2266 20.4531 9.84173 20.4531 9.36719V6.61719C20.4531 4.24789 18.5255 2.32031 16.1562 2.32031H4.29688C1.92758 2.32031 0 4.24789 0 6.61719V16.9287C0 19.298 1.92758 21.2255 4.29688 21.2255H9.85634C9.66075 27.6456 7.22485 30.983 2.42627 31.4196C1.98361 31.4599 1.64476 31.831 1.64476 32.2755V40.8203C1.64476 41.0566 1.74204 41.2825 1.91374 41.4448C2.07376 41.596 2.28508 41.6797 2.50405 41.6797C2.52012 41.6797 2.53627 41.6793 2.55234 41.6783C8.47412 41.3452 12.9947 39.3072 15.9886 35.6208C18.951 31.9731 20.4531 26.6431 20.4531 19.7787V16.7005C20.4531 16.2259 20.0684 15.8411 19.5938 15.8411C19.1191 15.8411 18.7344 16.2259 18.7344 16.7005V19.7787C18.7344 32.3809 13.704 38.9712 3.36359 39.8964V33.0355C5.97704 32.629 7.99855 31.4125 9.37982 29.4123C10.845 27.2904 11.5879 24.2469 11.5879 20.3662C11.5879 19.8916 11.2032 19.5068 10.7285 19.5068H4.29688C2.8753 19.5068 1.71875 18.3502 1.71875 16.9287V6.61719C1.71875 5.19561 2.8753 4.03906 4.29688 4.03906H16.1562C17.5778 4.03906 18.7344 5.19561 18.7344 6.61719V9.36719C18.7344 9.84173 19.1191 10.2266 19.5938 10.2266Z" fill="#52C459"/>
<path d="M39.7031 2.32031H27.8438C25.4745 2.32031 23.5469 4.24789 23.5469 6.61719V16.9287C23.5469 19.298 25.4745 21.2255 27.8438 21.2255H33.4032C33.2076 27.6456 30.7717 30.983 25.9731 31.4196C25.5306 31.4599 25.1916 31.831 25.1916 32.2755V40.8203C25.1916 41.0566 25.2889 41.2825 25.4606 41.4448C25.6206 41.5961 25.832 41.6797 26.0509 41.6797C26.067 41.6797 26.0831 41.6793 26.0992 41.6783C32.021 41.3452 36.5416 39.3072 39.5355 35.6208C42.4979 31.9732 44 26.6431 44 19.7787V6.61719C44 4.24789 42.0724 2.32031 39.7031 2.32031ZM42.2812 19.7787C42.2812 32.3809 37.2509 38.9712 26.9104 39.8964V33.0355C29.5239 32.629 31.5454 31.4125 32.9266 29.4123C34.3918 27.2905 35.1347 24.247 35.1347 20.3662C35.1347 19.8916 34.7499 19.5068 34.2753 19.5068H27.8438C26.4222 19.5068 25.2656 18.3502 25.2656 16.9287V6.61719C25.2656 5.19561 26.4222 4.03906 27.8438 4.03906H38.1562V10.4014C38.1562 10.8759 38.541 11.2607 39.0156 11.2607C39.4903 11.2607 39.875 10.8759 39.875 10.4014V4.04542C41.2167 4.13428 42.2812 5.25345 42.2812 6.61719V19.7787Z" fill="#52C459"/>
<path d="M39.0156 12.5254C38.541 12.5254 38.1562 12.9144 38.1562 13.389C38.1562 13.8635 38.541 14.2484 39.0156 14.2484C39.4902 14.2484 39.875 13.8635 39.875 13.389V13.3805C39.875 12.9059 39.4903 12.5254 39.0156 12.5254Z" fill="#52C459"/>
<path d="M19.5938 12.1743C19.1191 12.1743 18.7344 12.5591 18.7344 13.0337V13.0517C18.7344 13.5262 19.1191 13.911 19.5938 13.911C20.0684 13.911 20.4531 13.5262 20.4531 13.0517V13.0337C20.4531 12.5591 20.0684 12.1743 19.5938 12.1743Z" fill="#52C459"/>
</svg>
