<svg width="25" height="25" viewBox="0 0 25 25" fill="none" xmlns="http://www.w3.org/2000/svg">
<path fill-rule="evenodd" clip-rule="evenodd" d="M11.7498 0C18.2285 0 23.4983 5.26984 23.4983 11.7486C23.4983 14.8052 22.3253 17.593 20.4057 19.6853L24.1829 23.4545C24.5364 23.808 24.5376 24.3799 24.1841 24.7334C24.0079 24.9119 23.7751 25 23.5434 25C23.313 25 23.0814 24.9119 22.904 24.7358L19.0813 20.9237C17.0704 22.5342 14.5206 23.4983 11.7498 23.4983C5.27105 23.4983 0 18.2273 0 11.7486C0 5.26984 5.27105 0 11.7498 0ZM11.7498 1.8097C6.26879 1.8097 1.8097 6.26758 1.8097 11.7486C1.8097 17.2295 6.26879 21.6886 11.7498 21.6886C17.2295 21.6886 21.6886 17.2295 21.6886 11.7486C21.6886 6.26758 17.2295 1.8097 11.7498 1.8097Z" fill="white"/>
</svg>
