<svg width="174" height="42" viewBox="0 0 174 42" fill="none" xmlns="http://www.w3.org/2000/svg">
<path d="M48.253 5.2V6.376H44.991V15H43.815V6.376H40.56V5.2H48.253ZM48.8654 8H50.0414V15H48.8654V8ZM49.4674 6.859C49.2807 6.859 49.1244 6.79833 48.9984 6.677C48.8724 6.55567 48.8094 6.404 48.8094 6.222C48.8094 6.04 48.8724 5.88833 48.9984 5.767C49.1244 5.64567 49.2784 5.585 49.4604 5.585C49.6424 5.585 49.7964 5.64567 49.9224 5.767C50.0484 5.88833 50.1114 6.04 50.1114 6.222C50.1114 6.404 50.0484 6.55567 49.9224 6.677C49.8011 6.79833 49.6494 6.859 49.4674 6.859ZM51.6955 15V8H52.8715V8.875C53.1188 8.54833 53.4291 8.28933 53.8025 8.098C54.1805 7.902 54.5911 7.804 55.0345 7.804C55.5525 7.804 56.0261 7.93 56.4555 8.182C56.8848 8.434 57.2231 8.76767 57.4705 9.183C57.7178 8.76767 58.0538 8.434 58.4785 8.182C58.9078 7.93 59.3791 7.804 59.8925 7.804C60.4198 7.804 60.8981 7.93233 61.3275 8.189C61.7568 8.441 62.0975 8.78167 62.3495 9.211C62.6061 9.64033 62.7345 10.1187 62.7345 10.646V15H61.5585V10.926C61.5585 10.5807 61.4745 10.261 61.3065 9.967C61.1385 9.673 60.9121 9.43733 60.6275 9.26C60.3428 9.08267 60.0278 8.994 59.6825 8.994C59.3371 8.994 59.0221 9.078 58.7375 9.246C58.4528 9.40933 58.2265 9.638 58.0585 9.932C57.8905 10.2213 57.8065 10.5527 57.8065 10.926V15H56.6305V10.926C56.6305 10.5527 56.5465 10.2213 56.3785 9.932C56.2105 9.638 55.9818 9.40933 55.6925 9.246C55.4078 9.078 55.0928 8.994 54.7475 8.994C54.4068 8.994 54.0918 9.08267 53.8025 9.26C53.5178 9.43733 53.2915 9.673 53.1235 9.967C52.9555 10.261 52.8715 10.5807 52.8715 10.926V15H51.6955ZM67.0802 15.182C66.4362 15.182 65.8482 15.0163 65.3162 14.685C64.7888 14.3537 64.3665 13.9103 64.0492 13.355C63.7365 12.795 63.5802 12.1767 63.5802 11.5C63.5802 10.9867 63.6712 10.5083 63.8532 10.065C64.0352 9.617 64.2848 9.225 64.6022 8.889C64.9242 8.54833 65.2975 8.28233 65.7222 8.091C66.1468 7.89967 66.5995 7.804 67.0802 7.804C67.6075 7.804 68.0905 7.91133 68.5292 8.126C68.9725 8.336 69.3505 8.63 69.6632 9.008C69.9805 9.386 70.2162 9.82467 70.3702 10.324C70.5288 10.8233 70.5872 11.3577 70.5452 11.927H64.8332C64.8892 12.3237 65.0198 12.6783 65.2252 12.991C65.4305 13.299 65.6918 13.544 66.0092 13.726C66.3312 13.908 66.6882 14.0013 67.0802 14.006C67.5002 14.006 67.8805 13.8987 68.2212 13.684C68.5618 13.4647 68.8372 13.166 69.0472 12.788L70.2442 13.068C69.9642 13.6887 69.5418 14.1973 68.9772 14.594C68.4125 14.986 67.7802 15.182 67.0802 15.182ZM64.7982 11.003H69.3622C69.3248 10.611 69.1988 10.254 68.9842 9.932C68.7695 9.60533 68.4965 9.344 68.1652 9.148C67.8338 8.952 67.4722 8.854 67.0802 8.854C66.6882 8.854 66.3288 8.94967 66.0022 9.141C65.6755 9.33233 65.4048 9.59133 65.1902 9.918C64.9802 10.24 64.8495 10.6017 64.7982 11.003Z" fill="white"/>
<path d="M42.304 38V27.596H40.72L41.314 25.4H44.5V38H42.304ZM51.3864 38.234C50.6544 38.234 49.9884 38.066 49.3884 37.73C48.7884 37.388 48.2694 36.917 47.8314 36.317C47.3994 35.717 47.0664 35.024 46.8324 34.238C46.5984 33.446 46.4814 32.6 46.4814 31.7C46.4814 30.8 46.5984 29.957 46.8324 29.171C47.0664 28.379 47.3994 27.683 47.8314 27.083C48.2694 26.483 48.7884 26.015 49.3884 25.679C49.9884 25.337 50.6544 25.166 51.3864 25.166C52.1184 25.166 52.7844 25.337 53.3844 25.679C53.9844 26.015 54.4974 26.483 54.9234 27.083C55.3554 27.683 55.6884 28.379 55.9224 29.171C56.1624 29.957 56.2824 30.8 56.2824 31.7C56.2824 32.6 56.1624 33.446 55.9224 34.238C55.6884 35.024 55.3554 35.717 54.9234 36.317C54.4974 36.917 53.9844 37.388 53.3844 37.73C52.7844 38.066 52.1184 38.234 51.3864 38.234ZM51.3864 36.038C52.0284 36.038 52.5594 35.834 52.9794 35.426C53.3994 35.018 53.7114 34.484 53.9154 33.824C54.1194 33.164 54.2214 32.456 54.2214 31.7C54.2214 30.902 54.1134 30.176 53.8974 29.522C53.6814 28.862 53.3634 28.337 52.9434 27.947C52.5234 27.557 52.0044 27.362 51.3864 27.362C50.9004 27.362 50.4774 27.482 50.1174 27.722C49.7634 27.956 49.4694 28.277 49.2354 28.685C49.0014 29.093 48.8274 29.558 48.7134 30.08C48.5994 30.596 48.5424 31.136 48.5424 31.7C48.5424 32.45 48.6444 33.158 48.8484 33.824C49.0584 34.484 49.3734 35.018 49.7934 35.426C50.2194 35.834 50.7504 36.038 51.3864 36.038ZM62.1143 25.4H64.6433L69.2243 38H66.8933L66.0833 35.768H60.6833L59.8733 38H57.5423L62.1143 25.4ZM61.4843 33.572H65.2733L63.3743 28.379L61.4843 33.572ZM70.2948 38L72.7428 25.4H74.5608L77.6298 33.473L80.6988 25.4H82.5168L84.9648 38H82.7238L81.2118 30.206L78.3768 37.712H76.8738L74.0388 30.206L72.5358 38H70.2948ZM91.4413 31.502H97.2013V33.698H91.4413V31.502ZM104.917 38V27.596H103.333L103.927 25.4H107.113V38H104.917ZM110.859 38V27.596H109.275L109.869 25.4H113.055V38H110.859ZM116.341 31.259C116.029 31.259 115.762 31.151 115.54 30.935C115.324 30.713 115.216 30.443 115.216 30.125C115.216 29.819 115.324 29.555 115.54 29.333C115.762 29.111 116.029 29 116.341 29C116.653 29 116.92 29.111 117.142 29.333C117.364 29.555 117.475 29.819 117.475 30.125C117.475 30.443 117.364 30.713 117.142 30.935C116.92 31.151 116.653 31.259 116.341 31.259ZM116.341 38.234C116.029 38.234 115.762 38.126 115.54 37.91C115.324 37.688 115.216 37.418 115.216 37.1C115.216 36.794 115.324 36.53 115.54 36.308C115.762 36.086 116.029 35.975 116.341 35.975C116.653 35.975 116.92 36.086 117.142 36.308C117.364 36.53 117.475 36.794 117.475 37.1C117.475 37.418 117.364 37.688 117.142 37.91C116.92 38.126 116.653 38.234 116.341 38.234ZM123.156 38.234C122.394 38.234 121.707 38.054 121.095 37.694C120.483 37.334 119.997 36.851 119.637 36.245C119.277 35.633 119.097 34.955 119.097 34.211H121.293C121.293 34.547 121.371 34.853 121.527 35.129C121.689 35.405 121.911 35.627 122.193 35.795C122.475 35.957 122.796 36.038 123.156 36.038C123.486 36.038 123.792 35.957 124.074 35.795C124.362 35.627 124.593 35.405 124.767 35.129C124.941 34.853 125.028 34.547 125.028 34.211C125.028 33.773 124.911 33.41 124.677 33.122C124.443 32.828 124.116 32.609 123.696 32.465C123.282 32.321 122.799 32.249 122.247 32.249V30.557C122.991 30.557 123.579 30.416 124.011 30.134C124.449 29.852 124.668 29.438 124.668 28.892C124.668 28.61 124.596 28.352 124.452 28.118C124.308 27.884 124.116 27.698 123.876 27.56C123.642 27.416 123.384 27.344 123.102 27.344C122.814 27.344 122.535 27.416 122.265 27.56C121.995 27.698 121.773 27.884 121.599 28.118C121.431 28.352 121.347 28.61 121.347 28.892H119.151C119.151 28.376 119.256 27.893 119.466 27.443C119.676 26.987 119.964 26.588 120.33 26.246C120.702 25.904 121.122 25.637 121.59 25.445C122.064 25.247 122.559 25.148 123.075 25.148C123.753 25.148 124.38 25.316 124.956 25.652C125.532 25.988 125.994 26.438 126.342 27.002C126.69 27.566 126.864 28.196 126.864 28.892C126.864 29.378 126.75 29.855 126.522 30.323C126.294 30.791 125.97 31.121 125.55 31.313C125.916 31.445 126.222 31.667 126.468 31.979C126.714 32.285 126.9 32.636 127.026 33.032C127.158 33.422 127.224 33.815 127.224 34.211C127.224 34.949 127.038 35.624 126.666 36.236C126.294 36.842 125.799 37.328 125.181 37.694C124.569 38.054 123.894 38.234 123.156 38.234ZM133.213 38.234C132.481 38.234 131.815 38.066 131.215 37.73C130.615 37.388 130.096 36.917 129.658 36.317C129.226 35.717 128.893 35.024 128.659 34.238C128.425 33.446 128.308 32.6 128.308 31.7C128.308 30.8 128.425 29.957 128.659 29.171C128.893 28.379 129.226 27.683 129.658 27.083C130.096 26.483 130.615 26.015 131.215 25.679C131.815 25.337 132.481 25.166 133.213 25.166C133.945 25.166 134.611 25.337 135.211 25.679C135.811 26.015 136.324 26.483 136.75 27.083C137.182 27.683 137.515 28.379 137.749 29.171C137.989 29.957 138.109 30.8 138.109 31.7C138.109 32.6 137.989 33.446 137.749 34.238C137.515 35.024 137.182 35.717 136.75 36.317C136.324 36.917 135.811 37.388 135.211 37.73C134.611 38.066 133.945 38.234 133.213 38.234ZM133.213 36.038C133.855 36.038 134.386 35.834 134.806 35.426C135.226 35.018 135.538 34.484 135.742 33.824C135.946 33.164 136.048 32.456 136.048 31.7C136.048 30.902 135.94 30.176 135.724 29.522C135.508 28.862 135.19 28.337 134.77 27.947C134.35 27.557 133.831 27.362 133.213 27.362C132.727 27.362 132.304 27.482 131.944 27.722C131.59 27.956 131.296 28.277 131.062 28.685C130.828 29.093 130.654 29.558 130.54 30.08C130.426 30.596 130.369 31.136 130.369 31.7C130.369 32.45 130.471 33.158 130.675 33.824C130.885 34.484 131.2 35.018 131.62 35.426C132.046 35.834 132.577 36.038 133.213 36.038ZM139.728 38V25.4H144.228C144.912 25.4 145.53 25.571 146.082 25.913C146.64 26.255 147.081 26.714 147.405 27.29C147.729 27.866 147.891 28.499 147.891 29.189C147.891 29.897 147.723 30.539 147.387 31.115C147.057 31.685 146.613 32.141 146.055 32.483C145.497 32.819 144.888 32.987 144.228 32.987H141.924V38H139.728ZM141.924 30.791H143.994C144.306 30.791 144.591 30.713 144.849 30.557C145.107 30.401 145.311 30.191 145.461 29.927C145.617 29.663 145.695 29.369 145.695 29.045C145.695 28.715 145.617 28.418 145.461 28.154C145.311 27.89 145.107 27.68 144.849 27.524C144.591 27.368 144.306 27.29 143.994 27.29H141.924V30.791ZM148.623 38L151.071 25.4H152.889L155.958 33.473L159.027 25.4H160.845L163.293 38H161.052L159.54 30.206L156.705 37.712H155.202L152.367 30.206L150.864 38H148.623Z" fill="white"/>
<path d="M15 36C12.0333 36 9.13319 35.1203 6.66645 33.472C4.19972 31.8238 2.27713 29.4811 1.14181 26.7403C0.00649925 23.9994 -0.290551 20.9834 0.288228 18.0737C0.867006 15.1639 2.29562 12.4912 4.3934 10.3934C6.49119 8.29562 9.16394 6.86701 12.0737 6.28823C14.9834 5.70945 17.9994 6.0065 20.7403 7.14181C23.4811 8.27713 25.8238 10.1997 27.472 12.6665C29.1203 15.1332 30 18.0333 30 21C30 24.9783 28.4197 28.7936 25.6066 31.6066C22.7936 34.4197 18.9783 36 15 36ZM15 8.14286C12.4571 8.14286 9.97131 8.89692 7.85696 10.3097C5.74261 11.7224 4.09468 13.7305 3.12156 16.0798C2.14843 18.4291 1.89381 21.0143 2.38991 23.5083C2.88601 26.0024 4.11053 28.2933 5.90863 30.0914C7.70674 31.8895 9.99766 33.114 12.4917 33.6101C14.9857 34.1062 17.5709 33.8516 19.9202 32.8785C22.2696 31.9053 24.2776 30.2574 25.6903 28.1431C27.1031 26.0287 27.8571 23.5429 27.8571 21C27.8571 17.5901 26.5026 14.3198 24.0914 11.9086C21.6802 9.49745 18.4099 8.14286 15 8.14286Z" fill="#E8112B"/>
<path d="M19.918 27.4286L13.9287 21.4393V11.3572H16.0716V20.55L21.4287 25.9179L19.918 27.4286Z" fill="#E8112B"/>
</svg>
