<svg width="90" height="90" viewBox="0 0 90 90" fill="none" xmlns="http://www.w3.org/2000/svg">
<g opacity="0.1" filter="url(#filter0_b_2948_82)">
<circle cx="45" cy="45" r="45" fill="white"/>
</g>
<path d="M63.9302 35.33C64.6668 35.6951 65.4799 35.0052 65.2304 34.2218C63.5999 29.1022 58.4865 16.8178 46.8237 16.1964C33.5359 15.4885 29.5357 23.8372 30.8301 28.3598L32.3845 31.4347C33.093 33.6963 35.3688 37.6975 42.5911 37.4801C51.897 37.1997 56.092 31.4448 63.9302 35.33Z" fill="#6BCB44"/>
<path d="M48.1523 21.5191C55.0989 21.5218 60.1102 25.441 63.5581 29.8763C60.9573 24.1507 55.8542 16.6775 46.8237 16.1964C33.5359 15.4885 29.5357 23.8372 30.8301 28.3598L31.7584 30.1962C33.3226 25.8938 38.2389 21.5151 48.1523 21.5191Z" fill="#52C459"/>
<path d="M69.8664 46.0889L66.4263 45.8975C64.1134 45.3803 59.5102 45.3507 56.0875 51.714C51.6774 59.9133 54.5638 66.4238 47.28 71.2692C46.5955 71.7246 46.7866 72.7737 47.5898 72.9493C52.8387 74.097 66.034 75.8108 72.4036 66.0212C79.6604 54.8678 74.4303 47.2292 69.8664 46.0889Z" fill="#6BCB44"/>
<path d="M52.7687 73.2577C60.0525 68.1008 57.1661 61.1718 61.5762 52.4457C64.0004 47.6491 67.0165 46.266 69.3918 46.0626L66.4263 45.8976C64.1134 45.3805 59.5102 45.3508 56.0875 51.7141C51.6774 59.9134 54.5638 66.4239 47.28 71.2693C46.5955 71.7248 46.7866 72.7738 47.5898 72.9494C48.8252 73.2195 50.5009 73.5209 52.424 73.6964C52.491 73.5281 52.6039 73.3744 52.7687 73.2577Z" fill="#52C459"/>
<path d="M23.7642 38.6404C23.7121 37.8198 22.708 37.4608 22.1544 38.0686C18.536 42.0405 10.4541 52.611 15.7473 63.0219C21.7782 74.8834 31.0084 74.1733 34.2779 70.791L36.1637 67.9074C37.768 66.1629 40.0953 62.1914 36.2958 56.0455C31.4 48.1266 24.3187 47.3711 23.7642 38.6404Z" fill="#6BCB44"/>
<path d="M20.8618 63.0219C16.7747 54.9831 20.6619 46.8501 24.3113 41.7323C24.0277 40.8184 23.8378 39.8003 23.7642 38.6404C23.7121 37.8198 22.708 37.4608 22.1544 38.0686C18.536 42.0405 10.4541 52.611 15.7473 63.0219C20.3591 72.0923 26.8414 73.8112 31.099 72.6056C27.6458 71.7054 23.8588 68.9164 20.8618 63.0219Z" fill="#52C459"/>
<path d="M26.5878 33.3746C26.3508 33.5643 26.2282 33.8421 26.2246 34.124L26.8574 34.9149C27.2196 35.3677 27.8958 35.4004 28.3004 34.9852C30.7575 32.4638 38.9696 24.9863 48.1352 27.1102C48.3333 27.1561 48.4977 27.0865 48.6033 26.9664C44.8406 25.2568 37.6573 24.519 26.5878 33.3746Z" fill="#52C459"/>
<path d="M26.7506 33.39C37.6596 24.6629 44.7347 25.4 48.4358 27.0869C48.7621 26.9486 48.8674 26.4494 48.4931 26.2238C45.1961 24.2364 37.8137 22.2816 25.7214 31.9554C25.3066 32.2872 25.2409 32.8941 25.5727 33.309L26.418 34.3655C26.3342 34.0142 26.4504 33.6302 26.7506 33.39Z" fill="#97DC7C"/>
<path d="M69.3068 39.8669C69.2269 39.3418 68.734 38.9814 68.209 39.0614L67.1542 39.2221C66.928 39.4591 66.8247 39.8054 66.9216 40.1491C67.8767 43.5376 70.2462 54.3884 63.824 61.264C63.6569 61.4428 63.6587 61.6631 63.7542 61.8301L63.7917 61.8904C67.1226 59.5878 71.4382 53.861 69.3068 39.8669Z" fill="#52C459"/>
<path d="M63.9488 61.264C70.371 54.3883 68.0014 43.5377 67.0463 40.1491C66.9466 39.7951 67.0578 39.4373 67.2986 39.2001L66.1758 39.3711C65.6025 39.4584 65.2361 40.0275 65.3935 40.5856C66.3486 43.9742 68.7182 54.8249 62.296 61.7005C61.9185 62.1046 62.4007 62.721 62.8847 62.4536C63.201 62.2788 63.5352 62.0726 63.879 61.83C63.7835 61.6631 63.7818 61.4429 63.9488 61.264Z" fill="#97DC7C"/>
<path d="M41.2801 69.6687C37.8679 68.8016 27.2863 65.4283 24.5428 56.4287C24.459 56.1536 24.2093 56.0526 23.9873 56.0955C24.1227 56.1215 24.2481 56.2026 24.3202 56.3473C24.7944 60.4526 27.8467 66.8843 40.7783 71.9366C41.0474 72.0417 41.3343 72.0169 41.5731 71.8947L41.9408 70.9535C42.1518 70.4135 41.8421 69.8116 41.2801 69.6687Z" fill="#52C459"/>
<path d="M40.7881 71.7643C27.9971 66.7668 24.9781 60.4052 24.509 56.3445C24.2949 55.9144 23.6064 56.041 23.5966 56.5622C23.5239 60.4111 25.5222 67.782 39.9461 73.4173C40.4408 73.6106 40.9993 73.364 41.1926 72.8692L41.6593 71.6747C41.4085 71.8364 41.087 71.881 40.7881 71.7643Z" fill="#97DC7C"/>
<defs>
<filter id="filter0_b_2948_82" x="-15" y="-15" width="120" height="120" filterUnits="userSpaceOnUse" color-interpolation-filters="sRGB">
<feFlood flood-opacity="0" result="BackgroundImageFix"/>
<feGaussianBlur in="BackgroundImageFix" stdDeviation="7.5"/>
<feComposite in2="SourceAlpha" operator="in" result="effect1_backgroundBlur_2948_82"/>
<feBlend mode="normal" in="SourceGraphic" in2="effect1_backgroundBlur_2948_82" result="shape"/>
</filter>
</defs>
</svg>
