<svg width="1920" height="937" viewBox="0 0 1920 937" fill="none" xmlns="http://www.w3.org/2000/svg">
<path d="M164.45 909.083C491.018 725.999 602.459 524.092 642.846 370.921C687.916 199.975 664.673 13.1387 713.325 1.53598C744.478 -5.89622 782.812 63.8705 854.279 216.808C1071 680.57 1075.91 803.728 1168.24 835.693C1297.59 880.503 1377.33 669.692 1576.16 674.236C1722.19 677.581 1840.35 794.958 1920 899.293" stroke="#52C459" stroke-miterlimit="10"/>
<path d="M156.608 890.681C473.981 711.539 591.823 515.28 635.413 371.726C684.124 211.301 661.119 34.116 709.266 25.7359C740.219 20.3444 777.832 88.9179 846.865 236.614C1056.66 685.395 1063.17 810.086 1154.79 840.473C1284.89 883.014 1361.16 656.954 1562.09 653.876C1566.47 653.809 1570.78 653.809 1575.1 653.943C1717.66 658.487 1837.52 775.919 1918.87 879.613" stroke="#52C459" stroke-miterlimit="10"/>
<path d="M148.792 872.272C456.946 697.089 581.096 506.813 628.001 372.537C680.28 222.867 657.601 55.1104 705.227 49.9419C735.99 46.5965 772.887 113.982 839.468 256.432C1042.29 690.209 1050.36 816.835 1141.38 845.248C1272.11 886.061 1345.05 644.099 1548.06 633.506C1552.51 633.271 1556.95 633.037 1561.39 633.065C1706.31 633.979 1832.39 753.837 1917.76 859.923" stroke="#52C459" stroke-miterlimit="10"/>
<path d="M140.957 853.868C439.935 682.593 570.199 498.757 620.575 373.352C676.276 234.682 654.089 76.1251 701.169 74.157C731.757 72.8746 767.895 139.045 832.056 276.248C1027.94 695.071 1037.6 823.364 1127.95 850.027C1259.38 888.81 1328.96 631.153 1534.01 613.139C1538.56 612.737 1543.11 612.353 1547.64 612.185C1694.91 606.799 1827.23 731.753 1916.61 840.225" stroke="#52C459" stroke-miterlimit="10"/>
<path d="M133.126 835.463C422.909 668.146 559.087 491.128 613.148 374.165C672.047 246.736 650.6 97.1607 697.12 98.3706C727.538 99.1567 762.926 164.112 824.654 296.068C1013.58 699.91 1024.85 829.876 1114.53 854.799C1246.69 891.53 1312.9 618.111 1519.97 592.748C1524.62 592.191 1529.27 591.633 1533.94 591.287C1683.54 581.017 1822.11 709.656 1915.52 820.537" stroke="#52C459" stroke-miterlimit="10"/>
<path d="M125.294 817.06C405.887 653.696 547.692 483.966 605.734 374.986C667.495 259.015 647.11 118.216 693.08 122.581C723.338 125.458 757.961 189.176 817.255 315.891C999.243 704.751 1012.12 836.368 1101.11 859.579C1234 894.231 1296.84 604.983 1505.93 572.399C1510.69 571.658 1515.44 570.905 1520.23 570.426C1672.16 555.316 1816.99 687.59 1914.41 800.868" stroke="#52C459" stroke-miterlimit="10"/>
<path d="M117.467 798.658C388.86 639.231 535.927 477.261 598.301 375.803C662.472 271.418 643.649 139.3 689.021 146.799C719.127 151.772 752.982 214.263 809.836 335.71C984.878 709.589 999.374 842.844 1087.68 864.354C1221.32 896.91 1280.77 591.777 1491.88 552.035C1496.75 551.121 1501.59 550.184 1506.48 549.554C1660.74 529.638 1811.84 665.525 1913.27 781.184" stroke="#52C459" stroke-miterlimit="10"/>
<path d="M109.636 780.249C371.834 624.764 509.273 454.638 590.879 376.614C640.306 271.197 640.184 160.405 684.972 171.004C714.927 178.096 748.013 239.305 802.434 355.555C970.525 714.452 986.641 849.319 1074.25 869.157C1208.65 899.583 1264.71 578.515 1477.83 531.692C1482.79 530.604 1487.75 529.489 1492.77 528.698C1649.36 504.026 1806.73 643.454 1912.16 761.521" stroke="#52C459" stroke-miterlimit="10"/>
<path d="M101.804 761.847C354.811 610.304 495.964 444.711 583.456 377.431C633.506 281.375 636.718 181.545 680.922 195.222C710.731 204.444 743.038 264.359 795.025 375.351C956.145 719.267 973.917 855.728 1060.83 873.91C1195.98 902.178 1248.64 565.131 1463.79 511.299C1468.84 510.034 1473.91 508.74 1479.05 507.792C1637.97 478.404 1801.58 621.349 1911.04 741.809" stroke="#52C459" stroke-miterlimit="10"/>
<path d="M93.9717 743.44C337.784 595.839 482.651 434.79 576.028 378.243C626.701 291.543 633.253 202.702 676.872 219.429C706.531 230.798 738.068 289.424 787.617 395.164C941.815 724.121 961.198 862.133 1047.41 878.675C1183.33 904.763 1232.56 551.703 1449.75 490.919C1454.9 489.48 1460.07 488.014 1465.32 486.904C1626.58 452.827 1796.44 599.257 1909.92 722.114" stroke="#52C459" stroke-miterlimit="10"/>
<path d="M86.1426 725.038C320.765 581.379 469.341 424.868 568.603 379.065C619.899 301.726 629.78 223.897 672.815 243.646C702.323 257.183 733.097 314.5 780.211 414.971C927.458 728.93 948.482 868.514 1033.98 883.445C1170.67 907.314 1216.47 538.213 1435.7 470.543C1440.96 468.92 1446.23 467.292 1451.6 466.015C1615.19 427.282 1791.31 577.169 1908.8 702.418" stroke="#52C459" stroke-miterlimit="10"/>
<path d="M78.3105 706.624C303.728 566.918 456.043 414.94 561.185 379.898C613.103 311.921 626.305 245.12 668.761 267.879C698.108 283.602 728.122 339.581 772.798 434.828C913.099 733.805 935.763 874.916 1020.56 888.253C1158.03 909.881 1200.36 524.728 1421.66 450.211C1427.01 448.41 1432.37 446.609 1437.87 445.193C1603.82 401.826 1786.17 555.137 1907.68 682.783" stroke="#52C459" stroke-miterlimit="10"/>
<path d="M70.4785 688.217C286.706 552.453 442.715 405.013 553.757 380.687C606.299 322.071 622.805 266.327 664.716 292.064C693.893 309.984 723.152 364.624 765.394 454.624C898.769 738.62 923.058 881.242 1007.13 893.007C1145.38 912.348 1184.22 511.11 1407.62 429.819C1413.06 427.834 1418.54 425.871 1424.17 424.271C1592.47 376.321 1781.05 532.994 1906.58 663.06" stroke="#52C459" stroke-miterlimit="10"/>
<path d="M62.6621 669.814C269.68 537.991 429.403 395.096 546.335 381.514C599.495 332.26 619.296 287.572 660.667 316.28C689.668 336.408 718.183 389.688 757.991 474.441C884.4 743.461 910.35 887.589 993.709 897.787C1132.74 914.814 1168.07 497.463 1393.57 409.453C1399.12 407.284 1404.71 405.154 1410.43 403.392C1581.09 350.848 1775.9 510.933 1905.47 643.375" stroke="#52C459" stroke-miterlimit="10"/>
<path d="M54.8203 651.409C252.653 523.529 416.095 385.172 538.911 382.323C592.695 342.43 615.777 308.82 656.617 340.506C685.429 362.847 713.213 414.761 750.563 494.274C870.026 748.312 897.621 893.895 980.264 902.571C1120.08 917.251 1151.88 483.848 1379.51 389.091C1385.15 386.744 1390.85 384.453 1396.69 382.523C1569.73 325.419 1770.75 488.866 1904.31 623.699" stroke="#52C459" stroke-miterlimit="10"/>
<path d="M46.9883 633.005C235.626 509.066 402.782 375.247 531.483 383.137C585.894 352.605 612.238 330.08 652.567 364.704C681.179 389.27 708.239 439.818 743.179 514.084C855.691 753.135 884.931 900.173 966.864 907.338C1107.46 919.632 1135.71 470.126 1365.48 368.741C1371.23 366.209 1377.03 363.756 1383.01 361.665C1558.4 299.989 1765.63 466.77 1903.21 603.978" stroke="#52C459" stroke-miterlimit="10"/>
<path d="M39.1562 614.601C218.603 494.61 389.469 365.346 524.06 383.952C579.065 362.765 608.685 351.352 648.517 388.92C676.915 415.71 703.269 464.881 735.77 533.884C841.336 757.954 872.221 906.425 953.439 912.089C1094.82 921.958 1119.5 456.378 1351.44 348.324C1357.28 345.603 1363.19 342.994 1369.26 340.736C1547.07 274.588 1760.51 444.692 1902.09 584.314" stroke="#52C459" stroke-miterlimit="10"/>
<path d="M31.3252 596.174C201.577 480.125 376.157 355.384 516.633 384.75C572.285 372.935 605.118 372.595 644.459 413.107C672.642 442.1 698.295 489.921 728.358 553.7C826.977 762.783 859.508 912.676 940.01 916.868C1082.18 924.295 1103.27 442.646 1337.4 327.991C1343.33 325.08 1349.35 322.315 1355.53 319.89C1535.76 249.208 1755.36 422.619 1900.97 564.656" stroke="#52C459" stroke-miterlimit="10"/>
<path d="M23.4951 577.773C184.547 465.704 360.996 415.485 509.212 385.584C564.674 374.394 601.542 393.886 640.411 437.341C668.366 468.564 693.327 515.009 720.956 573.541C812.625 767.653 846.796 918.929 926.587 921.666C1069.53 926.567 1087.01 428.861 1323.35 307.604C1329.38 304.515 1335.52 301.588 1341.81 298.996C1524.44 223.821 1750.21 400.526 1899.86 544.938" stroke="#52C459" stroke-miterlimit="10"/>
<path d="M15.6641 559.373C167.536 451.208 346.18 351.249 501.79 386.386C557.924 399.065 597.951 415.139 636.362 461.545C664.078 494.998 688.354 540.059 713.549 593.35C798.276 772.481 834.077 925.128 913.163 926.427C1056.88 928.791 1070.73 415.05 1309.3 287.225C1315.43 283.947 1321.68 280.88 1328.09 278.109C1513.27 198.875 1745.09 378.441 1898.75 525.251" stroke="#52C459" stroke-miterlimit="10"/>
<path d="M7.83203 540.975C150.499 436.752 334.069 333.431 494.367 387.208C551.226 406.287 594.349 436.412 632.312 485.761C659.78 521.444 683.384 565.134 706.14 613.173C783.921 777.328 821.358 931.72 899.738 931.213C1044.22 930.276 1054.27 400.845 1295.26 266.865C1301.48 263.386 1307.84 260.176 1314.36 257.236C1501.92 173.319 1739.95 356.358 1897.62 505.56" stroke="#52C459" stroke-miterlimit="10"/>
<path d="M0 522.574C133.472 422.297 322.908 315.721 486.939 388.03C734.217 497.054 755.611 938.554 886.318 935.989C1035.32 933.067 1038.36 358.703 1300.64 236.359C1490.57 147.763 1734.84 334.276 1896.5 485.881" stroke="#52C459" stroke-miterlimit="10"/>
</svg>
