<svg width="568" height="652" viewBox="0 0 568 652" fill="none" xmlns="http://www.w3.org/2000/svg">
<mask id="mask0_2651_1049" style="mask-type:alpha" maskUnits="userSpaceOnUse" x="0" y="0" width="568" height="652">
<rect opacity="0.05" x="568" y="652" width="568" height="652" transform="rotate(180 568 652)" fill="#D9D9D9"/>
</mask>
<g mask="url(#mask0_2651_1049)">
<path d="M-57.0781 1291.29L28.1546 436.554L663.187 -80.5853" stroke="#181818" stroke-width="2" stroke-miterlimit="10"/>
<path d="M-40.4355 1301.44L44.8068 446.7L679.007 -69.7613" stroke="#181818" stroke-width="1.98" stroke-miterlimit="10"/>
<path d="M-23.7812 1311.58L61.4515 456.848L694.838 -58.9398" stroke="#181818" stroke-width="1.96" stroke-miterlimit="10"/>
<path d="M-7.12891 1321.73L78.1038 466.993L710.658 -48.1155" stroke="#181818" stroke-width="1.95" stroke-miterlimit="10"/>
<path d="M9.51562 1331.88L94.758 477.139L726.476 -37.3007" stroke="#181818" stroke-width="1.93" stroke-miterlimit="10"/>
<path d="M26.168 1342.02L111.401 487.287L742.306 -26.4792" stroke="#181818" stroke-width="1.91" stroke-miterlimit="10"/>
<path d="M42.8223 1352.17L128.055 497.433L758.127 -15.6549" stroke="#181818" stroke-width="1.89" stroke-miterlimit="10"/>
<path d="M59.4785 1362.32L144.709 507.578L773.955 -4.84301" stroke="#181818" stroke-width="1.87" stroke-miterlimit="10"/>
<path d="M76.1211 1372.47L161.361 517.724L789.784 5.97847" stroke="#181818" stroke-width="1.86" stroke-miterlimit="10"/>
<path d="M92.7754 1382.62L178.008 527.882L805.606 16.8026" stroke="#181818" stroke-width="1.84" stroke-miterlimit="10"/>
<path d="M109.428 1392.76L194.66 538.027L821.435 27.6241" stroke="#181818" stroke-width="1.82" stroke-miterlimit="10"/>
<path d="M126.072 1402.91L211.315 548.172L837.254 38.4386" stroke="#181818" stroke-width="1.8" stroke-miterlimit="10"/>
<path d="M142.725 1413.05L227.957 558.32L853.074 49.2627" stroke="#181818" stroke-width="1.79" stroke-miterlimit="10"/>
<path d="M159.379 1423.2L244.612 568.466L868.905 60.0842" stroke="#181818" stroke-width="1.77" stroke-miterlimit="10"/>
<path d="M176.031 1433.35L261.264 578.611L884.725 70.9084" stroke="#181818" stroke-width="1.75" stroke-miterlimit="10"/>
<path d="M192.678 1443.5L277.918 588.757L900.552 81.7202" stroke="#181818" stroke-width="1.73" stroke-miterlimit="10"/>
<path d="M209.332 1453.65L294.562 598.905L916.374 92.5445" stroke="#181818" stroke-width="1.71" stroke-miterlimit="10"/>
<path d="M225.984 1463.79L311.215 609.051L932.203 103.366" stroke="#181818" stroke-width="1.7" stroke-miterlimit="10"/>
<path d="M242.629 1473.94L327.871 619.206L948.022 114.18" stroke="#181818" stroke-width="1.68" stroke-miterlimit="10"/>
<path d="M259.281 1484.09L344.514 629.354L963.851 125.003" stroke="#181818" stroke-width="1.66" stroke-miterlimit="10"/>
<path d="M275.936 1494.23L361.168 639.499L979.673 135.826" stroke="#181818" stroke-width="1.64" stroke-miterlimit="10"/>
<path d="M292.588 1504.38L377.821 649.645L995.502 146.648" stroke="#181818" stroke-width="1.62" stroke-miterlimit="10"/>
<path d="M309.232 1514.53L394.465 659.793L1011.32 157.463" stroke="#181818" stroke-width="1.61" stroke-miterlimit="10"/>
<path d="M325.885 1524.67L411.117 669.939L1027.15 168.284" stroke="#181818" stroke-width="1.59" stroke-miterlimit="10"/>
<path d="M342.541 1534.83L427.771 680.084L1042.97 179.108" stroke="#181818" stroke-width="1.57" stroke-miterlimit="10"/>
<path d="M359.186 1544.98L444.425 690.23L1058.8 189.93" stroke="#181818" stroke-width="1.55" stroke-miterlimit="10"/>
<path d="M375.838 1555.12L461.068 700.378L1074.62 200.744" stroke="#181818" stroke-width="1.54" stroke-miterlimit="10"/>
<path d="M392.49 1565.27L477.723 710.533L1090.45 211.566" stroke="#181818" stroke-width="1.52" stroke-miterlimit="10"/>
<path d="M409.145 1575.41L494.377 720.678L1106.27 222.39" stroke="#181818" stroke-width="1.5" stroke-miterlimit="10"/>
<path d="M425.787 1585.56L511.029 730.824L1122.1 233.202" stroke="#181818" stroke-width="1.48" stroke-miterlimit="10"/>
<path d="M442.441 1595.71L527.674 740.972L1137.92 244.026" stroke="#181818" stroke-width="1.46" stroke-miterlimit="10"/>
<path d="M459.096 1605.85L544.328 751.117L1153.75 254.847" stroke="#181818" stroke-width="1.45" stroke-miterlimit="10"/>
<path d="M475.738 1616L560.981 761.263L1169.57 265.672" stroke="#181818" stroke-width="1.43" stroke-miterlimit="10"/>
<path d="M492.395 1626.15L577.625 771.411L1185.4 276.483" stroke="#181818" stroke-width="1.41" stroke-miterlimit="10"/>
<path d="M509.047 1636.3L594.28 781.566L1201.22 287.308" stroke="#181818" stroke-width="1.39" stroke-miterlimit="10"/>
<path d="M525.701 1646.45L610.934 791.712L1217.05 298.129" stroke="#181818" stroke-width="1.38" stroke-miterlimit="10"/>
<path d="M542.344 1656.59L627.586 801.858L1232.87 308.954" stroke="#181818" stroke-width="1.36" stroke-miterlimit="10"/>
<path d="M558.998 1666.74L644.231 812.006L1248.7 319.766" stroke="#181818" stroke-width="1.34" stroke-miterlimit="10"/>
<path d="M575.65 1676.89L660.883 822.151L1264.52 330.59" stroke="#181818" stroke-width="1.32" stroke-miterlimit="10"/>
<path d="M592.295 1687.03L677.537 832.296L1280.35 341.411" stroke="#181818" stroke-width="1.3" stroke-miterlimit="10"/>
<path d="M608.947 1697.18L694.18 842.444L1296.16 352.226" stroke="#181818" stroke-width="1.29" stroke-miterlimit="10"/>
<path d="M625.604 1707.33L710.834 852.59L1311.99 363.047" stroke="#181818" stroke-width="1.27" stroke-miterlimit="10"/>
<path d="M642.248 1717.48L727.488 862.735L1327.82 373.871" stroke="#181818" stroke-width="1.25" stroke-miterlimit="10"/>
<path d="M658.9 1727.63L744.133 872.893L1343.64 384.683" stroke="#181818" stroke-width="1.23" stroke-miterlimit="10"/>
<path d="M675.555 1737.77L760.787 883.039L1359.46 395.507" stroke="#181818" stroke-width="1.21" stroke-miterlimit="10"/>
<path d="M692.207 1747.92L777.44 893.184L1375.29 406.329" stroke="#181818" stroke-width="1.2" stroke-miterlimit="10"/>
<path d="M708.852 1758.07L794.094 903.33L1391.12 417.153" stroke="#181818" stroke-width="1.18" stroke-miterlimit="10"/>
<path d="M725.504 1768.21L810.737 913.478L1406.94 427.965" stroke="#181818" stroke-width="1.16" stroke-miterlimit="10"/>
<path d="M742.158 1778.36L827.391 923.623L1422.76 438.789" stroke="#181818" stroke-width="1.14" stroke-miterlimit="10"/>
<path d="M758.805 1788.52L844.044 933.769L1438.58 449.613" stroke="#181818" stroke-width="1.13" stroke-miterlimit="10"/>
<path d="M775.457 1798.66L860.697 943.914L1454.41 460.435" stroke="#181818" stroke-width="1.11" stroke-miterlimit="10"/>
<path d="M792.111 1808.81L877.341 954.062L1470.23 471.249" stroke="#181818" stroke-width="1.09" stroke-miterlimit="10"/>
<path d="M808.764 1818.95L893.996 964.217L1486.06 482.071" stroke="#181818" stroke-width="1.07" stroke-miterlimit="10"/>
<path d="M825.408 1829.1L910.651 974.363L1501.88 492.895" stroke="#181818" stroke-width="1.05" stroke-miterlimit="10"/>
<path d="M842.061 1839.25L927.294 984.511L1517.71 503.707" stroke="#181818" stroke-width="1.04" stroke-miterlimit="10"/>
</g>
</svg>
