<svg width="568" height="652" viewBox="0 0 568 652" fill="none" xmlns="http://www.w3.org/2000/svg">
<mask id="mask0_2651_1109" style="mask-type:alpha" maskUnits="userSpaceOnUse" x="0" y="0" width="568" height="652">
<rect opacity="0.05" width="568" height="652" fill="#D9D9D9"/>
</mask>
<g mask="url(#mask0_2651_1109)">
<path d="M625.078 -639.289L539.845 215.446L-95.1872 732.585" stroke="#181818" stroke-width="2" stroke-miterlimit="10"/>
<path d="M608.436 -649.437L523.193 205.3L-111.007 721.761" stroke="#181818" stroke-width="1.98" stroke-miterlimit="10"/>
<path d="M591.781 -659.582L506.549 195.152L-126.838 710.94" stroke="#181818" stroke-width="1.96" stroke-miterlimit="10"/>
<path d="M575.129 -669.728L489.896 185.007L-142.658 700.115" stroke="#181818" stroke-width="1.95" stroke-miterlimit="10"/>
<path d="M558.484 -679.876L473.242 174.861L-158.476 689.301" stroke="#181818" stroke-width="1.93" stroke-miterlimit="10"/>
<path d="M541.832 -690.021L456.599 164.713L-174.306 678.479" stroke="#181818" stroke-width="1.91" stroke-miterlimit="10"/>
<path d="M525.178 -700.167L439.945 154.567L-190.127 667.655" stroke="#181818" stroke-width="1.89" stroke-miterlimit="10"/>
<path d="M508.521 -710.322L423.291 144.422L-205.955 656.843" stroke="#181818" stroke-width="1.87" stroke-miterlimit="10"/>
<path d="M491.879 -720.47L406.639 134.276L-221.784 646.022" stroke="#181818" stroke-width="1.86" stroke-miterlimit="10"/>
<path d="M475.225 -730.616L389.992 124.118L-237.606 635.197" stroke="#181818" stroke-width="1.84" stroke-miterlimit="10"/>
<path d="M458.572 -740.761L373.34 113.973L-253.435 624.376" stroke="#181818" stroke-width="1.82" stroke-miterlimit="10"/>
<path d="M441.928 -750.909L356.685 103.828L-269.254 613.561" stroke="#181818" stroke-width="1.8" stroke-miterlimit="10"/>
<path d="M425.275 -761.055L340.043 93.6795L-285.074 602.737" stroke="#181818" stroke-width="1.79" stroke-miterlimit="10"/>
<path d="M408.621 -771.2L323.388 83.534L-300.905 591.916" stroke="#181818" stroke-width="1.77" stroke-miterlimit="10"/>
<path d="M391.969 -781.346L306.736 73.3886L-316.725 581.092" stroke="#181818" stroke-width="1.75" stroke-miterlimit="10"/>
<path d="M375.322 -791.503L290.082 63.2431L-332.552 570.28" stroke="#181818" stroke-width="1.73" stroke-miterlimit="10"/>
<path d="M358.668 -801.649L273.438 53.095L-348.374 559.456" stroke="#181818" stroke-width="1.71" stroke-miterlimit="10"/>
<path d="M342.016 -811.794L256.785 42.9494L-364.203 548.634" stroke="#181818" stroke-width="1.7" stroke-miterlimit="10"/>
<path d="M325.371 -821.942L240.129 32.7943L-380.022 537.82" stroke="#181818" stroke-width="1.68" stroke-miterlimit="10"/>
<path d="M308.719 -832.088L223.486 22.6458L-395.851 526.997" stroke="#181818" stroke-width="1.66" stroke-miterlimit="10"/>
<path d="M292.064 -842.233L206.832 12.5008L-411.673 516.174" stroke="#181818" stroke-width="1.64" stroke-miterlimit="10"/>
<path d="M275.412 -852.379L190.179 2.3553L-427.502 505.352" stroke="#181818" stroke-width="1.62" stroke-miterlimit="10"/>
<path d="M258.768 -862.527L173.535 -7.79308L-443.321 494.537" stroke="#181818" stroke-width="1.61" stroke-miterlimit="10"/>
<path d="M242.115 -872.673L156.883 -17.9386L-459.15 483.716" stroke="#181818" stroke-width="1.59" stroke-miterlimit="10"/>
<path d="M225.459 -882.828L140.229 -28.0842L-474.971 472.892" stroke="#181818" stroke-width="1.57" stroke-miterlimit="10"/>
<path d="M208.814 -892.976L123.575 -38.2296L-490.803 462.07" stroke="#181818" stroke-width="1.55" stroke-miterlimit="10"/>
<path d="M192.162 -903.122L106.932 -48.3778L-506.62 451.256" stroke="#181818" stroke-width="1.54" stroke-miterlimit="10"/>
<path d="M175.51 -913.267L90.277 -58.5329L-522.449 440.434" stroke="#181818" stroke-width="1.52" stroke-miterlimit="10"/>
<path d="M158.855 -923.413L73.6227 -68.6785L-538.271 429.61" stroke="#181818" stroke-width="1.5" stroke-miterlimit="10"/>
<path d="M142.213 -933.561L56.9705 -78.8238L-554.097 418.798" stroke="#181818" stroke-width="1.48" stroke-miterlimit="10"/>
<path d="M125.559 -943.706L40.3259 -88.9718L-569.919 407.974" stroke="#181818" stroke-width="1.46" stroke-miterlimit="10"/>
<path d="M108.904 -953.852L23.6716 -99.1173L-585.75 397.153" stroke="#181818" stroke-width="1.45" stroke-miterlimit="10"/>
<path d="M92.2617 -964L7.01936 -109.263L-601.569 386.328" stroke="#181818" stroke-width="1.43" stroke-miterlimit="10"/>
<path d="M75.6055 -974.155L-9.62466 -119.411L-617.397 375.517" stroke="#181818" stroke-width="1.41" stroke-miterlimit="10"/>
<path d="M58.9531 -984.3L-26.2796 -129.566L-633.217 364.692" stroke="#181818" stroke-width="1.39" stroke-miterlimit="10"/>
<path d="M42.2988 -994.446L-42.9339 -139.712L-649.048 353.871" stroke="#181818" stroke-width="1.38" stroke-miterlimit="10"/>
<path d="M25.6562 -1004.59L-59.5861 -149.858L-664.868 343.046" stroke="#181818" stroke-width="1.36" stroke-miterlimit="10"/>
<path d="M9.00195 -1014.74L-76.2308 -160.006L-680.696 332.234" stroke="#181818" stroke-width="1.34" stroke-miterlimit="10"/>
<path d="M-7.65039 -1024.89L-92.8831 -170.151L-696.516 321.41" stroke="#181818" stroke-width="1.32" stroke-miterlimit="10"/>
<path d="M-24.2949 -1035.03L-109.537 -180.296L-712.347 310.589" stroke="#181818" stroke-width="1.3" stroke-miterlimit="10"/>
<path d="M-40.9473 -1045.18L-126.18 -190.444L-728.164 299.774" stroke="#181818" stroke-width="1.29" stroke-miterlimit="10"/>
<path d="M-57.6035 -1055.33L-142.834 -200.59L-743.995 288.953" stroke="#181818" stroke-width="1.27" stroke-miterlimit="10"/>
<path d="M-74.248 -1065.48L-159.488 -210.735L-759.816 278.129" stroke="#181818" stroke-width="1.25" stroke-miterlimit="10"/>
<path d="M-90.9004 -1075.63L-176.133 -220.893L-775.643 267.317" stroke="#181818" stroke-width="1.23" stroke-miterlimit="10"/>
<path d="M-107.555 -1085.77L-192.787 -231.039L-791.465 256.493" stroke="#181818" stroke-width="1.21" stroke-miterlimit="10"/>
<path d="M-124.207 -1095.92L-209.44 -241.184L-807.294 245.671" stroke="#181818" stroke-width="1.2" stroke-miterlimit="10"/>
<path d="M-140.852 -1106.07L-226.094 -251.33L-823.115 234.847" stroke="#181818" stroke-width="1.18" stroke-miterlimit="10"/>
<path d="M-157.504 -1116.21L-242.737 -261.478L-838.942 224.035" stroke="#181818" stroke-width="1.16" stroke-miterlimit="10"/>
<path d="M-174.158 -1126.36L-259.391 -271.623L-854.763 213.211" stroke="#181818" stroke-width="1.14" stroke-miterlimit="10"/>
<path d="M-190.805 -1136.52L-276.044 -281.769L-870.584 202.387" stroke="#181818" stroke-width="1.13" stroke-miterlimit="10"/>
<path d="M-207.457 -1146.66L-292.697 -291.914L-886.414 191.565" stroke="#181818" stroke-width="1.11" stroke-miterlimit="10"/>
<path d="M-224.111 -1156.81L-309.341 -302.062L-902.232 180.751" stroke="#181818" stroke-width="1.09" stroke-miterlimit="10"/>
<path d="M-240.764 -1166.95L-325.996 -312.217L-918.062 169.929" stroke="#181818" stroke-width="1.07" stroke-miterlimit="10"/>
<path d="M-257.408 -1177.1L-342.651 -322.363L-933.884 159.105" stroke="#181818" stroke-width="1.05" stroke-miterlimit="10"/>
<path d="M-274.061 -1187.25L-359.294 -332.511L-949.71 148.293" stroke="#181818" stroke-width="1.04" stroke-miterlimit="10"/>
</g>
</svg>
