<svg width="578" height="648" viewBox="0 0 578 648" fill="none" xmlns="http://www.w3.org/2000/svg">
<path d="M532.606 484.792C518.438 464.658 504.278 442.235 486.289 425.291C486.082 425.097 485.853 424.976 485.616 424.898C485.56 423.893 485.491 422.887 485.435 421.881C484.394 402.083 486.255 379.691 480.742 360.593C480.712 360.489 480.625 360.433 480.565 360.351C483.591 359.57 486.237 357.968 488.405 355.883C501.2 367.289 518.826 374.239 533.797 382.277C545.345 388.481 561.724 401.859 574.882 402.701C576.941 402.834 578.172 400.676 577.787 398.889L577.58 397.93C577.489 397.507 577.222 397.127 576.898 396.795C577.006 396.355 576.924 395.854 576.557 395.327C568.074 383.162 556.643 373.246 546.122 362.89C534.557 351.506 523.83 339.613 513.145 327.421C512.286 326.437 511.09 326.321 510.041 326.709C508.867 326.031 507.382 326.044 506.178 327.404C502.146 331.946 497.941 336.444 494.224 341.266C494.202 340.843 494.189 340.424 494.142 339.997C493.663 335.878 490.939 329.878 487.092 325.811C487.589 325.673 488.038 325.358 488.323 324.801C504.964 292.596 518.882 258.523 533.508 225.351C534.98 222.01 530.111 219.057 528.531 222.441C528.388 222.744 528.246 223.05 528.103 223.352C502.413 243.56 479.913 269.76 456.472 292.497C454.879 294.043 455.824 296.136 457.379 296.866C457.387 296.875 457.383 296.883 457.391 296.896C460.823 301.938 464.502 306.851 468.503 311.453C471.167 314.518 473.921 318.537 477.12 321.572C476.175 321.753 475.216 322.09 474.254 322.655C474.141 322.63 474.042 322.586 473.913 322.578C468.948 322.211 464.514 324.697 461.303 328.423C460.729 327.542 459.718 326.942 458.41 327.214C422.864 334.579 385.583 341.072 351.298 353.138C349.714 353.694 349.653 355.352 350.508 356.254C350.374 356.28 350.232 356.285 350.093 356.311C349.437 356.44 349.308 357.459 349.903 357.757C362.12 363.878 378.171 363.472 391.61 364.409C409.37 365.648 427.181 366.438 444.985 366.274C445.585 366.27 446.051 366.076 446.457 365.821C447.393 366.153 448.516 365.963 448.948 364.944C451.257 359.518 452.949 353.858 455.242 348.419C455.626 347.508 456.075 346.602 456.537 345.695C457.724 350.871 461.169 355.244 465.667 357.955C463.237 382.251 462.464 406.828 461.842 431.417C461.121 431.508 460.422 431.87 459.895 432.604C449.271 447.459 438.682 462.331 428.153 477.25C422.303 485.539 416.557 493.905 410.686 502.181C403.49 512.326 395.87 525.367 381.694 515.455C368.108 505.958 357.165 487.3 347.102 474.31C336.486 460.608 327.14 445.382 315.26 432.764C315.091 432.583 314.91 432.466 314.724 432.371C314.392 425.667 314.06 418.967 313.762 412.258C312.208 377.364 311.236 342.449 310.52 307.525C309.79 271.961 311.931 235.518 308.357 200.123C313.524 197.891 317.41 193.725 319.918 188.756C320.652 192.041 321.658 195.292 322.542 198.4C324.261 204.44 326.203 210.643 329.635 215.949C329.432 217.313 329.985 218.789 331.682 219.299C363.191 228.718 399.691 240.249 433.078 238.19C433.635 238.518 434.196 238.842 434.749 239.174C437.439 240.771 439.817 236.653 437.192 234.995C418.051 222.916 398.482 211.545 378.495 200.934C360.864 191.575 342.457 180.506 323.255 174.726C323.294 166.304 319.883 158.313 312.67 154.773C317.345 151.225 320.397 145.293 323.712 140.544C328.185 134.138 332.618 127.714 337.013 121.256C337.142 121.066 337.177 120.885 337.246 120.704C337.699 120.099 337.889 119.296 337.531 118.308C323.497 79.8996 313.386 40.2915 299.723 1.83598C299.283 0.601332 298.199 0.268919 297.297 0.558156C295.842 -0.603107 292.984 0.0444407 292.855 2.53101C290.282 52.2279 286.833 103.867 291.663 153.525C283.375 156.392 276.429 165.091 275.233 173.396C275.103 174.303 275.039 175.205 275.008 176.099C271.87 173.409 268.244 171.078 265.131 168.669C260.067 164.75 255.112 160.549 249.547 157.355C248.666 156.85 247.79 157.07 247.181 157.605C246.797 157.363 246.275 157.324 245.8 157.722C228.066 172.399 212.128 188.825 195.801 205.04C181.045 219.696 164.257 233.717 152.091 250.636C151.504 251.456 152.346 252.531 153.223 252.522C153.495 253.55 154.384 254.37 155.614 253.886C176.556 245.727 196.384 234.227 216.259 223.788C237.136 212.819 258.246 201.962 278.358 189.624C281.022 194.226 285.114 197.938 290.152 200.028C289.431 206.361 289.017 212.759 288.719 219.178C288.395 219.161 288.072 219.143 287.748 219.126C287.294 219.1 287.299 219.795 287.748 219.83C288.059 219.856 288.374 219.877 288.685 219.903C287.454 247.553 289.384 275.795 288.957 303.216C288.4 339.107 287.428 374.981 286.371 410.86C277.793 400.123 268.347 386.944 257.797 379.531C253.178 376.285 249.206 374.822 243.65 376.419C236.54 378.461 232.94 385.131 229.965 391.261C224.038 403.478 220.127 417.072 215.197 429.729C203.623 459.447 191.587 488.984 179.09 518.326C174.112 530.004 169.968 547.159 162.318 557.067C161.481 563.318 157.639 565.519 150.792 563.68C148.478 560.844 146.164 558.012 143.855 555.176C139.184 549.538 134.314 544.176 129.324 538.823C129.16 538.646 128.966 538.555 128.767 538.495C127.511 521.693 126.254 504.887 125.11 488.077C122.214 445.464 123.66 401 116.77 358.866C116.766 358.832 116.744 358.81 116.736 358.776C125.728 356.155 131.884 346.718 132.743 337.057C132.821 336.206 132.821 335.308 132.782 334.398C139.905 341.322 147.541 347.992 155.545 353.699C154.522 355.875 157.268 358.991 159.56 357.316C175.973 345.324 191.441 331.864 206.904 318.68C213.315 313.214 232.931 301.144 235.068 290.783C235.249 290.706 235.43 290.632 235.607 290.55C238.077 289.48 236.307 285.223 233.76 286.168C199.384 298.882 164.334 310.404 130.248 323.804C130.226 323.812 130.217 323.825 130.2 323.834C126.954 316.724 120.858 311.008 112.85 312.58C112.6 312.627 112.397 312.744 112.216 312.886C109.699 312.424 107.225 312.657 104.873 313.374C104.769 313.085 104.631 312.796 104.402 312.519C78.2973 281.636 51.5882 249.733 21.8141 222.308C21.5681 222.079 21.309 221.936 21.0543 221.846C21.0414 221.828 21.0328 221.807 21.0198 221.785C20.0442 220.123 17.0827 221.22 17.8037 223.141C30.6725 257.534 48.4455 290.965 64.66 323.903C65.1262 324.848 65.8601 325.22 66.6199 325.254C66.6501 325.509 66.7192 325.751 66.853 325.958C67.0343 326.243 67.2502 326.454 67.4919 326.696C67.6862 326.895 68.0013 326.985 68.3165 326.998C71.6276 328.406 77.6584 327.003 80.6932 326.532C84.4231 325.949 88.658 325.241 92.3792 323.735C90.7431 326.467 89.5991 329.455 89.1933 332.438C88.6321 336.513 89.3099 340.618 90.8553 344.383C65.2212 375.452 39.8979 408.343 17.8943 442.058C17.0007 443.427 18.3217 444.998 19.6643 445.024C20.1392 445.534 20.8342 445.814 21.6587 445.555C35.6889 441.104 47.3965 429.319 58.9228 420.569C72.3312 410.389 86.5556 400.728 99.0058 389.366C99.5368 389.745 100.275 389.65 100.802 389.219C100.767 400.577 100.953 411.952 100.517 423.159C99.6922 444.226 98.4618 465.292 97.0761 486.329C96.4631 495.584 95.794 504.831 95.155 514.087C88.0968 505.047 77.5246 489.998 66.3523 489.079C55.875 488.215 49.2484 499.176 44.1372 506.58C24.2057 535.434 8.574 570.631 0.0393638 604.648C-0.31031 606.047 1.76616 607.053 2.45255 605.667C13.4392 583.491 20.9162 559.778 32.2741 537.722C37.7006 527.189 43.6796 516.815 50.6558 507.223C66.3911 485.582 81.8588 508.712 93.8599 519.483C94.1492 519.742 94.4471 519.902 94.7449 520.001C92.4742 552.732 90.1128 585.459 87.7644 618.186C87.6824 619.309 88.1788 620.055 88.8782 620.513C88.3256 621.696 88.2868 622.477 88.4767 623.949C87.6133 635.1 94.8485 645.715 106.5 647.589C121.527 650.007 130.908 638.441 134.219 625.318C135.001 624.878 135.562 624.1 135.458 622.887C133.213 596.468 131.128 570.035 129.134 543.598C135.501 554.222 148.931 578.591 160.488 571.403C166.476 567.678 169.657 554.658 172.191 548.951C178.304 535.175 184.253 521.331 190.133 507.456C200.821 482.236 211.178 456.874 221.189 431.374C224.129 423.893 227.034 416.394 229.913 408.891C232.119 403.141 233.963 393.501 237.982 389.206C252.832 373.354 277.331 409.815 286.099 418.932C284.001 487.499 280.992 556.039 276.83 624.511C276.752 625.754 277.348 626.552 278.164 627.001C277.728 638.273 290.528 643.561 300.163 645.12C313.628 647.296 325.923 640.876 327.917 626.496C327.943 626.298 327.926 626.108 327.9 625.922C328.129 625.512 328.284 625.033 328.228 624.416C322.823 563.059 318.264 501.663 315.091 440.159C325.258 458.692 340.151 475.67 353.301 491.945C361.831 502.505 374.432 525.099 390.034 525.851C404.09 526.528 412.482 509.774 419.148 500.1C433.117 479.828 447.268 459.685 461.618 439.684C461.143 458.99 460.659 478.282 459.446 497.441C458.022 519.945 456.342 542.436 454.339 564.898C453.247 577.149 452.073 589.396 450.821 601.635C450.113 608.581 447.074 616.8 450.169 623.297C450.294 623.561 450.51 623.721 450.705 623.898C453.027 633.391 461.803 641.118 471.534 642.948C482.344 644.986 500.294 639.102 500.341 625.922C500.341 625.655 500.263 625.417 500.151 625.201C500.678 624.701 500.997 623.962 500.911 622.965C497.03 578.306 492.981 533.673 489.739 488.962C488.353 469.834 487.079 450.697 485.991 431.547C498.597 452.005 515.053 470.667 528.833 490.305C543.714 511.51 557.968 533.116 571.748 555.051C573.626 558.038 578.336 555.323 576.497 552.275C562.656 529.287 548.056 506.744 532.606 484.792ZM449.871 346.157C447.903 350.832 446.28 355.659 445.464 360.653C445.3 360.627 445.166 360.554 444.985 360.554C428.157 360.394 411.355 360.144 394.571 358.836C383.507 357.973 371.423 355.287 359.984 355.395C392.577 349.235 424.863 339.975 457.318 333.033C453.614 336.293 451.741 341.715 449.871 346.157ZM378.24 207.203C394.053 215.621 409.629 224.436 425.079 233.484C411.653 230.458 397.779 228.96 384.327 226.236C367.115 222.752 350.124 218.431 333.292 213.441C333.149 213.397 333.033 213.428 332.895 213.406C331.988 207.734 330.179 202.247 328.647 196.712C327.075 191.036 326.134 184.975 323.868 179.527C340.976 190.142 360.489 197.753 378.24 207.203ZM215.918 217.153C198.9 226.193 181.162 234.404 164.378 243.987C176.901 233.204 188.16 220.456 199.742 208.964C215.806 193.03 232.055 177.45 246.672 160.178C246.762 160.342 246.845 160.51 246.991 160.661C251.822 165.656 257.602 169.727 263.059 174.005C267.104 177.178 271.166 181.158 275.85 183.382C275.993 183.917 276.114 184.461 276.286 184.988C255.88 195.124 236.039 206.464 215.918 217.153ZM229.292 293.248C224.591 297.125 217.761 301.36 215.698 303.13C209.149 308.742 202.626 314.384 196.034 319.944C184.089 330.016 171.742 339.643 159.845 349.762C151.375 341.801 141.545 334.622 131.767 328.224C131.677 327.896 131.607 327.568 131.504 327.244C164.65 319.284 197.825 306.709 229.292 293.248ZM81.1551 320.803C77.5634 321.529 73.2292 321.546 69.59 322.638C69.6375 322.163 69.6072 321.671 69.3698 321.153C56.6305 293.447 44.2839 264.666 29.8048 237.572C52.8402 263.893 77.244 289.152 100.249 315.494C99.213 316.15 98.246 316.927 97.3135 317.756C96.9768 317.466 96.558 317.277 96.0789 317.289C91.0669 317.441 86.0894 319.811 81.1551 320.803ZM97.3998 384.794C72.4694 400.205 51.5753 422.174 26.7355 437.707C50.5263 409.828 72.927 379.76 93.8038 349.744C93.86 349.822 93.929 349.896 93.9895 349.973C93.9549 350.193 93.8945 350.396 93.9204 350.66C95.0039 361.793 95.2284 373.673 97.5682 384.72C97.5078 384.751 97.456 384.759 97.3998 384.794ZM95.9968 330.068C98.6388 322.366 105.87 318.956 112.945 316.219C118.708 319.223 124.342 321.71 126.893 327.283C126.703 327.793 126.755 328.397 127.217 328.863C127.347 328.997 127.489 329.127 127.619 329.26C127.968 330.469 128.232 331.769 128.309 333.262C128.909 344.953 118.635 359.125 105.848 352.632C97.6848 348.493 92.962 338.913 95.9968 330.068ZM99.9123 355.702C100.672 356.22 101.462 356.695 102.282 357.118C101.855 360.817 101.579 364.547 101.359 368.29C100.97 364.059 100.439 359.837 99.9123 355.702ZM129.527 622.887C129.535 622.974 129.579 623.03 129.591 623.112C126.703 632.76 121.458 642.504 109.88 642.158C101.475 641.908 95.9321 636.106 94.0585 628.888C98.3021 629.018 102.559 629.13 106.785 628.974C107.614 628.944 107.614 627.718 106.785 627.688C102.468 627.528 98.1294 627.649 93.7995 627.783C93.6096 626.846 93.4671 625.892 93.398 624.925C93.6786 624.532 93.8988 624.096 93.9333 623.569C94.0801 621.368 94.0758 621.294 93.4542 619.227C93.4455 619.196 93.4153 619.183 93.4067 619.153C93.4887 618.95 93.5362 618.721 93.5837 618.493C99.2475 618.683 105.019 618.726 110.588 617.94C111.262 617.845 111.085 616.766 110.433 616.775C104.855 616.831 99.2993 617.241 93.7218 617.366C93.9679 613.545 94.2183 609.725 94.4643 605.9C100.275 606.12 106.276 606.53 112 605.909C112.669 605.835 112.673 604.937 112 604.864C106.297 604.242 100.327 604.648 94.5334 604.868C94.7363 601.756 94.9392 598.639 95.1421 595.526C98.328 595.419 101.587 595.25 104.7 594.836C105.222 594.767 105.235 594.067 104.7 594.011C101.665 593.696 98.3151 593.959 95.2025 594.555C95.4098 591.33 95.6213 588.11 95.8328 584.885C100.534 584.764 105.257 584.708 109.923 584.242C110.558 584.177 110.588 583.236 109.923 583.232C105.252 583.184 100.569 583.547 95.8975 583.849C96.1393 580.145 96.394 576.437 96.6315 572.733C98.7727 572.482 100.91 572.435 103.128 572.526C103.767 572.552 103.729 571.636 103.128 571.559C101.005 571.282 98.8245 571.408 96.6962 571.775C96.938 568.027 97.197 564.285 97.4387 560.537C101.078 560.637 104.734 560.745 108.348 560.438C108.883 560.391 108.887 559.648 108.348 559.601C104.76 559.294 101.121 559.402 97.5078 559.501C97.7323 556.035 97.9697 552.568 98.1942 549.102C100.551 549.08 102.917 549.02 105.231 548.709C105.736 548.64 105.77 547.915 105.231 547.897C102.921 547.815 100.581 547.984 98.2546 548.187C98.4791 544.711 98.7165 541.241 98.9453 537.766C101.902 537.61 104.855 537.653 107.825 537.528C108.287 537.511 108.447 536.755 107.942 536.673C104.989 536.211 101.989 536.328 99.0187 536.669C99.2734 532.741 99.5411 528.808 99.7958 524.879C102.123 524.935 104.458 525.03 106.781 524.931C107.26 524.91 107.264 524.202 106.781 524.184C104.471 524.085 102.149 524.18 99.8346 524.236C100.124 519.777 100.426 515.317 100.72 510.854C104.009 510.672 107.333 510.53 110.58 510.029C111.18 509.938 111.029 508.976 110.437 508.98C107.225 509.015 103.996 509.416 100.793 509.774C101.026 506.195 101.268 502.617 101.501 499.038C103.845 499.202 106.271 499.172 108.503 498.589C109.034 498.451 108.943 497.566 108.369 497.605C106.064 497.764 103.841 498.032 101.566 498.054C101.838 493.892 102.11 489.735 102.39 485.578C104.195 485.388 105.973 485.409 107.821 485.383C108.322 485.375 108.477 484.559 107.946 484.477C106.137 484.201 104.272 484.33 102.455 484.637C102.485 484.205 102.511 483.769 102.541 483.333C102.744 480.402 102.934 477.466 103.133 474.535C105.045 474.565 106.962 474.587 108.87 474.449C109.487 474.401 109.487 473.538 108.87 473.49C106.988 473.352 105.101 473.374 103.21 473.404C103.5 469.104 103.746 464.804 104.018 460.505C106.513 460.565 109.017 460.582 111.477 460.38C112.108 460.328 112.108 459.451 111.477 459.4C109.043 459.201 106.565 459.214 104.091 459.274C104.316 455.678 104.514 452.082 104.726 448.486C106.673 448.551 108.654 448.612 110.541 448.292C110.934 448.223 110.934 447.563 110.541 447.498C108.676 447.183 106.72 447.239 104.795 447.304C105.015 443.574 105.214 439.844 105.412 436.114C106.733 436.239 108.058 436.347 109.384 436.399C109.893 436.416 110.027 435.561 109.509 435.492C108.166 435.307 106.819 435.181 105.473 435.069C105.65 431.702 105.783 428.33 105.935 424.963C107.26 424.98 108.585 424.98 109.91 424.885C110.498 424.842 110.498 424.013 109.91 423.97C108.598 423.875 107.29 423.875 105.982 423.893C106.081 421.643 106.211 419.399 106.293 417.15C106.349 415.587 106.418 414.011 106.483 412.435C107.972 412.44 109.461 412.435 110.951 412.34C111.508 412.306 111.512 411.507 110.951 411.473C109.474 411.382 107.998 411.373 106.526 411.378C106.716 406.931 106.923 402.446 107.091 397.939C108.486 397.93 109.841 398.138 111.322 398.371C111.831 398.453 112.263 397.727 111.706 397.456C110.295 396.76 108.702 396.614 107.13 396.735C107.286 392.223 107.355 387.708 107.35 383.192C108.512 383.145 109.673 383.283 110.839 383.628C111.357 383.779 111.525 383.037 111.054 382.843C109.828 382.333 108.589 382.152 107.342 382.208C107.325 379.061 107.238 375.927 107.096 372.801C108.559 372.827 110.027 372.814 111.473 372.702C112.03 372.659 112.034 371.878 111.473 371.834C110.01 371.718 108.529 371.709 107.048 371.735C106.819 367.306 106.444 362.907 105.814 358.568C106.625 358.819 107.45 359.039 108.296 359.19C110.346 359.561 112.306 359.561 114.171 359.307C111.02 402.511 117.387 447.934 120.003 491.129C122.667 535.089 125.853 579.005 129.527 622.887ZM297.767 12.896C304.916 49.3312 318.489 85.5376 331.846 119.862C331.859 119.892 331.88 119.905 331.889 119.931C327.926 125.569 323.989 131.224 320.086 136.909C316.551 142.064 311.426 147.551 309.924 153.69C307.977 153.111 305.819 152.796 303.423 152.839C302.861 152.848 302.43 153.038 302.059 153.288C299.922 152.576 297.759 152.399 295.639 152.615C297.854 106.164 296.153 59.4459 297.767 12.896ZM281.264 172.52C283.729 161.918 292.738 159.215 301.959 157.48C302.348 157.769 302.81 157.981 303.427 157.989C327.58 158.162 320.427 200.762 296.084 195.836C285.49 193.69 278.807 183.075 281.264 172.52ZM322.43 624.42C322.521 625.387 322.991 626.086 323.626 626.548C318.161 635.769 314.327 641.524 301.325 639.516C292.462 638.148 285.671 634.893 282.257 626.19C282.606 625.741 282.874 625.21 282.913 624.511C282.939 624.079 282.956 623.651 282.982 623.22C289.427 623.699 295.915 623.751 302.361 623.336C303.017 623.293 303.034 622.296 302.361 622.3C295.911 622.369 289.479 622.287 283.038 622.132C283.254 618.238 283.439 614.34 283.651 610.446C287.001 611.154 290.852 610.653 294.141 610.053C294.707 609.949 294.586 608.969 294.003 609.039C290.601 609.427 287.07 609.298 283.685 609.738C283.888 605.995 284.065 602.257 284.264 598.514C288.555 598.587 292.846 598.674 297.133 598.522C297.698 598.501 297.698 597.663 297.133 597.642C292.859 597.491 288.585 597.577 284.307 597.65C284.532 593.428 284.726 589.206 284.946 584.984C291.322 585.325 297.798 585.209 304.057 584.095C304.571 584.005 304.459 583.132 303.932 583.176C297.573 583.715 291.331 584.186 284.985 584.164C285.166 580.594 285.33 577.02 285.512 573.445C288.689 573.441 291.896 573.329 295.043 573.052C295.708 572.992 295.734 571.995 295.043 571.995C291.901 572.003 288.71 572.185 285.559 572.465C285.792 567.859 285.999 563.249 286.224 558.638C292.108 559.078 298.014 559.488 303.902 559.575C304.606 559.588 304.584 558.556 303.902 558.496C298.052 557.982 292.151 557.788 286.271 557.623C286.435 554.226 286.586 550.829 286.746 547.431C290.554 547.53 294.374 547.612 298.169 547.444C298.786 547.418 298.786 546.516 298.169 546.486C294.392 546.313 290.584 546.395 286.789 546.494C286.962 542.851 287.122 539.207 287.29 535.568C292.302 535.952 297.314 536.354 302.339 536.544C303.004 536.57 302.987 535.577 302.339 535.521C297.349 535.08 292.341 534.852 287.333 534.601C287.506 530.902 287.64 527.202 287.808 523.507C290.632 523.662 293.507 523.671 296.226 523.135C296.723 523.036 296.593 522.276 296.11 522.272C293.347 522.25 290.606 522.479 287.851 522.552C288.05 518.132 288.214 513.707 288.408 509.282C293.93 509.381 299.425 509.766 304.951 510.003C305.732 510.038 305.693 508.902 304.951 508.816C299.494 508.19 293.943 508.224 288.443 508.427C288.59 505.034 288.715 501.641 288.862 498.248C292.134 498.041 295.406 497.967 298.691 497.911C299.352 497.898 299.347 496.914 298.691 496.888C295.423 496.763 292.151 496.983 288.896 497.337C289.06 493.435 289.207 489.532 289.367 485.634C293.524 485.547 297.681 485.306 301.821 484.956C302.469 484.9 302.486 483.907 301.821 483.933C297.677 484.088 293.528 484.356 289.401 484.77C289.561 480.898 289.703 477.026 289.859 473.153C292.44 472.812 295.018 472.523 297.647 472.433C298.29 472.411 298.294 471.448 297.647 471.431C295.078 471.366 292.458 471.535 289.906 472.001C290.066 468.059 290.204 464.114 290.36 460.172C294.348 459.754 298.337 459.719 302.339 459.844C302.935 459.862 302.913 458.985 302.339 458.933C298.337 458.554 294.374 458.739 290.394 459.266C290.58 454.435 290.757 449.604 290.934 444.778C294.098 444.877 297.262 444.726 300.392 444.217C300.932 444.131 300.811 443.202 300.263 443.254C297.159 443.565 294.076 443.725 290.973 443.751C291.115 439.887 291.227 436.023 291.361 432.16C294.849 432.216 298.337 432.298 301.821 432.22C302.486 432.203 302.486 431.201 301.821 431.184C298.346 431.106 294.866 431.188 291.391 431.244C291.551 426.677 291.698 422.11 291.849 417.542C295.695 417.65 299.55 417.728 303.388 417.629C304.066 417.611 304.07 416.593 303.388 416.575C299.563 416.476 295.713 416.549 291.879 416.657C291.935 414.896 292.004 413.135 292.056 411.369C292.134 408.572 292.177 405.774 292.25 402.977C294.746 403.007 297.241 403.042 299.736 402.96C300.332 402.938 300.332 402.057 299.736 402.036C297.249 401.954 294.759 401.988 292.272 402.019C292.397 397.192 292.479 392.366 292.591 387.535C295.147 387.311 297.668 387.384 300.254 387.302C300.703 387.289 300.85 386.572 300.366 386.482C297.837 386.011 295.182 386.201 292.613 386.585C292.717 382.23 292.79 377.869 292.885 373.514C296.162 373.224 299.434 373.35 302.719 373.82C303.397 373.915 303.708 372.905 303.008 372.771C299.624 372.128 296.278 372.063 292.907 372.434C292.997 368.247 293.045 364.059 293.127 359.872C296.023 359.717 298.89 359.712 301.812 359.734C302.438 359.738 302.395 358.862 301.812 358.788C298.972 358.417 296.019 358.534 293.144 358.892C293.23 354.627 293.308 350.366 293.394 346.101C295.855 346.135 298.316 346.17 300.776 346.088C301.329 346.071 301.329 345.25 300.776 345.229C298.32 345.147 295.868 345.181 293.412 345.216C293.502 340.467 293.567 335.723 293.653 330.974C295.855 331.026 298.057 331.095 300.254 330.983C300.828 330.953 300.828 330.12 300.254 330.094C298.065 329.981 295.864 330.05 293.666 330.102C293.744 325.854 293.809 321.606 293.882 317.363C295.173 317.315 296.455 317.173 297.742 316.81C298.195 316.681 298.005 316.016 297.547 316.111C296.334 316.357 295.117 316.499 293.895 316.577C293.956 313.145 294.025 309.713 294.072 306.286C294.081 305.496 294.111 304.697 294.128 303.907C296.153 303.669 298.195 303.7 300.245 303.933C300.763 303.993 300.871 303.138 300.366 303.026C298.277 302.564 296.213 302.53 294.15 302.802C294.228 298.718 294.344 294.608 294.487 290.49C296.921 290.352 299.365 290.296 301.817 290.308C302.382 290.313 302.352 289.51 301.817 289.449C299.378 289.169 296.947 289.229 294.525 289.467C294.689 284.783 294.879 280.073 295.069 275.359C296.865 275.367 298.661 275.19 300.396 274.75C300.897 274.621 300.811 273.749 300.271 273.822C298.536 274.051 296.826 274.172 295.117 274.228C295.294 269.855 295.462 265.469 295.622 261.078C296.636 261.052 297.655 261.065 298.687 261.104C299.123 261.121 299.235 260.405 298.791 260.327C297.742 260.137 296.697 260.09 295.652 260.116C295.803 255.751 295.928 251.382 296.015 247.014C297.081 247.018 298.147 247.005 299.209 246.91C299.632 246.871 299.632 246.288 299.209 246.25C298.152 246.155 297.094 246.142 296.032 246.146C296.114 241.872 296.136 237.607 296.114 233.346C296.973 233.342 297.828 233.346 298.687 233.312C299.063 233.294 299.063 232.742 298.687 232.729C297.828 232.694 296.969 232.699 296.105 232.694C296.08 228.567 295.976 224.453 295.82 220.352C296.08 220.365 296.334 220.387 296.593 220.395C297.059 220.413 297.042 219.726 296.593 219.679C296.326 219.653 296.058 219.644 295.79 219.618C295.631 215.642 295.376 211.684 295.061 207.742C297.176 207.893 299.278 207.751 301.394 207.306C301.877 207.203 301.778 206.369 301.277 206.43C299.17 206.689 297.068 206.71 294.966 206.641C294.819 204.88 294.694 203.119 294.504 201.366C295.363 201.543 296.239 201.677 297.137 201.763C300.008 202.04 302.659 201.828 305.08 201.228C301.584 235.172 304.075 270.364 304.735 304.421C305.43 340.372 306.716 376.311 308.258 412.237C311.305 483.061 315.847 553.855 322.43 624.42ZM481.105 434.184C478.761 433.99 476.421 433.899 474.072 433.826C472.95 433.791 470.601 433.342 469.082 433.511C469.345 428.93 469.578 424.35 469.79 419.774C471.694 419.973 473.61 420.12 475.488 420.068C475.825 420.059 475.937 419.507 475.57 419.45C473.688 419.166 471.75 419.075 469.82 419.036C469.971 415.695 470.075 412.358 470.187 409.016C472 408.766 473.809 408.481 475.583 408.067C475.95 407.98 475.881 407.359 475.493 407.397C473.727 407.562 471.97 407.855 470.217 408.179C470.373 403.413 470.463 398.651 470.519 393.894C472.544 394.205 474.573 394.291 476.632 394.011C477.055 393.954 476.943 393.272 476.533 393.277C474.513 393.285 472.514 393.182 470.524 392.927C470.571 388.278 470.55 383.641 470.476 379.013C471.979 379.074 473.485 379.117 474.97 378.983C475.557 378.931 475.557 378.124 474.97 378.068C473.481 377.93 471.97 377.977 470.468 378.038C470.36 371.947 470.144 365.873 469.76 359.829C471.897 360.554 474.154 360.947 476.442 360.908C477.254 360.895 478.04 360.809 478.817 360.692C475.147 380.17 479.188 402.174 480.375 421.872C480.621 425.982 480.863 430.083 481.105 434.184ZM572.279 396.976C571.908 397.434 571.649 397.982 571.597 398.543C570.807 397.179 570.021 395.815 569.231 394.447C570.237 395.306 571.256 396.143 572.279 396.976ZM490.783 353.06C491.422 353.207 492.147 352.745 492.147 352.015C492.147 351.316 495.368 349.58 495.972 349.08C497.993 347.418 499.724 345.479 501.459 343.532C504.382 340.256 507.222 336.919 510.058 333.569C518.395 344.663 528.267 354.605 538.093 364.362C547.845 374.045 557.476 384.276 567.914 393.32C566.468 392.534 565.026 391.753 563.584 390.967C560.325 388.753 556.466 387.09 552.999 385.213C545.047 380.913 537.078 376.652 529.118 372.374C516.754 365.73 504.144 357.26 490.511 353.457C490.611 353.332 490.693 353.194 490.783 353.06ZM474.223 308.673C470.114 304.054 465.732 299.719 461.121 295.605C480.716 276.852 503.186 258.497 521.356 237.745C508.379 265.378 495.286 293.292 484.623 321.766C482.628 316.672 477.824 312.718 474.223 308.673ZM461.195 342.501C460.577 333.988 466.984 329.131 473.986 326.204C474.124 326.239 474.262 326.277 474.422 326.282C483.544 326.454 490.054 332.675 489.618 342.306C489.242 350.625 481.247 356.928 473.079 355.115C467.135 353.798 461.644 348.739 461.195 342.501ZM494.634 622.965C494.768 624.381 495.661 625.279 496.719 625.698C491.992 634.634 482.512 639.793 472.281 637.634C463.371 635.752 458.669 629.751 455.544 622.365C455.704 621.951 455.712 621.515 455.63 621.079C462.416 621.523 469.198 621.998 475.993 622.27C476.585 622.292 476.576 621.398 475.993 621.355C469.121 620.858 462.235 620.573 455.35 620.258C455.246 620.051 455.125 619.857 454.983 619.671C454.853 619.507 454.728 619.343 454.598 619.179C454.007 615.89 454.145 611.974 454.581 607.899C459.36 608.067 464.096 607.795 468.81 606.811C469.298 606.712 469.078 606.008 468.607 606.081C463.962 606.764 459.326 607.165 454.65 607.152C455.194 602.477 456.118 597.625 456.861 593.269C461.855 592.876 466.824 592.733 471.836 592.802C472.428 592.811 472.419 591.922 471.836 591.887C466.893 591.598 461.933 591.784 457.012 592.341C457.374 590.169 457.681 588.123 457.853 586.327C458.065 584.061 458.246 581.794 458.453 579.528C466.902 579.308 475.419 578.98 483.824 578.125C484.411 578.064 484.437 577.175 483.824 577.188C475.389 577.387 466.906 578.12 458.505 578.954C458.946 574.153 459.351 569.353 459.779 564.552C464.709 565.053 469.738 564.626 474.569 563.581C475.16 563.451 474.897 562.601 474.323 562.692C469.483 563.43 464.717 563.685 459.844 563.814C460.172 560.089 460.521 556.363 460.832 552.633C460.966 551.01 461.078 549.382 461.212 547.759C461.264 547.807 461.329 547.846 461.411 547.846C464.014 547.884 466.638 547.608 469.229 547.349C469.742 547.297 469.76 546.507 469.229 546.533C466.6 546.663 463.927 546.788 461.324 547.215C461.285 547.22 461.277 547.25 461.247 547.267C461.812 540.317 462.33 533.367 462.852 526.412C467.843 526.645 472.777 526.412 477.694 525.497C478.268 525.389 478.018 524.538 477.452 524.629C472.617 525.389 467.787 525.838 462.9 525.803C463.241 521.249 463.565 516.694 463.889 512.14C466.755 511.769 469.63 511.406 472.466 510.854C472.902 510.767 472.812 510.012 472.358 510.064C469.539 510.392 466.738 510.901 463.945 511.402C464.238 507.283 464.493 503.165 464.769 499.047C468.374 498.675 472.026 498.429 475.596 497.812C476.058 497.734 475.954 496.962 475.484 496.992C471.918 497.225 468.361 497.829 464.817 498.3C465.041 494.941 465.283 491.583 465.49 488.224C465.611 486.217 465.754 484.188 465.883 482.176C470.714 482.236 475.613 481.783 480.302 480.643C480.897 480.497 480.634 479.642 480.056 479.741C475.341 480.544 470.692 481.088 465.939 481.33C466.345 475.04 466.781 468.707 467.217 462.365C470.209 462.65 473.192 462.542 476.144 461.973C476.632 461.882 476.524 461.031 476.028 461.096C473.105 461.48 470.213 461.619 467.273 461.524C467.51 458.04 467.748 454.543 467.981 451.046C470.701 450.688 473.425 450.334 476.097 449.734C476.511 449.643 476.434 448.94 475.993 448.978C473.321 449.229 470.679 449.717 468.037 450.2C468.378 445.093 468.693 439.978 468.996 434.853C469.643 434.845 470.455 434.72 470.994 434.745L474.573 434.91C476.766 435.009 478.95 435.086 481.148 435.074C482.21 453.032 483.25 470.991 484.394 488.945C487.256 533.664 490.386 578.371 494.634 622.965Z" fill="#181818"/>
</svg>
