<svg width="478" height="549" viewBox="0 0 478 549" fill="none" xmlns="http://www.w3.org/2000/svg">
<mask id="mask0_2683_1053" style="mask-type:alpha" maskUnits="userSpaceOnUse" x="0" y="0" width="478" height="549">
<rect opacity="0.05" x="5.34058e-05" width="478" height="548.69" fill="#D9D9D9"/>
</mask>
<g mask="url(#mask0_2683_1053)">
<path d="M526.034 -537.993L454.307 181.308L-80.1046 616.507" stroke="#181818" stroke-width="2" stroke-miterlimit="10"/>
<path d="M512.029 -546.533L440.293 172.77L-93.4174 607.398" stroke="#181818" stroke-width="1.98" stroke-miterlimit="10"/>
<path d="M498.013 -555.07L426.286 164.231L-106.74 598.291" stroke="#181818" stroke-width="1.96" stroke-miterlimit="10"/>
<path d="M483.999 -563.608L412.272 155.693L-120.053 589.182" stroke="#181818" stroke-width="1.95" stroke-miterlimit="10"/>
<path d="M469.992 -572.149L398.257 147.154L-133.366 580.081" stroke="#181818" stroke-width="1.93" stroke-miterlimit="10"/>
<path d="M455.979 -580.687L384.251 138.614L-146.687 570.974" stroke="#181818" stroke-width="1.91" stroke-miterlimit="10"/>
<path d="M441.963 -589.225L370.236 130.076L-160.001 561.865" stroke="#181818" stroke-width="1.89" stroke-miterlimit="10"/>
<path d="M427.946 -597.771L356.221 121.538L-173.321 552.766" stroke="#181818" stroke-width="1.87" stroke-miterlimit="10"/>
<path d="M413.941 -606.311L342.207 113L-186.642 543.659" stroke="#181818" stroke-width="1.86" stroke-miterlimit="10"/>
<path d="M399.925 -614.849L328.198 104.452L-199.957 534.55" stroke="#181818" stroke-width="1.84" stroke-miterlimit="10"/>
<path d="M385.911 -623.387L314.184 95.9142L-213.278 525.443" stroke="#181818" stroke-width="1.82" stroke-miterlimit="10"/>
<path d="M371.904 -631.927L300.168 87.3764L-226.591 516.342" stroke="#181818" stroke-width="1.8" stroke-miterlimit="10"/>
<path d="M357.89 -640.465L286.163 78.8361L-239.903 507.233" stroke="#181818" stroke-width="1.79" stroke-miterlimit="10"/>
<path d="M343.875 -649.003L272.147 70.298L-253.226 498.126" stroke="#181818" stroke-width="1.77" stroke-miterlimit="10"/>
<path d="M329.861 -657.541L258.134 61.7605L-266.539 489.018" stroke="#181818" stroke-width="1.75" stroke-miterlimit="10"/>
<path d="M315.852 -666.089L244.119 53.2225L-279.859 479.919" stroke="#181818" stroke-width="1.73" stroke-miterlimit="10"/>
<path d="M301.837 -674.627L230.112 44.6822L-293.174 470.809" stroke="#181818" stroke-width="1.71" stroke-miterlimit="10"/>
<path d="M287.823 -683.165L216.098 36.1445L-306.495 461.703" stroke="#181818" stroke-width="1.7" stroke-miterlimit="10"/>
<path d="M273.816 -691.705L202.08 27.5985L-319.807 452.602" stroke="#181818" stroke-width="1.68" stroke-miterlimit="10"/>
<path d="M259.802 -700.243L188.075 19.0578L-333.128 443.494" stroke="#181818" stroke-width="1.66" stroke-miterlimit="10"/>
<path d="M245.787 -708.781L174.059 10.5202L-346.443 434.386" stroke="#181818" stroke-width="1.64" stroke-miterlimit="10"/>
<path d="M231.773 -717.319L160.045 1.98209L-359.764 425.279" stroke="#181818" stroke-width="1.62" stroke-miterlimit="10"/>
<path d="M217.766 -725.859L146.038 -6.55791L-373.077 416.178" stroke="#181818" stroke-width="1.61" stroke-miterlimit="10"/>
<path d="M203.752 -734.397L132.025 -15.096L-386.398 407.071" stroke="#181818" stroke-width="1.59" stroke-miterlimit="10"/>
<path d="M189.735 -742.943L118.01 -23.6342L-399.712 397.962" stroke="#181818" stroke-width="1.57" stroke-miterlimit="10"/>
<path d="M175.728 -751.483L103.994 -32.1716L-413.034 388.855" stroke="#181818" stroke-width="1.55" stroke-miterlimit="10"/>
<path d="M161.714 -760.021L89.9887 -40.712L-426.345 379.754" stroke="#181818" stroke-width="1.54" stroke-miterlimit="10"/>
<path d="M147.7 -768.559L75.9727 -49.2582L-439.666 370.647" stroke="#181818" stroke-width="1.52" stroke-miterlimit="10"/>
<path d="M133.685 -777.097L61.9573 -57.7962L-452.981 361.538" stroke="#181818" stroke-width="1.5" stroke-miterlimit="10"/>
<path d="M119.679 -785.637L47.9437 -66.334L-466.3 352.439" stroke="#181818" stroke-width="1.48" stroke-miterlimit="10"/>
<path d="M105.664 -794.175L33.9363 -74.8739L-479.615 343.33" stroke="#181818" stroke-width="1.46" stroke-miterlimit="10"/>
<path d="M91.6485 -802.713L19.921 -83.4119L-492.937 334.224" stroke="#181818" stroke-width="1.45" stroke-miterlimit="10"/>
<path d="M77.6431 -811.253L5.90736 -91.9502L-506.25 325.114" stroke="#181818" stroke-width="1.43" stroke-miterlimit="10"/>
<path d="M63.626 -819.799L-8.09946 -100.49L-519.57 316.016" stroke="#181818" stroke-width="1.41" stroke-miterlimit="10"/>
<path d="M49.6122 -828.337L-22.1154 -109.036L-532.883 306.907" stroke="#181818" stroke-width="1.39" stroke-miterlimit="10"/>
<path d="M35.5968 -836.875L-36.1308 -117.574L-546.206 297.8" stroke="#181818" stroke-width="1.38" stroke-miterlimit="10"/>
<path d="M21.5912 -845.416L-50.1445 -126.112L-559.519 288.69" stroke="#181818" stroke-width="1.36" stroke-miterlimit="10"/>
<path d="M7.57579 -853.953L-64.1518 -134.652L-572.839 279.592" stroke="#181818" stroke-width="1.34" stroke-miterlimit="10"/>
<path d="M-6.438 -862.491L-78.1656 -143.19L-586.152 270.483" stroke="#181818" stroke-width="1.32" stroke-miterlimit="10"/>
<path d="M-20.4452 -871.031L-92.1809 -151.728L-599.475 261.376" stroke="#181818" stroke-width="1.3" stroke-miterlimit="10"/>
<path d="M-34.4589 -879.569L-106.187 -160.268L-612.786 252.275" stroke="#181818" stroke-width="1.29" stroke-miterlimit="10"/>
<path d="M-48.476 -888.115L-120.201 -168.806L-626.108 243.168" stroke="#181818" stroke-width="1.27" stroke-miterlimit="10"/>
<path d="M-62.4832 -896.655L-134.217 -177.344L-639.423 234.059" stroke="#181818" stroke-width="1.25" stroke-miterlimit="10"/>
<path d="M-76.4969 -905.193L-148.224 -185.892L-652.741 224.96" stroke="#181818" stroke-width="1.23" stroke-miterlimit="10"/>
<path d="M-90.5123 -913.731L-162.24 -194.431L-666.056 215.851" stroke="#181818" stroke-width="1.21" stroke-miterlimit="10"/>
<path d="M-104.526 -922.269L-176.254 -202.968L-679.377 206.744" stroke="#181818" stroke-width="1.2" stroke-miterlimit="10"/>
<path d="M-118.533 -930.809L-190.269 -211.506L-692.692 197.636" stroke="#181818" stroke-width="1.18" stroke-miterlimit="10"/>
<path d="M-132.547 -939.347L-204.275 -220.046L-706.011 188.537" stroke="#181818" stroke-width="1.16" stroke-miterlimit="10"/>
<path d="M-146.562 -947.885L-218.29 -228.584L-719.325 179.427" stroke="#181818" stroke-width="1.14" stroke-miterlimit="10"/>
<path d="M-160.571 -956.433L-232.305 -237.122L-732.639 170.319" stroke="#181818" stroke-width="1.13" stroke-miterlimit="10"/>
<path d="M-174.585 -964.971L-246.319 -245.66L-745.96 161.212" stroke="#181818" stroke-width="1.11" stroke-miterlimit="10"/>
<path d="M-188.6 -973.509L-260.326 -254.2L-759.273 152.111" stroke="#181818" stroke-width="1.09" stroke-miterlimit="10"/>
<path d="M-202.614 -982.047L-274.342 -262.746L-772.594 143.004" stroke="#181818" stroke-width="1.07" stroke-miterlimit="10"/>
<path d="M-216.622 -990.587L-288.357 -271.284L-785.909 133.895" stroke="#181818" stroke-width="1.05" stroke-miterlimit="10"/>
<path d="M-230.635 -999.125L-302.363 -279.825L-799.228 124.796" stroke="#181818" stroke-width="1.04" stroke-miterlimit="10"/>
</g>
</svg>
