<svg width="478" height="549" viewBox="0 0 478 549" fill="none" xmlns="http://www.w3.org/2000/svg">
<mask id="mask0_2683_993" style="mask-type:alpha" maskUnits="userSpaceOnUse" x="0" y="0" width="478" height="549">
<rect opacity="0.05" x="478" y="549" width="478" height="548.69" transform="rotate(180 478 549)" fill="#D9D9D9"/>
</mask>
<g mask="url(#mask0_2683_993)">
<path d="M-48.0341 1086.99L23.6935 367.691L558.105 -67.5073" stroke="#181818" stroke-width="2" stroke-miterlimit="10"/>
<path d="M-34.0286 1095.53L37.7071 376.229L571.417 -58.3983" stroke="#181818" stroke-width="1.98" stroke-miterlimit="10"/>
<path d="M-20.0131 1104.07L51.7145 384.769L584.74 -49.2913" stroke="#181818" stroke-width="1.96" stroke-miterlimit="10"/>
<path d="M-5.99927 1112.61L65.7282 393.307L598.053 -40.1825" stroke="#181818" stroke-width="1.95" stroke-miterlimit="10"/>
<path d="M8.00781 1121.15L79.7435 401.845L611.366 -31.0812" stroke="#181818" stroke-width="1.93" stroke-miterlimit="10"/>
<path d="M22.0216 1129.69L93.7491 410.386L624.687 -21.9742" stroke="#181818" stroke-width="1.91" stroke-miterlimit="10"/>
<path d="M36.037 1138.22L107.765 418.924L638.001 -12.8649" stroke="#181818" stroke-width="1.89" stroke-miterlimit="10"/>
<path d="M50.0541 1146.77L121.779 427.461L651.321 -3.7665" stroke="#181818" stroke-width="1.87" stroke-miterlimit="10"/>
<path d="M64.0597 1155.31L135.793 435.999L664.643 5.3404" stroke="#181818" stroke-width="1.86" stroke-miterlimit="10"/>
<path d="M78.0751 1163.85L149.803 444.548L677.957 14.4496" stroke="#181818" stroke-width="1.84" stroke-miterlimit="10"/>
<path d="M92.0889 1172.39L163.816 453.085L691.278 23.556" stroke="#181818" stroke-width="1.82" stroke-miterlimit="10"/>
<path d="M106.096 1180.93L177.832 461.623L704.591 32.657" stroke="#181818" stroke-width="1.8" stroke-miterlimit="10"/>
<path d="M120.11 1189.46L191.837 470.163L717.904 41.7662" stroke="#181818" stroke-width="1.79" stroke-miterlimit="10"/>
<path d="M134.125 1198L205.853 478.701L731.226 50.8732" stroke="#181818" stroke-width="1.77" stroke-miterlimit="10"/>
<path d="M148.139 1206.54L219.866 487.239L744.539 59.9819" stroke="#181818" stroke-width="1.75" stroke-miterlimit="10"/>
<path d="M162.148 1215.09L233.881 495.777L757.859 69.0807" stroke="#181818" stroke-width="1.73" stroke-miterlimit="10"/>
<path d="M176.163 1223.63L247.889 504.317L771.174 78.19" stroke="#181818" stroke-width="1.71" stroke-miterlimit="10"/>
<path d="M190.177 1232.16L261.902 512.856L784.495 87.2969" stroke="#181818" stroke-width="1.7" stroke-miterlimit="10"/>
<path d="M204.184 1240.7L275.92 521.401L797.807 96.3978" stroke="#181818" stroke-width="1.68" stroke-miterlimit="10"/>
<path d="M218.198 1249.24L289.926 529.942L811.129 105.505" stroke="#181818" stroke-width="1.66" stroke-miterlimit="10"/>
<path d="M232.213 1257.78L303.941 538.479L824.443 114.614" stroke="#181818" stroke-width="1.64" stroke-miterlimit="10"/>
<path d="M246.227 1266.32L317.955 547.017L837.764 123.721" stroke="#181818" stroke-width="1.62" stroke-miterlimit="10"/>
<path d="M260.234 1274.86L331.962 555.557L851.077 132.821" stroke="#181818" stroke-width="1.61" stroke-miterlimit="10"/>
<path d="M274.248 1283.4L345.976 564.095L864.398 141.928" stroke="#181818" stroke-width="1.59" stroke-miterlimit="10"/>
<path d="M288.265 1291.94L359.99 572.634L877.712 151.038" stroke="#181818" stroke-width="1.57" stroke-miterlimit="10"/>
<path d="M302.272 1300.48L374.006 581.172L891.035 160.145" stroke="#181818" stroke-width="1.55" stroke-miterlimit="10"/>
<path d="M316.286 1309.02L388.011 589.711L904.345 169.245" stroke="#181818" stroke-width="1.54" stroke-miterlimit="10"/>
<path d="M330.3 1317.56L402.028 598.258L917.667 178.352" stroke="#181818" stroke-width="1.52" stroke-miterlimit="10"/>
<path d="M344.315 1326.1L416.043 606.796L930.981 187.461" stroke="#181818" stroke-width="1.5" stroke-miterlimit="10"/>
<path d="M358.321 1334.64L430.056 615.334L944.3 196.56" stroke="#181818" stroke-width="1.48" stroke-miterlimit="10"/>
<path d="M372.336 1343.17L444.064 623.874L957.615 205.669" stroke="#181818" stroke-width="1.46" stroke-miterlimit="10"/>
<path d="M386.352 1351.71L458.079 632.412L970.937 214.776" stroke="#181818" stroke-width="1.45" stroke-miterlimit="10"/>
<path d="M400.357 1360.25L472.093 640.95L984.25 223.885" stroke="#181818" stroke-width="1.43" stroke-miterlimit="10"/>
<path d="M414.374 1368.8L486.1 649.49L997.57 232.984" stroke="#181818" stroke-width="1.41" stroke-miterlimit="10"/>
<path d="M428.388 1377.34L500.116 658.036L1010.88 242.093" stroke="#181818" stroke-width="1.39" stroke-miterlimit="10"/>
<path d="M442.403 1385.88L514.131 666.574L1024.21 251.2" stroke="#181818" stroke-width="1.38" stroke-miterlimit="10"/>
<path d="M456.409 1394.42L528.145 675.112L1037.52 260.309" stroke="#181818" stroke-width="1.36" stroke-miterlimit="10"/>
<path d="M470.424 1402.95L542.152 683.652L1050.84 269.408" stroke="#181818" stroke-width="1.34" stroke-miterlimit="10"/>
<path d="M484.438 1411.49L556.166 692.19L1064.15 278.517" stroke="#181818" stroke-width="1.32" stroke-miterlimit="10"/>
<path d="M498.445 1420.03L570.181 700.728L1077.48 287.624" stroke="#181818" stroke-width="1.3" stroke-miterlimit="10"/>
<path d="M512.459 1428.57L584.187 709.267L1090.79 296.724" stroke="#181818" stroke-width="1.29" stroke-miterlimit="10"/>
<path d="M526.476 1437.12L598.202 717.806L1104.11 305.832" stroke="#181818" stroke-width="1.27" stroke-miterlimit="10"/>
<path d="M540.483 1445.66L612.217 726.344L1117.42 314.941" stroke="#181818" stroke-width="1.25" stroke-miterlimit="10"/>
<path d="M554.497 1454.19L626.225 734.892L1130.74 324.04" stroke="#181818" stroke-width="1.23" stroke-miterlimit="10"/>
<path d="M568.513 1462.73L640.24 743.43L1144.06 333.148" stroke="#181818" stroke-width="1.21" stroke-miterlimit="10"/>
<path d="M582.526 1471.27L654.254 751.968L1157.38 342.255" stroke="#181818" stroke-width="1.2" stroke-miterlimit="10"/>
<path d="M596.533 1479.81L668.269 760.505L1170.69 351.364" stroke="#181818" stroke-width="1.18" stroke-miterlimit="10"/>
<path d="M610.547 1488.35L682.275 769.046L1184.01 360.463" stroke="#181818" stroke-width="1.16" stroke-miterlimit="10"/>
<path d="M624.563 1496.88L696.29 777.584L1197.33 369.572" stroke="#181818" stroke-width="1.14" stroke-miterlimit="10"/>
<path d="M638.572 1505.43L710.305 786.121L1210.64 378.681" stroke="#181818" stroke-width="1.13" stroke-miterlimit="10"/>
<path d="M652.585 1513.97L724.319 794.659L1223.96 387.788" stroke="#181818" stroke-width="1.11" stroke-miterlimit="10"/>
<path d="M666.601 1522.51L738.326 803.2L1237.27 396.889" stroke="#181818" stroke-width="1.09" stroke-miterlimit="10"/>
<path d="M680.615 1531.05L752.342 811.746L1250.59 405.996" stroke="#181818" stroke-width="1.07" stroke-miterlimit="10"/>
<path d="M694.622 1539.59L766.357 820.284L1263.91 415.105" stroke="#181818" stroke-width="1.05" stroke-miterlimit="10"/>
<path d="M708.636 1548.12L780.363 828.824L1277.23 424.204" stroke="#181818" stroke-width="1.04" stroke-miterlimit="10"/>
</g>
</svg>
