<svg width="568" height="652" viewBox="0 0 568 652" fill="none" xmlns="http://www.w3.org/2000/svg">
<mask id="mask0_2650_1869" style="mask-type:alpha" maskUnits="userSpaceOnUse" x="0" y="0" width="568" height="652">
<rect opacity="0.05" width="568" height="652" transform="matrix(1 0 0 -1 0 652)" fill="#D9D9D9"/>
</mask>
<g mask="url(#mask0_2650_1869)">
<path d="M625.078 1291.29L539.845 436.554L-95.1872 -80.5853" stroke="white" stroke-width="2" stroke-miterlimit="10"/>
<path d="M608.436 1301.44L523.193 446.7L-111.007 -69.7613" stroke="white" stroke-width="1.98" stroke-miterlimit="10"/>
<path d="M591.781 1311.58L506.549 456.848L-126.838 -58.9398" stroke="white" stroke-width="1.96" stroke-miterlimit="10"/>
<path d="M575.129 1321.73L489.896 466.993L-142.658 -48.1155" stroke="white" stroke-width="1.95" stroke-miterlimit="10"/>
<path d="M558.484 1331.88L473.242 477.139L-158.476 -37.3007" stroke="white" stroke-width="1.93" stroke-miterlimit="10"/>
<path d="M541.832 1342.02L456.599 487.287L-174.306 -26.4792" stroke="white" stroke-width="1.91" stroke-miterlimit="10"/>
<path d="M525.178 1352.17L439.945 497.433L-190.127 -15.6549" stroke="white" stroke-width="1.89" stroke-miterlimit="10"/>
<path d="M508.521 1362.32L423.291 507.578L-205.955 -4.84301" stroke="white" stroke-width="1.87" stroke-miterlimit="10"/>
<path d="M491.879 1372.47L406.639 517.724L-221.784 5.97847" stroke="white" stroke-width="1.86" stroke-miterlimit="10"/>
<path d="M475.225 1382.62L389.992 527.882L-237.606 16.8026" stroke="white" stroke-width="1.84" stroke-miterlimit="10"/>
<path d="M458.572 1392.76L373.34 538.027L-253.435 27.6241" stroke="white" stroke-width="1.82" stroke-miterlimit="10"/>
<path d="M441.928 1402.91L356.685 548.172L-269.254 38.4386" stroke="white" stroke-width="1.8" stroke-miterlimit="10"/>
<path d="M425.275 1413.05L340.043 558.32L-285.074 49.2627" stroke="white" stroke-width="1.79" stroke-miterlimit="10"/>
<path d="M408.621 1423.2L323.388 568.466L-300.905 60.0842" stroke="white" stroke-width="1.77" stroke-miterlimit="10"/>
<path d="M391.969 1433.35L306.736 578.611L-316.725 70.9084" stroke="white" stroke-width="1.75" stroke-miterlimit="10"/>
<path d="M375.322 1443.5L290.082 588.757L-332.552 81.7202" stroke="white" stroke-width="1.73" stroke-miterlimit="10"/>
<path d="M358.668 1453.65L273.438 598.905L-348.374 92.5445" stroke="white" stroke-width="1.71" stroke-miterlimit="10"/>
<path d="M342.016 1463.79L256.785 609.051L-364.203 103.366" stroke="white" stroke-width="1.7" stroke-miterlimit="10"/>
<path d="M325.371 1473.94L240.129 619.206L-380.022 114.18" stroke="white" stroke-width="1.68" stroke-miterlimit="10"/>
<path d="M308.719 1484.09L223.486 629.354L-395.851 125.003" stroke="white" stroke-width="1.66" stroke-miterlimit="10"/>
<path d="M292.064 1494.23L206.832 639.499L-411.673 135.826" stroke="white" stroke-width="1.64" stroke-miterlimit="10"/>
<path d="M275.412 1504.38L190.179 649.645L-427.502 146.648" stroke="white" stroke-width="1.62" stroke-miterlimit="10"/>
<path d="M258.768 1514.53L173.535 659.793L-443.321 157.463" stroke="white" stroke-width="1.61" stroke-miterlimit="10"/>
<path d="M242.115 1524.67L156.883 669.939L-459.15 168.284" stroke="white" stroke-width="1.59" stroke-miterlimit="10"/>
<path d="M225.459 1534.83L140.229 680.084L-474.971 179.108" stroke="white" stroke-width="1.57" stroke-miterlimit="10"/>
<path d="M208.814 1544.98L123.575 690.23L-490.803 189.93" stroke="white" stroke-width="1.55" stroke-miterlimit="10"/>
<path d="M192.162 1555.12L106.932 700.378L-506.62 200.744" stroke="white" stroke-width="1.54" stroke-miterlimit="10"/>
<path d="M175.51 1565.27L90.277 710.533L-522.449 211.566" stroke="white" stroke-width="1.52" stroke-miterlimit="10"/>
<path d="M158.855 1575.41L73.6227 720.678L-538.271 222.39" stroke="white" stroke-width="1.5" stroke-miterlimit="10"/>
<path d="M142.213 1585.56L56.9705 730.824L-554.097 233.202" stroke="white" stroke-width="1.48" stroke-miterlimit="10"/>
<path d="M125.559 1595.71L40.3259 740.972L-569.919 244.026" stroke="white" stroke-width="1.46" stroke-miterlimit="10"/>
<path d="M108.904 1605.85L23.6716 751.117L-585.75 254.847" stroke="white" stroke-width="1.45" stroke-miterlimit="10"/>
<path d="M92.2617 1616L7.01936 761.263L-601.569 265.672" stroke="white" stroke-width="1.43" stroke-miterlimit="10"/>
<path d="M75.6055 1626.15L-9.62466 771.411L-617.397 276.483" stroke="white" stroke-width="1.41" stroke-miterlimit="10"/>
<path d="M58.9531 1636.3L-26.2796 781.566L-633.217 287.308" stroke="white" stroke-width="1.39" stroke-miterlimit="10"/>
<path d="M42.2988 1646.45L-42.9339 791.712L-649.048 298.129" stroke="white" stroke-width="1.38" stroke-miterlimit="10"/>
<path d="M25.6562 1656.59L-59.5861 801.858L-664.868 308.954" stroke="white" stroke-width="1.36" stroke-miterlimit="10"/>
<path d="M9.00195 1666.74L-76.2308 812.006L-680.696 319.766" stroke="white" stroke-width="1.34" stroke-miterlimit="10"/>
<path d="M-7.65039 1676.89L-92.8831 822.151L-696.516 330.59" stroke="white" stroke-width="1.32" stroke-miterlimit="10"/>
<path d="M-24.2949 1687.03L-109.537 832.296L-712.347 341.411" stroke="white" stroke-width="1.3" stroke-miterlimit="10"/>
<path d="M-40.9473 1697.18L-126.18 842.444L-728.164 352.226" stroke="white" stroke-width="1.29" stroke-miterlimit="10"/>
<path d="M-57.6035 1707.33L-142.834 852.59L-743.995 363.047" stroke="white" stroke-width="1.27" stroke-miterlimit="10"/>
<path d="M-74.248 1717.48L-159.488 862.735L-759.816 373.871" stroke="white" stroke-width="1.25" stroke-miterlimit="10"/>
<path d="M-90.9004 1727.63L-176.133 872.893L-775.643 384.683" stroke="white" stroke-width="1.23" stroke-miterlimit="10"/>
<path d="M-107.555 1737.77L-192.787 883.039L-791.465 395.507" stroke="white" stroke-width="1.21" stroke-miterlimit="10"/>
<path d="M-124.207 1747.92L-209.44 893.184L-807.294 406.329" stroke="white" stroke-width="1.2" stroke-miterlimit="10"/>
<path d="M-140.852 1758.07L-226.094 903.33L-823.115 417.153" stroke="white" stroke-width="1.18" stroke-miterlimit="10"/>
<path d="M-157.504 1768.21L-242.737 913.478L-838.942 427.965" stroke="white" stroke-width="1.16" stroke-miterlimit="10"/>
<path d="M-174.158 1778.36L-259.391 923.623L-854.763 438.789" stroke="white" stroke-width="1.14" stroke-miterlimit="10"/>
<path d="M-190.805 1788.52L-276.044 933.769L-870.584 449.613" stroke="white" stroke-width="1.13" stroke-miterlimit="10"/>
<path d="M-207.457 1798.66L-292.697 943.914L-886.414 460.435" stroke="white" stroke-width="1.11" stroke-miterlimit="10"/>
<path d="M-224.111 1808.81L-309.341 954.062L-902.232 471.249" stroke="white" stroke-width="1.09" stroke-miterlimit="10"/>
<path d="M-240.764 1818.95L-325.996 964.217L-918.062 482.071" stroke="white" stroke-width="1.07" stroke-miterlimit="10"/>
<path d="M-257.408 1829.1L-342.651 974.363L-933.884 492.895" stroke="white" stroke-width="1.05" stroke-miterlimit="10"/>
<path d="M-274.061 1839.25L-359.294 984.511L-949.71 503.707" stroke="white" stroke-width="1.04" stroke-miterlimit="10"/>
</g>
</svg>
