<svg width="478" height="549" viewBox="0 0 478 549" fill="none" xmlns="http://www.w3.org/2000/svg">
<mask id="mask0_2677_1105" style="mask-type:alpha" maskUnits="userSpaceOnUse" x="0" y="0" width="478" height="549">
<rect opacity="0.05" width="478" height="548.69" transform="matrix(-1 0 0 1 478 0)" fill="#D9D9D9"/>
</mask>
<g mask="url(#mask0_2677_1105)">
<path d="M-48.0341 -537.993L23.6935 181.308L558.105 616.507" stroke="#181818" stroke-width="2" stroke-miterlimit="10"/>
<path d="M-34.0286 -546.533L37.7071 172.77L571.417 607.398" stroke="#181818" stroke-width="1.98" stroke-miterlimit="10"/>
<path d="M-20.0131 -555.071L51.7145 164.23L584.74 598.291" stroke="#181818" stroke-width="1.96" stroke-miterlimit="10"/>
<path d="M-5.99927 -563.609L65.7282 155.692L598.053 589.182" stroke="#181818" stroke-width="1.95" stroke-miterlimit="10"/>
<path d="M8.00781 -572.149L79.7435 147.154L611.366 580.081" stroke="#181818" stroke-width="1.93" stroke-miterlimit="10"/>
<path d="M22.0216 -580.687L93.7491 138.614L624.687 570.974" stroke="#181818" stroke-width="1.91" stroke-miterlimit="10"/>
<path d="M36.037 -589.225L107.765 130.076L638.001 561.865" stroke="#181818" stroke-width="1.89" stroke-miterlimit="10"/>
<path d="M50.0541 -597.771L121.779 121.538L651.321 552.766" stroke="#181818" stroke-width="1.87" stroke-miterlimit="10"/>
<path d="M64.0597 -606.311L135.793 113L664.643 543.659" stroke="#181818" stroke-width="1.86" stroke-miterlimit="10"/>
<path d="M78.0751 -614.849L149.803 104.452L677.957 534.55" stroke="#181818" stroke-width="1.84" stroke-miterlimit="10"/>
<path d="M92.0889 -623.387L163.816 95.914L691.278 525.443" stroke="#181818" stroke-width="1.82" stroke-miterlimit="10"/>
<path d="M106.096 -631.927L177.832 87.3761L704.591 516.342" stroke="#181818" stroke-width="1.8" stroke-miterlimit="10"/>
<path d="M120.11 -640.465L191.837 78.8361L717.904 507.233" stroke="#181818" stroke-width="1.79" stroke-miterlimit="10"/>
<path d="M134.125 -649.003L205.853 70.298L731.226 498.126" stroke="#181818" stroke-width="1.77" stroke-miterlimit="10"/>
<path d="M148.139 -657.541L219.866 61.7603L744.539 489.017" stroke="#181818" stroke-width="1.75" stroke-miterlimit="10"/>
<path d="M162.148 -666.089L233.881 53.2225L757.859 479.919" stroke="#181818" stroke-width="1.73" stroke-miterlimit="10"/>
<path d="M176.163 -674.627L247.889 44.6822L771.174 470.81" stroke="#181818" stroke-width="1.71" stroke-miterlimit="10"/>
<path d="M190.177 -683.165L261.902 36.1442L784.495 461.703" stroke="#181818" stroke-width="1.7" stroke-miterlimit="10"/>
<path d="M204.184 -691.705L275.92 27.5983L797.807 452.602" stroke="#181818" stroke-width="1.68" stroke-miterlimit="10"/>
<path d="M218.198 -700.243L289.926 19.0578L811.129 443.495" stroke="#181818" stroke-width="1.66" stroke-miterlimit="10"/>
<path d="M232.213 -708.781L303.941 10.5202L824.443 434.386" stroke="#181818" stroke-width="1.64" stroke-miterlimit="10"/>
<path d="M246.227 -717.319L317.955 1.98211L837.764 425.279" stroke="#181818" stroke-width="1.62" stroke-miterlimit="10"/>
<path d="M260.234 -725.859L331.962 -6.55813L851.077 416.178" stroke="#181818" stroke-width="1.61" stroke-miterlimit="10"/>
<path d="M274.248 -734.397L345.976 -15.096L864.398 407.071" stroke="#181818" stroke-width="1.59" stroke-miterlimit="10"/>
<path d="M288.265 -742.943L359.99 -23.6342L877.712 397.962" stroke="#181818" stroke-width="1.57" stroke-miterlimit="10"/>
<path d="M302.272 -751.483L374.006 -32.1718L891.035 388.855" stroke="#181818" stroke-width="1.55" stroke-miterlimit="10"/>
<path d="M316.286 -760.021L388.011 -40.7122L904.345 379.754" stroke="#181818" stroke-width="1.54" stroke-miterlimit="10"/>
<path d="M330.3 -768.559L402.028 -49.2582L917.667 370.647" stroke="#181818" stroke-width="1.52" stroke-miterlimit="10"/>
<path d="M344.315 -777.097L416.043 -57.7962L930.981 361.538" stroke="#181818" stroke-width="1.5" stroke-miterlimit="10"/>
<path d="M358.321 -785.637L430.056 -66.3338L944.3 352.44" stroke="#181818" stroke-width="1.48" stroke-miterlimit="10"/>
<path d="M372.336 -794.175L444.064 -74.8741L957.615 343.33" stroke="#181818" stroke-width="1.46" stroke-miterlimit="10"/>
<path d="M386.352 -802.713L458.079 -83.4119L970.937 334.224" stroke="#181818" stroke-width="1.45" stroke-miterlimit="10"/>
<path d="M400.357 -811.253L472.093 -91.9502L984.25 325.114" stroke="#181818" stroke-width="1.43" stroke-miterlimit="10"/>
<path d="M414.374 -819.799L486.1 -100.49L997.57 316.016" stroke="#181818" stroke-width="1.41" stroke-miterlimit="10"/>
<path d="M428.388 -828.337L500.116 -109.036L1010.88 306.907" stroke="#181818" stroke-width="1.39" stroke-miterlimit="10"/>
<path d="M442.403 -836.875L514.131 -117.574L1024.21 297.8" stroke="#181818" stroke-width="1.38" stroke-miterlimit="10"/>
<path d="M456.409 -845.416L528.145 -126.112L1037.52 288.69" stroke="#181818" stroke-width="1.36" stroke-miterlimit="10"/>
<path d="M470.424 -853.953L542.152 -134.652L1050.84 279.592" stroke="#181818" stroke-width="1.34" stroke-miterlimit="10"/>
<path d="M484.438 -862.491L556.166 -143.19L1064.15 270.483" stroke="#181818" stroke-width="1.32" stroke-miterlimit="10"/>
<path d="M498.445 -871.031L570.181 -151.728L1077.48 261.376" stroke="#181818" stroke-width="1.3" stroke-miterlimit="10"/>
<path d="M512.459 -879.569L584.187 -160.268L1090.79 252.275" stroke="#181818" stroke-width="1.29" stroke-miterlimit="10"/>
<path d="M526.476 -888.115L598.202 -168.806L1104.11 243.168" stroke="#181818" stroke-width="1.27" stroke-miterlimit="10"/>
<path d="M540.483 -896.656L612.217 -177.344L1117.42 234.059" stroke="#181818" stroke-width="1.25" stroke-miterlimit="10"/>
<path d="M554.497 -905.193L626.225 -185.892L1130.74 224.96" stroke="#181818" stroke-width="1.23" stroke-miterlimit="10"/>
<path d="M568.513 -913.731L640.24 -194.43L1144.06 215.851" stroke="#181818" stroke-width="1.21" stroke-miterlimit="10"/>
<path d="M582.526 -922.269L654.254 -202.968L1157.38 206.744" stroke="#181818" stroke-width="1.2" stroke-miterlimit="10"/>
<path d="M596.533 -930.809L668.269 -211.506L1170.69 197.635" stroke="#181818" stroke-width="1.18" stroke-miterlimit="10"/>
<path d="M610.547 -939.347L682.275 -220.046L1184.01 188.537" stroke="#181818" stroke-width="1.16" stroke-miterlimit="10"/>
<path d="M624.563 -947.885L696.29 -228.584L1197.33 179.427" stroke="#181818" stroke-width="1.14" stroke-miterlimit="10"/>
<path d="M638.572 -956.433L710.305 -237.122L1210.64 170.319" stroke="#181818" stroke-width="1.13" stroke-miterlimit="10"/>
<path d="M652.585 -964.971L724.319 -245.66L1223.96 161.212" stroke="#181818" stroke-width="1.11" stroke-miterlimit="10"/>
<path d="M666.601 -973.509L738.326 -254.2L1237.27 152.111" stroke="#181818" stroke-width="1.09" stroke-miterlimit="10"/>
<path d="M680.615 -982.047L752.342 -262.746L1250.59 143.004" stroke="#181818" stroke-width="1.07" stroke-miterlimit="10"/>
<path d="M694.622 -990.588L766.357 -271.284L1263.91 133.895" stroke="#181818" stroke-width="1.05" stroke-miterlimit="10"/>
<path d="M708.636 -999.125L780.363 -279.824L1277.23 124.796" stroke="#181818" stroke-width="1.04" stroke-miterlimit="10"/>
</g>
</svg>
