<svg width="652" height="749" viewBox="0 0 652 749" fill="none" xmlns="http://www.w3.org/2000/svg">
<mask id="mask0_2801_3422" style="mask-type:alpha" maskUnits="userSpaceOnUse" x="0" y="0" width="652" height="749">
<rect opacity="0.05" width="652" height="748.422" transform="matrix(-1 0 0 1 652 0)" fill="#D9D9D9"/>
</mask>
<g mask="url(#mask0_2801_3422)">
<path d="M-65.5195 -733.831L32.318 247.307L761.264 840.925" stroke="#181818" stroke-width="2" stroke-miterlimit="10"/>
<path d="M-46.415 -745.48L51.4336 235.662L779.423 828.501" stroke="#181818" stroke-width="1.98" stroke-miterlimit="10"/>
<path d="M-27.2983 -757.126L70.5392 224.013L797.595 816.079" stroke="#181818" stroke-width="1.96" stroke-miterlimit="10"/>
<path d="M-8.18262 -768.772L89.6549 212.367L815.755 803.653" stroke="#181818" stroke-width="1.95" stroke-miterlimit="10"/>
<path d="M10.9229 -780.421L108.771 200.721L833.913 791.24" stroke="#181818" stroke-width="1.93" stroke-miterlimit="10"/>
<path d="M30.0376 -792.067L127.875 189.072L852.083 778.818" stroke="#181818" stroke-width="1.91" stroke-miterlimit="10"/>
<path d="M49.1553 -803.713L146.993 177.426L870.245 766.393" stroke="#181818" stroke-width="1.89" stroke-miterlimit="10"/>
<path d="M68.2749 -815.37L166.109 165.78L888.414 753.982" stroke="#181818" stroke-width="1.87" stroke-miterlimit="10"/>
<path d="M87.3784 -827.019L185.224 154.134L906.583 741.56" stroke="#181818" stroke-width="1.86" stroke-miterlimit="10"/>
<path d="M106.496 -838.665L204.334 142.474L924.745 729.135" stroke="#181818" stroke-width="1.84" stroke-miterlimit="10"/>
<path d="M125.611 -850.311L223.448 130.828L942.915 716.713" stroke="#181818" stroke-width="1.82" stroke-miterlimit="10"/>
<path d="M144.717 -861.959L242.565 119.182L961.074 704.299" stroke="#181818" stroke-width="1.8" stroke-miterlimit="10"/>
<path d="M163.832 -873.605L261.67 107.534L979.233 691.875" stroke="#181818" stroke-width="1.79" stroke-miterlimit="10"/>
<path d="M182.949 -885.251L280.786 95.8876L997.405 679.453" stroke="#181818" stroke-width="1.77" stroke-miterlimit="10"/>
<path d="M202.063 -896.896L299.901 84.2422L1015.56 667.028" stroke="#181818" stroke-width="1.75" stroke-miterlimit="10"/>
<path d="M221.172 -908.556L319.018 72.5963L1033.73 654.617" stroke="#181818" stroke-width="1.73" stroke-miterlimit="10"/>
<path d="M240.29 -920.202L338.124 60.9474L1051.89 642.192" stroke="#181818" stroke-width="1.71" stroke-miterlimit="10"/>
<path d="M259.404 -931.848L357.239 49.3015L1070.06 629.77" stroke="#181818" stroke-width="1.7" stroke-miterlimit="10"/>
<path d="M278.511 -943.497L376.359 37.6444L1088.22 617.356" stroke="#181818" stroke-width="1.68" stroke-miterlimit="10"/>
<path d="M297.626 -955.143L395.463 25.9953L1106.39 604.934" stroke="#181818" stroke-width="1.66" stroke-miterlimit="10"/>
<path d="M316.743 -966.789L414.581 14.3498L1124.55 592.51" stroke="#181818" stroke-width="1.64" stroke-miterlimit="10"/>
<path d="M335.858 -978.435L433.695 2.70377L1142.72 580.088" stroke="#181818" stroke-width="1.62" stroke-miterlimit="10"/>
<path d="M354.964 -990.084L452.801 -8.94534L1160.88 567.674" stroke="#181818" stroke-width="1.61" stroke-miterlimit="10"/>
<path d="M374.079 -1001.73L471.917 -20.5911L1179.05 555.252" stroke="#181818" stroke-width="1.59" stroke-miterlimit="10"/>
<path d="M393.198 -1013.39L491.033 -32.2375L1197.21 542.826" stroke="#181818" stroke-width="1.57" stroke-miterlimit="10"/>
<path d="M412.305 -1025.04L510.15 -43.8829L1215.39 530.405" stroke="#181818" stroke-width="1.55" stroke-miterlimit="10"/>
<path d="M431.419 -1036.68L529.254 -55.532L1233.54 517.991" stroke="#181818" stroke-width="1.54" stroke-miterlimit="10"/>
<path d="M450.534 -1048.33L548.372 -67.189L1251.71 505.569" stroke="#181818" stroke-width="1.52" stroke-miterlimit="10"/>
<path d="M469.652 -1059.97L567.489 -78.8351L1269.87 493.144" stroke="#181818" stroke-width="1.5" stroke-miterlimit="10"/>
<path d="M488.756 -1071.62L586.605 -90.4805L1288.04 480.734" stroke="#181818" stroke-width="1.48" stroke-miterlimit="10"/>
<path d="M507.873 -1083.27L605.711 -102.13L1306.2 468.308" stroke="#181818" stroke-width="1.46" stroke-miterlimit="10"/>
<path d="M526.99 -1094.91L624.828 -113.775L1324.37 455.887" stroke="#181818" stroke-width="1.45" stroke-miterlimit="10"/>
<path d="M546.094 -1106.56L643.943 -125.422L1342.53 443.461" stroke="#181818" stroke-width="1.43" stroke-miterlimit="10"/>
<path d="M565.213 -1118.22L663.047 -137.07L1360.7 431.051" stroke="#181818" stroke-width="1.41" stroke-miterlimit="10"/>
<path d="M584.329 -1129.87L682.166 -148.727L1378.86 418.626" stroke="#181818" stroke-width="1.39" stroke-miterlimit="10"/>
<path d="M603.445 -1141.51L701.283 -160.373L1397.03 406.204" stroke="#181818" stroke-width="1.38" stroke-miterlimit="10"/>
<path d="M622.55 -1153.16L720.398 -172.019L1415.19 393.779" stroke="#181818" stroke-width="1.36" stroke-miterlimit="10"/>
<path d="M641.667 -1164.81L739.504 -183.668L1433.36 381.368" stroke="#181818" stroke-width="1.34" stroke-miterlimit="10"/>
<path d="M660.782 -1176.45L758.62 -195.314L1451.52 368.943" stroke="#181818" stroke-width="1.32" stroke-miterlimit="10"/>
<path d="M679.888 -1188.1L777.736 -206.96L1469.69 356.521" stroke="#181818" stroke-width="1.3" stroke-miterlimit="10"/>
<path d="M699.003 -1199.75L796.841 -218.609L1487.85 344.107" stroke="#181818" stroke-width="1.29" stroke-miterlimit="10"/>
<path d="M718.122 -1211.4L815.957 -230.255L1506.02 331.685" stroke="#181818" stroke-width="1.27" stroke-miterlimit="10"/>
<path d="M737.229 -1223.05L835.074 -241.901L1524.18 319.26" stroke="#181818" stroke-width="1.25" stroke-miterlimit="10"/>
<path d="M756.343 -1234.7L854.181 -253.56L1542.35 306.85" stroke="#181818" stroke-width="1.23" stroke-miterlimit="10"/>
<path d="M775.461 -1246.34L873.298 -265.206L1560.51 294.425" stroke="#181818" stroke-width="1.21" stroke-miterlimit="10"/>
<path d="M794.576 -1257.99L892.413 -276.852L1578.68 282.003" stroke="#181818" stroke-width="1.2" stroke-miterlimit="10"/>
<path d="M813.682 -1269.64L911.53 -288.498L1596.84 269.578" stroke="#181818" stroke-width="1.18" stroke-miterlimit="10"/>
<path d="M832.797 -1281.29L930.634 -300.147L1615.01 257.167" stroke="#181818" stroke-width="1.16" stroke-miterlimit="10"/>
<path d="M851.914 -1292.93L949.751 -311.793L1633.17 244.742" stroke="#181818" stroke-width="1.14" stroke-miterlimit="10"/>
<path d="M871.022 -1304.59L968.868 -323.438L1651.33 232.318" stroke="#181818" stroke-width="1.13" stroke-miterlimit="10"/>
<path d="M890.138 -1316.24L987.983 -335.084L1669.5 219.895" stroke="#181818" stroke-width="1.11" stroke-miterlimit="10"/>
<path d="M909.254 -1327.88L1007.09 -346.733L1687.66 207.481" stroke="#181818" stroke-width="1.09" stroke-miterlimit="10"/>
<path d="M928.369 -1339.53L1026.21 -358.39L1705.83 195.06" stroke="#181818" stroke-width="1.07" stroke-miterlimit="10"/>
<path d="M947.476 -1351.18L1045.32 -370.037L1723.99 182.634" stroke="#181818" stroke-width="1.05" stroke-miterlimit="10"/>
<path d="M966.591 -1362.82L1064.43 -381.686L1742.16 170.223" stroke="#181818" stroke-width="1.04" stroke-miterlimit="10"/>
</g>
</svg>
