<svg width="652" height="749" viewBox="0 0 652 749" fill="none" xmlns="http://www.w3.org/2000/svg">
<mask id="mask0_2791_1044" style="mask-type:alpha" maskUnits="userSpaceOnUse" x="0" y="0" width="652" height="749">
<rect opacity="0.05" width="652" height="748.422" transform="matrix(1 0 0 -1 0 748.69)" fill="#D9D9D9"/>
</mask>
<g mask="url(#mask0_2791_1044)">
<path d="M717.52 1482.52L619.682 501.383L-109.264 -92.2354" stroke="white" stroke-width="2" stroke-miterlimit="10"/>
<path d="M698.416 1494.17L600.567 513.028L-127.422 -79.8107" stroke="white" stroke-width="1.98" stroke-miterlimit="10"/>
<path d="M679.298 1505.82L581.461 524.677L-145.595 -67.3887" stroke="white" stroke-width="1.96" stroke-miterlimit="10"/>
<path d="M660.184 1517.46L562.346 536.323L-163.754 -54.9637" stroke="white" stroke-width="1.95" stroke-miterlimit="10"/>
<path d="M641.077 1529.11L543.229 547.97L-181.913 -42.5495" stroke="white" stroke-width="1.93" stroke-miterlimit="10"/>
<path d="M621.962 1540.76L524.125 559.618L-200.083 -30.1276" stroke="white" stroke-width="1.91" stroke-miterlimit="10"/>
<path d="M602.845 1552.4L505.008 571.264L-218.244 -17.7026" stroke="white" stroke-width="1.89" stroke-miterlimit="10"/>
<path d="M583.726 1564.06L485.891 582.91L-236.413 -5.29187" stroke="white" stroke-width="1.87" stroke-miterlimit="10"/>
<path d="M564.622 1575.71L466.776 594.556L-254.583 7.12994" stroke="white" stroke-width="1.86" stroke-miterlimit="10"/>
<path d="M545.504 1587.35L447.667 606.216L-272.745 19.5549" stroke="white" stroke-width="1.84" stroke-miterlimit="10"/>
<path d="M526.389 1599L428.552 617.862L-290.915 31.9768" stroke="white" stroke-width="1.82" stroke-miterlimit="10"/>
<path d="M507.283 1610.65L409.435 629.508L-309.074 44.3906" stroke="white" stroke-width="1.8" stroke-miterlimit="10"/>
<path d="M488.168 1622.29L390.331 641.156L-327.232 56.8155" stroke="white" stroke-width="1.79" stroke-miterlimit="10"/>
<path d="M469.051 1633.94L371.214 652.802L-345.405 69.2375" stroke="white" stroke-width="1.77" stroke-miterlimit="10"/>
<path d="M449.937 1645.59L352.099 664.448L-363.564 81.6623" stroke="white" stroke-width="1.75" stroke-miterlimit="10"/>
<path d="M430.828 1657.25L332.982 676.094L-381.733 94.073" stroke="white" stroke-width="1.73" stroke-miterlimit="10"/>
<path d="M411.71 1668.89L313.876 687.743L-399.894 106.498" stroke="white" stroke-width="1.71" stroke-miterlimit="10"/>
<path d="M392.596 1680.54L294.761 699.389L-418.064 118.92" stroke="white" stroke-width="1.7" stroke-miterlimit="10"/>
<path d="M373.49 1692.19L275.641 711.046L-436.222 131.334" stroke="white" stroke-width="1.68" stroke-miterlimit="10"/>
<path d="M354.375 1703.83L256.537 722.695L-454.393 143.756" stroke="white" stroke-width="1.66" stroke-miterlimit="10"/>
<path d="M335.257 1715.48L237.419 734.341L-472.554 156.181" stroke="white" stroke-width="1.64" stroke-miterlimit="10"/>
<path d="M316.142 1727.12L218.304 745.986L-490.725 168.602" stroke="white" stroke-width="1.62" stroke-miterlimit="10"/>
<path d="M297.036 1738.77L199.199 757.636L-508.883 181.017" stroke="white" stroke-width="1.61" stroke-miterlimit="10"/>
<path d="M277.921 1750.42L180.083 769.282L-527.053 193.439" stroke="white" stroke-width="1.59" stroke-miterlimit="10"/>
<path d="M258.802 1762.08L160.967 780.927L-545.214 205.864" stroke="white" stroke-width="1.57" stroke-miterlimit="10"/>
<path d="M239.696 1773.73L141.85 792.573L-563.386 218.285" stroke="white" stroke-width="1.55" stroke-miterlimit="10"/>
<path d="M220.581 1785.37L122.746 804.222L-581.542 230.699" stroke="white" stroke-width="1.54" stroke-miterlimit="10"/>
<path d="M201.466 1797.02L103.628 815.879L-599.712 243.121" stroke="white" stroke-width="1.52" stroke-miterlimit="10"/>
<path d="M182.348 1808.66L84.5106 827.525L-617.874 255.546" stroke="white" stroke-width="1.5" stroke-miterlimit="10"/>
<path d="M163.244 1820.31L65.3957 839.171L-636.041 267.957" stroke="white" stroke-width="1.48" stroke-miterlimit="10"/>
<path d="M144.127 1831.96L46.2896 850.82L-654.202 280.382" stroke="white" stroke-width="1.46" stroke-miterlimit="10"/>
<path d="M125.01 1843.6L27.1725 862.465L-672.375 292.804" stroke="white" stroke-width="1.45" stroke-miterlimit="10"/>
<path d="M105.906 1855.25L8.05788 874.112L-690.533 305.229" stroke="white" stroke-width="1.43" stroke-miterlimit="10"/>
<path d="M86.7869 1866.91L-11.0477 885.76L-708.702 317.639" stroke="white" stroke-width="1.41" stroke-miterlimit="10"/>
<path d="M67.6716 1878.56L-30.166 897.417L-726.862 330.064" stroke="white" stroke-width="1.39" stroke-miterlimit="10"/>
<path d="M48.5544 1890.2L-49.2831 909.063L-745.034 342.486" stroke="white" stroke-width="1.38" stroke-miterlimit="10"/>
<path d="M29.4507 1901.85L-68.398 920.709L-763.193 354.911" stroke="white" stroke-width="1.36" stroke-miterlimit="10"/>
<path d="M10.3335 1913.5L-87.5041 932.358L-781.362 367.322" stroke="white" stroke-width="1.34" stroke-miterlimit="10"/>
<path d="M-8.78149 1925.14L-106.619 944.004L-799.521 379.747" stroke="white" stroke-width="1.32" stroke-miterlimit="10"/>
<path d="M-27.8877 1936.79L-125.736 955.65L-817.694 392.169" stroke="white" stroke-width="1.3" stroke-miterlimit="10"/>
<path d="M-47.0027 1948.44L-144.84 967.299L-835.85 404.583" stroke="white" stroke-width="1.29" stroke-miterlimit="10"/>
<path d="M-66.1221 1960.09L-163.957 978.945L-854.022 417.005" stroke="white" stroke-width="1.27" stroke-miterlimit="10"/>
<path d="M-85.2284 1971.74L-183.074 990.591L-872.183 429.43" stroke="white" stroke-width="1.25" stroke-miterlimit="10"/>
<path d="M-104.343 1983.39L-202.181 1002.25L-890.35 441.841" stroke="white" stroke-width="1.23" stroke-miterlimit="10"/>
<path d="M-123.46 1995.03L-221.298 1013.9L-908.512 454.265" stroke="white" stroke-width="1.21" stroke-miterlimit="10"/>
<path d="M-142.576 2006.68L-240.413 1025.54L-926.682 466.688" stroke="white" stroke-width="1.2" stroke-miterlimit="10"/>
<path d="M-161.682 2018.33L-259.53 1037.19L-944.843 479.112" stroke="white" stroke-width="1.18" stroke-miterlimit="10"/>
<path d="M-180.797 2029.98L-278.634 1048.84L-963.011 491.523" stroke="white" stroke-width="1.16" stroke-miterlimit="10"/>
<path d="M-199.914 2041.62L-297.751 1060.48L-981.172 503.948" stroke="white" stroke-width="1.14" stroke-miterlimit="10"/>
<path d="M-219.022 2053.28L-316.867 1072.13L-999.332 516.373" stroke="white" stroke-width="1.13" stroke-miterlimit="10"/>
<path d="M-238.137 2064.93L-335.983 1083.77L-1017.5 528.795" stroke="white" stroke-width="1.11" stroke-miterlimit="10"/>
<path d="M-257.254 2076.57L-355.089 1095.42L-1035.66 541.209" stroke="white" stroke-width="1.09" stroke-miterlimit="10"/>
<path d="M-276.369 2088.22L-374.207 1107.08L-1053.83 553.631" stroke="white" stroke-width="1.07" stroke-miterlimit="10"/>
<path d="M-295.476 2099.87L-393.324 1118.73L-1071.99 566.056" stroke="white" stroke-width="1.05" stroke-miterlimit="10"/>
<path d="M-314.591 2111.51L-412.428 1130.38L-1090.16 578.466" stroke="white" stroke-width="1.04" stroke-miterlimit="10"/>
</g>
</svg>
