<svg width="478" height="549" viewBox="0 0 478 549" fill="none" xmlns="http://www.w3.org/2000/svg">
<mask id="mask0_2682_1001" style="mask-type:alpha" maskUnits="userSpaceOnUse" x="0" y="0" width="478" height="549">
<rect opacity="0.05" width="478" height="548.69" transform="matrix(1 0 0 -1 0 549)" fill="#D9D9D9"/>
</mask>
<g mask="url(#mask0_2682_1001)">
<path d="M526.034 1086.99L454.307 367.692L-80.1046 -67.5068" stroke="#181818" stroke-width="2" stroke-miterlimit="10"/>
<path d="M512.029 1095.53L440.293 376.23L-93.4174 -58.3978" stroke="#181818" stroke-width="1.98" stroke-miterlimit="10"/>
<path d="M498.013 1104.07L426.286 384.77L-106.74 -49.2908" stroke="#181818" stroke-width="1.96" stroke-miterlimit="10"/>
<path d="M483.999 1112.61L412.272 393.307L-120.053 -40.1821" stroke="#181818" stroke-width="1.95" stroke-miterlimit="10"/>
<path d="M469.992 1121.15L398.257 401.846L-133.366 -31.0807" stroke="#181818" stroke-width="1.93" stroke-miterlimit="10"/>
<path d="M455.979 1129.69L384.251 410.386L-146.687 -21.9738" stroke="#181818" stroke-width="1.91" stroke-miterlimit="10"/>
<path d="M441.963 1138.23L370.236 418.924L-160.001 -12.8645" stroke="#181818" stroke-width="1.89" stroke-miterlimit="10"/>
<path d="M427.946 1146.77L356.221 427.462L-173.321 -3.76602" stroke="#181818" stroke-width="1.87" stroke-miterlimit="10"/>
<path d="M413.94 1155.31L342.207 436L-186.642 5.34089" stroke="#181818" stroke-width="1.86" stroke-miterlimit="10"/>
<path d="M399.925 1163.85L328.197 444.548L-199.957 14.4501" stroke="#181818" stroke-width="1.84" stroke-miterlimit="10"/>
<path d="M385.911 1172.39L314.184 453.086L-213.278 23.5565" stroke="#181818" stroke-width="1.82" stroke-miterlimit="10"/>
<path d="M371.904 1180.93L300.168 461.624L-226.591 32.6575" stroke="#181818" stroke-width="1.8" stroke-miterlimit="10"/>
<path d="M357.89 1189.46L286.163 470.164L-239.903 41.7667" stroke="#181818" stroke-width="1.79" stroke-miterlimit="10"/>
<path d="M343.875 1198L272.147 478.702L-253.226 50.8737" stroke="#181818" stroke-width="1.77" stroke-miterlimit="10"/>
<path d="M329.861 1206.54L258.134 487.24L-266.539 59.9828" stroke="#181818" stroke-width="1.75" stroke-miterlimit="10"/>
<path d="M315.852 1215.09L244.119 495.778L-279.859 69.0811" stroke="#181818" stroke-width="1.73" stroke-miterlimit="10"/>
<path d="M301.837 1223.63L230.112 504.318L-293.174 78.1905" stroke="#181818" stroke-width="1.71" stroke-miterlimit="10"/>
<path d="M287.823 1232.17L216.098 512.856L-306.495 87.2974" stroke="#181818" stroke-width="1.7" stroke-miterlimit="10"/>
<path d="M273.816 1240.71L202.08 521.402L-319.807 96.3983" stroke="#181818" stroke-width="1.68" stroke-miterlimit="10"/>
<path d="M259.802 1249.24L188.075 529.942L-333.128 105.505" stroke="#181818" stroke-width="1.66" stroke-miterlimit="10"/>
<path d="M245.787 1257.78L174.059 538.48L-346.443 114.614" stroke="#181818" stroke-width="1.64" stroke-miterlimit="10"/>
<path d="M231.773 1266.32L160.045 547.018L-359.764 123.721" stroke="#181818" stroke-width="1.62" stroke-miterlimit="10"/>
<path d="M217.766 1274.86L146.038 555.558L-373.077 132.822" stroke="#181818" stroke-width="1.61" stroke-miterlimit="10"/>
<path d="M203.752 1283.4L132.025 564.096L-386.398 141.929" stroke="#181818" stroke-width="1.59" stroke-miterlimit="10"/>
<path d="M189.735 1291.94L118.01 572.634L-399.712 151.038" stroke="#181818" stroke-width="1.57" stroke-miterlimit="10"/>
<path d="M175.728 1300.48L103.994 581.172L-413.034 160.145" stroke="#181818" stroke-width="1.55" stroke-miterlimit="10"/>
<path d="M161.714 1309.02L89.9886 589.712L-426.345 169.246" stroke="#181818" stroke-width="1.54" stroke-miterlimit="10"/>
<path d="M147.7 1317.56L75.9726 598.258L-439.666 178.353" stroke="#181818" stroke-width="1.52" stroke-miterlimit="10"/>
<path d="M133.685 1326.1L61.9573 606.796L-452.981 187.462" stroke="#181818" stroke-width="1.5" stroke-miterlimit="10"/>
<path d="M119.679 1334.64L47.9437 615.334L-466.3 196.56" stroke="#181818" stroke-width="1.48" stroke-miterlimit="10"/>
<path d="M105.664 1343.17L33.9363 623.874L-479.615 205.669" stroke="#181818" stroke-width="1.46" stroke-miterlimit="10"/>
<path d="M91.6484 1351.71L19.9209 632.412L-492.937 214.776" stroke="#181818" stroke-width="1.45" stroke-miterlimit="10"/>
<path d="M77.6429 1360.25L5.90731 640.95L-506.25 223.886" stroke="#181818" stroke-width="1.43" stroke-miterlimit="10"/>
<path d="M63.6259 1368.8L-8.0995 649.49L-519.57 232.984" stroke="#181818" stroke-width="1.41" stroke-miterlimit="10"/>
<path d="M49.6121 1377.34L-22.1155 658.036L-532.883 242.093" stroke="#181818" stroke-width="1.39" stroke-miterlimit="10"/>
<path d="M35.5967 1385.88L-36.1308 666.574L-546.206 251.2" stroke="#181818" stroke-width="1.38" stroke-miterlimit="10"/>
<path d="M21.5911 1394.42L-50.1446 675.112L-559.519 260.31" stroke="#181818" stroke-width="1.36" stroke-miterlimit="10"/>
<path d="M7.57568 1402.95L-64.1519 683.652L-572.839 269.408" stroke="#181818" stroke-width="1.34" stroke-miterlimit="10"/>
<path d="M-6.43811 1411.49L-78.1656 692.19L-586.152 278.517" stroke="#181818" stroke-width="1.32" stroke-miterlimit="10"/>
<path d="M-20.4453 1420.03L-92.181 700.728L-599.475 287.624" stroke="#181818" stroke-width="1.3" stroke-miterlimit="10"/>
<path d="M-34.459 1428.57L-106.187 709.268L-612.786 296.725" stroke="#181818" stroke-width="1.29" stroke-miterlimit="10"/>
<path d="M-48.4761 1437.12L-120.201 717.806L-626.108 305.832" stroke="#181818" stroke-width="1.27" stroke-miterlimit="10"/>
<path d="M-62.4833 1445.66L-134.217 726.344L-639.423 314.941" stroke="#181818" stroke-width="1.25" stroke-miterlimit="10"/>
<path d="M-76.497 1454.19L-148.225 734.892L-652.741 324.04" stroke="#181818" stroke-width="1.23" stroke-miterlimit="10"/>
<path d="M-90.5125 1462.73L-162.24 743.43L-666.056 333.149" stroke="#181818" stroke-width="1.21" stroke-miterlimit="10"/>
<path d="M-104.526 1471.27L-176.254 751.968L-679.377 342.255" stroke="#181818" stroke-width="1.2" stroke-miterlimit="10"/>
<path d="M-118.533 1479.81L-190.269 760.506L-692.692 351.364" stroke="#181818" stroke-width="1.18" stroke-miterlimit="10"/>
<path d="M-132.547 1488.35L-204.275 769.046L-706.011 360.463" stroke="#181818" stroke-width="1.16" stroke-miterlimit="10"/>
<path d="M-146.563 1496.89L-218.29 777.584L-719.325 369.573" stroke="#181818" stroke-width="1.14" stroke-miterlimit="10"/>
<path d="M-160.571 1505.43L-232.305 786.122L-732.639 378.682" stroke="#181818" stroke-width="1.13" stroke-miterlimit="10"/>
<path d="M-174.585 1513.97L-246.319 794.66L-745.961 387.788" stroke="#181818" stroke-width="1.11" stroke-miterlimit="10"/>
<path d="M-188.601 1522.51L-260.326 803.2L-759.273 396.889" stroke="#181818" stroke-width="1.09" stroke-miterlimit="10"/>
<path d="M-202.614 1531.05L-274.342 811.746L-772.594 405.996" stroke="#181818" stroke-width="1.07" stroke-miterlimit="10"/>
<path d="M-216.622 1539.59L-288.357 820.284L-785.909 415.105" stroke="#181818" stroke-width="1.05" stroke-miterlimit="10"/>
<path d="M-230.636 1548.13L-302.363 828.824L-799.228 424.204" stroke="#181818" stroke-width="1.04" stroke-miterlimit="10"/>
</g>
</svg>
