<svg width="323" height="371" viewBox="0 0 323 371" fill="none" xmlns="http://www.w3.org/2000/svg">
<mask id="mask0_2791_976" style="mask-type:alpha" maskUnits="userSpaceOnUse" x="0" y="0" width="323" height="371">
<rect opacity="0.05" width="322.933" height="370.69" transform="matrix(-1 0 0 1 322.933 0)" fill="#D9D9D9"/>
</mask>
<g mask="url(#mask0_2791_976)">
<path d="M-32.4514 -363.463L16.0071 122.49L377.051 416.507" stroke="white" stroke-width="2" stroke-miterlimit="10"/>
<path d="M-22.9893 -369.233L25.4747 116.721L386.045 410.352" stroke="white" stroke-width="1.98" stroke-miterlimit="10"/>
<path d="M-13.5205 -375.001L34.9379 110.952L395.045 404.2" stroke="white" stroke-width="1.96" stroke-miterlimit="10"/>
<path d="M-4.05298 -380.769L44.4055 105.185L404.04 398.046" stroke="white" stroke-width="1.95" stroke-miterlimit="10"/>
<path d="M5.41016 -386.539L53.8741 99.4157L413.033 391.897" stroke="white" stroke-width="1.93" stroke-miterlimit="10"/>
<path d="M14.8774 -392.307L63.3359 93.6467L422.033 385.745" stroke="white" stroke-width="1.91" stroke-miterlimit="10"/>
<path d="M24.3464 -398.075L72.8049 87.8781L431.028 379.591" stroke="white" stroke-width="1.89" stroke-miterlimit="10"/>
<path d="M33.8162 -403.849L82.2731 82.1102L440.027 373.444" stroke="white" stroke-width="1.87" stroke-miterlimit="10"/>
<path d="M43.2781 -409.618L91.7406 76.3421L449.026 367.291" stroke="white" stroke-width="1.86" stroke-miterlimit="10"/>
<path d="M52.7471 -415.387L101.206 70.5665L458.022 361.137" stroke="white" stroke-width="1.84" stroke-miterlimit="10"/>
<path d="M62.2144 -421.154L110.673 64.799L467.021 354.985" stroke="white" stroke-width="1.82" stroke-miterlimit="10"/>
<path d="M71.6777 -426.924L120.142 59.0309L476.015 348.837" stroke="white" stroke-width="1.8" stroke-miterlimit="10"/>
<path d="M81.1453 -432.692L129.604 53.2609L485.009 342.682" stroke="white" stroke-width="1.79" stroke-miterlimit="10"/>
<path d="M90.6138 -438.461L139.072 47.4923L494.01 336.529" stroke="white" stroke-width="1.77" stroke-miterlimit="10"/>
<path d="M100.081 -444.229L148.54 41.7248L503.004 330.376" stroke="white" stroke-width="1.75" stroke-miterlimit="10"/>
<path d="M109.546 -450.004L158.008 35.9564L512.003 324.229" stroke="white" stroke-width="1.73" stroke-miterlimit="10"/>
<path d="M119.014 -455.771L167.471 30.1873L520.998 318.075" stroke="white" stroke-width="1.71" stroke-miterlimit="10"/>
<path d="M128.482 -461.54L176.939 24.4187L529.998 311.922" stroke="white" stroke-width="1.7" stroke-miterlimit="10"/>
<path d="M137.945 -467.31L186.409 18.6451L538.992 305.774" stroke="white" stroke-width="1.68" stroke-miterlimit="10"/>
<path d="M147.413 -473.078L195.871 12.8751L547.991 299.621" stroke="white" stroke-width="1.66" stroke-miterlimit="10"/>
<path d="M156.881 -478.847L205.34 7.10659L556.987 293.466" stroke="white" stroke-width="1.64" stroke-miterlimit="10"/>
<path d="M166.349 -484.614L214.807 1.33901L565.986 287.315" stroke="white" stroke-width="1.62" stroke-miterlimit="10"/>
<path d="M175.812 -490.384L224.27 -4.43049L574.98 281.166" stroke="white" stroke-width="1.61" stroke-miterlimit="10"/>
<path d="M185.28 -496.152L233.738 -10.199L583.979 275.013" stroke="white" stroke-width="1.59" stroke-miterlimit="10"/>
<path d="M194.75 -501.926L243.207 -15.967L592.974 268.859" stroke="white" stroke-width="1.57" stroke-miterlimit="10"/>
<path d="M204.213 -507.695L252.675 -21.735L601.975 262.707" stroke="white" stroke-width="1.55" stroke-miterlimit="10"/>
<path d="M213.68 -513.464L262.137 -27.5051L610.968 256.558" stroke="white" stroke-width="1.54" stroke-miterlimit="10"/>
<path d="M223.148 -519.232L271.606 -33.2792L619.967 250.405" stroke="white" stroke-width="1.52" stroke-miterlimit="10"/>
<path d="M232.616 -525L281.075 -39.0467L628.963 244.252" stroke="white" stroke-width="1.5" stroke-miterlimit="10"/>
<path d="M242.078 -530.77L290.542 -44.8148L637.961 238.105" stroke="white" stroke-width="1.48" stroke-miterlimit="10"/>
<path d="M251.547 -536.537L300.006 -50.5838L646.956 231.951" stroke="white" stroke-width="1.46" stroke-miterlimit="10"/>
<path d="M261.016 -542.306L309.474 -56.3524L655.956 225.798" stroke="white" stroke-width="1.45" stroke-miterlimit="10"/>
<path d="M270.478 -548.075L318.942 -62.1204L664.951 219.645" stroke="white" stroke-width="1.43" stroke-miterlimit="10"/>
<path d="M279.948 -553.849L328.405 -67.8898L673.95 213.498" stroke="white" stroke-width="1.41" stroke-miterlimit="10"/>
<path d="M289.415 -559.617L337.874 -73.6639L682.944 207.343" stroke="white" stroke-width="1.39" stroke-miterlimit="10"/>
<path d="M298.884 -565.385L347.342 -79.4314L691.944 201.191" stroke="white" stroke-width="1.38" stroke-miterlimit="10"/>
<path d="M308.346 -571.155L356.81 -85.2005L700.939 195.037" stroke="white" stroke-width="1.36" stroke-miterlimit="10"/>
<path d="M317.814 -576.923L366.273 -90.9696L709.938 188.89" stroke="white" stroke-width="1.34" stroke-miterlimit="10"/>
<path d="M327.282 -582.691L375.741 -96.7381L718.932 182.736" stroke="white" stroke-width="1.32" stroke-miterlimit="10"/>
<path d="M336.745 -588.461L385.209 -102.506L727.932 176.583" stroke="white" stroke-width="1.3" stroke-miterlimit="10"/>
<path d="M346.213 -594.229L394.671 -108.276L736.925 170.434" stroke="white" stroke-width="1.29" stroke-miterlimit="10"/>
<path d="M355.683 -600.003L404.14 -114.044L745.926 164.282" stroke="white" stroke-width="1.27" stroke-miterlimit="10"/>
<path d="M365.146 -605.772L413.608 -119.812L754.921 158.128" stroke="white" stroke-width="1.25" stroke-miterlimit="10"/>
<path d="M374.613 -611.54L423.072 -125.587L763.919 151.982" stroke="white" stroke-width="1.23" stroke-miterlimit="10"/>
<path d="M384.082 -617.309L432.541 -131.355L772.914 145.827" stroke="white" stroke-width="1.21" stroke-miterlimit="10"/>
<path d="M393.55 -623.077L442.008 -137.124L781.914 139.674" stroke="white" stroke-width="1.2" stroke-miterlimit="10"/>
<path d="M403.013 -628.847L451.477 -142.892L790.909 133.52" stroke="white" stroke-width="1.18" stroke-miterlimit="10"/>
<path d="M412.48 -634.615L460.939 -148.662L799.907 127.373" stroke="white" stroke-width="1.16" stroke-miterlimit="10"/>
<path d="M421.949 -640.383L470.407 -154.43L808.902 121.22" stroke="white" stroke-width="1.14" stroke-miterlimit="10"/>
<path d="M431.413 -646.158L479.876 -160.198L817.897 115.065" stroke="white" stroke-width="1.13" stroke-miterlimit="10"/>
<path d="M440.881 -651.926L489.343 -165.966L826.897 108.913" stroke="white" stroke-width="1.11" stroke-miterlimit="10"/>
<path d="M450.349 -657.693L498.806 -171.735L835.891 102.765" stroke="white" stroke-width="1.09" stroke-miterlimit="10"/>
<path d="M459.817 -663.462L508.275 -177.509L844.89 96.6125" stroke="white" stroke-width="1.07" stroke-miterlimit="10"/>
<path d="M469.28 -669.232L517.744 -183.278L853.886 90.4576" stroke="white" stroke-width="1.05" stroke-miterlimit="10"/>
<path d="M478.748 -675L527.207 -189.047L862.884 84.3112" stroke="white" stroke-width="1.04" stroke-miterlimit="10"/>
</g>
</svg>
