<svg width="145" height="216" viewBox="0 0 145 216" fill="none" xmlns="http://www.w3.org/2000/svg">
<g opacity="0.6">
<circle cx="142.5" cy="212.5" r="2.5" transform="rotate(180 142.5 212.5)" fill="white"/>
<circle cx="107.5" cy="212.502" r="2.5" transform="rotate(180 107.5 212.502)" fill="white"/>
<circle cx="72.5" cy="212.502" r="2.5" transform="rotate(180 72.5 212.502)" fill="white"/>
<circle cx="37.5" cy="212.502" r="2.5" transform="rotate(180 37.5 212.502)" fill="white"/>
<circle cx="2.5" cy="212.502" r="2.5" transform="rotate(180 2.5 212.502)" fill="white"/>
<circle cx="142.5" cy="177.5" r="2.5" transform="rotate(180 142.5 177.5)" fill="white"/>
<circle cx="107.5" cy="177.502" r="2.5" transform="rotate(180 107.5 177.502)" fill="white"/>
<circle cx="72.5" cy="177.502" r="2.5" transform="rotate(180 72.5 177.502)" fill="white"/>
<circle cx="37.5" cy="177.502" r="2.5" transform="rotate(180 37.5 177.502)" fill="white"/>
<circle cx="2.5" cy="177.502" r="2.5" transform="rotate(180 2.5 177.502)" fill="white"/>
<circle cx="142.5" cy="142.5" r="2.5" transform="rotate(180 142.5 142.5)" fill="white"/>
<circle cx="107.5" cy="142.502" r="2.5" transform="rotate(180 107.5 142.502)" fill="white"/>
<circle cx="72.5" cy="142.502" r="2.5" transform="rotate(180 72.5 142.502)" fill="white"/>
<circle cx="37.5" cy="142.502" r="2.5" transform="rotate(180 37.5 142.502)" fill="white"/>
<circle cx="2.5" cy="142.502" r="2.5" transform="rotate(180 2.5 142.502)" fill="white"/>
<circle cx="142.5" cy="107.5" r="2.5" transform="rotate(180 142.5 107.5)" fill="white"/>
<circle cx="107.5" cy="107.502" r="2.5" transform="rotate(180 107.5 107.502)" fill="white"/>
<circle cx="72.5" cy="107.502" r="2.5" transform="rotate(180 72.5 107.502)" fill="white"/>
<circle cx="37.5" cy="107.502" r="2.5" transform="rotate(180 37.5 107.502)" fill="white"/>
<circle cx="2.5" cy="107.502" r="2.5" transform="rotate(180 2.5 107.502)" fill="white"/>
<circle cx="142.5" cy="72.5" r="2.5" transform="rotate(180 142.5 72.5)" fill="white"/>
<circle cx="142.5" cy="37.5" r="2.5" transform="rotate(180 142.5 37.5)" fill="white"/>
<circle cx="142.5" cy="2.50003" r="2.5" transform="rotate(180 142.5 2.50003)" fill="white"/>
<circle cx="107.5" cy="72.502" r="2.5" transform="rotate(180 107.5 72.502)" fill="white"/>
<circle cx="107.5" cy="37.502" r="2.5" transform="rotate(180 107.5 37.502)" fill="white"/>
<circle cx="107.5" cy="2.50198" r="2.5" transform="rotate(180 107.5 2.50198)" fill="white"/>
<circle cx="72.5" cy="72.502" r="2.5" transform="rotate(180 72.5 72.502)" fill="white"/>
<circle cx="72.5" cy="37.502" r="2.5" transform="rotate(180 72.5 37.502)" fill="white"/>
<circle cx="72.5" cy="2.50198" r="2.5" transform="rotate(180 72.5 2.50198)" fill="white"/>
<circle cx="37.5" cy="72.502" r="2.5" transform="rotate(180 37.5 72.502)" fill="white"/>
<circle cx="37.5" cy="37.502" r="2.5" transform="rotate(180 37.5 37.502)" fill="white"/>
<circle cx="37.5" cy="2.50198" r="2.5" transform="rotate(180 37.5 2.50198)" fill="white"/>
<circle cx="2.5" cy="72.502" r="2.5" transform="rotate(180 2.5 72.502)" fill="white"/>
<circle cx="2.5" cy="37.502" r="2.5" transform="rotate(180 2.5 37.502)" fill="white"/>
<circle cx="2.5" cy="2.50198" r="2.5" transform="rotate(180 2.5 2.50198)" fill="white"/>
</g>
</svg>
