<svg width="85" height="120" viewBox="0 0 85 120" fill="none" xmlns="http://www.w3.org/2000/svg">
<path d="M3.78395 103.796H8.83162V101.587H3.15389C2.04949 101.587 1.24925 101.833 0.749547 102.329C0.249849 102.826 0 103.619 0 104.712V109.709C0 110.73 0.242607 111.48 0.7242 111.958C1.20941 112.436 1.9662 112.675 2.99457 112.675H6.73144C7.42305 112.675 8.12191 112.606 8.828 112.472V110.412H6.84007C6.5685 110.502 6.28606 110.546 5.99638 110.546H3.621C3.3784 110.546 3.18648 110.477 3.04526 110.335C2.90404 110.194 2.83162 110.002 2.83162 109.763V104.741C2.83162 104.115 3.14665 103.8 3.77671 103.8L3.78395 103.796Z" fill="#181818"/>
<path d="M20.2232 102.181C19.7235 101.681 18.9233 101.432 17.8188 101.432H13.8756C12.7712 101.432 11.9709 101.681 11.4712 102.181C10.9715 102.681 10.7217 103.481 10.7217 104.585V109.633C10.7217 110.737 10.9715 111.538 11.4712 112.037C11.9709 112.537 12.7712 112.787 13.8756 112.787H17.8188C18.9233 112.787 19.7235 112.537 20.2232 112.037C20.7229 111.538 20.9727 110.737 20.9727 109.633V104.585C20.9727 103.481 20.7229 102.681 20.2232 102.181ZM18.1339 109.633C18.1339 110.263 17.8188 110.578 17.1888 110.578H14.5093C13.8792 110.578 13.5642 110.26 13.5642 109.633V104.585C13.5642 103.955 13.8792 103.64 14.5093 103.64H17.1888C17.8188 103.64 18.1339 103.955 18.1339 104.585V109.633Z" fill="#181818"/>
<path d="M32.7986 101.587L29.6448 107.424L26.4909 101.587H23.4927V112.628H26.3315V106.479L28.5404 110.422H30.7492L32.958 106.479V112.628H35.7968V101.587H32.7986Z" fill="#181818"/>
<path d="M47.6634 102.337C47.1637 101.837 46.3635 101.587 45.259 101.587H38.6362V112.628H41.4751V109.474H45.259C46.3635 109.474 47.1637 109.224 47.6634 108.724C48.1631 108.224 48.4129 107.424 48.4129 106.32V104.741C48.4129 103.637 48.1631 102.836 47.6634 102.337ZM45.5741 106.32C45.5741 106.95 45.259 107.265 44.629 107.265H41.4751V103.796H44.629C45.259 103.796 45.5741 104.111 45.5741 104.741V106.32Z" fill="#181818"/>
<path d="M56.0601 101.587H52.9062L48.7275 112.628H51.8018L51.8163 112.588L54.4813 104.89L57.0233 112.237L57.1645 112.631H60.2387L56.0601 101.591V101.587Z" fill="#181818"/>
<path d="M68.7551 101.587V108.21L64.9711 101.587H61.9766V112.628H64.8154V106.005L68.5994 112.628H71.5939V101.587H68.7551Z" fill="#181818"/>
<path d="M81.3712 101.587L78.7677 106.95L76.1642 101.587H73.166L77.3447 109.709V112.628H80.1835V109.709L84.3622 101.587H81.3676H81.3712Z" fill="#181818"/>
<path d="M13.8506 119.935V116.527H15.4438C16.1861 116.527 16.5881 117.027 16.5881 117.624C16.5881 118.222 16.1789 118.718 15.4438 118.718H14.5748V119.935H13.8506ZM15.8494 117.624C15.8494 117.338 15.6285 117.165 15.3424 117.165H14.5748V118.081H15.3424C15.6285 118.081 15.8494 117.907 15.8494 117.624Z" fill="#181818"/>
<path d="M17.7578 118.573V116.531H18.4929V118.555C18.4929 119.03 18.7681 119.359 19.2967 119.359C19.8254 119.359 20.0934 119.033 20.0934 118.555V116.531H20.8357V118.573C20.8357 119.417 20.336 120 19.2967 120C18.2575 120 17.7578 119.417 17.7578 118.573Z" fill="#181818"/>
<path d="M23.008 119.935V117.165H22.0122V116.527H24.7316V117.165H23.7394V119.935H23.008Z" fill="#181818"/>
<path d="M28.7248 119.935V117.165H27.729V116.527H30.4484V117.165H29.4562V119.935H28.7248Z" fill="#181818"/>
<path d="M33.6572 119.935L33.4436 119.359H31.9843L31.7707 119.935H30.9487L32.2632 116.527H33.172L34.4865 119.935H33.6645H33.6572ZM32.7122 117.252L32.1799 118.718H33.2408L32.7085 117.252H32.7122Z" fill="#181818"/>
<path d="M35.1743 118.233C35.1743 117.154 35.9927 116.469 36.9921 116.469C37.6982 116.469 38.1399 116.828 38.397 117.23L37.7995 117.556C37.6402 117.317 37.3505 117.11 36.9921 117.11C36.3692 117.11 35.9202 117.585 35.9202 118.229C35.9202 118.874 36.3692 119.348 36.9921 119.348C37.2926 119.348 37.575 119.214 37.7126 119.087V118.678H36.8146V118.045H38.4405V119.352C38.0928 119.739 37.6076 119.989 36.9957 119.989C35.9927 119.989 35.1779 119.301 35.1779 118.226L35.1743 118.233Z" fill="#181818"/>
<path d="M39.7012 119.935V116.527H40.4326V119.297H41.8738V119.935H39.7012Z" fill="#181818"/>
<path d="M43.0791 119.935V116.527H43.8033V119.935H43.0791Z" fill="#181818"/>
<path d="M47.5439 119.935L45.918 117.711V119.935H45.1938V116.527H45.9398L47.5185 118.667V116.527H48.2427V119.935H47.5439Z" fill="#181818"/>
<path d="M49.6333 119.935V116.527H52.0449V117.165H50.3575V117.882H52.0087V118.519H50.3575V119.294H52.0449V119.931H49.6333V119.935Z" fill="#181818"/>
<path d="M57.6898 119.935V118.501H56.0821V119.935H55.3579V116.527H56.0821V117.867H57.6898V116.527H58.4213V119.935H57.6898Z" fill="#181818"/>
<path d="M59.8047 119.935V116.527H62.2163V117.165H60.5289V117.882H62.1801V118.519H60.5289V119.294H62.2163V119.931H59.8047V119.935Z" fill="#181818"/>
<path d="M65.4244 119.935L64.7545 118.725H64.2222V119.935H63.498V116.527H65.0913C65.801 116.527 66.2391 116.991 66.2391 117.624C66.2391 118.222 65.8553 118.548 65.4896 118.635L66.2609 119.931H65.4244V119.935ZM65.4968 117.621C65.4968 117.338 65.276 117.165 64.9899 117.165H64.2222V118.084H64.9899C65.276 118.084 65.4968 117.911 65.4968 117.621Z" fill="#181818"/>
<path d="M67.4995 119.935V116.527H69.9111V117.165H68.2237V117.882H69.8749V118.519H68.2237V119.294H69.9111V119.931H67.4995V119.935Z" fill="#181818"/>
<path d="M59.7384 14.4116L42.01 0L5.25684 29.8877H17.7927V36.449C17.7927 40.0555 18.774 43.5606 20.5954 46.6132C21.2508 47.7103 22.0112 48.7495 22.8766 49.7091C25.6358 52.7833 28.8621 55.7562 31.4801 58.1823C32.0305 58.6892 32.5954 59.1998 33.1603 59.7103C36.1295 62.4007 39.5912 65.5437 42.0136 69.2408C44.4433 65.5437 47.8978 62.4007 50.867 59.7103C51.4319 59.1998 51.9967 58.6892 52.5471 58.1823C55.1651 55.7634 58.3878 52.787 61.1506 49.7091C64.4204 46.07 66.2345 41.3482 66.2345 36.4526V29.8877H78.7704L59.7384 14.4116ZM60.7052 25.6331V36.4526C60.7052 39.9867 59.4053 43.3796 57.0444 46.0121C54.4337 48.9125 51.3087 51.7984 48.803 54.1195C48.2707 54.6083 47.7167 55.1044 47.1555 55.6113C45.5622 57.0561 43.7662 58.682 42.0136 60.5106C40.2647 58.6856 38.4723 57.0561 36.8754 55.6113L36.8537 55.5932H36.8501C36.2997 55.0972 35.7565 54.6011 35.2351 54.1231L35.0867 53.9819C32.6099 51.6934 29.5284 48.8401 26.9901 46.0121C26.0052 44.9113 25.2049 43.6801 24.6075 42.3621C23.7638 40.519 23.322 38.5094 23.322 36.4454V26.0567H19.5417L42.01 7.12251H42.0136L57.5079 19.8793L64.4856 25.6295H60.7052V25.6331Z" fill="#FFDD02"/>
<path d="M48.8003 54.1232C48.268 54.612 47.714 55.1081 47.1528 55.6151C45.5595 57.0599 43.7635 58.6857 42.0109 60.5143C40.262 58.6893 38.4696 57.0599 36.8728 55.6151L36.851 55.597H36.8474C36.297 55.1009 35.7539 54.6048 35.2324 54.1268L35.084 53.9856C32.6072 51.6971 29.5257 48.8438 26.9874 46.0158C26.0025 44.915 25.2023 43.6839 24.6048 42.3658C23.7611 40.5227 23.3193 38.5131 23.3193 36.4491V37.2602C23.3193 39.3242 23.7611 41.3338 24.6048 43.1769C25.1986 44.495 25.9989 45.7261 26.9874 46.8269C29.5257 49.6549 32.6108 52.5082 35.084 54.7967L35.2324 54.9379C35.7539 55.4195 36.3006 55.912 36.8474 56.4044H36.851L36.8728 56.4262C38.466 57.871 40.262 59.5004 42.0109 61.3254C43.7635 59.4968 45.5595 57.871 47.1528 56.4262C47.714 55.9192 48.268 55.4232 48.8003 54.9343C51.3061 52.6169 54.431 49.7273 57.0417 46.8269C59.4026 44.1944 60.7026 40.8015 60.7026 37.2674V36.4563C60.7026 39.9904 59.4026 43.3833 57.0417 46.0158C54.431 48.9162 51.3061 51.8021 48.8003 54.1232Z" fill="#FFDD02"/>
<path fill-rule="evenodd" clip-rule="evenodd" d="M78.7058 77.1419C77.9092 78.4346 77.0221 79.6694 76.048 80.8317C76.0444 80.8353 76.0408 80.8389 76.0335 80.8534C75.2043 81.9071 74.0854 83.0985 72.6841 84.3187C72.6624 84.3332 72.6515 84.3441 72.6334 84.3622C70.3124 86.4262 67.6654 88.186 64.7179 89.5547C63.9937 89.9132 63.2478 90.2608 62.4656 90.5867C62.4584 90.5903 62.4475 90.6012 62.4367 90.6048C56.281 93.6609 49.3431 95.3845 42.0142 95.3845C34.6853 95.3845 27.7511 93.6609 21.5918 90.6048C20.8024 90.2644 20.0384 89.9168 19.3105 89.5547C16.363 88.186 13.7125 86.4262 11.395 84.3622C11.3769 84.3441 11.3624 84.3332 11.3443 84.3187C9.93938 83.0985 8.81687 81.9071 7.98766 80.8534C7.98404 80.8389 7.98404 80.8353 7.98042 80.8317C7.00637 79.6657 6.11922 78.4346 5.32622 77.1492C1.27432 70.635 -0.445653 62.7774 0.72031 54.9922C1.13672 52.1968 1.91886 49.4195 3.10293 46.7074C6.01784 40.0122 10.8881 34.7834 16.7686 31.3942C7.30691 40.1968 18.7746 51.2083 29.109 60.7533C35.8259 66.9524 44.7263 73.7889 40.4355 83.6452L40.4174 83.6742C40.3993 83.7176 40.3775 83.7539 40.3594 83.7937C39.5592 85.4775 37.698 86.3863 35.8477 86.0749C12.3618 82.0592 8.57064 53.1636 8.17595 49.3942C8.17233 49.3869 8.17233 49.3761 8.17233 49.3724C8.15423 49.2059 8.14336 49.09 8.13974 49.0321C7.31778 57.9977 9.75833 66.011 13.4047 72.5324C13.7776 73.1479 14.1687 73.8033 14.5743 74.5094C14.5887 74.5312 14.596 74.5529 14.6141 74.5746C15.7294 76.3562 16.9315 78.0182 18.1627 79.5282C18.9593 80.4986 19.8971 81.3857 20.8386 82.2149C26.0528 86.8172 32.9038 89.533 39.7801 90.2861C40.9967 90.4237 42.1518 90.4672 43.3685 90.3332C44.2049 90.2391 45.0414 90.1232 45.8706 89.9892C53.2466 88.7726 61.0498 85.4521 65.8802 79.5282C67.1078 78.0182 68.3136 76.3562 69.4324 74.5746C69.4469 74.5529 69.4542 74.5312 69.465 74.5094C69.8742 73.8033 70.2617 73.1479 70.6382 72.5324C74.2774 66.0073 76.7215 57.9977 75.9032 49.0321C75.7873 50.3573 72.7891 81.8673 48.188 86.0749C46.3015 86.3972 44.3896 85.4376 43.6147 83.6778L43.5966 83.6489C39.3057 73.7925 48.2061 66.956 54.9231 60.7569C65.2574 51.2119 76.7288 40.2041 67.2707 31.3978C73.144 34.787 78.0215 40.0194 80.9364 46.711C82.1096 49.4123 82.8953 52.1896 83.319 54.9741C84.4813 62.7738 82.765 70.6277 78.7167 77.1455L78.7058 77.1419Z" fill="#52C459"/>
<g style="mix-blend-mode:screen">
<path fill-rule="evenodd" clip-rule="evenodd" d="M78.7058 77.1417C77.9092 78.4344 77.0221 79.6692 76.048 80.8315C76.0444 80.8352 76.0408 80.8388 76.0335 80.8533C75.2043 81.907 74.0854 83.0983 72.6841 84.3186C72.6624 84.3331 72.6515 84.3439 72.6334 84.362C70.3124 86.426 67.6654 88.1858 64.7179 89.5546C63.9937 89.913 63.2478 90.2606 62.4656 90.5865C62.4584 90.5901 62.4475 90.601 62.4367 90.6046C56.2846 93.6608 49.3431 95.3844 42.0142 95.3844C34.6853 95.3844 27.7511 93.6608 21.5918 90.6046C20.8024 90.2643 20.0384 89.9167 19.3105 89.5546C16.363 88.1858 13.7125 86.426 11.395 84.362C11.3769 84.3439 11.3624 84.3331 11.3443 84.3186C9.93938 83.0983 8.81687 81.907 7.98766 80.8533C7.98404 80.8388 7.98404 80.8352 7.98042 80.8315C7.00637 79.6656 6.11922 78.4344 5.32622 77.149C1.27432 70.6348 -0.445653 62.7772 0.72031 54.9921C1.13672 52.1967 1.91886 49.4194 3.10293 46.7072C6.01784 40.012 10.8917 34.7833 16.7686 31.394C16.2979 31.8321 15.8742 32.2775 15.5085 32.7265C10.3956 36.0687 6.17716 40.8883 3.55918 46.9064C2.38959 49.5859 1.6147 52.3343 1.2019 55.0935C0.0540458 62.7917 1.7523 70.5515 5.75712 76.9897C6.53926 78.2606 7.41554 79.4773 8.37511 80.6288C8.37873 80.6324 8.37873 80.636 8.38235 80.6505C9.20432 81.6933 10.3123 82.8702 11.6992 84.0723C11.7173 84.0868 11.7318 84.0977 11.7499 84.1158C14.042 86.158 16.6563 87.8961 19.5712 89.2504C20.2882 89.6089 21.0414 89.9529 21.8235 90.2896C27.9104 93.3131 34.765 95.015 42.007 95.015C49.249 95.015 56.1035 93.3131 62.1868 90.2896C62.2013 90.286 62.2085 90.2751 62.2158 90.2715C62.9907 89.9492 63.7294 89.6052 64.4427 89.2504C67.3576 87.8997 69.972 86.158 72.2641 84.1158C72.2822 84.0977 72.293 84.0868 72.3148 84.0723C73.7016 82.8702 74.806 81.6897 75.628 80.6505C75.6316 80.636 75.6352 80.6324 75.6425 80.6288C76.602 79.4773 77.4856 78.2606 78.2713 76.9788C82.2689 70.5407 83.9671 62.7772 82.8193 55.0681C82.4029 52.3162 81.6244 49.5751 80.462 46.9028C77.8477 40.8883 73.6219 36.0723 68.52 32.7265C68.1506 32.2775 67.7306 31.8285 67.2562 31.3904C73.1295 34.7796 78.007 40.012 80.9219 46.7036C82.0951 49.4049 82.8808 52.1822 83.3045 54.9667C84.4668 62.7664 82.7505 70.6203 78.7022 77.1381L78.7058 77.1417Z" fill="#52C459"/>
<path fill-rule="evenodd" clip-rule="evenodd" d="M70.6313 72.5324C70.2511 73.148 69.8673 73.8034 69.4581 74.5095C69.4436 74.5312 69.4364 74.5529 69.4255 74.5747C68.3066 76.3562 67.1045 78.0182 65.8733 79.5282C61.0429 85.4522 53.2397 88.7726 45.8637 89.9893C45.0345 90.1269 44.2016 90.2391 43.3616 90.3333C42.1449 90.4708 40.9898 90.4238 39.7732 90.2862C32.8969 89.533 26.0459 86.8173 20.8317 82.215C19.8902 81.3858 18.9524 80.4986 18.1558 79.5282C16.9283 78.0182 15.7225 76.3562 14.6072 74.5747C14.5891 74.5529 14.5818 74.5312 14.5674 74.5095C14.1618 73.8034 13.7707 73.148 13.3978 72.5324C9.75143 66.0074 7.31087 57.9977 8.13284 49.0321C8.13646 49.09 8.15094 49.2059 8.16543 49.3725C8.16543 49.3761 8.16543 49.387 8.16905 49.3942C8.20888 49.7635 8.2813 50.3719 8.39717 51.1721C8.07852 59.2361 10.396 66.46 13.7273 72.4274C14.0966 73.0357 14.4841 73.6803 14.8824 74.3791C14.8969 74.4008 14.9041 74.4226 14.9222 74.4443C16.023 76.2041 17.2143 77.8517 18.4273 79.3435C19.2131 80.2995 20.1437 81.1758 21.0743 81.9977C26.227 86.5457 32.9983 89.2325 39.7949 89.9748C40.9934 90.1124 42.1377 90.1522 43.3435 90.0219C44.1727 89.9277 44.9946 89.8118 45.813 89.6815C53.1021 88.4793 60.8112 85.1951 65.5873 79.3435C66.8039 77.8517 67.9916 76.2041 69.096 74.4443C69.1105 74.4226 69.1178 74.4008 69.1286 74.3791C69.5342 73.6803 69.9144 73.0357 70.291 72.4274C73.6114 66.4745 75.9216 59.2687 75.6211 51.2228C75.6211 51.2228 75.6247 51.2192 75.6211 51.2156C75.8021 49.9989 75.8745 49.2204 75.8926 49.0321C76.711 57.9977 74.2668 66.011 70.6277 72.5324H70.6313Z" fill="#52C459"/>
</g>
<path d="M32.8347 22.9536H40.8842V31.2711H32.8311V22.9536H32.8347Z" fill="#181818"/>
<path d="M40.8846 33.871H32.8242V42.1884H40.8846V33.871Z" fill="#181818"/>
<path d="M43.4771 22.9536L52.0588 22.9609V31.2747H43.4771V22.9536Z" fill="#181818"/>
<path d="M52.0588 33.871H43.4771V42.1884H52.0588V33.871Z" fill="#181818"/>
<g style="mix-blend-mode:multiply">
<path fill-rule="evenodd" clip-rule="evenodd" d="M40.3588 83.7937C39.5585 85.4775 37.6973 86.3863 35.847 86.0749C12.3612 82.0592 8.56998 53.1636 8.17529 49.3942C8.50118 50.3501 18.7848 79.9808 40.3624 83.7937H40.3588Z" fill="#52C459"/>
</g>
<g style="mix-blend-mode:multiply">
<path fill-rule="evenodd" clip-rule="evenodd" d="M43.6687 83.7937C44.4689 85.4775 46.3301 86.3863 48.1804 86.0749C71.6662 82.0592 75.4574 53.1636 75.8521 49.3942C75.5262 50.3501 65.2426 79.9808 43.665 83.7937H43.6687Z" fill="#52C459"/>
</g>
<g style="mix-blend-mode:multiply">
<path fill-rule="evenodd" clip-rule="evenodd" d="M42.0139 60.5143V69.2409C39.5915 65.5439 36.1298 62.4008 33.1606 59.7104C32.5957 59.1999 32.0308 58.6893 31.4804 58.1824C28.8624 55.7599 25.6361 52.7871 22.8769 49.7092C22.0151 48.7497 21.2511 47.7104 20.5957 46.6133L24.6078 42.3658C25.2016 43.6839 26.0019 44.915 26.9904 46.0158C29.5287 48.8438 32.6138 51.6972 35.087 53.9856L35.2354 54.1269C35.7568 54.6084 36.3036 55.1009 36.8504 55.5934H36.854L36.8757 55.6151C38.469 57.0599 40.265 58.6893 42.0139 60.5143Z" fill="#FFDD02"/>
</g>
<g style="mix-blend-mode:multiply">
<path d="M59.7392 14.4116L57.505 19.8865L42.0144 7.12251L42.0107 7.12974V0L59.7392 14.4116Z" fill="#FFDD02"/>
</g>
<g style="mix-blend-mode:screen">
<path d="M42.0032 0L5.25 29.8877H5.8185L42.0032 0.463488L78.1951 29.8877H78.7636L42.0032 0ZM60.6984 25.6367V26.1002H65.0436L64.4824 25.6367H60.6984ZM48.7962 54.1231C48.2639 54.6119 47.7099 55.1153 47.1486 55.615C45.5554 57.067 43.7594 58.6856 42.0068 60.5142C40.2578 58.6892 38.4655 57.0634 36.8686 55.615L36.8469 55.5969H36.8432C36.2929 55.1044 35.7497 54.6047 35.2283 54.1267L35.0798 53.9855C32.603 51.7007 29.5216 48.8473 26.9833 46.0157C25.9983 44.9185 25.1981 43.6838 24.6006 42.3693C23.7569 40.5226 23.3152 38.5166 23.3152 36.449V36.9125C23.3152 38.9765 23.7569 40.9861 24.6006 42.8292C25.1945 44.1473 25.9947 45.3784 26.9833 46.4792C29.5216 49.3072 32.6067 52.1605 35.0798 54.449L35.2283 54.5902C35.7497 55.0718 36.2965 55.5643 36.8432 56.0567H36.8469L36.8686 56.0785C38.4618 57.5232 40.2578 59.1527 42.0068 60.9777C43.7594 59.1491 45.5554 57.5232 47.1486 56.0785C47.7099 55.5715 48.2639 55.0754 48.7962 54.5866C51.3019 52.2692 54.4268 49.3796 57.0376 46.4792C59.3985 43.8467 60.6984 40.4538 60.6984 36.9197V36.4562C60.6984 39.9903 59.3985 43.3832 57.0376 46.0157C54.4268 48.9161 51.3019 51.8093 48.7962 54.1231ZM23.3188 26.064H19.5421L18.9917 26.5275H23.3152V26.064H23.3188Z" fill="#FFDD02"/>
</g>
</svg>
