<svg width="175" height="120" viewBox="0 0 175 120" fill="none" xmlns="http://www.w3.org/2000/svg">
<path fill-rule="evenodd" clip-rule="evenodd" d="M105.354 10.7904C107.879 11.6298 110.318 12.6574 112.677 13.8296L122.793 8.67737L132.924 18.8082L143.077 28.9608L137.924 39.07C139.097 41.429 140.117 43.8676 140.964 46.3931L151.753 49.9027V77.7192L174.974 86.1495H127.323C130.891 79.6658 132.924 72.1979 132.924 64.2596C132.924 39.1496 112.597 18.8082 87.4872 18.8082C62.3772 18.8082 42.0286 39.1568 42.0286 64.2596C42.0286 72.1979 44.0765 79.6658 47.6512 86.1495H0L23.2214 77.7192V49.9027L34.0107 46.3931C34.8502 43.8676 35.8777 41.429 37.05 39.07L31.8977 28.9608L42.0286 18.8082L52.1812 8.67737L62.2976 13.8296C64.6566 12.6574 67.0952 11.637 69.6207 10.7904L73.1303 0.000976562H101.844L105.354 10.7904Z" fill="#777C90"/>
<path fill-rule="evenodd" clip-rule="evenodd" d="M75.6123 60.4531L95.6497 68.8183V84.3909C92.6321 85.8888 89.1442 86.4243 85.6418 85.7875C77.8266 84.333 72.2474 77.4006 72.4934 69.4624C72.4934 69.4624 73.5427 66.4665 75.6123 60.4604V60.4531Z" fill="#777C90"/>
<path fill-rule="evenodd" clip-rule="evenodd" d="M90.7076 54.1357L103.61 59.5268C103.733 60.5544 103.675 61.6181 103.364 62.6674C102.423 66.0106 99.4491 68.3479 95.9829 68.4926C92.495 68.6374 89.34 66.5461 88.1243 63.2825C88.1243 63.2825 88.9854 60.2287 90.7076 54.1357Z" fill="#777C90"/>
<path fill-rule="evenodd" clip-rule="evenodd" d="M103.32 54.0488L123.343 62.4358V86.1492H65.6836V69.8023C78.2169 64.5488 90.7719 59.3024 103.327 54.0488H103.32Z" fill="#777C90"/>
<path fill-rule="evenodd" clip-rule="evenodd" d="M103.321 54.0494L90.7083 59.3248V54.1363L75.6133 64.0645V60.4536L66.3001 66.5828C65.562 58.1742 64.8239 49.5557 64.1075 43.9403C63.9845 43.0792 63.203 42.3628 62.3418 42.3628H57.5007C56.6396 42.3628 55.8581 43.0792 55.7351 43.9403C54.3819 54.5053 53.007 75.592 51.6321 86.157H103.321V54.0567V54.0494Z" fill="#777C90"/>
<path d="M11.6937 103.733H16.0861V101.577H11.6937V97.9443H16.3901V95.7517H9.06689V109.436H11.6937V103.733ZM24.4079 95.7517L20.5292 109.436H23.1994L24.1402 105.825H27.809L28.7931 109.436H31.5429L27.7294 95.7517H24.4079ZM25.3342 100.694C25.5368 99.8909 25.7683 98.7692 25.9493 97.9226H25.9927C26.1736 98.762 26.4051 99.8475 26.6295 100.716L27.4472 103.835H24.5165L25.3342 100.694ZM45.111 96.0556C44.7203 95.853 43.7579 95.5418 42.2816 95.5418C38.649 95.5418 35.5736 97.966 35.5736 102.764C35.5736 106.823 37.853 109.616 41.956 109.616C43.3743 109.616 44.4815 109.349 44.9953 109.103L44.6262 106.99C44.069 107.214 43.2079 107.38 42.3902 107.38C39.9081 107.38 38.3306 105.716 38.3306 102.619C38.3306 99.2975 40.1542 97.7561 42.4119 97.7561C43.3526 97.7561 44.0763 97.9588 44.6045 98.2048L45.1183 96.0484L45.111 96.0556ZM48.7003 95.7517V98.0239H52.0652V109.428H54.7137V98.0239H58.1003V95.7517H48.7075H48.7003ZM67.7173 95.5273C64.1281 95.5273 61.8704 98.5449 61.8704 102.648C61.8704 106.751 63.9183 109.645 67.5292 109.645C70.9375 109.645 73.3544 107.207 73.3544 102.424C73.3544 98.7765 71.4875 95.5346 67.7173 95.5346V95.5273ZM67.6377 97.6838C69.6494 97.6838 70.5902 100.021 70.5902 102.547C70.5902 105.296 69.5843 107.489 67.616 107.489C65.6478 107.489 64.6202 105.275 64.6202 102.583C64.6202 100.079 65.5609 97.6838 67.6377 97.6838ZM78.2607 109.436H80.8875V103.878H81.7703C83.0222 103.878 83.5721 104.435 83.9267 106.194C84.2523 107.851 84.6069 109.045 84.7878 109.436H87.4942C87.2265 108.922 86.8791 107.279 86.4884 105.658C86.1627 104.283 85.6273 103.343 84.6648 102.974V102.93C85.9384 102.416 87.0239 101.186 87.0239 99.5218C87.0239 95.853 83.5142 95.6431 81.792 95.6431C80.4605 95.6431 79.1869 95.7662 78.2607 95.9109V109.428V109.436ZM80.8875 97.7634C81.0901 97.6838 81.5025 97.6621 82.0959 97.6621C83.0584 97.6621 84.3754 97.9877 84.3754 99.7534C84.3754 101.049 83.4708 101.924 81.9729 101.924H80.8875V97.7634ZM97.2126 99.0948C96.8219 100.101 96.4745 100.984 96.2068 101.888H96.1851C95.8594 100.947 95.5266 100.101 95.1358 99.1166L93.7826 95.7517H90.8519L94.7306 103.871V109.428H97.3791V103.77L101.439 95.7517H98.5224L97.2126 99.0948ZM117.113 95.7517V99.8547C117.113 102.091 117.178 104.016 117.337 105.781H117.293C116.736 104.348 115.984 102.662 115.238 101.309L112.365 95.7517H109.514V109.436H111.895V105.231C111.895 102.807 111.852 100.882 111.729 99.1817H111.808C112.38 100.68 113.183 102.38 113.9 103.777L116.852 109.436H119.479V95.7517H117.098H117.113ZM127.967 95.7517L124.088 109.436H126.751L127.692 105.825H131.361L132.345 109.436H135.095L131.281 95.7517H127.96H127.967ZM128.893 100.694C129.096 99.8909 129.327 98.7692 129.508 97.9226H129.573C129.74 98.762 129.986 99.8475 130.189 100.716L131.006 103.835H128.076L128.893 100.694ZM149.017 95.7517L147.476 100.897C147.006 102.539 146.593 104.182 146.289 105.716H146.232C145.92 104.16 145.537 102.539 145.103 100.897L143.626 95.7517H140.363L139.437 109.436H141.839L142.107 104.16C142.186 102.481 142.273 100.448 142.309 98.7258H142.367C142.678 100.39 143.105 102.257 143.554 103.791L145.074 109.247H147.064L148.728 103.712C149.198 102.17 149.69 100.368 150.081 98.7258H150.146C150.125 100.101 150.226 102.315 150.291 104.117L150.537 109.428H153.063L152.259 95.7444H149.017V95.7517ZM160.892 107.236V103.422H165.364V101.266H160.892V97.9443H165.632V95.7517H158.266V109.436H165.914V107.243H160.892V107.236Z" fill="#777C90"/>
<path d="M44.6557 119.732C44.88 119.855 45.3721 120 45.8424 120C46.9713 120 47.6081 119.385 47.6081 118.524C47.6081 117.887 47.2608 117.439 46.5009 117.091C45.9076 116.823 45.6615 116.664 45.6615 116.31C45.6615 116.042 45.8858 115.774 46.3779 115.774C46.7687 115.774 47.0726 115.897 47.239 115.977L47.42 115.217C47.1956 115.116 46.8483 114.993 46.3924 114.993C45.3287 114.993 44.7136 115.608 44.7136 116.411C44.7136 117.048 45.1622 117.496 45.9003 117.829C46.4358 118.054 46.6818 118.263 46.6818 118.611C46.6818 118.98 46.3924 119.226 45.8786 119.226C45.4879 119.226 45.0754 119.103 44.8293 118.936L44.6484 119.74L44.6557 119.732ZM54.2945 119.139V115.08H53.3537V119.942H56.0384V119.139H54.2945ZM63.5063 114.993C62.2327 114.993 61.4367 116.056 61.4367 117.518C61.4367 118.98 62.1748 120 63.4484 120C64.722 120 65.518 119.139 65.518 117.439C65.518 116.143 64.8595 115 63.5063 115V114.993ZM63.4846 115.752C64.201 115.752 64.5339 116.592 64.5339 117.475C64.5339 118.459 64.1865 119.24 63.4846 119.24C62.7827 119.24 62.4209 118.459 62.4209 117.496C62.4209 116.614 62.7465 115.752 63.4846 115.752ZM73.1885 117.229V117.967H73.8832V119.154C73.8036 119.175 73.6155 119.219 73.3911 119.219C72.5879 119.219 71.9945 118.647 71.9945 117.518C71.9945 116.389 72.653 115.818 73.5142 115.818C73.9483 115.818 74.2306 115.897 74.4404 115.999L74.643 115.217C74.4187 115.116 74.0062 115.014 73.5142 115.014C72.0958 115.014 71.0104 115.897 71.0104 117.54C71.0104 118.321 71.2564 118.973 71.6689 119.385C72.0814 119.798 72.653 119.979 73.3911 119.979C73.9483 119.979 74.4766 119.855 74.766 119.732V117.229H73.1885ZM81.6623 115.072L80.2874 119.935H81.2281L81.5537 118.64H82.8635L83.2108 119.935H84.1733L82.8201 115.072H81.6478H81.6623ZM81.9879 116.816C82.053 116.549 82.1326 116.136 82.1905 115.832H82.2122C82.2774 116.143 82.3569 116.527 82.4365 116.838L82.726 117.945H81.6984L81.9879 116.816ZM92.5312 115.072V116.527C92.5312 117.308 92.5746 118.003 92.6108 118.618C92.4082 118.126 92.1405 117.533 91.8727 117.041L90.8452 115.072H89.8393V119.935H90.6787V118.437C90.6787 117.576 90.657 116.903 90.6353 116.281H90.657C90.8596 116.816 91.1491 117.41 91.3951 117.923L92.4444 119.935H93.3851V115.072H92.524H92.5312ZM103.321 115.072V116.997H101.663V115.072H100.737V119.935H101.663V117.844H103.321V119.935H104.261V115.072H103.321ZM111.158 119.154V117.8H112.757V117.019H111.158V115.847H112.844V115.065H110.239V119.928H112.945V119.146H111.158V119.154ZM118.683 119.935H119.624V117.967H119.935C120.384 117.967 120.572 118.148 120.695 118.785C120.818 119.356 120.941 119.79 121.006 119.935H121.969C121.867 119.747 121.744 119.154 121.6 118.582C121.498 118.09 121.31 117.764 120.963 117.641V117.619C121.411 117.431 121.802 117.004 121.802 116.411C121.802 115.116 120.55 115.036 119.935 115.036C119.465 115.036 119.009 115.08 118.683 115.137V119.935ZM119.624 115.789C119.689 115.745 119.848 115.745 120.058 115.745C120.384 115.745 120.861 115.868 120.861 116.483C120.861 116.954 120.536 117.265 120.022 117.265H119.631V115.789H119.624ZM128.525 119.154V117.8H130.124V117.019H128.525V115.847H130.204V115.065H127.598V119.928H130.305V119.146H128.518L128.525 119.154Z" fill="#777C90"/>
</svg>
