<svg width="123" height="121" viewBox="0 0 123 121" fill="none" xmlns="http://www.w3.org/2000/svg">
<path fill-rule="evenodd" clip-rule="evenodd" d="M74.3395 7.83456C76.1847 8.44585 77.9676 9.19864 79.6657 10.0477L87.0295 6.29501L94.4272 13.6758L101.808 21.0735L98.0553 28.4203C98.9044 30.1354 99.6571 31.9183 100.268 33.7635L108.113 36.3162V57.1906L100.268 59.7603C99.6571 61.5885 98.9044 63.3715 98.0553 65.0865L101.808 72.4503L94.4272 79.831L87.0295 87.2118L79.6657 83.4592C77.9676 84.3251 76.1847 85.061 74.3395 85.6723L71.7868 93.5341H50.8954L48.3427 85.6723C46.5144 85.061 44.7315 84.3251 43.0165 83.4592L35.6527 87.2118L28.2719 79.831L20.8912 72.4503L24.6438 65.0865C23.7778 63.3715 23.042 61.5885 22.4307 59.7603L14.5688 57.1906V49.9514L54.9027 40.3235L64.8815 42.8932L65.3003 37.2784C65.623 32.9767 65.9399 28.6637 66.2626 24.3451C65.7192 24.3451 65.2664 23.8809 65.2664 23.3319V21.8716C65.2664 21.3113 65.7135 20.8584 66.2626 20.8584H72.1208C72.6641 20.8584 73.1169 21.3056 73.1169 21.8716V23.3319C73.1169 23.8753 72.6698 24.3451 72.1208 24.3451H72.1038C72.4264 28.6581 72.7603 32.9767 73.083 37.2784L73.6603 45.1573L77.6224 46.1704L77.8488 43.3007C78.1714 38.9878 78.4884 34.6691 78.811 30.3504C78.2506 30.3504 77.7978 29.9033 77.7978 29.3543V27.877C77.7978 27.3336 78.245 26.8638 78.811 26.8638H84.6522C85.2126 26.8638 85.6654 27.3279 85.6654 27.877V29.3543C85.6654 29.8976 85.2182 30.3504 84.6522 30.3504C84.9749 34.6634 85.2918 38.9821 85.6144 43.3007L85.9993 48.3382L90.6859 49.5438C91.0538 58.7698 87.2672 67.7354 80.2543 73.8992C89.1577 67.6901 94.4216 57.5529 94.4216 46.7704C94.4216 28.4939 79.6147 13.6871 61.3383 13.6871C43.0618 13.6871 29.7492 27.0676 28.3851 44.0762L14.5688 47.3817V36.3275L22.4307 33.7748C23.042 31.9296 23.7778 30.1467 24.6438 28.4317L20.8912 21.0849L28.2719 13.6871L35.6527 6.30633L43.0165 10.059C44.7315 9.20996 46.5144 8.45717 48.3427 7.84588L50.8954 0.000976562H71.7868L74.3395 7.84588V7.83456ZM28.7248 52.2154L29.8341 51.9607V56.7888C29.353 55.2945 28.9851 53.7719 28.7248 52.2154ZM32.3359 62.63V51.3494L37.3564 50.1608V69.5127C35.398 67.4581 33.7113 65.1487 32.3359 62.63ZM39.8582 71.8899V49.5552L44.8787 48.3665V75.4331C43.0844 74.4087 41.4147 73.22 39.8582 71.8899ZM47.3804 47.7609L52.4009 46.5723V78.5971C50.652 78.116 48.9822 77.4877 47.3804 76.735V47.7609Z" fill="#777C90"/>
<path d="M2.07158 107.266H5.49027V105.579H2.07158V102.755H5.74498V101.023H0V111.743H2.07158V107.266ZM12.0051 101.023L8.97125 111.743H11.0542L11.79 108.919H14.6596L15.4294 111.743H17.5972L14.5974 101.023H11.9994H12.0051ZM12.7409 104.906C12.8881 104.277 13.0635 103.4 13.205 102.721H13.2559C13.3861 103.377 13.5786 104.243 13.737 104.906L14.3766 107.345H12.1013L12.7409 104.906ZM28.193 101.277C27.8873 101.102 27.1345 100.876 25.9798 100.876C23.1385 100.876 20.733 102.772 20.733 106.507C20.733 109.683 22.5159 111.867 25.7365 111.867C26.8289 111.867 27.6948 111.658 28.0967 111.466L27.8081 109.813C27.3892 109.988 26.6987 110.119 26.0591 110.119C24.1347 110.119 22.8838 108.822 22.8838 106.394C22.8838 103.813 24.3101 102.591 26.0761 102.591C26.8119 102.591 27.3779 102.766 27.7911 102.942L28.193 101.272V101.277ZM31.0173 101.023V102.806H33.6493V111.743H35.7039V102.806H38.3528V101.023H31.023H31.0173ZM45.8751 100.864C43.0677 100.864 41.3017 103.225 41.3017 106.417C41.3017 109.609 42.9035 111.89 45.7279 111.89C48.3938 111.89 50.2843 109.983 50.2843 106.258C50.2843 103.406 48.841 100.87 45.8694 100.87L45.8751 100.864ZM45.8129 102.551C47.3864 102.551 48.1222 104.379 48.1222 106.338C48.1222 108.505 47.3354 110.203 45.8129 110.203C44.2903 110.203 43.4696 108.488 43.4696 106.383C43.4696 104.407 44.2054 102.545 45.8129 102.545V102.551ZM54.1388 111.743H56.1765V107.396H56.884C57.8462 107.396 58.282 107.832 58.5707 109.207C58.8084 110.503 59.0858 111.437 59.2273 111.743H61.3442C61.1348 111.341 60.8631 110.056 60.5574 108.794C60.3027 107.702 59.8838 106.983 59.1311 106.694V106.649C60.1442 106.264 60.9763 105.302 60.9763 103.989C60.9763 101.119 58.2481 100.955 56.901 100.955C55.8425 100.955 54.8464 101.051 54.1388 101.181V111.754V111.743ZM56.1765 102.596C56.352 102.551 56.6746 102.517 57.1217 102.517C57.8745 102.517 58.9047 102.789 58.9047 104.17C58.9047 105.183 58.1972 105.856 57.0255 105.856H56.1765V102.596ZM68.9457 103.638C68.64 104.424 68.3853 105.115 68.1759 105.834H68.1419C67.8872 105.098 67.6438 104.424 67.3382 103.649L66.2798 101.017H63.9704L67.0212 107.368V111.732H69.0759V107.305L72.2512 101.017H69.9871L68.9457 103.632V103.638ZM84.511 101.023V104.249C84.511 105.981 84.5732 107.504 84.6864 108.868H84.6694C84.2393 107.758 83.628 106.445 83.0676 105.37L80.8036 101.023H78.5735V111.743H80.4526V108.454C80.4526 106.547 80.4074 105.036 80.3225 103.723H80.3734C80.8206 104.894 81.4488 106.207 82.0262 107.317L84.3185 111.743H86.3731V101.023H84.511ZM93.0124 101.023L89.9616 111.743H92.0615L92.7973 108.919H95.6557L96.4255 111.743H98.5933L95.5934 101.023H93.0124ZM93.7369 104.906C93.8784 104.277 94.0709 103.4 94.201 102.721H94.2463C94.3935 103.377 94.569 104.243 94.7274 104.906L95.367 107.345H93.0917L93.7313 104.906H93.7369ZM109.478 101.023L108.261 105.053C107.91 106.338 107.587 107.634 107.332 108.822H107.282C107.055 107.605 106.749 106.349 106.399 105.053L105.244 101.023H102.691L101.967 111.743H103.846L104.055 107.617C104.118 106.287 104.197 104.696 104.214 103.349H104.259C104.514 104.662 104.853 106.111 105.187 107.328L106.376 111.579H107.932L109.246 107.249C109.597 106.06 109.998 104.634 110.304 103.349H110.338C110.338 104.441 110.4 106.173 110.451 107.571L110.644 111.743H112.619L112.008 101.023H109.472H109.478ZM118.766 110.011V107.028H122.264V105.341H118.766V102.76H122.473V101.028H116.7V111.749H122.7V110.017H118.766V110.011Z" fill="#777C90"/>
<path d="M27.8426 119.776C28.0181 119.889 28.403 119.985 28.7709 119.985C29.6708 119.985 30.1689 119.504 30.1689 118.848C30.1689 118.349 29.8972 117.999 29.2859 117.727C28.8218 117.517 28.6294 117.387 28.6294 117.116C28.6294 116.906 28.8048 116.697 29.1897 116.697C29.4954 116.697 29.7331 116.793 29.8633 116.855L30.0218 116.261C29.8463 116.165 29.5576 116.085 29.201 116.085C28.3803 116.085 27.8879 116.567 27.8879 117.195C27.8879 117.676 28.2558 118.044 28.8162 118.287C29.235 118.463 29.4275 118.638 29.4275 118.899C29.4275 119.187 29.218 119.38 28.7992 119.38C28.4935 119.38 28.1709 119.283 27.9785 119.17L27.8313 119.781L27.8426 119.776ZM35.3819 119.329V116.136H34.6574V119.94H36.7403V119.329H35.3762H35.3819ZM42.6041 116.085C41.608 116.085 40.9854 116.917 40.9854 118.061C40.9854 119.204 41.5457 120.002 42.5589 120.002C43.4871 120.002 44.1663 119.312 44.1663 117.999C44.1663 116.985 43.6513 116.091 42.6098 116.091L42.6041 116.085ZM42.5702 116.68C43.1305 116.68 43.4022 117.319 43.4022 118.027C43.4022 118.78 43.1136 119.391 42.5702 119.391C42.0268 119.391 41.7382 118.78 41.7382 118.044C41.7382 117.308 42.0098 116.68 42.5702 116.68ZM50.1604 117.817V118.395H50.7037V119.323C50.6415 119.357 50.5113 119.368 50.3359 119.368C49.7076 119.368 49.2265 118.938 49.2265 118.055C49.2265 117.172 49.7416 116.725 50.4151 116.725C50.7491 116.725 50.9755 116.77 51.1509 116.855L51.2981 116.261C51.1226 116.165 50.8 116.102 50.4151 116.102C49.3227 116.102 48.4567 116.793 48.4567 118.078C48.4567 118.672 48.6491 119.199 48.9888 119.521C49.3114 119.827 49.7415 119.985 50.3189 119.985C50.7547 119.985 51.1849 119.872 51.3943 119.793V117.817H50.1604ZM56.7884 116.131L55.713 119.934H56.4488L56.7035 118.938H57.728L57.9996 119.934H58.7694L57.694 116.131H56.7771H56.7884ZM57.0431 117.512C57.0883 117.285 57.1563 116.98 57.2185 116.742C57.2808 116.968 57.3487 117.274 57.394 117.512L57.6204 118.378H56.8167L57.0431 117.512ZM65.3068 116.131V117.268C65.3068 117.897 65.3238 118.44 65.3691 118.921H65.3521C65.2106 118.519 64.9842 118.055 64.7917 117.67L63.988 116.131H63.1843V119.934H63.8578V118.763C63.8578 118.089 63.8409 117.557 63.8069 117.093H63.8239C63.9824 117.512 64.2088 117.976 64.4182 118.361L65.2219 119.934H65.9577V116.131H65.3012H65.3068ZM73.7291 116.131V117.653H72.4442V116.131H71.7084V119.934H72.4442V118.299H73.7291V119.934H74.4649V116.131H73.7291ZM79.8759 119.323V118.265H81.1098V117.67H79.8759V116.742H81.1947V116.131H79.1401V119.934H81.274V119.323H79.8759ZM85.7624 119.934H86.4869V118.395H86.7303C87.0812 118.395 87.2454 118.553 87.3416 119.034C87.4208 119.498 87.5171 119.821 87.5793 119.934H88.3151C88.2529 119.793 88.1566 119.34 88.0434 118.893C87.9472 118.508 87.8057 118.253 87.5284 118.14V118.123C87.8963 117.993 88.1849 117.659 88.1849 117.195C88.1849 116.17 87.2227 116.102 86.7416 116.102C86.3737 116.102 86.0058 116.148 85.7624 116.182V119.934ZM86.4869 116.697C86.5492 116.68 86.6624 116.663 86.8265 116.663C87.0982 116.663 87.4548 116.759 87.4548 117.257C87.4548 117.608 87.2171 117.851 86.7982 117.851H86.4926V116.697H86.4869ZM93.4658 119.329V118.27H94.6997V117.676H93.4658V116.748H94.7789V116.136H92.7244V119.94H94.8412V119.329H93.4602H93.4658Z" fill="#777C90"/>
</svg>
