<svg width="91" height="120" viewBox="0 0 91 120" fill="none" xmlns="http://www.w3.org/2000/svg">
<path d="M4.05105 102.656H9.45503V100.292H3.37652C2.19416 100.292 1.33743 100.555 0.802458 101.086C0.267488 101.617 0 102.466 0 103.637V108.987C0 110.08 0.259732 110.882 0.775319 111.394C1.29478 111.906 2.105 112.162 3.20595 112.162H7.2066C7.94703 112.162 8.69521 112.088 9.45115 111.945V109.739H7.3229C7.03215 109.836 6.72978 109.882 6.41966 109.882H3.8766C3.61686 109.882 3.41141 109.809 3.26022 109.657C3.10903 109.506 3.0315 109.301 3.0315 109.045V103.668C3.0315 102.997 3.36877 102.66 4.0433 102.66L4.05105 102.656Z" fill="#181818"/>
<path d="M21.6507 100.923C21.1157 100.388 20.259 100.121 19.0766 100.121H14.855C13.6727 100.121 12.8159 100.388 12.281 100.923C11.746 101.458 11.4785 102.315 11.4785 103.497V108.901C11.4785 110.084 11.746 110.94 12.281 111.475C12.8159 112.01 13.6727 112.278 14.855 112.278H19.0766C20.259 112.278 21.1157 112.01 21.6507 111.475C22.1857 110.94 22.4532 110.084 22.4532 108.901V103.497C22.4532 102.315 22.1857 101.458 21.6507 100.923ZM19.4139 108.901C19.4139 109.576 19.0766 109.913 18.4021 109.913H15.5334C14.8589 109.913 14.5216 109.572 14.5216 108.901V103.497C14.5216 102.823 14.8589 102.485 15.5334 102.485H18.4021C19.0766 102.485 19.4139 102.823 19.4139 103.497V108.901Z" fill="#181818"/>
<path d="M35.1147 100.292L31.7382 106.541L28.3617 100.292H25.1519V112.111H28.1911V105.529L30.5558 109.751H32.9206L35.2853 105.529V112.111H38.3245V100.292H35.1147Z" fill="#181818"/>
<path d="M51.0271 101.094C50.4922 100.559 49.6354 100.292 48.4531 100.292H41.3628V112.111H44.4021V108.735H48.4531C49.6354 108.735 50.4922 108.467 51.0271 107.932C51.5621 107.397 51.8296 106.541 51.8296 105.358V103.668C51.8296 102.486 51.5621 101.629 51.0271 101.094ZM48.7903 105.358C48.7903 106.033 48.4531 106.37 47.7786 106.37H44.4021V102.656H47.7786C48.4531 102.656 48.7903 102.994 48.7903 103.668V105.358Z" fill="#181818"/>
<path d="M60.0171 100.292H56.6406L52.167 112.111H55.4582L55.4737 112.069L58.3269 103.827L61.0483 111.693L61.1995 112.115H64.4907L60.0171 100.296V100.292Z" fill="#181818"/>
<path d="M73.6085 100.292V107.382L69.5575 100.292H66.3516V112.111H69.3908V105.021L73.4419 112.111H76.6478V100.292H73.6085Z" fill="#181818"/>
<path d="M87.1145 100.292L84.3272 106.033L81.5399 100.292H78.3301L82.8037 108.987V112.111H85.8429V108.987L90.3165 100.292H87.1106H87.1145Z" fill="#181818"/>
<path d="M14.8242 119.934V116.286H16.5299C17.3246 116.286 17.7549 116.821 17.7549 117.461C17.7549 118.101 17.3169 118.632 16.5299 118.632H15.5995V119.934H14.8242ZM16.9641 117.461C16.9641 117.155 16.7276 116.969 16.4214 116.969H15.5995V117.949H16.4214C16.7276 117.949 16.9641 117.763 16.9641 117.461Z" fill="#181818"/>
<path d="M19.0112 118.473V116.286H19.7982V118.453C19.7982 118.961 20.0928 119.314 20.6588 119.314C21.2248 119.314 21.5116 118.965 21.5116 118.453V116.286H22.3063V118.473C22.3063 119.376 21.7714 120 20.6588 120C19.5462 120 19.0112 119.376 19.0112 118.473Z" fill="#181818"/>
<path d="M24.632 119.934V116.969H23.5659V116.286H26.4772V116.969H25.4151V119.934H24.632Z" fill="#181818"/>
<path d="M30.7536 119.934V116.969H29.6875V116.286H32.5988V116.969H31.5366V119.934H30.7536Z" fill="#181818"/>
<path d="M36.0335 119.934L35.8048 119.318H34.2425L34.0138 119.934H33.1338L34.541 116.286H35.514L36.9212 119.934H36.0412H36.0335ZM35.0217 117.062L34.4518 118.632H35.5877L35.0178 117.062H35.0217Z" fill="#181818"/>
<path d="M37.6572 118.112C37.6572 116.957 38.5333 116.224 39.6033 116.224C40.3592 116.224 40.8322 116.608 41.1074 117.038L40.4678 117.387C40.2972 117.131 39.9871 116.91 39.6033 116.91C38.9365 116.91 38.4558 117.418 38.4558 118.108C38.4558 118.798 38.9365 119.306 39.6033 119.306C39.925 119.306 40.2274 119.163 40.3747 119.027V118.589H39.4133V117.91H41.1539V119.31C40.7818 119.725 40.2623 119.992 39.6072 119.992C38.5333 119.992 37.6611 119.256 37.6611 118.104L37.6572 118.112Z" fill="#181818"/>
<path d="M42.5034 119.934V116.286H43.2865V119.252H44.8294V119.934H42.5034Z" fill="#181818"/>
<path d="M46.1167 119.934V116.286H46.892V119.934H46.1167Z" fill="#181818"/>
<path d="M50.8992 119.934L49.1586 117.554V119.934H48.3833V116.286H49.1819L50.8721 118.577V116.286H51.6474V119.934H50.8992Z" fill="#181818"/>
<path d="M53.1367 119.934V116.286H55.7185V116.969H53.912V117.736H55.6798V118.419H53.912V119.248H55.7185V119.93H53.1367V119.934Z" fill="#181818"/>
<path d="M61.7622 119.934V118.399H60.0409V119.934H59.2656V116.286H60.0409V117.721H61.7622V116.286H62.5452V119.934H61.7622Z" fill="#181818"/>
<path d="M64.0259 119.934V116.286H66.6077V116.969H64.8012V117.736H66.5689V118.419H64.8012V119.248H66.6077V119.93H64.0259V119.934Z" fill="#181818"/>
<path d="M70.0423 119.934L69.3252 118.639H68.7553V119.934H67.98V116.286H69.6857C70.4455 116.286 70.9146 116.783 70.9146 117.461C70.9146 118.101 70.5036 118.45 70.1121 118.543L70.9378 119.93H70.0423V119.934ZM70.1199 117.457C70.1199 117.155 69.8834 116.969 69.5772 116.969H68.7553V117.953H69.5772C69.8834 117.953 70.1199 117.767 70.1199 117.457Z" fill="#181818"/>
<path d="M72.2637 119.934V116.286H74.8455V116.969H73.039V117.736H74.8067V118.419H73.039V119.248H74.8455V119.93H72.2637V119.934Z" fill="#181818"/>
<path fill-rule="evenodd" clip-rule="evenodd" d="M87.2777 28.6674L87.049 28.7644C84.1376 29.9777 81.3891 31.3035 78.8034 32.7417C73.7406 19.1 60.6106 9.37361 45.2011 9.37361C29.7916 9.37361 17.0221 18.8325 11.812 32.1874C9.13323 30.7685 6.30332 29.5009 3.3261 28.3806L3.25244 28.3534C9.93182 11.7345 26.1941 0 45.2011 0C64.208 0 80.6797 11.8818 87.2777 28.6674Z" fill="#52C459"/>
<path fill-rule="evenodd" clip-rule="evenodd" d="M87.2777 28.6674L87.049 28.7644C84.1376 29.9777 81.3891 31.3035 78.8034 32.7417C73.7406 19.1 60.6106 9.37361 45.2011 9.37361C29.7916 9.37361 17.0221 18.8325 11.812 32.1874C9.13323 30.7685 6.30332 29.5009 3.3261 28.3806L3.25244 28.3534C9.93182 11.7345 26.1941 0 45.2011 0C64.208 0 80.6797 11.8818 87.2777 28.6674Z" fill="#52C459"/>
<g style="mix-blend-mode:screen">
<path d="M45.2011 0.00390625C27.6169 0.00390625 12.3818 10.0482 4.91162 24.7133C4.30688 25.8996 3.75252 27.1129 3.25244 28.3573L3.3261 28.3845C3.55482 28.4698 3.78353 28.5589 4.00837 28.6481L4.80695 26.9928C5.08606 26.3609 5.38069 25.7406 5.68694 25.1281C13.1571 10.211 28.2952 0.759836 45.2166 0.759836C62.9947 0.759836 78.7492 11.1375 85.7813 27.3417L86.5566 28.9776C86.7195 28.9078 86.8862 28.838 87.0529 28.7682L87.2816 28.6713C80.6797 11.8857 64.3321 0.00390625 45.2011 0.00390625Z" fill="#52C459"/>
</g>
<g style="mix-blend-mode:screen" opacity="0.4">
<path fill-rule="evenodd" clip-rule="evenodd" d="M79.0091 26.2678L78.8269 26.3453C77.9586 26.7058 77.1057 27.0818 76.2723 27.4695C70.1046 16.6615 58.4748 9.37354 45.1354 9.37354C31.7961 9.37354 20.4066 16.5104 14.1886 27.14C13.2931 26.7562 12.3782 26.3879 11.4478 26.0352L11.3896 26.0119C16.7665 12.6415 29.8539 3.19812 45.1471 3.19812C60.4402 3.19812 73.6982 12.7578 79.0091 26.2678Z" fill="#FFDD02"/>
</g>
<path d="M43.8519 42.7085V49.2483H37.5176V42.7085H37.6029C37.6455 42.7085 37.7037 42.7085 37.7734 42.7085H43.8481H43.8519Z" fill="#181818"/>
<path d="M52.6364 42.7086V49.2484L45.895 49.2446V44.7981V42.7086H52.6364Z" fill="#181818"/>
<path d="M43.8519 51.2874H37.5176V57.8272H43.8519V51.2874Z" fill="#181818"/>
<path d="M52.6364 51.2874H45.895V57.8272H52.6364V51.2874Z" fill="#181818"/>
<path d="M67.864 40.2819C67.7361 40.3943 67.6082 40.5028 67.4802 40.6153C65.5419 42.2977 63.7393 44.0848 62.0646 45.9805C61.9096 46.1549 61.7545 46.3294 61.6033 46.5038L45.5891 28.0783L29.9005 46.4883C28.0979 44.3872 26.1518 42.4217 24.0662 40.592C23.9073 40.4447 23.7445 40.3051 23.5816 40.1694C23.5661 40.1501 23.5506 40.1384 23.5312 40.1229C29.9044 31.8425 36.3085 24.446 42.8251 16.5028L43.0615 16.216C44.0036 15.0646 44.9494 13.9016 45.8992 12.7231C50.6946 19.1001 55.5442 24.9228 60.4054 30.9044L60.4558 30.9664C62.6655 33.6839 64.8752 36.4324 67.0887 39.2817L67.1236 39.3282C67.3717 39.6461 67.6198 39.964 67.864 40.2819Z" fill="#FFDD02"/>
<g style="mix-blend-mode:multiply">
<path d="M85.1766 62.8437H85.1533L85.1494 62.8398H85.1727L85.1766 62.8437Z" fill="#FFDD02"/>
</g>
<path opacity="0.5" d="M67.876 40.2702C67.876 40.2702 67.8683 40.278 67.8644 40.2819C67.7365 40.3943 67.6085 40.5028 67.4806 40.6153L45.7833 15.1732L24.0666 40.592C23.9077 40.4447 23.7448 40.3051 23.582 40.1694L45.8996 12.7231H45.9035L67.876 40.2702Z" fill="url(#paint0_linear_2797_3170)"/>
<path d="M37.5176 57.6642C37.5447 57.7185 37.5757 57.7727 37.6029 57.827H37.5176V57.6642Z" fill="white"/>
<path d="M85.1766 62.8437H85.1533L85.1494 62.8398H85.1727L85.1766 62.8437Z" fill="white"/>
<path fill-rule="evenodd" clip-rule="evenodd" d="M42.6658 90.3284C35.9942 89.9601 29.7064 88.142 24.1124 85.1842C9.77291 77.6093 0 62.5487 0 45.201C0 40.6111 0.686165 36.184 1.95769 32.0089C22.1935 39.6303 35.2499 54.3963 40.5298 76.9193C23.9768 72.0387 11.0057 50.2987 10.4087 49.283L10.3854 49.2443C16.3244 78.8615 42.6658 90.3284 42.6658 90.3284Z" fill="#52C459"/>
<g style="mix-blend-mode:screen">
<path fill-rule="evenodd" clip-rule="evenodd" d="M42.6658 90.3284C35.9942 89.9601 29.7064 88.142 24.1124 85.1842C9.77291 77.6093 0 62.5487 0 45.201C0 40.6111 0.686165 36.184 1.95769 32.0089C22.1935 39.6303 35.2499 54.3963 40.5298 76.9193C25.2328 72.4108 12.9982 53.5046 10.7537 49.8568C10.7304 49.7676 10.7149 49.6784 10.6955 49.5854L10.7188 49.6203C11.3003 50.6088 23.8992 71.7285 39.9832 76.4696C34.8545 54.5901 22.1664 40.2428 2.50816 32.8385C1.27152 36.8934 0.604748 41.1964 0.604748 45.6545C0.604748 62.51 10.1024 77.1403 24.031 84.5019C29.121 87.1923 34.8041 88.9135 40.8283 89.4174C41.9874 90.0338 42.6658 90.3284 42.6658 90.3284Z" fill="#52C459"/>
</g>
<g style="mix-blend-mode:multiply" opacity="0.5">
<path fill-rule="evenodd" clip-rule="evenodd" d="M42.6657 90.3284C35.9941 89.9602 29.7062 88.142 24.1123 85.1842C8.19888 67.8713 10.3853 49.2443 10.3853 49.2443C16.3242 78.8615 42.6657 90.3284 42.6657 90.3284Z" fill="#52C459"/>
</g>
<path fill-rule="evenodd" clip-rule="evenodd" d="M47.7129 90.3284C54.3845 89.9601 60.6724 88.142 66.2663 85.1842C80.6058 77.6093 90.3787 62.5487 90.3787 45.201C90.3787 40.6111 89.6926 36.184 88.421 32.0089C68.1852 39.6303 55.1288 54.3963 49.8489 76.9193C66.402 72.0387 79.3731 50.2987 79.9701 49.283L79.9933 49.2443C74.0544 78.8615 47.7129 90.3284 47.7129 90.3284Z" fill="#52C459"/>
<g style="mix-blend-mode:screen">
<path fill-rule="evenodd" clip-rule="evenodd" d="M47.7129 90.3284C54.3845 89.9601 60.6724 88.142 66.2663 85.1842C80.6058 77.6093 90.3787 62.5487 90.3787 45.201C90.3787 40.6111 89.6926 36.184 88.421 32.0089C68.1852 39.6303 55.1288 54.3963 49.8489 76.9193C65.146 72.4108 77.3805 53.5046 79.625 49.8568C79.6483 49.7676 79.6638 49.6784 79.6832 49.5854L79.6599 49.6203C79.0785 50.6088 66.4795 71.7285 50.3955 76.4696C55.5243 54.5901 68.2123 40.2428 87.8706 32.8385C89.1072 36.8934 89.774 41.1964 89.774 45.6545C89.774 62.51 80.2763 77.1403 66.3477 84.5019C61.2577 87.1923 55.5746 88.9135 49.5504 89.4174C48.3913 90.0338 47.7129 90.3284 47.7129 90.3284Z" fill="#52C459"/>
</g>
<g style="mix-blend-mode:multiply" opacity="0.5">
<path fill-rule="evenodd" clip-rule="evenodd" d="M47.7129 90.3284C54.3845 89.9602 60.6724 88.142 66.2663 85.1842C82.1797 67.8713 79.9933 49.2443 79.9933 49.2443C74.0544 78.8615 47.7129 90.3284 47.7129 90.3284Z" fill="#52C459"/>
</g>
<defs>
<linearGradient id="paint0_linear_2797_3170" x1="42.9495" y1="5.42739" x2="47.0548" y2="56.8233" gradientUnits="userSpaceOnUse">
<stop stop-color="white"/>
<stop offset="0.12" stop-color="#FDFFE4" stop-opacity="0.79"/>
<stop offset="0.24" stop-color="#FBFFCB" stop-opacity="0.58"/>
<stop offset="0.37" stop-color="#F9FFB5" stop-opacity="0.4"/>
<stop offset="0.5" stop-color="#F8FFA3" stop-opacity="0.26"/>
<stop offset="0.63" stop-color="#F7FF95" stop-opacity="0.14"/>
<stop offset="0.75" stop-color="#F6FF8B" stop-opacity="0.06"/>
<stop offset="0.88" stop-color="#F6FF85" stop-opacity="0.02"/>
<stop offset="1" stop-color="#F6FF84" stop-opacity="0"/>
</linearGradient>
</defs>
</svg>
