<svg width="88" height="120" viewBox="0 0 88 120" fill="none" xmlns="http://www.w3.org/2000/svg">
<path d="M9.36369 102.719H13.8508V100.362H8.80361C7.82187 100.362 7.11051 100.625 6.6663 101.154C6.2221 101.683 6 102.529 6 103.696V109.026C6 110.116 6.21566 110.915 6.64377 111.425C7.0751 111.935 7.74783 112.19 8.66198 112.19H11.9838C12.5986 112.19 13.2199 112.116 13.8476 111.973V109.776H12.0804C11.839 109.872 11.5879 109.919 11.3304 109.919H9.21885C9.00319 109.919 8.83259 109.845 8.70705 109.695C8.58152 109.544 8.51714 109.339 8.51714 109.084V103.727C8.51714 103.059 8.79718 102.722 9.35726 102.722L9.36369 102.719Z" fill="#181818"/>
<path d="M23.977 100.996C23.5328 100.463 22.8215 100.196 21.8397 100.196H18.3344C17.3526 100.196 16.6413 100.463 16.1971 100.996C15.7529 101.529 15.5308 102.383 15.5308 103.561V108.945C15.5308 110.123 15.7529 110.977 16.1971 111.51C16.6413 112.043 17.3526 112.31 18.3344 112.31H21.8397C22.8215 112.31 23.5328 112.043 23.977 111.51C24.4212 110.977 24.6433 110.123 24.6433 108.945V103.561C24.6433 102.383 24.4212 101.529 23.977 100.996ZM22.1197 108.945C22.1197 109.617 21.8397 109.953 21.2796 109.953H18.8977C18.3376 109.953 18.0576 109.613 18.0576 108.945V103.561C18.0576 102.889 18.3376 102.553 18.8977 102.553H21.2796C21.8397 102.553 22.1197 102.889 22.1197 103.561V108.945Z" fill="#181818"/>
<path d="M35.1562 100.362L32.3526 106.589L29.549 100.362H26.8838V112.14H29.4074V105.581L31.3709 109.787H33.3344L35.2979 105.581V112.14H37.8215V100.362H35.1562Z" fill="#181818"/>
<path d="M48.3693 101.162C47.9251 100.629 47.2138 100.362 46.232 100.362H40.3447V112.14H42.8683V108.775H46.232C47.2138 108.775 47.9251 108.509 48.3693 107.976C48.8135 107.443 49.0356 106.589 49.0356 105.411V103.727C49.0356 102.549 48.8135 101.695 48.3693 101.162ZM46.5121 105.411C46.5121 106.083 46.232 106.419 45.6719 106.419H42.8683V102.719H45.6719C46.232 102.719 46.5121 103.055 46.5121 103.727V105.411Z" fill="#181818"/>
<path d="M55.8341 100.362H53.0305L49.3159 112.14H52.0487L52.0616 112.097L54.4307 103.885L56.6903 111.722L56.8158 112.143H59.5487L55.8341 100.366V100.362Z" fill="#181818"/>
<path d="M67.1194 100.362V107.427L63.7557 100.362H61.0938V112.14H63.6173V105.075L66.981 112.14H69.643V100.362H67.1194Z" fill="#181818"/>
<path d="M78.334 100.362L76.0196 106.083L73.7053 100.362H71.04L74.7546 109.026V112.14H77.2782V109.026L80.9927 100.362H78.3307H78.334Z" fill="#181818"/>
<path d="M18.312 119.934V116.3H19.7283C20.3882 116.3 20.7455 116.833 20.7455 117.47C20.7455 118.107 20.3817 118.637 19.7283 118.637H18.9558V119.934H18.312ZM20.0888 117.47C20.0888 117.165 19.8925 116.98 19.6382 116.98H18.9558V117.957H19.6382C19.8925 117.957 20.0888 117.771 20.0888 117.47Z" fill="#181818"/>
<path d="M21.7852 118.478V116.3H22.4386V118.459C22.4386 118.965 22.6832 119.316 23.1532 119.316C23.6231 119.316 23.8613 118.969 23.8613 118.459V116.3H24.5212V118.478C24.5212 119.378 24.077 120 23.1532 120C22.2294 120 21.7852 119.378 21.7852 118.478Z" fill="#181818"/>
<path d="M26.4526 119.934V116.98H25.5674V116.3H27.9847V116.98H27.1028V119.934H26.4526Z" fill="#181818"/>
<path d="M31.5351 119.934V116.98H30.6499V116.3H33.0673V116.98H32.1853V119.934H31.5351Z" fill="#181818"/>
<path d="M35.9189 119.934L35.729 119.32H34.4318L34.2419 119.934H33.5112L34.6797 116.3H35.4876L36.6561 119.934H35.9254H35.9189ZM35.0788 117.072L34.6056 118.637H35.5488L35.0756 117.072H35.0788Z" fill="#181818"/>
<path d="M37.2676 118.119C37.2676 116.968 37.995 116.238 38.8834 116.238C39.5111 116.238 39.9038 116.62 40.1324 117.049L39.6012 117.397C39.4596 117.142 39.2021 116.922 38.8834 116.922C38.3298 116.922 37.9307 117.428 37.9307 118.115C37.9307 118.803 38.3298 119.309 38.8834 119.309C39.1506 119.309 39.4017 119.166 39.524 119.031V118.594H38.7257V117.918H40.171V119.313C39.862 119.726 39.4307 119.992 38.8867 119.992C37.995 119.992 37.2708 119.258 37.2708 118.111L37.2676 118.119Z" fill="#181818"/>
<path d="M41.2915 119.934V116.3H41.9417V119.255H43.2228V119.934H41.2915Z" fill="#181818"/>
<path d="M44.2944 119.934V116.3H44.9382V119.934H44.2944Z" fill="#181818"/>
<path d="M48.2634 119.934L46.8181 117.563V119.934H46.1743V116.3H46.8374L48.2408 118.582V116.3H48.8846V119.934H48.2634Z" fill="#181818"/>
<path d="M50.1206 119.934V116.3H52.2644V116.98H50.7644V117.744H52.2322V118.424H50.7644V119.251H52.2644V119.931H50.1206V119.934Z" fill="#181818"/>
<path d="M57.2824 119.934V118.405H55.8532V119.934H55.2095V116.3H55.8532V117.729H57.2824V116.3H57.9326V119.934H57.2824Z" fill="#181818"/>
<path d="M59.1621 119.934V116.3H61.3059V116.98H59.8059V117.744H61.2737V118.424H59.8059V119.251H61.3059V119.931H59.1621V119.934Z" fill="#181818"/>
<path d="M64.1577 119.934L63.5622 118.644H63.0891V119.934H62.4453V116.3H63.8616C64.4925 116.3 64.882 116.794 64.882 117.47C64.882 118.107 64.5408 118.455 64.2157 118.548L64.9013 119.931H64.1577V119.934ZM64.2221 117.466C64.2221 117.165 64.0258 116.98 63.7715 116.98H63.0891V117.961H63.7715C64.0258 117.961 64.2221 117.775 64.2221 117.466Z" fill="#181818"/>
<path d="M66.0024 119.934V116.3H68.1462V116.98H66.6462V117.744H68.114V118.424H66.6462V119.251H68.1462V119.931H66.0024V119.934Z" fill="#181818"/>
<path d="M72.4015 44.5747H68.1977V59.5887C67.5797 59.2217 66.9714 58.878 66.363 58.5458C64.6892 57.669 62.0079 56.4291 58.8824 55.5947C58.8824 55.5947 61.5508 55.1969 65.2525 56.0274V41.8786L56.4554 29.7036L43.5349 44.706L43.345 44.7446L18.1382 49.5768L26.2014 33.798H26.2046L56.8738 24.2882L72.4015 44.5747Z" fill="#181818"/>
<path d="M40.9019 47.6069V53.4549C41.7967 53.2811 42.7173 53.1421 43.6701 53.0416L43.5735 47.0121L40.9019 47.6069Z" fill="#181818"/>
<path d="M36.3377 55.0656C32.3367 55.9501 29.0149 57.9046 26.7649 59.5539C25.5836 60.4539 24.5214 61.3732 23.5879 62.2693V50.6429L26.7166 49.9437L26.7681 56.6994C27.0288 56.5797 27.2928 56.4716 27.5567 56.3711C27.6597 56.3325 27.7531 56.2939 27.8303 56.2668C27.8722 56.2514 27.914 56.2359 27.9591 56.2205C32.15 54.7102 36.3377 55.0656 36.3377 55.0656Z" fill="#181818"/>
<path d="M40.8248 25.0761L43.6606 24.1954L45.3376 0H39.0898L40.8248 25.0761Z" fill="#FFDD02"/>
<path d="M31.3227 1.66861L28.3066 2.64199L35.5104 26.7216L38.1402 25.9065L34.3388 0.699097L31.3227 1.66861Z" fill="#FFDD02"/>
<path d="M21.1638 6.66683L18.46 8.5402L29.9641 28.4443L32.8193 27.5597L23.8708 4.79346L21.1638 6.66683Z" fill="#FFDD02"/>
<path d="M12.4313 14.6471L10.2231 17.2968L23.6812 30.9705L24.3088 29.7422H25.7734L26.9097 29.3907L14.6394 11.9973L12.4313 14.6471Z" fill="#FFDD02"/>
<path d="M5.71349 25.0683L4.15234 28.3129L20.3528 37.4828L22.0652 34.1339L7.27462 21.8237L5.71349 25.0683Z" fill="#FFDD02"/>
<path d="M18.7205 40.681L2.28188 33.6008L0.666016 40.8394L16.844 44.3505L18.7205 40.681Z" fill="#FFDD02"/>
<path d="M14.9709 48.02L0 46.5251V54.0225L12.5406 52.7749L14.9709 48.02Z" fill="#FFDD02"/>
<path d="M1.39367 63.3431L2.2016 66.9624L20.2078 59.2063V55.4634L0.58252 59.7238L1.39367 63.3431Z" fill="#FFDD02"/>
<path d="M18.1125 64.4902C17.3818 66.0855 16.5706 68.1559 16.0234 70.4425L7.11364 76.2789L6.59863 76.615C7.21987 72.6597 8.04067 69.9674 8.59754 68.4533L8.90976 68.322L18.1125 64.4902Z" fill="#FFDD02"/>
<path d="M83.4423 60.0908L81.6848 67.9667C77.4778 62.8796 71.8126 59.6234 71.5841 59.4921H71.5776V57.5144L83.4423 60.0908Z" fill="#FFDD02"/>
<path d="M71.5776 48.6303V53.1534L84.1086 54.4011V46.9076L71.5776 48.6303Z" fill="#FFDD02"/>
<path d="M75.7106 42.9021L83.5259 41.2064L82.718 37.5872L81.9101 33.9679L72.1055 38.1936L75.7106 42.9021Z" fill="#FFDD02"/>
<path d="M78.5528 25.3968L76.9916 22.1522L66.5078 30.8779L69.4241 34.6903L80.1139 28.6414L78.5528 25.3968Z" fill="#FFDD02"/>
<path d="M71.9027 14.9136L69.6946 12.2638L61.332 24.1182L64.1002 27.7374L74.1108 17.5672L71.9027 14.9136Z" fill="#FFDD02"/>
<path d="M63.2179 6.85628L60.5141 4.98291L54.2534 20.9124L57.9905 19.7536L58.8789 20.9162L65.925 8.72965L63.2179 6.85628Z" fill="#FFDD02"/>
<path d="M50.0757 0.799561L46.6895 23.2568L50.3042 22.1367L56.1078 2.7386L50.0757 0.799561Z" fill="#FFDD02"/>
<path d="M52.0776 43.6474V38.6299L55.9596 39.2325V44.1998L52.0776 43.6474ZM56.9413 44.3388L60.8232 44.8912V39.9895L56.9413 39.387V44.3388ZM56.9413 45.768V51.1409L60.8232 51.4036V46.2161L56.9413 45.768ZM55.9596 45.6792L52.0776 45.3354V50.8126L55.9596 51.0752V45.6792Z" fill="#181818"/>
<path d="M23.5879 67.1942C23.7778 67.1478 23.9709 67.1092 24.1608 67.0706L23.5879 67.4105V67.1942Z" fill="#181818"/>
<path d="M72.1056 64.5637C72.1056 64.5637 72.1024 64.5599 72.0992 64.5599C36.7305 40.5035 18.3509 71.0066 18.3509 71.0066C21.1448 70.2186 23.9645 69.562 26.8003 69.0405C31.3164 68.2062 35.8839 67.7195 40.4547 67.5843C42.4858 67.5264 44.5169 67.538 46.548 67.6268C48.4793 67.7079 50.4106 67.8547 52.3322 68.0671C52.3451 68.071 52.3612 68.071 52.3773 68.071C64.1969 69.6585 68.4394 72.4396 69.9812 73.3358C65.0435 71.7675 59.8998 70.9332 54.8075 70.5856C49.2486 70.1993 43.6671 70.3075 38.1275 71.0105C34.1747 71.5126 30.2413 72.2851 26.3594 73.3242C25.7252 73.4903 25.0879 73.6679 24.4506 73.8572C24.383 73.8765 24.3154 73.8958 24.2446 73.9152C23.1405 74.2357 21.4184 74.8151 19.6674 75.437C17.823 76.0937 15.9496 76.8005 14.7458 77.3027C6.00014 80.4121 6.69219 76.5456 6.74369 76.3022C6.24477 77.7121 5.8746 79.3769 6.06773 80.9104C6.24155 82.2932 7.18467 83.309 8.31771 83.5099C9.70181 83.7571 11.1664 83.3052 12.4732 82.7915C15.8015 81.4859 14.3176 81.8219 17.6491 80.5164C19.5837 95.8935 37.4225 102.649 55.5769 89.3618C76.8953 73.7568 86.8641 83.3052 87.0508 83.4906C86.9799 83.2666 83.6581 73.1697 72.1056 64.5637ZM79.3062 78.1602C77.9639 77.8087 76.5927 77.6658 75.2247 77.6658C73.8599 77.658 72.4951 77.8048 71.1496 78.0713C69.8009 78.3378 68.4651 78.6816 67.155 79.1451C64.5349 80.0838 61.9791 81.2928 59.5199 82.7528C58.9116 83.1352 58.2903 83.4867 57.6852 83.873C57.0833 84.2708 56.4717 84.6494 55.8762 85.0627L54.0865 86.3142L53.1659 86.9554C52.8569 87.1678 52.5415 87.3609 52.226 87.5656C51.6016 87.9712 50.9514 88.3227 50.3108 88.6897C49.6606 89.0334 49.0104 89.3849 48.3441 89.6901C47.0179 90.312 45.6692 90.8759 44.2851 91.2931C41.5234 92.139 38.6682 92.6373 35.8067 92.5098C32.9515 92.4171 30.0932 91.7489 27.4763 90.3776C26.1759 89.6785 24.9302 88.821 23.8293 87.7433C22.7253 86.6772 21.7532 85.4258 20.9871 84.0236C22.8315 86.5459 25.2199 88.3536 27.7982 89.4081C29.0825 89.9489 30.4087 90.3274 31.7541 90.5514C33.0996 90.7755 34.458 90.8836 35.8131 90.8489C37.1715 90.8141 38.5266 90.6635 39.8689 90.4163C41.2079 90.1613 42.5373 89.7982 43.8409 89.3463C45.151 88.8983 46.4385 88.3691 47.7003 87.7511C48.3344 87.4536 48.9525 87.1099 49.5737 86.7738C50.1821 86.4107 50.8033 86.0708 51.3988 85.673C51.6981 85.476 52.0071 85.2983 52.3033 85.0974L53.1949 84.491L55.0232 83.2395C55.638 82.8224 56.2689 82.44 56.8901 82.0421C57.521 81.6558 58.1584 81.2889 58.7957 80.9219C59.4459 80.5859 60.0897 80.2344 60.7431 79.9138C61.403 79.6048 62.0532 79.2726 62.7259 78.9984C64.0521 78.3997 65.4233 77.94 66.801 77.5306C69.5627 76.7465 72.4243 76.3525 75.2633 76.619C75.6174 76.6576 75.9715 76.6924 76.3223 76.758L76.8502 76.8469L77.3717 76.9628C77.7225 77.0284 78.067 77.1404 78.4146 77.2293C78.7558 77.3413 79.097 77.4456 79.435 77.5846C80.774 78.11 82.0873 78.8245 83.1688 79.8945C82.5765 79.4503 81.9392 79.1142 81.2922 78.8323C80.642 78.5464 79.9789 78.3263 79.3062 78.1602Z" fill="#52C459"/>
<g style="mix-blend-mode:screen">
<path d="M6.74375 76.3139C6.30277 77.5615 5.96158 79.0061 6.02274 80.3812C6.07102 79.2108 6.37037 78.025 6.73732 76.9782C6.6826 76.646 6.73088 76.3718 6.74375 76.3139ZM72.1057 64.5753C72.1057 64.5753 72.1025 64.5715 72.0993 64.5715C36.7305 40.5151 18.3509 71.0182 18.3509 71.0182C18.5247 70.968 18.7018 70.9216 18.8756 70.8714C22.1041 66.2247 40.1876 43.5164 72.0993 65.2204C72.1025 65.2204 72.1025 65.2243 72.1057 65.2243C81.6367 72.3238 85.5669 80.443 86.6871 83.1893C86.9124 83.367 87.0315 83.4829 87.0508 83.5022C86.98 83.2781 83.6581 73.1813 72.1057 64.5753ZM75.2248 77.6774C73.86 77.6696 72.4952 77.8164 71.1497 78.0829C69.801 78.3494 68.4652 78.6932 67.1551 79.1567C64.535 80.0953 61.9792 81.3044 59.52 82.7644C58.9116 83.1468 58.2904 83.4983 57.6853 83.8846C57.0833 84.2824 56.4718 84.661 55.8763 85.0743L54.0866 86.3258L53.166 86.9669C52.857 87.1794 52.5415 87.3725 52.2261 87.5772C51.6016 87.9828 50.9514 88.3343 50.3109 88.7013C49.6607 89.045 49.0105 89.3965 48.3442 89.7017C47.018 90.3236 45.6693 90.8875 44.2852 91.3047C41.5234 92.1506 38.6683 92.6489 35.8067 92.5214C32.9516 92.4287 30.0933 91.7605 27.4764 90.3892C26.1759 89.6901 24.9303 88.8326 23.8294 87.7549C23.6942 87.6236 23.559 87.4884 23.4271 87.3532C23.4271 87.3532 23.4249 87.3506 23.4206 87.3455C22.5386 86.573 21.7211 85.6846 20.9872 84.6841C21.7532 86.0863 22.7253 87.3378 23.8294 88.4038C24.9303 89.4815 26.1759 90.339 27.4764 91.0382C30.0933 92.4094 32.9516 93.0776 35.8067 93.1703C38.6683 93.2978 41.5234 92.7995 44.2852 91.9536C45.6693 91.5364 47.018 90.9725 48.3442 90.3506C49.0105 90.0455 49.6607 89.694 50.3109 89.3502C50.9514 88.9832 51.6016 88.6317 52.2261 88.2262C52.5415 88.0214 52.857 87.8283 53.166 87.6159L54.0866 86.9747L55.8763 85.7232C56.4718 85.3099 57.0833 84.9314 57.6853 84.5335C58.1649 84.2284 58.6509 83.9464 59.137 83.649C59.1981 83.6142 59.2722 83.5679 59.3591 83.5138C59.4138 83.479 59.4653 83.4481 59.52 83.4133C59.5683 83.3863 59.6166 83.3554 59.6649 83.3322C59.7035 83.3091 59.7453 83.282 59.784 83.2588C62.211 81.8065 69.6208 77.604 77.7644 77.8589C76.9211 77.7314 76.0713 77.6774 75.2248 77.6774ZM54.8076 70.5972C49.2487 70.2109 43.6672 70.3191 38.1275 71.0221C34.1748 71.5242 30.2414 72.2967 26.3594 73.3358C25.7253 73.5019 25.088 73.6795 24.4506 73.8688C24.3831 73.8881 24.3155 73.9074 24.2446 73.9267C23.1406 74.2473 21.4185 74.8267 19.6674 75.4486C17.823 76.1053 15.9497 76.8121 14.7458 77.3143C8.13752 79.6627 6.91757 78.0288 6.74053 76.9859C6.6665 77.3799 6.19977 81.0031 14.7458 77.9632C15.9497 77.461 17.823 76.7542 19.6674 76.0975C21.4185 75.4757 23.1406 74.8963 24.2446 74.5757C24.3155 74.5564 24.3831 74.537 24.4506 74.5177C25.088 74.3285 25.7253 74.1508 26.3594 73.9847C30.2414 72.9456 34.1748 72.1731 38.1275 71.671C42.7595 71.0839 47.4236 70.91 52.078 71.0993C55.9793 71.1109 67.3643 72.5903 67.3643 72.5903C63.241 71.501 59.005 70.883 54.8076 70.5972Z" fill="#52C459"/>
</g>
<path style="mix-blend-mode:multiply" d="M69.9808 73.3357C69.9808 73.3357 36.7044 71.3967 20.9867 84.0236L19.667 75.437C21.418 74.8151 23.1401 74.2357 24.2442 73.9151C24.315 73.8958 24.3826 73.8765 24.4502 73.8572C25.0875 73.6679 25.7249 73.4902 26.359 73.3241C30.2409 72.2851 34.1743 71.5126 38.1271 71.0104C43.6667 70.3074 49.2482 70.1993 54.8072 70.5855C59.8994 70.9332 65.0431 71.7675 69.9808 73.3357Z" fill="url(#paint0_linear_2797_3181)"/>
<path style="mix-blend-mode:multiply" opacity="0.5" d="M56.874 24.2882L42.7883 40.5885L20.3047 45.3356L26.2016 33.798L56.874 24.2882Z" fill="url(#paint1_linear_2797_3181)"/>
<g style="mix-blend-mode:multiply">
<path d="M56.4556 29.7036L58.786 26.7874L67.7215 38.4602L65.2527 41.8786L56.4556 29.7036Z" fill="#181818"/>
</g>
<g style="mix-blend-mode:screen">
<path d="M18.1382 49.5768L43.5349 44.706L56.4554 29.7036L43.2388 44.3507L18.1382 49.5768Z" fill="#181818"/>
</g>
<path style="mix-blend-mode:multiply" d="M67.4026 44.4819V56.514L65.2524 56.0273V41.8785L67.4026 44.4819Z" fill="url(#paint2_linear_2797_3181)"/>
<path style="mix-blend-mode:screen" d="M56.874 24.2882L72.4017 44.5747H68.1979V59.5887L67.7215 44.2L72.1056 44.4511L56.874 24.2882Z" fill="url(#paint3_linear_2797_3181)"/>
<path style="mix-blend-mode:multiply" d="M26.7682 56.6994C27.0289 56.5797 27.2929 56.4716 27.5568 56.3711C26.7038 56.7072 25.0686 57.4333 24.2285 58.5999L26.7167 49.9437L26.7682 56.6994Z" fill="url(#paint4_linear_2797_3181)"/>
<path d="M27.8302 56.267C27.7401 56.2979 27.6468 56.3365 27.5566 56.3713C27.6596 56.3326 27.753 56.294 27.8302 56.267Z" fill="url(#paint5_linear_2797_3181)"/>
<defs>
<linearGradient id="paint0_linear_2797_3181" x1="24.4438" y1="76.8275" x2="71.6272" y2="77.9222" gradientUnits="userSpaceOnUse">
<stop stop-color="#E5BB0A" stop-opacity="0"/>
<stop offset="1" stop-color="#16943B"/>
</linearGradient>
<linearGradient id="paint1_linear_2797_3181" x1="22.7575" y1="33.8482" x2="55.216" y2="35.22" gradientUnits="userSpaceOnUse">
<stop stop-color="#8BD1CB" stop-opacity="0"/>
<stop offset="0.11" stop-color="#00AFD3" stop-opacity="0"/>
<stop offset="0.41" stop-color="#1571B8" stop-opacity="0"/>
<stop offset="1" stop-color="#1A459C"/>
</linearGradient>
<linearGradient id="paint2_linear_2797_3181" x1="65.5711" y1="49.2986" x2="61.2952" y2="45.5468" gradientUnits="userSpaceOnUse">
<stop stop-color="#8BD1CB" stop-opacity="0"/>
<stop offset="0.11" stop-color="#00AFD3" stop-opacity="0"/>
<stop offset="0.41" stop-color="#1571B8" stop-opacity="0"/>
<stop offset="1" stop-color="#1A459C"/>
</linearGradient>
<linearGradient id="paint3_linear_2797_3181" x1="57.4019" y1="31.9207" x2="71.1866" y2="46.8884" gradientUnits="userSpaceOnUse">
<stop stop-color="#8BD1CB" stop-opacity="0"/>
<stop offset="0.11" stop-color="#00AFD3" stop-opacity="0"/>
<stop offset="0.41" stop-color="#1571B8" stop-opacity="0"/>
<stop offset="1" stop-color="#1A459C"/>
</linearGradient>
<linearGradient id="paint4_linear_2797_3181" x1="25.0751" y1="54.0033" x2="28.0256" y2="55.3905" gradientUnits="userSpaceOnUse">
<stop stop-color="#8BD1CB" stop-opacity="0"/>
<stop offset="0.11" stop-color="#00AFD3" stop-opacity="0"/>
<stop offset="0.41" stop-color="#1571B8" stop-opacity="0"/>
<stop offset="1" stop-color="#1A459C"/>
</linearGradient>
<linearGradient id="paint5_linear_2797_3181" x1="27.6757" y1="56.2901" x2="27.7199" y2="56.3404" gradientUnits="userSpaceOnUse">
<stop stop-color="#8BD1CB" stop-opacity="0"/>
<stop offset="0.11" stop-color="#00AFD3" stop-opacity="0"/>
<stop offset="0.41" stop-color="#1571B8" stop-opacity="0"/>
<stop offset="1" stop-color="#1A459C"/>
</linearGradient>
</defs>
</svg>
