<svg width="116" height="120" viewBox="0 0 116 120" fill="none" xmlns="http://www.w3.org/2000/svg">
<path fill-rule="evenodd" clip-rule="evenodd" d="M45.0466 36.6688C46.3136 37.0894 47.522 37.5898 48.6825 38.1753L53.7078 35.6095L58.7491 40.6507L63.7743 45.692L61.2244 50.7013C61.8153 51.8778 62.3104 53.0862 62.7309 54.3372L68.0863 56.0886V68.6891L61.645 71.6169H57.1201C58.1635 69.0191 58.7491 66.1817 58.7491 63.2113C58.7491 50.7492 48.6559 40.6507 36.1885 40.6507C23.7211 40.6507 13.6439 50.7439 13.6439 63.2113C13.6439 71.6489 18.2752 78.9952 25.1424 82.86V88.9127C24.642 88.6997 24.1629 88.4761 23.6945 88.2313L18.6692 90.7971L13.6439 85.7559L8.60263 80.7146L11.1685 75.7053C10.5776 74.5288 10.0666 73.3204 9.66198 72.0694L4.30664 70.318V56.0886L9.66198 54.3372C10.0719 53.0862 10.5829 51.8778 11.1685 50.7013L8.60263 45.692L13.6439 40.6507L18.6692 35.6095L23.6945 38.1753C24.855 37.5844 26.0793 37.0894 27.3303 36.6688L29.0658 31.3135H43.3112L45.0466 36.6688Z" fill="#777C90"/>
<path fill-rule="evenodd" clip-rule="evenodd" d="M44.0982 61.5662H54.6439V74.0016H62.1605L73.5846 68.7953V74.0016H81.1012L92.5252 68.7953V74.9386H95.0911V61.119C95.0911 60.4855 95.6021 59.9745 96.225 59.9745H96.2569V52.4578H95.7459C95.3839 52.4578 95.0964 52.1704 95.0964 51.8084V49.8174C95.0964 49.4714 95.3839 49.168 95.7459 49.168H100.228C100.59 49.168 100.878 49.4714 100.878 49.8174V51.8084C100.878 52.1704 100.59 52.4578 100.228 52.4578H99.7171V59.9745H99.7491C100.367 59.9745 100.883 60.4855 100.883 61.119V74.9386H102.767V61.119C102.767 60.4855 103.278 59.9745 103.901 59.9745H103.917V52.4578H103.406C103.06 52.4578 102.773 52.1704 102.773 51.8084V49.8174C102.773 49.4714 103.06 49.168 103.406 49.168H107.904C108.266 49.168 108.554 49.4714 108.554 49.8174V51.8084C108.554 52.1704 108.266 52.4578 107.904 52.4578H107.393V59.9745H107.425C108.043 59.9745 108.559 60.4855 108.559 61.119V74.9386H111.125V83.2058H104.306C103.64 83.2058 103.113 83.7488 103.113 84.3982C103.113 85.0477 103.64 85.5907 104.306 85.5907H111.125V86.7831H101.724C101.075 86.7831 100.532 87.3101 100.532 87.9596C100.532 88.625 101.075 89.152 101.724 89.152H111.125V90.3445H99.1422C98.4927 90.3445 97.9657 90.8715 97.9657 91.5369C97.9657 92.1864 98.4927 92.7294 99.1422 92.7294H111.125V95.0983H27.5425V77.382L37.9071 73.4427V67.7839C37.9071 64.3556 40.7126 61.5662 44.1248 61.5662H44.0982ZM89.8369 77.2755H87.4094V79.703H89.8369V77.2755ZM86.217 77.2755H83.7895V79.703H86.217V77.2755ZM83.7895 80.8954V83.3229H86.217V80.8954H83.7895ZM87.4094 83.3229H89.8369V80.8954H87.4094V83.3229ZM70.9016 77.2702H68.4741V79.6977H70.9016V77.2702ZM67.2816 77.2702H64.8648V79.6977H67.2816V77.2702ZM64.8648 80.8901V83.3176H67.2816V80.8901H64.8648ZM68.4741 83.3176H70.9016V80.8901H68.4741V83.3176Z" fill="#777C90"/>
<path fill-rule="evenodd" clip-rule="evenodd" d="M65.3441 3.01933C66.0361 3.24824 66.7335 3.5304 67.3829 3.86577L70.2044 2.41779L73.0417 5.25517L75.8791 8.09255L74.4471 10.9139C74.7665 11.5794 75.0487 12.2554 75.2935 12.9634L78.3119 13.943V21.9547L75.2935 22.9342C75.054 23.6422 74.7665 24.3236 74.4471 24.973L75.8791 27.8104L73.0417 30.6318L70.2044 33.4692L67.3829 32.0372C66.7335 32.3672 66.0415 32.6387 65.3441 32.8836L64.3646 35.902H56.3529L55.3734 32.8836C54.6653 32.6441 53.984 32.3726 53.3239 32.0372L50.5025 33.4692L47.6651 30.6318L44.8277 27.8104L46.2757 24.973C45.9456 24.3236 45.6582 23.6475 45.4133 22.9342L42.4109 21.9547V13.943L45.4133 12.9634C45.6528 12.2554 45.9403 11.574 46.2757 10.9139L44.8277 8.09255L47.6651 5.25517L50.5025 2.41779L53.3239 3.86577C53.9893 3.53572 54.6653 3.24824 55.3734 3.01933L56.3529 0.000976562H64.3646L65.3441 3.01933ZM60.3507 5.25517C67.367 5.25517 73.0417 10.9459 73.0417 17.9462C73.0417 24.9464 67.367 30.6371 60.3507 30.6371C53.3345 30.6371 47.6598 24.9624 47.6598 17.9462C47.6598 10.9299 53.3505 5.25517 60.3507 5.25517Z" fill="#777C90"/>
<path fill-rule="evenodd" clip-rule="evenodd" d="M84.7006 35.961C85.169 36.1739 85.6375 36.4294 86.074 36.7009L88.1714 35.9024L89.9494 38.1063L91.7434 40.3102L90.519 42.1787C90.7 42.6791 90.8491 43.1742 90.9715 43.6906L93.0104 44.5955L92.7229 47.4169L92.4354 50.2383L90.2316 50.7068C90.0186 51.1912 89.7631 51.6437 89.4916 52.0802L90.2901 54.1777L88.0862 55.9716L85.8983 57.7496L84.0139 56.5306C83.5294 56.7116 83.0184 56.8606 82.5073 56.9831L81.6023 59.0379L78.7809 58.7345L75.9595 58.447L75.4911 56.2591C75.0067 56.0355 74.5542 55.7906 74.1176 55.5032L72.0202 56.3176L70.2422 54.1138L68.4482 51.9099L69.6726 50.0254C69.4916 49.541 69.3425 49.0459 69.2201 48.5348L67.1653 47.6139L67.4687 44.8085L67.7562 41.9871L69.9441 41.5186C70.173 41.0342 70.4126 40.5657 70.7 40.1292L69.8855 38.0318L72.0894 36.2538L74.2933 34.4704L76.1778 35.6788C76.6622 35.4979 77.1573 35.3488 77.6737 35.2423L78.5946 33.1875L81.416 33.475L84.2374 33.7784L84.7059 35.9663L84.7006 35.961ZM81.0168 37.1694C85.9516 37.6804 89.5449 42.1042 89.0285 47.039C88.5174 51.9738 84.0937 55.5511 79.1749 55.0347C74.2401 54.5237 70.6468 50.1159 71.1632 45.1811C71.6742 40.2463 76.082 36.653 81.0168 37.1694Z" fill="#777C90"/>
<path d="M1.94835 108.03H5.16367V106.443H1.94835V103.771H5.40323V102.158H0V112.225H1.94835V108.03ZM11.2909 102.158L8.43758 112.225H10.3966L11.0886 109.568H13.7876L14.5116 112.225H16.5345L13.729 102.158H11.2856H11.2909ZM11.983 105.794C12.1214 105.203 12.2864 104.378 12.4195 103.755H12.4674C12.5898 104.357 12.7708 105.177 12.9199 105.81L13.5214 108.104H11.3814L11.983 105.794ZM26.5159 102.382C26.2284 102.233 25.5204 102.004 24.4344 102.004C21.762 102.004 19.4996 103.787 19.4996 107.317C19.4996 110.303 21.1765 112.358 24.1948 112.358C25.2382 112.358 26.0527 112.161 26.4307 111.98L26.1592 110.409C25.7652 110.59 25.1158 110.713 24.5142 110.713C22.7043 110.713 21.5278 109.488 21.5278 107.21C21.5278 104.767 22.8693 103.633 24.5302 103.633C25.2222 103.633 25.7546 103.787 26.1432 103.963L26.5212 102.376L26.5159 102.382ZM29.1722 102.153V103.83H31.6476V112.219H33.58V103.83H36.0714V102.153H29.1775H29.1722ZM43.1461 101.988C40.5057 101.988 38.8448 104.208 38.8448 107.226C38.8448 110.244 40.3514 112.374 43.0077 112.374C45.5151 112.374 47.2931 110.58 47.2931 107.061C47.2931 104.378 45.9356 101.988 43.1408 101.988H43.1461ZM43.0876 103.574C44.5675 103.574 45.2595 105.294 45.2595 107.136C45.2595 109.174 44.5196 110.787 43.0716 110.787C41.6236 110.787 40.8837 109.158 40.8837 107.178C40.8837 105.336 41.5757 103.569 43.0876 103.569V103.574ZM50.9183 112.219H52.8347V108.131H53.5002C54.4051 108.131 54.815 108.541 55.0865 109.834C55.3101 111.059 55.5709 111.932 55.704 112.219H57.695C57.498 111.841 57.2425 110.633 56.955 109.441C56.7155 108.429 56.3215 107.737 55.6135 107.466V107.434C56.5664 107.056 57.349 106.151 57.349 104.926C57.349 102.227 54.7831 102.073 53.5002 102.073C52.5207 102.073 51.5837 102.163 50.9183 102.27V112.214V112.219ZM52.8347 103.633C52.9998 103.574 53.3032 103.558 53.7237 103.558C54.4317 103.558 55.4006 103.798 55.4006 105.097C55.4006 106.05 54.7352 106.699 53.6332 106.699H52.8347V103.633ZM64.8443 104.612C64.5569 105.352 64.3173 106.002 64.1203 106.667H64.0884C63.8488 105.975 63.6199 105.352 63.3325 104.628L62.337 102.153H60.165L63.0344 108.126V112.214H64.9668V108.051L67.9532 102.153H65.8238L64.8443 104.612ZM79.4837 102.153V105.171C79.4837 106.816 79.5263 108.232 79.6487 109.515H79.6327C79.2281 108.472 78.6532 107.237 78.1262 106.241L75.9969 102.153H73.8994V112.219H75.6508V109.126C75.6508 107.332 75.6189 105.927 75.5443 104.676H75.5923C76.0128 105.778 76.6037 107.029 77.1467 108.056L79.3027 112.219H81.2351V102.153H79.4837ZM87.4794 102.153L84.6101 112.219H86.5851L87.2771 109.563H89.9654L90.6894 112.219H92.7283L89.9069 102.153H87.4794ZM88.1608 105.789C88.2939 105.198 88.4749 104.373 88.5973 103.75H88.6399C88.7624 104.351 88.9433 105.171 89.0924 105.805L89.6939 108.099H87.5539L88.1555 105.789H88.1608ZM102.965 102.153L101.821 105.943C101.491 107.136 101.187 108.36 100.948 109.488H100.9C100.687 108.328 100.399 107.151 100.069 105.943L98.9833 102.153H96.5824L95.901 112.219H97.6684L97.8654 108.339C97.9239 107.098 97.9985 105.608 98.0144 104.341H98.057C98.2965 105.565 98.6 106.939 98.93 108.067L100.048 112.081H101.512L102.747 108.009C103.077 106.88 103.455 105.549 103.742 104.341H103.774C103.758 105.352 103.833 106.981 103.881 108.312L104.062 112.219H105.92L105.345 102.153H102.96H102.965ZM111.701 110.606V107.801H114.991V106.215H111.701V103.771H115.188V102.158H109.758V112.225H115.385V110.612H111.701V110.606Z" fill="#777C90"/>
<path d="M26.1852 119.782C26.3502 119.888 26.7122 119.995 27.0582 119.995C27.9047 119.995 28.3731 119.542 28.3731 118.909C28.3731 118.44 28.1176 118.11 27.5427 117.855C27.1062 117.658 26.9251 117.535 26.9251 117.28C26.9251 117.083 27.0902 116.886 27.4522 116.886C27.7397 116.886 27.9632 116.976 28.0857 117.035L28.2347 116.476C28.0697 116.402 27.7982 116.311 27.4628 116.311C26.6909 116.311 26.2278 116.764 26.2278 117.354C26.2278 117.823 26.5578 118.153 27.1008 118.382C27.4948 118.563 27.6758 118.712 27.6758 118.973C27.6758 119.234 27.4788 119.425 27.0849 119.425C26.7974 119.425 26.494 119.335 26.313 119.212L26.1746 119.787L26.1852 119.782ZM33.276 119.361V116.375H32.5839V119.952H34.5589V119.361H33.276ZM40.0686 116.316C39.1317 116.316 38.5461 117.099 38.5461 118.174C38.5461 119.25 39.0732 120 40.0261 120C40.8991 120 41.5379 119.367 41.5379 118.116C41.5379 117.163 41.0535 116.322 40.0739 116.322L40.0686 116.316ZM40.0367 116.875C40.5637 116.875 40.8192 117.493 40.8192 118.142C40.8192 118.866 40.5477 119.441 40.0367 119.441C39.5256 119.441 39.2542 118.866 39.2542 118.158C39.2542 117.509 39.5097 116.875 40.0367 116.875ZM47.1754 117.945V118.504H47.6864V119.367C47.6278 119.399 47.5054 119.425 47.3404 119.425C46.7389 119.425 46.297 119.005 46.297 118.174C46.297 117.344 46.7815 116.923 47.4149 116.923C47.729 116.923 47.9419 116.982 48.107 117.062L48.2454 116.487C48.0804 116.412 47.7769 116.338 47.4149 116.338C46.3875 116.338 45.573 116.987 45.573 118.196C45.573 118.77 45.754 119.25 46.0574 119.553C46.3609 119.856 46.7814 119.99 47.3244 119.99C47.7343 119.99 48.1389 119.899 48.3359 119.809V117.951H47.1754V117.945ZM53.4091 116.375L52.3976 119.952H53.0897L53.3292 118.999H54.2928L54.5483 119.952H55.2722L54.2608 116.375H53.3984H53.4091ZM53.6486 117.658C53.6912 117.445 53.7551 117.157 53.7977 116.934H53.8136C53.8722 117.157 53.9361 117.445 53.9787 117.674L54.1916 118.488H53.4357L53.6486 117.658ZM61.4208 116.375V117.445C61.4208 118.02 61.4368 118.531 61.4793 118.983H61.4634C61.3143 118.621 61.1173 118.185 60.9363 117.823L60.1804 116.375H59.4245V119.952H60.058V118.85C60.058 118.217 60.042 117.706 60.0101 117.264H60.0261C60.1751 117.658 60.388 118.094 60.569 118.472L61.3409 119.952H62.033V116.375H61.4155H61.4208ZM69.342 116.375V117.791H68.1336V116.375H67.4416V119.952H68.1336V118.414H69.342V119.952H70.034V116.375H69.342ZM75.1232 119.361V118.366H76.2837V117.807H75.1232V116.945H76.3635V116.37H74.4312V119.947H76.4381V119.356H75.1232V119.361ZM80.6595 119.952H81.3409V118.504H81.5698C81.8999 118.504 82.0543 118.643 82.1448 119.106C82.2193 119.526 82.3098 119.846 82.3577 119.952H83.0657C83.0072 119.819 82.9167 119.377 82.8102 118.957C82.7197 118.595 82.5866 118.355 82.3258 118.265V118.249C82.6558 118.116 82.9433 117.796 82.9433 117.36C82.9433 116.407 82.0383 116.348 81.5858 116.348C81.2398 116.348 80.8938 116.38 80.6649 116.423V119.952H80.6595ZM81.3409 116.907C81.3995 116.875 81.506 116.875 81.6603 116.875C81.9159 116.875 82.2513 116.966 82.2513 117.418C82.2513 117.764 82.0277 117.993 81.6337 117.993H81.3463V116.907H81.3409ZM87.8887 119.367V118.371H89.0652V117.812H87.8887V116.95H89.1237V116.375H87.2073V119.952H89.1983V119.361H87.8834L87.8887 119.367Z" fill="#777C90"/>
</svg>
