<svg width="136" height="121" viewBox="0 0 136 121" fill="none" xmlns="http://www.w3.org/2000/svg">
<path fill-rule="evenodd" clip-rule="evenodd" d="M82.112 8.69791C84.1502 9.37316 86.1197 10.186 88.0141 11.1238L96.1483 6.99102L104.301 15.144L112.454 23.297L108.309 31.4312C109.266 33.3256 110.078 35.2951 110.754 37.3146L119.438 40.1343V63.2115L110.754 66.0313C110.078 68.0695 109.266 70.0202 108.309 71.9147L112.454 80.0489L104.301 88.2018L101.75 90.7528H101.575V73.9341C96.8423 72.6587 92.0968 71.3645 87.3639 70.0702C75.0969 71.8271 68.9509 72.7087 68.9509 72.7087L70.6703 72.3336L70.9016 64.0243L71.1142 72.2273L83.8376 69.445L84.3315 58.8287L84.8129 69.2325L87.2763 68.701L93.2285 69.9202V64.0743L84.3315 57.4969L75.347 61.0607C75.2595 58.6849 75.1719 56.3277 75.0657 53.9706C75.0657 53.6705 74.9218 53.4017 74.7093 53.2079C74.5155 53.0141 74.2278 52.889 73.9277 52.889C73.6464 52.889 73.3588 53.0141 73.165 53.2079C72.9524 53.4017 72.8086 53.6705 72.8086 53.9706C72.6835 56.7154 72.5773 59.4476 72.471 62.1924L70.8391 62.8301L68.0381 61.9423C67.8255 56.6466 67.6129 51.3635 67.4004 46.0615C67.3816 45.6364 67.1878 45.2487 66.9064 44.9611C66.6063 44.6985 66.2124 44.5172 65.7873 44.5172C65.3621 44.5172 64.9745 44.6985 64.6869 44.9611C64.3868 45.2487 64.1929 45.6364 64.1742 46.0615C63.9804 50.882 63.7865 55.6838 63.5865 60.5043L55.5398 57.8971L33.9507 67.4693V90.7403H33.7756L31.2247 88.1894L23.0717 80.0364L27.217 71.9022C26.2792 70.0077 25.4413 68.057 24.7724 66.0188L16.1067 63.199V40.1219L24.7724 37.3021C25.4476 35.2826 26.2792 33.3131 27.217 31.4187L23.0717 23.2845L31.2247 15.1315L39.3964 6.97854L47.5119 11.1113C49.4063 10.1734 51.3758 9.35439 53.414 8.6854L56.2338 0.000976562H79.2922L82.112 8.6854V8.69791ZM67.7755 11.5677C85.9946 11.5677 101.381 23.7096 106.271 40.3657C99.9622 26.1668 85.7445 16.2819 69.2323 16.2819C46.8491 16.2819 28.7175 34.4323 28.7175 56.7967C28.7175 58.6911 28.8613 60.5543 29.1052 62.3612C28.1673 58.96 27.6546 55.3774 27.6546 51.6761C27.6546 29.5242 45.6237 11.5677 67.7818 11.5677H67.7755ZM85.2881 72.4461C80.5239 73.1213 75.7534 73.8091 71.0017 74.4843L71.0517 76.3975C73.4463 76.0974 75.8347 75.7974 78.2293 75.491C80.5489 75.2096 82.8935 74.922 85.2319 74.6219L85.2819 72.4399L85.2881 72.4461ZM71.0767 77.3542L71.1267 79.2674C73.5714 79.0173 76.016 78.7859 78.4669 78.5608C80.6802 78.3295 82.9185 78.1169 85.1506 77.9044L85.2006 75.7223C82.8935 75.9912 80.6114 76.2537 78.3043 76.5226C75.8972 76.7914 73.4838 77.0728 71.0767 77.3542ZM71.1455 80.2239L71.1955 82.1371C73.6964 81.9621 76.1911 81.7808 78.6732 81.6057C80.799 81.4494 82.9248 81.2868 85.0568 81.143L85.1068 78.9797C82.9123 79.1736 80.7302 79.3674 78.5294 79.5612C76.066 79.7738 73.6026 80.0051 71.1392 80.2177L71.1455 80.2239ZM71.233 83.0937L71.2893 85.0069C73.8214 84.8819 76.3724 84.7756 78.9108 84.6506C80.9303 84.563 82.9498 84.4567 84.9692 84.3692L85.0255 82.2247C82.931 82.3497 80.8427 82.4935 78.767 82.6123C76.2473 82.7686 73.7339 82.9312 71.233 83.0937ZM71.3018 85.9636L71.3518 87.8768C73.9402 87.8267 76.5474 87.7517 79.1296 87.7017C81.0428 87.6517 82.956 87.6141 84.8692 87.5579L84.9192 85.4321L78.9671 85.6634C76.4161 85.7697 73.8465 85.8573 71.2955 85.9636H71.3018ZM71.3706 88.8333L71.4206 90.7465H84.7817L84.838 88.6208L79.2047 88.7083C76.5975 88.7645 73.9965 88.7958 71.3706 88.8333ZM51.4508 64.1993L49.5376 65.0309V88.7083H50.7943C51.0069 80.5366 51.2195 72.3711 51.4508 64.1993ZM48.581 65.4561L46.6678 66.3064V88.7083H48.581V65.4561ZM45.7112 66.7315L43.798 67.5818V88.7083H45.7112V66.7315ZM42.8414 68.007L40.9282 68.8573V88.7083H42.8414V68.007ZM39.9716 69.2824L38.0584 70.1328V88.7083H39.9716V69.2824ZM53.5828 61.0044L36.0014 68.801V90.7403H52.7825C53.0514 80.8304 53.314 70.908 53.5828 61.0044ZM54.8208 90.7403L55.5461 63.943L56.2526 90.7403H54.8145H54.8208ZM68.5195 90.7403L68.9447 74.5781L69.3886 90.7403H68.5195ZM86.8449 90.7403L87.3576 71.6333L87.8516 90.7403H86.8387H86.8449ZM81.3304 41.116V41.1847C81.3304 41.86 80.799 42.3914 80.1237 42.3914C79.6423 42.3914 79.2359 42.1101 79.0421 41.6974C78.7045 41.9663 78.2793 42.1413 77.8042 42.1413C77.329 42.1413 76.8975 41.9663 76.5662 41.6787C76.4974 43.0792 75.3408 44.1983 73.9277 44.1983C73.1462 44.1983 72.4772 43.8795 71.977 43.3668C71.802 44.0233 71.1955 44.5172 70.4702 44.5172C69.9388 44.5172 69.4574 44.2546 69.176 43.8419C69.1072 44.3921 68.6633 44.8173 68.1131 44.8861C67.9693 44.636 67.813 44.4234 67.6004 44.2296C67.119 43.7482 66.4688 43.4856 65.7935 43.4856C65.1183 43.4856 64.4618 43.7482 63.9866 44.2296C63.9491 44.2484 63.9178 44.2859 63.8991 44.3171C63.8303 44.1233 63.7928 43.9107 63.7928 43.6794C63.7928 42.579 64.6994 41.6974 65.7935 41.6787C65.5247 41.291 65.3684 40.8096 65.3684 40.2969C65.3684 38.8776 66.5 37.746 67.9193 37.746C68.5383 37.746 69.1072 37.9773 69.5511 38.3462C69.4261 38.0086 69.3573 37.6522 69.3573 37.2833C69.3573 35.689 70.6328 34.4135 72.2271 34.4135C73.2025 34.4135 74.0528 34.8762 74.5655 35.6202C74.9031 35.3889 75.3095 35.2638 75.7347 35.2638C76.6037 35.2638 77.3477 35.7765 77.6666 36.5393C77.8229 36.433 78.0355 36.3642 78.2543 36.3642C78.717 36.3642 79.1046 36.6643 79.2672 37.0707C79.7298 36.3267 80.5614 35.8328 81.4992 35.8328C82.8622 35.8328 84.0002 36.8957 84.1252 38.2462C84.4628 37.9461 84.9067 37.7522 85.4006 37.7522C86.3385 37.7522 87.1388 38.4587 87.2639 39.3653C87.4077 39.2778 87.5827 39.2215 87.7578 39.2215C88.5581 39.2215 88.8019 40.6033 90.3837 40.0343C89.8523 40.9534 87.6014 41.5411 87.0012 40.6533C86.6636 41.1847 86.0822 41.5411 85.4069 41.5411C84.5191 41.5411 83.7751 40.9409 83.5625 40.1219C83.0873 40.7221 82.337 41.116 81.5055 41.116H81.3429H81.3304ZM97.28 47.8122C97.0861 47.8122 96.9236 47.8684 96.7861 47.9559C96.6423 47.0494 95.867 46.3616 94.9041 46.3616C94.4289 46.3616 93.985 46.5367 93.6474 46.8431C93.5224 45.4988 92.3907 44.4297 91.009 44.4297C90.0711 44.4297 89.2521 44.9236 88.7769 45.6676C88.6331 45.2612 88.2454 44.9611 87.7828 44.9611C87.5702 44.9611 87.3576 45.0299 87.195 45.1362C86.8762 44.3921 86.1322 43.8607 85.2631 43.8607C84.838 43.8607 84.4316 43.9858 84.0939 44.2171C83.5813 43.4918 82.7122 43.0104 81.7556 43.0104C80.1613 43.0104 78.8858 44.3046 78.8858 45.8802C78.8858 46.2553 78.9546 46.6242 79.0796 46.9431C78.6357 46.5679 78.0667 46.3554 77.429 46.3554C76.0285 46.3554 74.8968 47.487 74.8968 48.8875C74.8968 49.4002 75.0532 49.8816 75.3032 50.288C74.3279 50.288 73.5151 50.9945 73.3525 51.9386C73.5276 51.8824 73.7277 51.8511 73.9215 51.8511C74.4904 51.8511 75.0219 52.0824 75.4095 52.4513C75.8159 52.839 76.066 53.3579 76.0848 53.9206V54.1332C76.4599 53.9769 76.76 53.7268 76.9914 53.4079C77.1352 53.4642 77.2914 53.4955 77.4728 53.4955C78.0917 53.4955 78.6232 53.0328 78.7107 52.4513C78.9921 52.8577 79.4735 53.1266 80.0049 53.1266C80.7114 53.1266 81.3367 52.6327 81.5117 51.9574C81.9932 52.4701 82.6809 52.8077 83.4437 52.8077C84.8629 52.8077 86.0321 51.6885 86.1009 50.288C86.4385 50.5694 86.8637 50.732 87.3389 50.732C87.814 50.732 88.2454 50.5694 88.5768 50.3068C88.7706 50.7132 89.177 50.9821 89.6584 50.9821C90.3337 50.9821 90.8652 50.4506 90.8652 49.7941V49.7066H91.009C91.8405 49.7066 92.5845 49.319 93.0847 48.7125C93.7787 51.426 96.5922 49.1564 98.2804 49.5253C98.8493 49.6691 99.4495 49.5628 99.9622 49.2564C98.1553 49.5378 98.2803 47.8059 97.2862 47.8059L97.28 47.8122Z" fill="#777C90"/>
<path d="M2.28834 105.927H6.0647V104.064H2.28834V100.944H6.34606V99.0497H0V110.873H2.28834V105.927ZM13.2798 99.0497L9.90984 110.873H12.2295L13.0422 107.753H16.2121L17.0437 110.873H19.4383L16.1246 99.0497H13.2736H13.2798ZM14.0801 103.32C14.2364 102.626 14.449 101.657 14.5928 100.913H14.6428C14.8054 101.638 14.9992 102.595 15.1743 103.339L15.8808 106.033H13.3611L14.0676 103.32H14.0801ZM31.1488 99.3123C30.8112 99.1372 29.9797 98.8683 28.7042 98.8683C25.5656 98.8683 22.9083 100.957 22.9083 105.108C22.9083 108.597 24.8778 111.029 28.4353 111.029C29.642 111.029 30.5986 110.798 31.0425 110.585L30.7237 108.741C30.261 108.953 29.517 109.078 28.8105 109.078C26.6659 109.078 25.303 107.659 25.303 104.983C25.303 102.113 26.8598 100.782 28.8292 100.782C29.642 100.782 30.2485 100.957 30.7049 101.157L31.1488 99.3123ZM34.2687 99.0497V101.019H37.176V110.873H39.4456V101.019H42.3717V99.0497H34.275H34.2687ZM50.6809 98.8559C47.5986 98.8559 45.6291 101.463 45.6291 104.989C45.6291 108.516 47.3985 111.048 50.5184 111.048C53.4632 111.048 55.5515 108.941 55.5515 104.808C55.5515 101.651 53.9571 98.8496 50.6809 98.8496V98.8559ZM50.6247 100.719C52.3628 100.719 53.1756 102.739 53.1756 104.902C53.1756 107.296 52.2878 109.191 50.6059 109.191C48.9241 109.191 48.0175 107.278 48.0175 104.958C48.0175 102.776 48.8303 100.719 50.6247 100.719ZM59.803 110.873H62.0726V106.071H62.8354C63.917 106.071 64.3922 106.552 64.6985 108.072C64.9799 109.51 65.2675 110.535 65.4426 110.873H67.7809C67.5496 110.429 67.2307 109.01 66.8931 107.615C66.6242 106.409 66.1491 105.615 65.33 105.296V105.246C66.4304 104.821 67.3495 103.758 67.3495 102.32C67.3495 99.1497 64.3359 98.9559 62.8479 98.9559C61.6974 98.9559 60.5783 99.0622 59.7968 99.206V110.885L59.803 110.873ZM62.0726 100.788C62.2477 100.719 62.604 100.682 63.1167 100.682C63.9295 100.682 65.0862 100.982 65.0862 102.507C65.0862 103.626 64.2859 104.383 63.0104 104.383H62.0726V100.788ZM76.1777 101.938C75.8401 102.789 75.54 103.57 75.3087 104.352H75.2712C75.0086 103.539 74.7209 102.795 74.3833 101.957L73.2141 99.0497H70.682L74.0332 106.052V110.873H76.3028V105.983L79.8103 99.0559H77.3094L76.1777 101.944V101.938ZM93.3527 99.0497V102.595C93.3527 104.527 93.4215 106.196 93.5653 107.697H93.5278C93.0526 106.471 92.3961 105.021 91.7584 103.833L89.2575 99.0497H86.8128V110.873H88.8699V107.24C88.8699 105.133 88.8198 103.464 88.726 102.013H88.7948C89.2763 103.307 89.964 104.758 90.6017 105.983L93.1339 110.873H95.4222V99.0497H93.3465H93.3527ZM102.744 99.0497L99.3924 110.873H101.7L102.512 107.753H105.682L106.514 110.873H108.908L105.595 99.0497H102.744ZM103.544 103.32C103.719 102.626 103.919 101.657 104.075 100.913H104.113C104.269 101.638 104.469 102.595 104.663 103.339L105.357 106.033H102.837L103.544 103.32ZM120.932 99.0497L119.587 103.483C119.2 104.902 118.843 106.334 118.562 107.665H118.524C118.262 106.302 117.924 104.921 117.53 103.483L116.255 99.0497H113.435L112.635 110.873H114.71L114.942 106.315C115.029 104.864 115.098 103.107 115.136 101.601H115.173C115.454 103.051 115.83 104.652 116.217 105.996L117.512 110.691H119.25L120.688 105.927C121.094 104.595 121.519 103.02 121.857 101.601H121.907C121.888 102.807 121.963 104.72 122.032 106.265L122.245 110.873H124.408L123.733 99.0497H120.932ZM131.192 108.96V105.683H135.055V103.82H131.192V100.95H135.287V99.0559H128.922V110.879H135.531V108.966H131.185L131.192 108.96Z" fill="#777C90"/>
<path d="M30.768 119.752C30.9618 119.877 31.3682 120.002 31.7933 120.002C32.7687 120.002 33.3189 119.452 33.3189 118.726C33.3189 118.176 33.0188 117.789 32.3435 117.488C31.8309 117.257 31.637 117.113 31.637 116.813C31.637 116.582 31.8121 116.351 32.2373 116.351C32.5936 116.351 32.8375 116.457 33 116.526L33.1626 115.869C32.9688 115.763 32.6687 115.675 32.256 115.675C31.3494 115.675 30.818 116.207 30.818 116.901C30.818 117.451 31.2056 117.839 31.8434 118.107C32.306 118.32 32.4999 118.495 32.4999 118.801C32.4999 119.108 32.2685 119.314 31.8246 119.314C31.4682 119.314 31.1306 119.208 30.9055 119.083L30.7617 119.758L30.768 119.752ZM39.0773 119.258V115.732H38.277V119.933H40.5841V119.258H39.0773ZM47.0551 115.675C45.9547 115.675 45.267 116.594 45.267 117.857C45.267 119.12 45.886 120.002 47.0051 120.002C48.0493 120.002 48.7933 119.258 48.7933 117.789C48.7933 116.669 48.2243 115.682 47.0551 115.682V115.675ZM47.0364 116.332C47.6554 116.332 47.943 117.038 47.943 117.82C47.943 118.67 47.6241 119.345 47.0239 119.345C46.4237 119.345 46.1173 118.651 46.1173 117.839C46.1173 117.026 46.3987 116.332 47.0364 116.332ZM55.4019 117.588V118.226H56.0022V119.252C55.9334 119.289 55.7896 119.32 55.5958 119.32C54.9018 119.32 54.3891 118.826 54.3891 117.851C54.3891 116.876 54.958 116.382 55.7021 116.382C56.0709 116.382 56.3023 116.451 56.5023 116.526L56.6774 115.869C56.4648 115.763 56.1085 115.694 55.6833 115.694C54.4766 115.694 53.5388 116.457 53.5388 117.876C53.5388 118.551 53.7326 119.114 54.1077 119.47C54.4641 119.827 54.9393 119.983 55.577 119.983C56.0584 119.983 56.5336 119.858 56.7837 119.771V117.588H55.4019ZM62.7233 115.725L61.5354 119.927H62.3482L62.6483 118.826H63.7675L64.0676 119.927H64.9179L63.7487 115.725H62.7233ZM63.0047 117.251C63.0735 117.001 63.1485 116.663 63.1985 116.401H63.2173C63.2736 116.669 63.3423 117.001 63.4111 117.251L63.6612 118.207H62.7546L63.0047 117.251ZM72.133 115.725V117.001C72.133 117.676 72.1518 118.276 72.2018 118.808H72.183C72.0267 118.364 71.7954 117.851 71.5641 117.445L70.6762 115.725H69.8072V119.927H70.5325V118.651C70.5325 117.889 70.5137 117.307 70.4824 116.794H70.5012C70.6762 117.257 70.9263 117.77 71.1577 118.195L72.0643 119.933H72.8645V115.732H72.1393L72.133 115.725ZM81.4552 115.725V117.407H80.0171V115.725H79.2044V119.927H80.0171V118.12H81.4552V119.927H82.2555V115.725H81.4552ZM88.2264 119.252V118.082H89.5894V117.426H88.2264V116.413H89.6769V115.719H87.4073V119.921H89.7645V119.245H88.2201L88.2264 119.252ZM94.7288 119.927H95.529V118.226H95.8104C96.1793 118.226 96.3606 118.401 96.4669 118.933C96.5732 119.445 96.6607 119.821 96.7295 119.927H97.561C97.4735 119.771 97.3672 119.27 97.2422 118.776C97.1546 118.351 96.9796 118.07 96.692 117.964V117.945C97.0796 117.782 97.3985 117.413 97.3985 116.901C97.3985 115.769 96.3356 115.713 95.8041 115.713C95.3977 115.713 95.0039 115.75 94.7225 115.8V119.927H94.7288ZM95.529 116.351C95.5978 116.332 95.7229 116.313 95.9042 116.313C96.2043 116.313 96.6107 116.419 96.6107 116.97C96.6107 117.357 96.3294 117.626 95.8667 117.626H95.529V116.351ZM103.238 119.258V118.089H104.601V117.432H103.238V116.419H104.695V115.725H102.425V119.927H104.782V119.252H103.238V119.258Z" fill="#777C90"/>
</svg>
