<svg width="133" height="121" viewBox="0 0 133 121" fill="none" xmlns="http://www.w3.org/2000/svg">
<path fill-rule="evenodd" clip-rule="evenodd" d="M67.1356 7.66419C68.9258 8.27112 70.6607 8.98228 72.3466 9.82216L79.5255 6.17447L86.7351 13.3718L93.9446 20.5813L90.2786 27.7725C91.1123 29.44 91.8418 31.1811 92.4365 32.9712L100.1 35.4725V47.9482H89.6532L87.7099 51.3016H86.2508C86.5634 49.4563 86.7351 47.5803 86.7351 45.6553C86.7351 27.8276 72.2792 13.3656 54.4454 13.3656C36.6115 13.3656 22.1556 27.8215 22.1556 45.6553C22.1556 60.6323 32.3569 73.2184 46.1752 76.8845V91.3281H44.2441L41.7612 83.6465C39.9711 83.058 38.2361 82.3284 36.5686 81.4885L29.3713 85.1546L22.1617 77.9451L14.9522 70.7294L18.6183 63.5505C17.7845 61.883 17.055 60.148 16.4664 58.3395L8.80322 55.8566V35.4725L16.4664 32.9712C17.055 31.1811 17.7845 29.4461 18.6183 27.7725L14.9522 20.5813L22.1617 13.3718L29.3713 6.17447L36.5686 9.82216C38.2361 8.98841 39.9772 8.27725 41.7612 7.66419L44.2441 0.000976562H64.6466L67.1295 7.66419H67.1356Z" fill="#777C90"/>
<path fill-rule="evenodd" clip-rule="evenodd" d="M60.7417 53.3859H61.7165V52.5154H60.7417V53.3859ZM68.3866 55.4887H79.3848V56.8068H68.3866V55.4887ZM92.9763 55.4887H103.993V56.8068H92.9763V55.4887ZM81.506 50.0325L83.4494 53.3859H88.9056L90.849 50.0325H106.108L108.039 53.3859H110.332V26.7302C110.332 26.5217 110.418 26.3317 110.559 26.1907C110.7 26.0497 110.908 25.9639 111.117 25.9639H118.921V69.3561L110.841 62.0423L98.4999 73.1999L86.1775 62.0423L73.855 73.1999L61.5326 62.0423L53.4341 69.3561V25.9639H61.2383C61.4651 25.9639 61.6552 26.0497 61.7962 26.1907C61.9372 26.3317 62.023 26.5217 62.023 26.7302V53.3859H64.3158L66.2592 50.0325H81.4999H81.506ZM111.619 53.3859V52.5154H110.645V53.3859H111.619ZM111.619 52.2027V50.762H110.645V52.2027H111.619ZM111.619 50.4494V49.0087H110.645V50.4494H111.619ZM111.619 48.696V47.2676H110.645V48.696H111.619ZM111.619 46.9549V45.5143H110.645V46.9549H111.619ZM111.619 45.2016V43.7609H110.645V45.2016H111.619ZM111.619 43.4483V42.026H110.645V43.4483H111.619ZM111.619 41.7133V40.2726H110.645V41.7133H111.619ZM111.619 39.96V38.5193H110.645V39.96H111.619ZM111.619 38.2066V36.7843H110.645V38.2066H111.619ZM111.619 36.4717V35.031H110.645V36.4717H111.619ZM111.619 34.7183V33.2776H110.645V34.7183H111.619ZM111.619 32.965V31.5427H110.645V32.965H111.619ZM111.619 31.23V29.7893H110.645V31.23H111.619ZM111.619 29.4767V28.036H110.645V29.4767H111.619ZM111.619 27.7233V26.301H111.117C110.994 26.301 110.871 26.3562 110.786 26.4237C110.7 26.5095 110.645 26.6321 110.645 26.7547V27.7295H111.619V27.7233ZM60.7356 52.2272V50.7866H61.7104V52.2272H60.7356ZM60.7356 50.4739V49.0332H61.7104V50.4739H60.7356ZM60.7356 48.7206V47.2921H61.7104V48.7206H60.7356ZM60.7356 46.9795V45.5388H61.7104V46.9795H60.7356ZM60.7356 45.2261V43.7854H61.7104V45.2261H60.7356ZM60.7356 43.4728V42.0505H61.7104V43.4728H60.7356ZM60.7356 41.7378V40.2972H61.7104V41.7378H60.7356ZM60.7356 39.9845V38.5438H61.7104V39.9845H60.7356ZM60.7356 38.2311V36.8089H61.7104V38.2311H60.7356ZM60.7356 36.4962V35.0555H61.7104V36.4962H60.7356ZM60.7356 34.7429V33.3022H61.7104V34.7429H60.7356ZM60.7356 32.9895V31.5672H61.7104V32.9895H60.7356ZM60.7356 31.2546V29.8139H61.7104V31.2546H60.7356ZM60.7356 29.5012V28.0605H61.7104V29.5012H60.7356ZM60.7356 27.7479V26.3256H61.2383C61.3793 26.3256 61.4835 26.3808 61.5694 26.4482C61.6552 26.534 61.7104 26.6566 61.7104 26.7792V27.754H60.7356V27.7479Z" fill="#777C90"/>
<path fill-rule="evenodd" clip-rule="evenodd" d="M86.184 64.8569L73.8615 76.0146L61.5391 64.8569L48.2603 76.8667V91.3226H124.095V76.8667L110.835 64.8569L98.4942 76.0146L86.1717 64.8569H86.184ZM108.585 76.6215H110.424V78.4607H108.585V76.6215ZM110.424 79.2822V81.1275H108.585V79.2822H110.424ZM111.24 76.6215H113.079V78.4607H111.24V76.6215ZM113.079 79.2822V81.1275H111.24V79.2822H113.079ZM83.9341 76.6215H85.7732V78.4607H83.9341V76.6215ZM85.7732 79.2822V81.1275H83.9341V79.2822H85.7732ZM86.5886 76.6215H88.4155V78.4607H86.5886V76.6215ZM88.4155 79.2822V81.1275H86.5886V79.2822H88.4155ZM59.2891 76.6215H61.1161V78.4607H59.2891V76.6215ZM61.1161 79.2822V81.1275H59.2891V79.2822H61.1161ZM61.9314 76.6215H63.7767V78.4607H61.9314V76.6215ZM63.7767 79.2822V81.1275H61.9314V79.2822H63.7767Z" fill="#777C90"/>
<path d="M2.24377 106.194H5.94663V104.367H2.24377V101.308H6.22251V99.4322H0V111.044H2.24377V106.194ZM13.0029 99.4322L9.71694 111.044H11.973L12.77 107.984H15.8782L16.7119 111.044H19.0416L15.8107 99.4322H12.9968H13.0029ZM13.7999 103.638C13.9593 102.957 14.1493 102.007 14.3026 101.271H14.3578C14.4988 101.983 14.7072 102.92 14.8789 103.65L15.5716 106.274H13.1072L13.7999 103.632V103.638ZM30.5364 99.7081C30.2053 99.5364 29.3899 99.2728 28.1393 99.2728C25.0618 99.2728 22.4563 101.327 22.4563 105.373C22.4563 108.812 24.3874 111.197 27.8634 111.197C29.065 111.197 30.003 110.97 30.4383 110.743L30.1256 108.953C29.6719 109.143 28.924 109.284 28.2313 109.284C26.1469 109.284 24.792 107.874 24.792 105.25C24.792 102.455 26.3369 101.13 28.2497 101.13C29.0466 101.13 29.6597 101.32 30.1072 101.51L30.5425 99.702L30.5364 99.7081ZM33.5955 99.4322V101.376H36.4462V111.037H38.6716V101.376H41.5408V99.4322H33.6017H33.5955ZM49.6883 99.2544C46.6475 99.2544 44.7348 101.811 44.7348 105.268C44.7348 108.726 46.4697 111.197 49.5289 111.197C52.4164 111.197 54.464 109.149 54.464 105.097C54.464 102.007 52.9007 99.2544 49.6822 99.2544H49.6883ZM49.6209 101.081C51.3252 101.081 52.1221 103.061 52.1221 105.183C52.1221 107.531 51.27 109.37 49.6025 109.37C47.9349 109.37 47.0828 107.512 47.0828 105.232C47.0828 103.092 47.8798 101.075 49.6209 101.075V101.081ZM58.6389 111.037H60.8459V106.329H61.6123C62.6545 106.329 63.1265 106.801 63.4392 108.291C63.6966 109.701 63.997 110.706 64.1503 111.037H66.4432C66.2163 110.602 65.9221 109.21 65.591 107.837C65.3151 106.654 64.8614 105.875 64.0461 105.563V105.508C65.1435 105.091 66.0447 104.048 66.0447 102.62C66.0447 99.5303 63.0897 99.3341 61.6306 99.3341C60.4842 99.3341 59.4052 99.4383 58.6389 99.5793V111.031V111.037ZM60.8459 101.13C61.036 101.075 61.3854 101.045 61.8697 101.045C62.6851 101.045 63.8009 101.339 63.8009 102.835C63.8009 103.932 63.0346 104.68 61.7655 104.68H60.8459V101.136V101.13ZM74.6765 102.277C74.3455 103.111 74.0696 103.877 73.8427 104.643H73.8059C73.5301 103.846 73.2665 103.111 72.9354 102.277L71.789 99.4261H69.2877L72.5921 106.305V111.031H74.8175V106.237L78.2567 99.4261H75.8045L74.6765 102.277ZM91.5356 99.4261V102.921C91.5356 104.796 91.5846 106.446 91.7256 107.923H91.7072C91.2413 106.721 90.5792 105.299 89.9723 104.134L87.5201 99.4261H85.1046V111.037H87.1399V107.476C87.1399 105.41 87.0909 103.773 86.9989 102.35H87.0541C87.5385 103.619 88.2189 105.042 88.8443 106.243L91.3271 111.037H93.5525V99.4261H91.5356ZM100.744 99.4261L97.4393 111.037H99.7138L100.511 107.978H103.607L104.44 111.037H106.788L103.539 99.4261H100.744ZM101.528 103.632C101.682 102.951 101.89 102.001 102.031 101.265H102.08C102.24 101.976 102.43 102.914 102.601 103.644L103.294 106.268H100.83L101.522 103.625L101.528 103.632ZM118.578 99.4261L117.259 103.785C116.879 105.177 116.53 106.58 116.254 107.868H116.199C115.954 106.55 115.623 105.189 115.243 103.785L113.992 99.4261H111.227L110.442 111.037H112.478L112.704 106.568C112.772 105.146 112.858 103.423 112.876 101.946H112.925C113.201 103.368 113.55 104.937 113.931 106.255L115.218 110.86H116.904L118.326 106.17C118.706 104.882 119.142 103.337 119.473 101.946H119.509C119.491 103.129 119.577 105.005 119.632 106.519L119.84 111.037H121.98L121.318 99.4261H118.571H118.578ZM128.638 109.155V105.943H132.427V104.104H128.638V101.308H132.653V99.4322H126.4V111.044H132.899V109.168H128.638V109.155Z" fill="#777C90"/>
<path d="M30.1563 119.75C30.3464 119.873 30.7632 119.977 31.1617 119.977C32.1365 119.977 32.676 119.456 32.676 118.745C32.676 118.205 32.3817 117.825 31.7196 117.531C31.2169 117.304 31.0084 117.163 31.0084 116.869C31.0084 116.642 31.1985 116.415 31.6154 116.415C31.9464 116.415 32.2039 116.519 32.3449 116.587L32.5166 115.943C32.3265 115.839 32.0139 115.753 31.6276 115.753C30.7387 115.753 30.2053 116.274 30.2053 116.948C30.2053 117.488 30.5854 117.868 31.2108 118.132C31.6644 118.322 31.8729 118.512 31.8729 118.812C31.8729 119.112 31.646 119.315 31.1924 119.315C30.8613 119.315 30.5119 119.211 30.3034 119.088L30.144 119.75H30.1563ZM38.3222 119.266V115.808H37.5375V119.928H39.7936V119.266H38.3161H38.3222ZM46.1448 115.759C45.0658 115.759 44.3915 116.66 44.3915 117.899C44.3915 119.137 44.9984 120.001 46.0958 120.001C47.1012 120.001 47.8369 119.253 47.8369 117.831C47.8369 116.734 47.279 115.765 46.151 115.765L46.1448 115.759ZM46.108 116.403C46.715 116.403 47.0093 117.096 47.0093 117.862C47.0093 118.696 46.6966 119.339 46.108 119.339C45.5195 119.339 45.2069 118.677 45.2069 117.88C45.2069 117.083 45.5011 116.403 46.108 116.403ZM54.3292 117.635V118.26H54.9177V119.266C54.8502 119.303 54.7093 119.321 54.5192 119.321C53.8265 119.321 53.3176 118.849 53.3176 117.899C53.3176 116.948 53.8755 116.458 54.605 116.458C54.9668 116.458 55.212 116.513 55.402 116.599L55.5614 115.955C55.3714 115.851 55.0219 115.784 54.605 115.784C53.4218 115.784 52.4839 116.531 52.4839 117.923C52.4839 118.567 52.6923 119.137 53.0417 119.486C53.4034 119.836 53.8755 119.989 54.5008 119.989C54.9729 119.989 55.4388 119.867 55.6656 119.781V117.641H54.3292V117.635ZM61.508 115.808L60.3433 119.928H61.1402L61.4161 118.849H62.5257L62.82 119.928H63.6537L62.489 115.808H61.4958H61.508ZM61.7839 117.304C61.833 117.059 61.9065 116.728 61.974 116.47C62.0414 116.715 62.115 117.059 62.164 117.304L62.4093 118.242H61.5387L61.7839 117.304ZM70.7346 115.808V117.059C70.7346 117.721 70.753 118.309 70.802 118.83H70.7836C70.6119 118.395 70.3851 117.892 70.1767 117.494L69.3062 115.808H68.4356V119.928H69.1652V118.677C69.1652 117.929 69.1468 117.359 69.11 116.85H69.1284C69.3 117.304 69.5452 117.807 69.7537 118.224L70.6426 119.928H71.4396V115.808H70.7284H70.7346ZM79.8569 115.808V117.457H78.4652V115.808H77.6683V119.928H78.4652V118.156H79.8569V119.928H80.6539V115.808H79.8569ZM86.5147 119.266V118.119H87.8511V117.476H86.5147V116.482H87.9431V115.802H85.7177V119.922H88.0289V119.26H86.5147V119.266ZM92.8904 119.928H93.6752V118.26H93.9388C94.3189 118.26 94.4967 118.432 94.6009 118.953C94.6867 119.456 94.7909 119.824 94.8584 119.928H95.6553C95.5879 119.768 95.4837 119.284 95.3611 118.8C95.2569 118.383 95.1036 118.107 94.8032 117.984C95.2017 117.831 95.5144 117.463 95.5144 116.961C95.5144 115.851 94.4722 115.796 93.9511 115.796C93.5526 115.796 93.1541 115.833 92.8904 115.863V119.928ZM93.6752 116.415C93.7426 116.397 93.8652 116.378 94.043 116.378C94.3373 116.378 94.7235 116.482 94.7235 117.022C94.7235 117.402 94.466 117.666 94.0124 117.666H93.6813V116.415H93.6752ZM101.234 119.266V118.119H102.571V117.476H101.234V116.482H102.644V115.802H100.437V119.922H102.73V119.26H101.234V119.266Z" fill="#777C90"/>
</svg>
