<svg width="127" height="120" viewBox="0 0 127 120" fill="none" xmlns="http://www.w3.org/2000/svg">
<path d="M19.4199 102.423H24.8964V100.027H18.7363C17.5381 100.027 16.6698 100.294 16.1277 100.832C15.5855 101.37 15.3145 102.231 15.3145 103.417V108.839C15.3145 109.947 15.5777 110.76 16.1002 111.278C16.6266 111.797 17.4477 112.056 18.5634 112.056H22.6178C23.3681 112.056 24.1264 111.982 24.8924 111.836V109.601H22.7356C22.441 109.699 22.1346 109.746 21.8203 109.746H19.2431C18.9799 109.746 18.7716 109.672 18.6184 109.518C18.4652 109.365 18.3866 109.157 18.3866 108.898V103.449C18.3866 102.769 18.7284 102.427 19.412 102.427L19.4199 102.423Z" fill="#181818"/>
<path d="M37.2555 100.671C36.7133 100.129 35.8451 99.858 34.6469 99.858H30.3686C29.1704 99.858 28.3022 100.129 27.76 100.671C27.2179 101.213 26.9468 102.082 26.9468 103.28V108.756C26.9468 109.955 27.2179 110.823 27.76 111.365C28.3022 111.907 29.1704 112.178 30.3686 112.178H34.6469C35.8451 112.178 36.7133 111.907 37.2555 111.365C37.7976 110.823 38.0687 109.955 38.0687 108.756V103.28C38.0687 102.082 37.7976 101.213 37.2555 100.671ZM34.9887 108.756C34.9887 109.44 34.6469 109.782 33.9633 109.782H31.0561C30.3725 109.782 30.0308 109.436 30.0308 108.756V103.28C30.0308 102.596 30.3725 102.254 31.0561 102.254H33.9633C34.6469 102.254 34.9887 102.596 34.9887 103.28V108.756Z" fill="#181818"/>
<path d="M50.8998 100.027L47.478 106.36L44.0561 100.027H40.8032V112.005H43.8833V105.334L46.2797 109.613H48.6762L51.0727 105.334V112.005H54.1527V100.027H50.8998Z" fill="#181818"/>
<path d="M67.027 100.84C66.4848 100.298 65.6166 100.027 64.4184 100.027H57.2329V112.005H60.313V108.583H64.4184C65.6166 108.583 66.4848 108.312 67.027 107.77C67.5691 107.228 67.8402 106.36 67.8402 105.162V103.449C67.8402 102.25 67.5691 101.382 67.027 100.84ZM64.7602 105.162C64.7602 105.845 64.4184 106.187 63.7348 106.187H60.313V102.423H63.7348C64.4184 102.423 64.7602 102.765 64.7602 103.449V105.162Z" fill="#181818"/>
<path d="M76.1366 100.027H72.7148L68.1812 112.005H71.5166L71.5323 111.962L74.4237 103.61L77.1816 111.581L77.3349 112.009H80.6703L76.1366 100.031V100.027Z" fill="#181818"/>
<path d="M89.911 100.027V107.212L85.8056 100.027H82.5566V112.005H85.6367V104.82L89.7421 112.005H92.9911V100.027H89.911Z" fill="#181818"/>
<path d="M103.598 100.027L100.773 105.845L97.9482 100.027H94.6953L99.229 108.839V112.005H102.309V108.839L106.843 100.027H103.594H103.598Z" fill="#181818"/>
<path d="M30.3408 119.933V116.236H32.0694C32.8748 116.236 33.3109 116.779 33.3109 117.427C33.3109 118.075 32.8669 118.613 32.0694 118.613H31.1265V119.933H30.3408ZM32.5094 117.427C32.5094 117.116 32.2698 116.928 31.9594 116.928H31.1265V117.922H31.9594C32.2698 117.922 32.5094 117.733 32.5094 117.427Z" fill="#181818"/>
<path d="M34.5801 118.452V116.236H35.3776V118.433C35.3776 118.947 35.6762 119.305 36.2497 119.305C36.8233 119.305 37.114 118.951 37.114 118.433V116.236H37.9194V118.452C37.9194 119.368 37.3773 120 36.2497 120C35.1222 120 34.5801 119.368 34.5801 118.452Z" fill="#181818"/>
<path d="M40.2757 119.933V116.928H39.1953V116.236H42.1457V116.928H41.0693V119.933H40.2757Z" fill="#181818"/>
<path d="M46.4793 119.933V116.928H45.3989V116.236H48.3493V116.928H47.2729V119.933H46.4793Z" fill="#181818"/>
<path d="M51.8302 119.933L51.5984 119.309H50.0152L49.7834 119.933H48.8916L50.3177 116.236H51.3038L52.7299 119.933H51.8381H51.8302ZM50.8048 117.022L50.2273 118.613H51.3784L50.8009 117.022H50.8048Z" fill="#181818"/>
<path d="M53.4771 118.087C53.4771 116.916 54.3649 116.174 55.4492 116.174C56.2153 116.174 56.6946 116.563 56.9735 116.999L56.3253 117.352C56.1524 117.093 55.8382 116.869 55.4492 116.869C54.7735 116.869 54.2863 117.384 54.2863 118.083C54.2863 118.782 54.7735 119.297 55.4492 119.297C55.7753 119.297 56.0817 119.151 56.231 119.014V118.57H55.2567V117.883H57.0207V119.301C56.6435 119.721 56.1171 119.992 55.4532 119.992C54.3649 119.992 53.481 119.246 53.481 118.079L53.4771 118.087Z" fill="#181818"/>
<path d="M58.3877 119.933V116.236H59.1813V119.242H60.7449V119.933H58.3877Z" fill="#181818"/>
<path d="M62.0522 119.933V116.236H62.838V119.933H62.0522Z" fill="#181818"/>
<path d="M66.8968 119.933L65.1329 117.521V119.933H64.3472V116.236H65.1565L66.8694 118.558V116.236H67.6551V119.933H66.8968Z" fill="#181818"/>
<path d="M69.1636 119.933V116.236H71.78V116.928H69.9493V117.706H71.7408V118.397H69.9493V119.238H71.78V119.929H69.1636V119.933Z" fill="#181818"/>
<path d="M77.9045 119.933V118.378H76.1602V119.933H75.3745V116.236H76.1602V117.69H77.9045V116.236H78.6981V119.933H77.9045Z" fill="#181818"/>
<path d="M80.1987 119.933V116.236H82.8152V116.928H80.9845V117.706H82.7759V118.397H80.9845V119.238H82.8152V119.929H80.1987V119.933Z" fill="#181818"/>
<path d="M86.2961 119.933L85.5693 118.621H84.9918V119.933H84.2061V116.236H85.9347C86.7047 116.236 87.18 116.739 87.18 117.427C87.18 118.075 86.7636 118.429 86.3668 118.523L87.2036 119.929H86.2961V119.933ZM86.3747 117.423C86.3747 117.116 86.135 116.928 85.8247 116.928H84.9918V117.926H85.8247C86.135 117.926 86.3747 117.737 86.3747 117.423Z" fill="#181818"/>
<path d="M88.5474 119.933V116.236H91.1638V116.928H89.3331V117.706H91.1245V118.397H89.3331V119.238H91.1638V119.929H88.5474V119.933Z" fill="#181818"/>
<path d="M120.558 94.0668C120.679 94.0746 120.793 94.0864 120.915 94.0903H120.805L120.558 94.0668Z" fill="#181818"/>
<path d="M122.845 94.2202C122.943 94.2241 123.041 94.2359 123.132 94.2399H123.088L122.841 94.2202H122.845Z" fill="#181818"/>
<path d="M123.854 94.2832L123.929 94.291C123.858 94.2831 123.779 94.2753 123.705 94.2714L123.854 94.2792V94.2832Z" fill="#181818"/>
<path d="M22.8366 70.6132H22.7659L22.7188 77.3193L28.317 77.4411L28.3681 70.2085L22.978 70.6014C22.9191 70.6014 22.872 70.6092 22.8366 70.6132Z" fill="#181818"/>
<path d="M30.3641 70.0633L30.3483 72.4362L30.313 77.4844L37.7302 77.6455L37.7852 69.5211L30.3641 70.0633Z" fill="#181818"/>
<path d="M22.6523 86.1115L28.2467 86.9287L28.2978 79.7L22.7034 79.4093L22.6523 86.1115Z" fill="#181818"/>
<path d="M30.2422 87.2233L37.6516 88.3076L37.7105 80.1832L30.2972 79.8021L30.2422 87.2233Z" fill="#181818"/>
<path d="M28.1569 54.9968C25.7447 58.9804 22.5861 64.1701 19.29 69.6348C15.8288 75.3588 12.2145 81.3971 9.13053 86.6615H9.1266L7.68087 86.5672L5.80691 86.4415L4.59297 86.3629L3.46545 86.2883C3.43009 86.2843 3.39081 86.2843 3.34759 86.2804L2.23972 86.2058L0.550409 86.0958H0.444336V86.0879C3.6501 80.7096 8.18373 73.1156 12.7017 65.5687C16.6735 58.9529 20.6257 52.3724 23.6743 47.3792L28.1608 55.0007L28.1569 54.9968Z" fill="#52C459"/>
<path d="M23.9288 30.6826L9.75824 32.2698C7.49928 38.0292 6.25391 44.2953 6.25391 50.8561C6.25391 55.268 6.8157 59.5462 7.8725 63.632C12.084 56.5998 16.1069 49.9132 19.2262 44.7825L17.2344 41.5531L18.8805 38.862C20.1927 36.717 22.322 33.2716 23.9249 30.6826H23.9288Z" fill="#FFDD02"/>
<path d="M57.1147 0C52.0467 0 47.1713 0.742511 42.5552 2.12539L76.4317 3.80291C70.4759 1.34752 63.9583 0 57.1147 0Z" fill="#FFDD02"/>
<path d="M107.966 50.8559C107.966 53.5431 107.754 56.1753 107.353 58.7485L93.1514 38.9129L26.0857 27.2134C26.0857 27.2134 25.2568 28.5531 24.1096 30.3956L11.2041 28.946C11.3848 28.561 11.5773 28.1799 11.7738 27.7988C12.5713 26.2234 13.4513 24.707 14.4099 23.2337L60.1234 19.9023L19.2342 16.9283C19.4581 16.6769 19.6899 16.4254 19.9257 16.174C20.0632 16.0208 20.2085 15.8715 20.3539 15.7222C23.9171 11.9782 28.0501 8.78032 32.6348 6.26992H32.6466L77.0518 4.05811C80.1908 5.39777 83.1687 7.03993 85.9541 8.96496C86.3548 9.23997 86.7438 9.5189 87.1327 9.80569L55.904 11.3536L91.1949 13.1097C93.3006 15.0072 95.2532 17.0933 97.021 19.3287C97.3 19.6744 97.5711 20.0319 97.8421 20.3855L79.0986 21.3166L99.2132 22.3144C100.066 23.5716 100.867 24.868 101.606 26.2038C101.857 26.6634 102.109 27.1231 102.348 27.5906L64.5234 30.5253L104.988 33.6642C106.917 39.0308 107.962 44.8176 107.962 50.8481L107.966 50.8559Z" fill="#FFDD02"/>
<path d="M126.616 94.4717C120.322 94.0552 113.997 93.6388 110.874 93.4384C107.421 93.2027 103.983 92.9827 100.722 92.7784L65.5534 90.4605C58.5447 90.0009 53.5436 89.6748 53.5436 89.6748V89.6395L52.8403 89.5962C48.0081 81.2243 43.0738 73.5124 38.2651 65.9105C35.0672 60.8544 31.9322 55.8572 28.9228 50.7382C28.6832 50.3375 28.4475 49.9328 28.2118 49.5321C28.2078 49.54 28.2039 49.5478 28.1961 49.5557L23.2656 41.5452C25.3007 38.2216 27.096 35.2987 28.4828 33.0751C36.348 45.4738 44.6806 58.1829 53.2843 71.4696L58.4818 79.5232L117.71 82.0376L126.612 94.4677L126.616 94.4717Z" fill="#52C459"/>
<path style="mix-blend-mode:screen" d="M126.616 94.4679C126.313 94.4443 126.003 94.4286 125.7 94.409L117.584 82.6938L59.1571 80.7727L58.4813 79.5273C57.3892 78.6355 56.4424 77.5787 55.6802 76.3962L53.2877 72.6876C44.684 59.401 36.4417 46.1379 28.5805 33.7392C27.2762 35.8253 25.5241 39.0821 23.6423 42.1503L23.269 41.5414C25.3041 38.2139 27.0995 35.2988 28.4902 33.0713C36.3514 45.47 44.6879 58.1791 53.2916 71.4658L58.4892 79.5234L117.713 82.0338L126.616 94.4679Z" fill="url(#paint0_radial_2797_3166)"/>
<path d="M71.5674 55.7079L46.326 54.5057L32.3047 33.5701L60.854 38.5201L71.5674 55.7079Z" fill="#181818"/>
<path d="M85.055 77.3586L60.7918 76.1171L48.6484 57.9786L73.6581 59.0708L85.055 77.3586Z" fill="#181818"/>
<path d="M99.8223 57.0555L75.9834 55.9202L65.1875 39.2706L90.2011 43.6118L99.8223 57.0555Z" fill="#181818"/>
<path d="M115.478 78.9145L90.0482 77.6141L78.1523 59.2714L102.16 60.3164L115.478 78.9145Z" fill="#181818"/>
<path d="M0.440006 86.08C0.475364 86.0839 0.51465 86.0839 0.546079 86.0879H0.440006L0 86.0525C0.149288 86.0603 0.290718 86.0721 0.440006 86.08Z" fill="#181818"/>
<path d="M36.7246 88.4961C36.8111 88.504 36.9053 88.5118 36.9918 88.5157L36.7364 88.5H36.7207L36.7246 88.4961Z" fill="#181818"/>
<g style="mix-blend-mode:multiply">
<path d="M58.4849 79.5233L62.6139 87.1134L122.411 88.5984L117.713 82.0376L58.4849 79.5233Z" fill="#52C459"/>
</g>
<g style="mix-blend-mode:multiply">
<path d="M28.1564 54.997C25.7442 58.9807 22.5856 64.1704 19.2895 69.6351L12.6973 65.565C16.6691 58.9492 20.6213 52.3688 23.6699 47.3755L28.1564 54.997Z" fill="#52C459"/>
</g>
<path style="mix-blend-mode:screen" d="M60.124 19.9023L19.2349 16.9284C19.4588 16.6769 19.6906 16.4255 19.9263 16.1741C20.0638 16.0209 20.2092 15.8716 20.3545 15.7223L60.124 19.9023Z" fill="url(#paint1_linear_2797_3166)"/>
<path style="mix-blend-mode:screen" d="M24.1096 30.3956L11.2041 28.946C11.3848 28.561 11.5773 28.1799 11.7738 27.7988L24.1096 30.3956Z" fill="url(#paint2_linear_2797_3166)"/>
<path style="mix-blend-mode:screen" d="M102.349 27.5946L64.5239 30.5293L101.61 26.2078C101.862 26.6674 102.113 27.1271 102.353 27.5946H102.349Z" fill="url(#paint3_linear_2797_3166)"/>
<path style="mix-blend-mode:screen" d="M97.8431 20.3858L79.0996 21.3169L97.022 19.3251C97.3009 19.6708 97.572 20.0283 97.8431 20.3819V20.3858Z" fill="url(#paint4_linear_2797_3166)"/>
<path style="mix-blend-mode:screen" d="M87.133 9.80571L55.9043 11.3536L56.1989 11.33L85.9544 8.96106C86.3551 9.23606 86.744 9.515 87.133 9.80179V9.80571Z" fill="url(#paint5_linear_2797_3166)"/>
<path style="mix-blend-mode:screen" d="M107.354 58.7448L93.1515 38.9131L26.0859 27.2136L93.9216 37.8523L107.354 58.7448Z" fill="url(#paint6_linear_2797_3166)"/>
<defs>
<radialGradient id="paint0_radial_2797_3166" cx="0" cy="0" r="1" gradientUnits="userSpaceOnUse" gradientTransform="translate(-5.54745 -27.7478) scale(243.119 243.119)">
<stop stop-color="white"/>
<stop offset="0.28" stop-color="#E5E400"/>
<stop offset="0.8" stop-color="#16943B"/>
</radialGradient>
<linearGradient id="paint1_linear_2797_3166" x1="39.6794" y1="18.9163" x2="39.6794" y2="14.0251" gradientUnits="userSpaceOnUse">
<stop offset="0.1" stop-color="#F7941D"/>
<stop offset="0.6" stop-color="#FDB913"/>
</linearGradient>
<linearGradient id="paint2_linear_2797_3166" x1="17.6549" y1="29.7828" x2="17.6549" y2="26.742" gradientUnits="userSpaceOnUse">
<stop offset="0.1" stop-color="#F7941D"/>
<stop offset="0.6" stop-color="#FDB913"/>
</linearGradient>
<linearGradient id="paint3_linear_2797_3166" x1="83.4363" y1="29.5117" x2="83.4363" y2="24.4517" gradientUnits="userSpaceOnUse">
<stop offset="0.1" stop-color="#F7941D"/>
<stop offset="0.6" stop-color="#FDB913"/>
</linearGradient>
<linearGradient id="paint4_linear_2797_3166" x1="88.4694" y1="20.8494" x2="88.4694" y2="18.5197" gradientUnits="userSpaceOnUse">
<stop offset="0.1" stop-color="#F7941D"/>
<stop offset="0.6" stop-color="#FDB913"/>
</linearGradient>
<linearGradient id="paint5_linear_2797_3166" x1="71.5206" y1="10.7918" x2="71.5206" y2="7.99462" gradientUnits="userSpaceOnUse">
<stop offset="0.1" stop-color="#F7941D"/>
<stop offset="0.6" stop-color="#FDB913"/>
</linearGradient>
<linearGradient id="paint6_linear_2797_3166" x1="29.9478" y1="41.117" x2="105.279" y2="44.9317" gradientUnits="userSpaceOnUse">
<stop offset="0.1" stop-color="#F7941D"/>
<stop offset="0.6" stop-color="#FDB913"/>
</linearGradient>
</defs>
</svg>
