<svg width="123" height="120" viewBox="0 0 123 120" fill="none" xmlns="http://www.w3.org/2000/svg">
<path d="M19.2582 102.213H24.7991V99.788H18.5666C17.3543 99.788 16.4758 100.058 15.9273 100.603C15.3788 101.147 15.1045 102.018 15.1045 103.218V108.703C15.1045 109.824 15.3708 110.647 15.8995 111.172C16.4321 111.697 17.2628 111.959 18.3917 111.959H22.4937C23.2529 111.959 24.02 111.883 24.7951 111.736V109.475H22.6129C22.3148 109.574 22.0048 109.622 21.6868 109.622H19.0793C18.813 109.622 18.6023 109.546 18.4473 109.391C18.2923 109.236 18.2128 109.025 18.2128 108.763V103.25C18.2128 102.562 18.5586 102.217 19.2502 102.217L19.2582 102.213Z" fill="#181818"/>
<path d="M37.3045 100.44C36.7559 99.8913 35.8775 99.6171 34.6652 99.6171H30.3366C29.1243 99.6171 28.2458 99.8913 27.6973 100.44C27.1488 100.988 26.8745 101.867 26.8745 103.079V108.62C26.8745 109.832 27.1488 110.711 27.6973 111.259C28.2458 111.808 29.1243 112.082 30.3366 112.082H34.6652C35.8775 112.082 36.7559 111.808 37.3045 111.259C37.853 110.711 38.1272 109.832 38.1272 108.62V103.079C38.1272 101.867 37.853 100.988 37.3045 100.44ZM35.011 108.62C35.011 109.312 34.6652 109.657 33.9735 109.657H31.0322C30.3406 109.657 29.9948 109.308 29.9948 108.62V103.079C29.9948 102.388 30.3406 102.042 31.0322 102.042H33.9735C34.6652 102.042 35.011 102.388 35.011 103.079V108.62Z" fill="#181818"/>
<path d="M51.1084 99.792L47.6463 106.199L44.1842 99.792H40.8931V111.911H44.0093V105.162L46.434 109.491H48.8586L51.2833 105.162V111.911H54.3995V99.792H51.1084Z" fill="#181818"/>
<path d="M67.4249 100.615C66.8763 100.066 65.9979 99.792 64.7856 99.792H57.5156V111.911H60.6319V108.449H64.7856C65.9979 108.449 66.8763 108.175 67.4249 107.626C67.9734 107.078 68.2477 106.199 68.2477 104.987V103.254C68.2477 102.042 67.9734 101.163 67.4249 100.615ZM65.1314 104.987C65.1314 105.679 64.7856 106.025 64.094 106.025H60.6319V102.217H64.094C64.7856 102.217 65.1314 102.562 65.1314 103.254V104.987Z" fill="#181818"/>
<path d="M76.6428 99.792H73.1807L68.5938 111.911H71.9684L71.9843 111.868L74.9098 103.417L77.7001 111.482L77.8551 111.915H81.2297L76.6428 99.796V99.792Z" fill="#181818"/>
<path d="M90.5786 99.792V107.062L86.4249 99.792H83.1377V111.911H86.2539V104.641L90.4076 111.911H93.6948V99.792H90.5786Z" fill="#181818"/>
<path d="M104.427 99.792L101.569 105.679L98.7111 99.792H95.4199L100.007 108.708V111.911H103.123V108.708L107.71 99.792H104.423H104.427Z" fill="#181818"/>
<path d="M30.3042 119.929V116.188H32.0531C32.868 116.188 33.3092 116.737 33.3092 117.393C33.3092 118.048 32.86 118.593 32.0531 118.593H31.0992V119.929H30.3042ZM32.4983 117.393C32.4983 117.079 32.2558 116.888 31.9418 116.888H31.0992V117.893H31.9418C32.2558 117.893 32.4983 117.703 32.4983 117.393Z" fill="#181818"/>
<path d="M34.5972 118.434V116.192H35.4041V118.414C35.4041 118.935 35.7061 119.297 36.2865 119.297C36.8668 119.297 37.1609 118.939 37.1609 118.414V116.192H37.9758V118.434C37.9758 119.36 37.4272 120 36.2865 120C35.1457 120 34.5972 119.36 34.5972 118.434Z" fill="#181818"/>
<path d="M40.3607 119.929V116.888H39.2676V116.188H42.2527V116.888H41.1636V119.929H40.3607Z" fill="#181818"/>
<path d="M46.637 119.929V116.888H45.5439V116.188H48.529V116.888H47.4399V119.929H46.637Z" fill="#181818"/>
<path d="M52.0508 119.929L51.8163 119.297H50.2144L49.9799 119.929H49.0776L50.5205 116.188H51.5182L52.961 119.929H52.0588H52.0508ZM51.0134 116.983L50.4291 118.593H51.5937L51.0094 116.983H51.0134Z" fill="#181818"/>
<path d="M53.7153 118.064C53.7153 116.88 54.6137 116.129 55.7107 116.129C56.4858 116.129 56.9707 116.522 57.2529 116.963L56.5971 117.321C56.4222 117.059 56.1042 116.832 55.7107 116.832C55.027 116.832 54.5341 117.353 54.5341 118.06C54.5341 118.768 55.027 119.289 55.7107 119.289C56.0406 119.289 56.3506 119.141 56.5017 119.002V118.553H55.5159V117.858H57.3006V119.292C56.919 119.718 56.3864 119.992 55.7147 119.992C54.6137 119.992 53.7193 119.237 53.7193 118.056L53.7153 118.064Z" fill="#181818"/>
<path d="M58.6841 119.929V116.188H59.487V119.229H61.069V119.929H58.6841Z" fill="#181818"/>
<path d="M62.3892 119.929V116.188H63.1841V119.929H62.3892Z" fill="#181818"/>
<path d="M67.2945 119.929L65.5098 117.488V119.929H64.7148V116.188H65.5337L67.2667 118.537V116.188H68.0617V119.929H67.2945Z" fill="#181818"/>
<path d="M69.5874 119.929V116.188H72.2347V116.888H70.3824V117.675H72.1949V118.374H70.3824V119.225H72.2347V119.925H69.5874V119.929Z" fill="#181818"/>
<path d="M78.4319 119.929V118.355H76.667V119.929H75.8721V116.188H76.667V117.659H78.4319V116.188H79.2348V119.929H78.4319Z" fill="#181818"/>
<path d="M80.7529 119.929V116.188H83.4002V116.888H81.5479V117.675H83.3604V118.374H81.5479V119.225H83.4002V119.925H80.7529V119.929Z" fill="#181818"/>
<path d="M86.9217 119.929L86.1864 118.601H85.6021V119.929H84.8071V116.188H86.5561C87.3351 116.188 87.8161 116.697 87.8161 117.393C87.8161 118.048 87.3947 118.406 86.9933 118.502L87.8399 119.925H86.9217V119.929ZM87.0012 117.389C87.0012 117.079 86.7588 116.888 86.4448 116.888H85.6021V117.897H86.4448C86.7588 117.897 87.0012 117.707 87.0012 117.389Z" fill="#181818"/>
<path d="M89.1987 119.929V116.188H91.846V116.888H89.9937V117.675H91.8062V118.374H89.9937V119.225H91.846V119.925H89.1987V119.929Z" fill="#181818"/>
<path d="M122.842 55.9974C122.834 58.7122 122.067 61.3713 119.73 63.16C119.73 63.16 119.727 63.1627 119.722 63.168C119.722 63.168 119.706 63.1759 119.698 63.1799C119.316 63.3945 118.907 63.5893 118.482 63.7602C118.482 63.7602 118.48 63.7615 118.478 63.7642C117.921 63.9868 117.329 64.1815 116.701 64.3445C116.419 64.416 116.136 64.4796 115.838 64.5432C115.771 64.5552 115.707 64.5711 115.64 64.583C115.202 64.6704 114.749 64.746 114.284 64.8016C114.233 64.8096 114.181 64.8135 114.125 64.8255C105.711 65.8748 93.1858 63.0328 82.5929 59.9205C82.1716 59.7933 81.7542 59.6701 81.3369 59.5469C80.9235 59.4237 80.5141 59.2965 80.1047 59.1733C79.5959 59.0143 79.0951 58.8632 78.5982 58.7082C77.3024 58.3028 76.0623 57.9053 74.8738 57.5197C74.8698 57.5197 74.8658 57.5197 74.8619 57.5157C74.3173 57.3409 73.7887 57.166 73.268 56.995C73.0931 56.9394 72.9182 56.8758 72.7512 56.8202C71.9046 56.5379 71.0938 56.2637 70.3266 56.0013C68.7764 55.4687 67.4091 54.9957 66.2683 54.6022C65.5012 54.3359 64.7459 54.0934 64.0066 53.8788C63.5376 53.7397 63.0725 53.6125 62.6154 53.4972C61.896 53.3024 61.1924 53.1434 60.5048 52.9964C59.5906 52.8096 58.7042 52.6506 57.8377 52.5273C57.6628 52.4995 57.4919 52.4796 57.321 52.4558C55.107 52.1617 53.06 52.0782 51.2117 52.1299C50.9851 52.1338 50.7585 52.1378 50.5399 52.1537C50.3173 52.1617 50.1027 52.1776 49.8801 52.1895C49.7171 52.1974 49.5502 52.2173 49.3872 52.2253C49.1726 52.2372 48.9619 52.261 48.7592 52.2809C48.6757 52.2849 48.5923 52.2928 48.5088 52.3048C48.1789 52.3405 47.8569 52.3763 47.5389 52.42C46.6804 52.5313 45.8854 52.6704 45.158 52.8175C44.8758 52.8731 44.6055 52.9368 44.3432 52.9964C44.1881 53.0321 44.0451 53.0719 43.902 53.1077C43.7708 53.1434 43.6396 53.1752 43.5164 53.2031C42.6698 53.4296 41.9543 53.6641 41.374 53.8748C41.2825 53.9066 41.1871 53.9424 41.1037 53.9742C40.6664 54.1332 40.3246 54.2802 40.0782 54.3915C40.0305 54.4074 39.9868 54.4313 39.947 54.4512C39.9351 54.4551 39.9192 54.4591 39.9072 54.4631C39.9033 54.4671 39.8993 54.471 39.8953 54.471C39.8794 54.475 39.8596 54.483 39.8476 54.4949C39.8437 54.4949 39.8397 54.4949 39.8357 54.5028C39.7999 54.5148 39.7761 54.5307 39.7522 54.5426C39.6847 54.5744 39.6529 54.5903 39.6529 54.5903C39.6449 54.5943 39.6409 54.5982 39.6409 54.5982C42.5664 54.1371 45.3647 53.9305 48.0358 53.9305C48.3339 53.9305 48.628 53.9344 48.9222 53.9384H48.9818C49.1964 53.9424 49.4111 53.9464 49.6257 53.9543C49.7887 53.9583 49.9516 53.9623 50.1106 53.9702C50.365 53.9782 50.6154 53.9941 50.8658 54.006C50.9334 54.01 50.9891 54.0139 51.0487 54.0179C51.319 54.0298 51.5932 54.0497 51.8635 54.0696C52.1895 54.0934 52.5035 54.1173 52.8215 54.1491C52.8493 54.153 52.8692 54.153 52.897 54.157C53.1236 54.1809 53.3541 54.2007 53.5767 54.2286C53.7556 54.2445 53.9304 54.2723 54.1093 54.2961C54.157 54.2961 54.2087 54.3001 54.2524 54.3081C54.4829 54.3399 54.7135 54.3677 54.944 54.3955C55.2064 54.4353 55.4647 54.475 55.7231 54.5148C56.0371 54.5625 56.3471 54.6141 56.6572 54.6698C56.9632 54.7214 57.2733 54.7731 57.5754 54.8367C57.8774 54.8963 58.1795 54.956 58.4776 55.0196C58.8394 55.0951 59.1891 55.1746 59.5389 55.258C59.7774 55.3137 60.0079 55.3733 60.2464 55.4329C60.5326 55.5045 60.8228 55.576 61.105 55.6555C61.6615 55.8066 62.214 55.9616 62.7546 56.1285C63.0447 56.216 63.3229 56.3074 63.6052 56.3988C63.8755 56.4863 64.1497 56.5777 64.4121 56.6691C64.6545 56.7526 64.901 56.8361 65.1355 56.9275C65.1593 56.9315 65.1832 56.9354 65.203 56.9513H65.207C65.2349 56.9593 65.2587 56.9672 65.2865 56.9831C65.5568 57.0825 65.8311 57.1858 66.0974 57.2892C66.3677 57.3925 66.638 57.4959 66.9003 57.6032C67.1467 57.6986 67.3892 57.8019 67.6277 57.9013C67.7708 57.9689 67.9139 58.0245 68.057 58.0881C68.3153 58.1994 68.5697 58.3147 68.8241 58.43C69.0427 58.5254 69.2613 58.6287 69.476 58.732C69.7423 58.8592 70.0126 58.9864 70.271 59.1176C70.3981 59.1733 70.5214 59.2408 70.6486 59.3004C70.8473 59.3998 71.0381 59.5032 71.2329 59.6025C71.4316 59.7019 71.6184 59.8052 71.8092 59.9046C80.677 64.6466 85.427 70.4816 85.427 70.4816C85.4707 70.5373 85.4826 70.6525 85.4627 70.8036C85.3475 71.7257 84.1789 74.1385 83.9841 74.5837C83.4753 75.7721 82.8831 76.9248 82.1994 78.0219C76.7738 86.7466 65.2189 89.0202 55.8702 86.2458C48.4889 84.0557 43.0593 78.2127 36.4492 74.5677C31.5363 71.8649 26.2656 69.7622 20.7804 68.5697C15.792 67.4886 10.5929 67.1547 5.53693 67.9179C4.87313 68.0133 2.4962 68.216 1.06128 68.693H1.05731C0.540578 68.8678 0.143094 69.0745 0 69.325C6.01789 58.8871 12.5406 51.9271 19.0831 47.4078C24.2385 43.8304 29.4018 41.7834 34.3306 40.7301H34.3465C41.37 39.2355 47.9165 39.7681 53.2905 40.8453C58.1557 41.8152 62.059 43.2262 64.4796 43.9815C69.4005 45.5038 78.3677 50.4406 87.9351 54.1809C96.5406 57.5396 105.631 59.9364 112.706 58.0166C121.169 55.7231 121.455 49.9835 120.107 45.4482C120.27 45.7622 122.854 50.9732 122.834 55.9815L122.842 55.9974Z" fill="#52C459"/>
<path d="M122.842 55.9974C122.834 58.7122 122.067 61.3713 119.73 63.16C119.73 63.16 119.727 63.1627 119.722 63.168C119.722 63.168 119.706 63.1759 119.698 63.1799C119.316 63.3945 118.907 63.5893 118.482 63.7602C118.482 63.7602 118.48 63.7615 118.478 63.7642C117.921 63.9868 117.329 64.1815 116.701 64.3445C116.419 64.416 116.136 64.4796 115.838 64.5432C115.771 64.5552 115.707 64.5711 115.64 64.583C115.202 64.6704 114.749 64.746 114.284 64.8016C114.233 64.8096 114.181 64.8135 114.125 64.8255C105.711 65.8748 93.1858 63.0328 82.5929 59.9205C82.1716 59.7933 81.7542 59.6701 81.3369 59.5469C80.9235 59.4237 80.5141 59.2965 80.1047 59.1733C79.5959 59.0143 79.0951 58.8632 78.5982 58.7082C77.3024 58.3028 76.0623 57.9053 74.8738 57.5197C74.8698 57.5197 74.8658 57.5197 74.8619 57.5157C74.3173 57.3409 73.7887 57.166 73.268 56.995C73.0931 56.9394 72.9182 56.8758 72.7512 56.8202C71.9046 56.5379 71.0938 56.2637 70.3266 56.0013C68.7764 55.4687 67.4091 54.9957 66.2683 54.6022C65.5012 54.3359 64.7459 54.0934 64.0066 53.8788C63.5376 53.7397 63.0725 53.6125 62.6154 53.4972C61.896 53.3024 61.1924 53.1434 60.5048 52.9964C59.5906 52.8096 58.7042 52.6506 57.8377 52.5273C57.6628 52.4995 57.4919 52.4796 57.321 52.4558C55.107 52.1617 53.06 52.0782 51.2117 52.1299C50.9851 52.1338 50.7585 52.1378 50.5399 52.1537C50.3173 52.1617 50.1027 52.1776 49.8801 52.1895C49.7171 52.1974 49.5502 52.2173 49.3872 52.2253C49.1726 52.2372 48.9619 52.261 48.7592 52.2809C48.6757 52.2849 48.5923 52.2928 48.5088 52.3048C48.1789 52.3405 47.8569 52.3763 47.5389 52.42C46.6804 52.5313 45.8854 52.6704 45.158 52.8175C44.8758 52.8731 44.6055 52.9368 44.3432 52.9964C44.1881 53.0321 44.0451 53.0719 43.902 53.1077C43.7708 53.1434 43.6396 53.1752 43.5164 53.2031C42.6698 53.4296 41.9543 53.6641 41.374 53.8748C41.2825 53.9066 41.1871 53.9424 41.1037 53.9742C40.6664 54.1332 40.3246 54.2802 40.0782 54.3915C40.0305 54.4074 39.9868 54.4313 39.947 54.4512C39.9351 54.4551 39.9192 54.4591 39.9072 54.4631C39.9033 54.4671 39.8993 54.471 39.8953 54.471C39.8794 54.475 39.8596 54.483 39.8476 54.4949C39.8437 54.4949 39.8397 54.4949 39.8357 54.5028C39.7999 54.5148 39.7761 54.5307 39.7522 54.5426C39.6847 54.5744 39.6529 54.5903 39.6529 54.5903C39.6449 54.5943 39.6409 54.5982 39.6409 54.5982C42.5664 54.1371 45.3647 53.9305 48.0358 53.9305C48.3339 53.9305 48.628 53.9344 48.9222 53.9384H48.9818C49.1964 53.9424 49.4111 53.9464 49.6257 53.9543C49.7887 53.9583 49.9516 53.9623 50.1106 53.9702C50.365 53.9782 50.6154 53.9941 50.8658 54.006C50.9334 54.01 50.9891 54.0139 51.0487 54.0179C51.319 54.0298 51.5932 54.0497 51.8635 54.0696C52.1895 54.0934 52.5035 54.1173 52.8215 54.1491C52.8493 54.153 52.8692 54.153 52.897 54.157C53.1236 54.1809 53.3541 54.2007 53.5767 54.2286C53.7556 54.2445 53.9304 54.2723 54.1093 54.2961C54.157 54.2961 54.2087 54.3001 54.2524 54.3081C54.4829 54.3399 54.7135 54.3677 54.944 54.3955C55.2064 54.4353 55.4647 54.475 55.7231 54.5148C56.0371 54.5625 56.3471 54.6141 56.6572 54.6698C56.9632 54.7214 57.2733 54.7731 57.5754 54.8367C57.8774 54.8963 58.1795 54.956 58.4776 55.0196C58.8394 55.0951 59.1891 55.1746 59.5389 55.258C59.7774 55.3137 60.0079 55.3733 60.2464 55.4329C60.5326 55.5045 60.8228 55.576 61.105 55.6555C61.6615 55.8066 62.214 55.9616 62.7546 56.1285C63.0447 56.216 63.3229 56.3074 63.6052 56.3988C63.8755 56.4863 64.1497 56.5777 64.4121 56.6691C64.6545 56.7526 64.901 56.8361 65.1355 56.9275C65.1593 56.9315 65.1832 56.9354 65.203 56.9513H65.207C65.2349 56.9593 65.2587 56.9672 65.2865 56.9831C65.5568 57.0825 65.8311 57.1858 66.0974 57.2892C66.3677 57.3925 66.638 57.4959 66.9003 57.6032C67.1467 57.6986 67.3892 57.8019 67.6277 57.9013C67.7708 57.9689 67.9139 58.0245 68.057 58.0881C68.3153 58.1994 68.5697 58.3147 68.8241 58.43C69.0427 58.5254 69.2613 58.6287 69.476 58.732C69.7423 58.8592 70.0126 58.9864 70.271 59.1176C70.3981 59.1733 70.5214 59.2408 70.6486 59.3004C70.8473 59.3998 71.0381 59.5032 71.2329 59.6025C71.4316 59.7019 71.6184 59.8052 71.8092 59.9046C80.677 64.6466 85.427 70.4816 85.427 70.4816C85.4707 70.5373 85.4826 70.6525 85.4627 70.8036C85.3475 71.7257 84.1789 74.1385 83.9841 74.5837C83.4753 75.7721 82.8831 76.9248 82.1994 78.0219C76.7738 86.7466 65.2189 89.0202 55.8702 86.2458C48.4889 84.0557 43.0593 78.2127 36.4492 74.5677C31.5363 71.8649 26.2656 69.7622 20.7804 68.5697C15.792 67.4886 10.5929 67.1547 5.53693 67.9179C4.87313 68.0133 2.4962 68.216 1.06128 68.693H1.05731C0.540578 68.8678 0.143094 69.0745 0 69.325C6.01789 58.8871 12.5406 51.9271 19.0831 47.4078C24.2385 43.8304 29.4018 41.7834 34.3306 40.7301H34.3465C41.37 39.2355 47.9165 39.7681 53.2905 40.8453C58.1557 41.8152 62.059 43.2262 64.4796 43.9815C69.4005 45.5038 78.3677 50.4406 87.9351 54.1809C96.5406 57.5396 105.631 59.9364 112.706 58.0166C121.169 55.7231 121.455 49.9835 120.107 45.4482C120.27 45.7622 122.854 50.9732 122.834 55.9815L122.842 55.9974Z" fill="#52C459"/>
<g style="mix-blend-mode:multiply" opacity="0.5">
<path d="M0.631896 68.8798C0.759091 68.8202 0.906162 68.7685 1.05721 68.7168C1.05721 68.7168 1.05985 68.7168 1.06515 68.7168C2.50006 68.2438 4.87701 68.0411 5.53683 67.9417C10.5968 67.1746 15.7959 67.5164 20.7803 68.5936C26.2695 69.7861 31.5362 71.8848 36.4491 74.5916C43.0632 78.2326 48.4928 84.0795 55.874 86.2657C65.2228 89.0361 76.7777 86.7665 82.2033 78.0418C82.887 76.9447 83.4792 75.788 83.988 74.5996C84.1549 74.2061 85.0811 72.2942 85.3792 71.213C79.5441 78.316 69.0625 80.0371 60.453 77.4853C53.6998 75.482 48.5842 70.422 42.6935 66.7851C42.6935 66.7851 42.6935 66.7851 42.6856 66.7851C21.9608 55.1428 4.14168 66.3876 0.62793 68.8798H0.631896Z" fill="#52C459"/>
</g>
<g style="mix-blend-mode:screen" opacity="0.5">
<path d="M0.632324 68.8798C0.759519 68.8202 0.90659 68.7685 1.05763 68.7168C1.05763 68.7168 1.06028 68.7168 1.06558 68.7168C1.65783 68.5221 2.41305 68.371 3.14442 68.2558C9.56376 64.5075 25.0815 57.8735 42.6939 67.7668C42.6939 67.7668 42.6939 67.7668 42.7019 67.7668C48.5886 71.4078 53.7042 76.4638 60.4614 78.4671C68.7688 80.9275 78.8132 79.4131 84.7476 72.9262C85.006 72.3299 85.2603 71.694 85.3875 71.213C79.5525 78.316 69.0709 80.0371 60.4614 77.4853C53.7082 75.482 48.5926 70.422 42.7019 66.7851C42.7019 66.7851 42.7019 66.7851 42.6939 66.7851C21.9692 55.1428 4.15005 66.3876 0.636303 68.8798H0.632324Z" fill="#52C459"/>
</g>
<g style="mix-blend-mode:screen">
<path d="M122.842 55.9973C122.834 58.7122 122.067 61.3713 119.73 63.16C119.73 63.16 119.727 63.1626 119.722 63.1679C119.722 63.1679 119.706 63.1759 119.698 63.1799C119.317 63.3945 118.907 63.5893 118.482 63.7602C118.482 63.7602 118.48 63.7615 118.478 63.7642C110.58 66.944 95.2211 63.6211 82.5931 59.9086C82.1718 59.7854 81.7544 59.6621 81.3371 59.5389C80.9237 59.4117 80.5143 59.2845 80.1049 59.1613C79.5961 59.0063 79.0953 58.8552 78.5984 58.7002C77.3026 58.2948 76.0625 57.8973 74.874 57.5078C74.87 57.5078 74.866 57.5078 74.8621 57.5038C74.3175 57.3289 73.7889 57.154 73.2682 56.9831C73.0933 56.9275 72.9184 56.8678 72.7514 56.8122C71.9167 56.53 71.1257 56.2637 70.3705 56.0053L70.3268 55.9973C68.7766 55.4647 67.4093 54.9917 66.2685 54.5982C65.5013 54.3319 64.7461 54.0894 64.0068 53.8748C63.5378 53.7357 63.0727 53.6085 62.6156 53.4932C61.8962 53.2984 61.1926 53.1394 60.505 52.9924C59.5908 52.8056 58.7044 52.6466 57.8379 52.5234C57.663 52.4955 57.4921 52.4756 57.3211 52.4518C55.1072 52.1577 53.0601 52.0742 51.2118 52.1259C50.9853 52.1298 50.7587 52.1338 50.5401 52.1497C50.3175 52.1577 50.1029 52.1736 49.8803 52.1855C49.7173 52.1934 49.5504 52.2133 49.3874 52.2213C49.1728 52.2332 48.9621 52.257 48.7594 52.2769C48.6759 52.2809 48.5924 52.2888 48.509 52.3008C48.1791 52.3365 47.8571 52.3723 47.5391 52.416C46.6805 52.5273 45.8856 52.6664 45.1582 52.8135C44.876 52.8692 44.6057 52.9328 44.3433 52.9924C44.1883 53.0282 44.0452 53.0679 43.9021 53.1037C43.771 53.1394 43.6398 53.1712 43.5166 53.1991C42.6699 53.4256 41.9545 53.6602 41.3741 53.8708C41.2827 53.9026 41.1873 53.9384 41.1039 53.9702C40.6666 54.1292 40.3248 54.2762 40.0784 54.3875C40.0307 54.4034 39.9869 54.4273 39.9472 54.4472C39.9233 54.4511 39.9074 54.4591 39.8955 54.471C39.8995 54.471 39.9035 54.467 39.9074 54.4631C40.5593 54.1292 42.4434 53.2229 44.8601 52.3644C45.818 52.0305 46.8475 51.7006 47.9207 51.4223H47.9247C54.022 49.8284 62.5481 52.0821 66.026 53.1514L66.2486 53.2309C66.2486 53.2309 66.2725 53.2388 66.2804 53.2388C66.7057 53.374 67.0992 53.5051 67.4609 53.6204C67.4848 53.6284 67.4967 53.6323 67.5086 53.6442C67.5325 53.6482 67.5563 53.6562 67.5802 53.6681C67.5921 53.6721 67.604 53.676 67.604 53.676C68.9396 54.1252 69.7504 54.4352 69.7504 54.4352C70.4659 54.6817 71.2172 54.9361 71.9962 55.1984C72.1671 55.2541 72.3381 55.3137 72.5129 55.3693C73.0297 55.5402 73.5623 55.7151 74.1108 55.89C74.1108 55.894 74.1148 55.894 74.1188 55.894C75.3072 56.2835 76.5553 56.685 77.8432 57.0864C78.34 57.2415 78.8448 57.3925 79.3497 57.5515C79.7591 57.6747 80.1685 57.8019 80.5818 57.9251C80.9992 58.0484 81.4165 58.1716 81.8379 58.2948C98.9654 63.3229 121.101 67.6515 122.846 56.0013L122.842 55.9973Z" fill="#52C459"/>
</g>
<path d="M51.5096 26.3174V32.1326H45.3765V26.3174H45.4599C45.4997 26.3174 45.5553 26.3174 45.6269 26.3174H51.5096Z" fill="#181818"/>
<path d="M60.016 26.3174V32.1326H53.4854V28.1776V26.3174H60.016Z" fill="#181818"/>
<path d="M51.5096 33.9491V37.7172C50.6511 37.5741 49.8004 37.4509 48.9578 37.3476C47.7614 37.2045 46.561 37.1011 45.3765 37.0415V33.9491H51.5096Z" fill="#181818"/>
<path d="M60.0164 33.9491V39.7325C59.8296 39.6768 59.6388 39.6172 59.448 39.5616C57.3573 38.9534 55.4136 38.4685 53.4897 38.0829V33.9491H60.0164Z" fill="#181818"/>
<path d="M120.016 45.4998H116.685C113.223 45.4998 109.264 45.5038 105.242 45.5078C102.539 45.5078 99.8122 45.5078 97.1928 45.5118C95.0226 45.5118 92.9239 45.5118 90.9802 45.5157C84.2945 45.5157 79.3896 45.5197 79.3896 45.5197V45.4879H78.694C70.2793 34.4578 61.2127 24.5803 52.7543 13.6257C47.754 19.7549 39.848 29.1633 32.4191 38.1583C32.1408 38.2259 31.8586 38.2935 31.5645 38.369C31.1471 38.4723 30.7298 38.5876 30.3084 38.7069C28.9451 39.1004 27.5817 39.5694 26.2581 40.098C25.8089 40.2729 25.3677 40.4637 24.9186 40.6545C23.6228 41.2189 22.3508 41.847 21.1266 42.5227C19.7354 43.2898 18.3522 44.1484 17.0206 45.0745C15.2598 46.2908 13.5188 47.6621 11.8494 49.1606C11.6387 49.3475 11.428 49.5422 11.2134 49.741C13.328 47.1852 16.1461 43.7668 18.7536 40.5989C21.6354 37.097 24.2707 33.9092 25.4433 32.5061C25.5347 32.3948 25.6261 32.2875 25.7215 32.1762C34.6887 21.4601 43.6519 10.736 52.8855 0.194766L53.0524 0H53.0564C53.1677 0.127194 53.271 0.258364 53.3823 0.389533C61.9997 10.9149 70.808 21.3249 79.5406 31.7827L84.2349 37.419H113.124L114.273 38.7665L119.301 44.6572L120.016 45.4959V45.4998Z" fill="#FFDD02"/>
<path d="M110.989 34.7163H85.3632L55.9336 0.381728L56.021 0.310181L86.5358 6.26447L101.445 23.6543H101.481L110.989 34.7163Z" fill="#52C459"/>
<g style="mix-blend-mode:multiply">
<path d="M84.2344 37.4229L90.9796 45.5235H105.237V37.4229H84.2344Z" fill="#FFDD02"/>
</g>
<g style="mix-blend-mode:multiply">
<path d="M56.021 0.310181L85.3632 34.7163L86.5357 6.26447L56.021 0.310181Z" fill="#52C459"/>
</g>
<path d="M14.5601 45.321L53.0523 0L84.2348 37.423L52.937 2.17423L14.5601 45.321Z" fill="url(#paint0_linear_2797_3169)"/>
<path opacity="0.5" d="M85.3638 34.7162H110.989L100.631 33.9928L85.3638 34.7162Z" fill="url(#paint1_linear_2797_3169)"/>
<defs>
<linearGradient id="paint0_linear_2797_3169" x1="45.2855" y1="-10.1199" x2="51.1404" y2="63.1878" gradientUnits="userSpaceOnUse">
<stop stop-color="white"/>
<stop offset="0.12" stop-color="#FDFFE4" stop-opacity="0.79"/>
<stop offset="0.24" stop-color="#FBFFCB" stop-opacity="0.58"/>
<stop offset="0.37" stop-color="#F9FFB5" stop-opacity="0.4"/>
<stop offset="0.5" stop-color="#F8FFA3" stop-opacity="0.26"/>
<stop offset="0.63" stop-color="#F7FF95" stop-opacity="0.14"/>
<stop offset="0.75" stop-color="#F6FF8B" stop-opacity="0.06"/>
<stop offset="0.88" stop-color="#F6FF85" stop-opacity="0.02"/>
<stop offset="1" stop-color="#F6FF84" stop-opacity="0"/>
</linearGradient>
<linearGradient id="paint1_linear_2797_3169" x1="89.2233" y1="34.2869" x2="121.145" y2="34.8553" gradientUnits="userSpaceOnUse">
<stop stop-color="white"/>
<stop offset="0.12" stop-color="#FDFFE4" stop-opacity="0.79"/>
<stop offset="0.24" stop-color="#FBFFCB" stop-opacity="0.58"/>
<stop offset="0.37" stop-color="#F9FFB5" stop-opacity="0.4"/>
<stop offset="0.5" stop-color="#F8FFA3" stop-opacity="0.26"/>
<stop offset="0.63" stop-color="#F7FF95" stop-opacity="0.14"/>
<stop offset="0.75" stop-color="#F6FF8B" stop-opacity="0.06"/>
<stop offset="0.88" stop-color="#F6FF85" stop-opacity="0.02"/>
<stop offset="1" stop-color="#F6FF84" stop-opacity="0"/>
</linearGradient>
</defs>
</svg>
