<svg width="196" height="196" viewBox="0 0 196 196" fill="none" xmlns="http://www.w3.org/2000/svg">
<g filter="url(#filter0_b_2982_78)">
<circle cx="98" cy="98" r="98" fill="url(#paint0_linear_2982_78)"/>
</g>
<path d="M89.801 167.809L90.5226 179.347L88.5421 178.97L88.0544 171.084L84.7068 178.241L82.9542 177.908L82.4665 170.022L79.1268 177.18L77.1462 176.803L82.0361 166.332L84.2131 166.746L84.6593 173.737L87.6161 167.393L89.801 167.809Z" fill="white"/>
<path d="M61.8781 170.994L59.8785 169.967L61.3739 158.144L63.217 159.09L62.9509 161.184L67.2205 163.377L68.7675 161.942L70.6106 162.888L61.8781 170.994ZM65.6953 164.788L62.6994 163.25L62.0918 168.127L65.6953 164.788Z" fill="white"/>
<path d="M41.5161 156.993L42.7812 155.506L45.3888 157.725L51.3825 150.683L52.869 151.948L46.8753 158.991L49.4829 161.21L48.2178 162.696L41.5161 156.993Z" fill="white"/>
<path d="M41.3614 139.512C41.8107 140.122 42.1129 140.783 42.268 141.497C42.4188 142.214 42.4299 142.935 42.3011 143.659C42.1693 144.379 41.9075 145.062 41.516 145.709C41.117 146.354 40.5955 146.914 39.9515 147.388C39.3032 147.866 38.614 148.199 37.8839 148.386C37.1463 148.571 36.4163 148.619 35.6938 148.529C34.9639 148.437 34.2809 148.212 33.645 147.852C33.0047 147.496 32.46 147.013 32.0106 146.404C31.4727 145.674 31.1471 144.877 31.0338 144.013C30.9162 143.152 30.9899 142.313 31.2549 141.495L33.043 142.343C32.9163 142.828 32.8977 143.328 32.9873 143.845C33.0736 144.358 33.2719 144.825 33.582 145.245C33.8731 145.64 34.2284 145.952 34.6478 146.179C35.063 146.41 35.5109 146.55 35.9915 146.6C36.4679 146.653 36.9488 146.613 37.4342 146.481C37.9153 146.352 38.3683 146.13 38.7934 145.817C39.2227 145.501 39.5703 145.132 39.8363 144.711C40.099 144.285 40.2777 143.835 40.3724 143.361C40.4627 142.891 40.4629 142.423 40.3729 141.96C40.2754 141.495 40.0812 141.065 39.7901 140.67C39.4736 140.241 39.0849 139.911 38.6239 139.681C38.1554 139.45 37.6711 139.323 37.171 139.301L36.8962 137.337C37.7518 137.329 38.5754 137.507 39.367 137.871C40.1587 138.235 40.8235 138.782 41.3614 139.512Z" fill="white"/>
<path d="M21.7053 127.331L20.9706 125.523L31.347 121.308L32.0817 123.116L27.4272 125.007L29.1735 129.306L33.8281 127.415L34.5628 129.223L24.1864 133.439L23.4517 131.63L27.3651 130.04L25.6187 125.742L21.7053 127.331Z" fill="white"/>
<path d="M27.6037 100.895C27.6116 101.551 27.4586 102.139 27.1449 102.66C26.8311 103.181 26.4147 103.597 25.8957 103.907C25.3713 104.212 24.8052 104.368 24.1972 104.376C23.8559 104.38 23.5569 104.351 23.3001 104.291C23.0434 104.23 22.7941 104.123 22.5523 103.971C22.3051 103.82 22.0359 103.612 21.7447 103.349C21.4482 103.086 21.0949 102.754 20.6847 102.354C20.4634 102.575 20.2656 102.764 20.0915 102.921C19.9173 103.072 19.7481 103.194 19.5838 103.287C19.4143 103.38 19.2417 103.448 19.0663 103.493C18.8907 103.533 18.691 103.554 18.467 103.556C17.9763 103.562 17.5376 103.45 17.1509 103.22C16.7587 102.99 16.4483 102.682 16.2197 102.295C15.991 101.909 15.874 101.489 15.8686 101.035C15.8629 100.561 15.9724 100.13 16.1971 99.7434C16.4164 99.3514 16.7193 99.0384 17.1059 98.8044C17.4924 98.5651 17.9256 98.4425 18.4056 98.4368C18.6349 98.434 18.8405 98.4529 19.0223 98.4934C19.2041 98.5285 19.3782 98.5931 19.5447 98.6871C19.7111 98.7758 19.8832 98.8964 20.061 99.049C20.2388 99.1962 20.4357 99.3778 20.6516 99.5939L22.7381 97.4568L20.6901 95.4652L23.4499 95.4321L24.1056 96.0723L25.9391 94.1861L27.3316 95.5535L25.5059 97.4236C25.9215 97.8293 26.2644 98.1772 26.5345 98.4673C26.8047 98.7574 27.0186 99.0242 27.1762 99.2677C27.3284 99.5058 27.4353 99.7526 27.4971 100.008C27.5641 100.258 27.5996 100.553 27.6037 100.895ZM25.6519 100.918C25.6496 100.731 25.6263 100.569 25.582 100.431C25.5323 100.293 25.4507 100.155 25.337 100.018C25.218 99.8805 25.0614 99.7197 24.8672 99.5354C24.6729 99.3457 24.4301 99.1086 24.1386 98.8241L22.0521 100.961C22.3597 101.256 22.6106 101.501 22.805 101.696C22.9993 101.886 23.1664 102.033 23.3063 102.138C23.4409 102.243 23.5752 102.319 23.7091 102.365C23.8429 102.407 24.0005 102.426 24.1818 102.424C24.4698 102.42 24.7249 102.348 24.9473 102.207C25.1695 102.06 25.3433 101.874 25.4686 101.648C25.5938 101.417 25.6549 101.174 25.6519 100.918ZM19.5723 100.991C19.3401 100.754 19.1646 100.577 19.0459 100.461C18.9271 100.34 18.8248 100.259 18.7389 100.217C18.6477 100.17 18.5301 100.147 18.3861 100.149C18.1195 100.152 17.9126 100.245 17.7654 100.429C17.6183 100.612 17.5459 100.807 17.5484 101.015C17.5511 101.239 17.6362 101.436 17.8035 101.604C17.9708 101.768 18.1718 101.848 18.4065 101.845C18.5504 101.843 18.6701 101.818 18.7656 101.769C18.8609 101.714 18.9665 101.625 19.0824 101.501C19.1982 101.377 19.3615 101.207 19.5723 100.991Z" fill="white"/>
<path d="M30.0903 78.0397L19.5201 74.3367L21.8425 67.7077L23.6847 68.3531L22.0078 73.1399L24.152 73.8911L25.4824 70.0934L27.3247 70.7387L25.9942 74.5364L28.8934 75.5521L30.5704 70.7654L32.4126 71.4108L30.0903 78.0397Z" fill="white"/>
<path d="M35.0367 65.3828L32.4089 58.9337L25.5436 59.4396L26.8126 57.3931L31.645 57.0386L29.8186 52.5455L31.0876 50.4991L33.6864 56.8737L40.6314 56.3607L39.3539 58.4208L34.4597 58.784L36.3142 63.3228L35.0367 65.3828Z" fill="white"/>
<path d="M44.7348 51.2971L36.817 43.3757L39.6461 40.5479C40.0761 40.1181 40.5721 39.8372 41.1341 39.7054C41.6998 39.5698 42.2655 39.5812 42.8311 39.7397C43.3968 39.8983 43.8964 40.1944 44.33 40.6282C44.7749 41.0733 45.0727 41.5825 45.2234 42.1558C45.3741 42.7215 45.3815 43.2872 45.2456 43.8528C45.1059 44.4147 44.8286 44.903 44.4137 45.3178L42.9652 46.7656L46.1153 49.9172L44.7348 51.2971ZM41.5853 45.385L42.8867 44.0842C43.0828 43.8881 43.213 43.66 43.2771 43.3998C43.3413 43.1396 43.3376 42.8794 43.266 42.6192C43.1982 42.3552 43.0625 42.1213 42.8589 41.9176C42.6515 41.7102 42.4158 41.5725 42.1519 41.5045C41.8917 41.4328 41.6315 41.429 41.3712 41.493C41.111 41.5571 40.8828 41.6871 40.6867 41.8832L39.3853 43.1839L41.5853 45.385Z" fill="white"/>
<path d="M56.4036 40.7534L50.3287 31.3441L51.9686 30.2853L56.9847 38.0548L60.9031 35.525L61.9618 37.1649L56.4036 40.7534Z" fill="white"/>
<path d="M73.496 32.0029C72.7827 32.2574 72.062 32.356 71.3337 32.2988C70.6036 32.2365 69.9104 32.0393 69.254 31.7073C68.5975 31.3752 68.0163 30.9286 67.5103 30.3674C67.0024 29.8011 66.6141 29.1412 66.3452 28.3877C66.0764 27.6343 65.9602 26.8801 65.9966 26.1253C66.0313 25.3655 66.1976 24.6492 66.4956 23.9767C66.7936 23.3041 67.2063 22.7151 67.7338 22.2098C68.2596 21.6994 68.8791 21.317 69.5924 21.0625C70.3107 20.8062 71.0349 20.7092 71.7649 20.7714C72.4932 20.8287 73.1855 21.0234 73.842 21.3554C74.4984 21.6874 75.078 22.1375 75.5808 22.7056C76.0869 23.2668 76.4743 23.9242 76.7432 24.6776C77.012 25.4311 77.1291 26.1878 77.0944 26.9476C77.063 27.7006 76.8983 28.4134 76.6003 29.086C76.3024 29.7586 75.8905 30.3501 75.3648 30.8604C74.8373 31.3658 74.2143 31.7466 73.496 32.0029ZM72.84 30.1644C73.3022 29.9995 73.7026 29.7491 74.0414 29.413C74.3802 29.0769 74.6436 28.6885 74.8317 28.2476C75.0231 27.7999 75.1262 27.3271 75.141 26.8292C75.1609 26.3294 75.0821 25.8309 74.9047 25.3336C74.7272 24.8363 74.4727 24.4005 74.1409 24.0263C73.8074 23.647 73.4257 23.3471 72.996 23.1267C72.5713 22.9045 72.1215 22.7706 71.6465 22.7249C71.1765 22.6774 70.7105 22.7361 70.2483 22.9009C69.7862 23.0658 69.3858 23.3163 69.047 23.6524C68.7082 23.9884 68.4432 24.3803 68.2518 24.828C68.0637 25.2688 67.9597 25.7391 67.9398 26.2389C67.925 26.7368 68.0063 27.2345 68.1837 27.7317C68.3629 28.2341 68.6184 28.6724 68.9502 29.0466C69.2819 29.4209 69.661 29.7217 70.0875 29.9489C70.5173 30.1693 70.9671 30.3033 71.4371 30.3507C71.9103 30.3914 72.3779 30.3293 72.84 30.1644Z" fill="white"/>
<path d="M86.1143 28.2819L85.0689 17.1308L89.3462 16.7298C89.9515 16.6731 90.5126 16.7732 91.0295 17.03C91.5464 17.2869 91.9721 17.6568 92.3067 18.1397C92.6407 18.6173 92.8366 19.164 92.8943 19.78C92.9416 20.2844 92.8923 20.7578 92.7462 21.2C92.605 21.6364 92.3842 22.0241 92.0839 22.3629C91.7888 22.7013 91.4364 22.97 91.0265 23.1691L94.1271 27.5308L91.8889 27.7406L88.8924 23.546L87.6418 23.6632L88.0577 28.0997L86.1143 28.2819ZM87.4597 21.7197L89.5704 21.5218C89.8465 21.496 90.0923 21.4033 90.3077 21.2438C90.5231 21.0843 90.6888 20.8813 90.805 20.6347C90.9211 20.3882 90.9658 20.1215 90.9389 19.8347C90.9115 19.5427 90.8179 19.2863 90.6579 19.0656C90.4979 18.8449 90.2973 18.6762 90.056 18.5596C89.8148 18.4429 89.5561 18.3975 89.2799 18.4234L87.1692 18.6213L87.4597 21.7197Z" fill="white"/>
<path d="M102.685 27.5953L104.078 16.4821L111.047 17.3553L110.805 19.2921L105.772 18.6617L105.489 20.916L109.482 21.4162L109.24 23.3531L105.247 22.8529L104.865 25.9011L109.898 26.5315L109.655 28.4684L102.685 27.5953Z" fill="white"/>
<path d="M129.412 35.3416C128.74 34.992 128.178 34.5308 127.724 33.9581C127.273 33.3807 126.946 32.7385 126.743 32.0315C126.539 31.3245 126.471 30.5947 126.538 29.842C126.608 29.0845 126.827 28.3509 127.197 27.6413C127.566 26.9316 128.04 26.3334 128.618 25.8466C129.198 25.355 129.836 24.9896 130.532 24.7504C131.227 24.5112 131.94 24.413 132.669 24.4558C133.401 24.4939 134.103 24.6877 134.774 25.0373C135.451 25.3894 136.015 25.8541 136.466 26.4315C136.919 27.0042 137.248 27.644 137.451 28.351C137.654 29.058 137.719 29.789 137.644 30.544C137.577 31.2967 137.359 32.0279 136.99 32.7376C136.621 33.4472 136.146 34.0479 135.565 34.5394C134.992 35.0287 134.358 35.393 133.662 35.6322C132.966 35.8714 132.253 35.972 131.521 35.9339C130.792 35.8911 130.089 35.6936 129.412 35.3416ZM130.313 33.61C130.749 33.8365 131.205 33.9596 131.681 33.9792C132.158 33.9989 132.622 33.9276 133.073 33.7656C133.531 33.6012 133.948 33.3551 134.323 33.0272C134.703 32.7018 135.015 32.3049 135.258 31.8365C135.502 31.3681 135.648 30.885 135.697 30.3873C135.748 29.8848 135.708 29.4011 135.577 28.9362C135.451 28.4737 135.243 28.0529 134.954 27.6737C134.669 27.297 134.309 26.9954 133.873 26.7689C133.438 26.5424 132.982 26.4193 132.505 26.3997C132.028 26.38 131.561 26.4524 131.103 26.6167C130.652 26.7788 130.236 27.0225 129.856 27.348C129.481 27.6759 129.172 28.074 128.928 28.5424C128.682 29.0155 128.535 29.5009 128.486 29.9987C128.437 30.4965 128.475 30.9789 128.599 31.4461C128.729 31.911 128.937 32.3318 129.222 32.7085C129.514 33.083 129.878 33.3835 130.313 33.61Z" fill="white"/>
<path d="M143.933 45.2023C143.264 44.6054 142.823 43.9182 142.61 43.1408C142.4 42.367 142.401 41.5813 142.613 40.7837C142.828 39.9821 143.236 39.2452 143.837 38.573L148.185 33.7045L149.641 35.0049L145.292 39.8734C144.937 40.2711 144.684 40.7028 144.532 41.1684C144.389 41.6335 144.367 42.0899 144.468 42.5375C144.576 42.9846 144.831 43.3876 145.233 43.7465C145.639 44.1089 146.068 44.317 146.52 44.3708C146.976 44.4206 147.424 44.3444 147.862 44.1422C148.307 43.9396 148.708 43.6394 149.063 43.2416L153.412 38.3731L154.868 39.6735L150.519 44.542C150.068 45.0471 149.565 45.4494 149.012 45.7488C148.462 46.0442 147.89 46.2275 147.298 46.2987C146.705 46.3699 146.12 46.316 145.543 46.137C144.971 45.9615 144.434 45.6499 143.933 45.2023Z" fill="white"/>
<path d="M152.592 53.722L161.804 47.3525L164.248 50.8862C164.593 51.3863 164.781 51.9246 164.81 52.5011C164.839 53.0776 164.724 53.6298 164.467 54.1579C164.214 54.6829 163.833 55.1214 163.324 55.4732C162.908 55.7614 162.471 55.95 162.014 56.0391C161.564 56.1295 161.118 56.1267 160.675 56.0307C160.236 55.939 159.829 55.7631 159.455 55.5032L157.169 60.3418L155.89 58.4927L158.082 53.8266L157.367 52.7935L153.702 55.3276L152.592 53.722ZM158.973 51.6834L160.179 53.4272C160.336 53.6553 160.537 53.8242 160.782 53.934C161.026 54.0438 161.284 54.089 161.556 54.0696C161.828 54.0502 162.083 53.9586 162.32 53.7948C162.561 53.628 162.739 53.4208 162.853 53.1733C162.967 52.9258 163.016 52.6683 162.999 52.4008C162.983 52.1333 162.896 51.8855 162.738 51.6574L161.533 49.9136L158.973 51.6834Z" fill="white"/>
<path d="M165.669 81.0977C165.491 80.3616 165.469 79.6344 165.602 78.9163C165.741 78.1968 166.01 77.5282 166.41 76.9103C166.81 76.2977 167.316 75.7693 167.927 75.3251C168.545 74.8849 169.243 74.5708 170.021 74.3828C170.803 74.1935 171.568 74.1541 172.313 74.2646C173.065 74.3791 173.757 74.6179 174.388 74.9811C175.025 75.3482 175.567 75.8207 176.014 76.3984C176.466 76.975 176.782 77.6313 176.96 78.3674C177.173 79.2487 177.164 80.1095 176.934 80.9498C176.709 81.7889 176.316 82.5342 175.754 83.1857L174.435 81.7106C174.739 81.3132 174.95 80.8588 175.068 80.3475C175.187 79.8413 175.185 79.3343 175.062 78.8262C174.947 78.3493 174.74 77.9247 174.441 77.5525C174.148 77.1789 173.79 76.8761 173.366 76.6438C172.947 76.4104 172.488 76.2607 171.99 76.1947C171.496 76.1275 170.993 76.156 170.479 76.2801C169.961 76.4054 169.498 76.6108 169.089 76.8961C168.682 77.1866 168.343 77.5319 168.072 77.9321C167.807 78.3311 167.625 78.7618 167.529 79.2241C167.438 79.6904 167.451 80.162 167.566 80.6389C167.692 81.1573 167.922 81.6118 168.258 82.0025C168.601 82.3971 168.998 82.7015 169.45 82.9159L168.943 84.8329C168.151 84.5086 167.461 84.0253 166.872 83.383C166.283 82.7407 165.882 81.979 165.669 81.0977Z" fill="white"/>
<path d="M167.682 98.4268C167.696 97.6695 167.858 96.9604 168.169 96.2993C168.485 95.6383 168.915 95.0593 169.457 94.5625C169.999 94.0656 170.623 93.6796 171.326 93.4043C172.036 93.1292 172.79 92.9989 173.59 93.0135C174.39 93.0281 175.136 93.1857 175.83 93.4864C176.528 93.7872 177.14 94.1957 177.664 94.712C178.188 95.2283 178.593 95.8225 178.879 96.4945C179.171 97.1666 179.31 97.8812 179.296 98.6384C179.282 99.401 179.117 100.113 178.801 100.774C178.491 101.435 178.064 102.014 177.521 102.511C176.979 103.008 176.353 103.391 175.644 103.661C174.94 103.936 174.189 104.066 173.389 104.052C172.589 104.037 171.84 103.879 171.141 103.579C170.448 103.283 169.839 102.877 169.315 102.361C168.791 101.845 168.383 101.251 168.091 100.579C167.805 99.9066 167.668 99.1893 167.682 98.4268ZM169.634 98.4623C169.625 98.9529 169.718 99.416 169.913 99.8516C170.107 100.287 170.378 100.671 170.724 101.003C171.075 101.34 171.481 101.603 171.942 101.793C172.402 101.988 172.896 102.09 173.424 102.1C173.952 102.11 174.45 102.025 174.917 101.847C175.39 101.669 175.805 101.418 176.163 101.094C176.521 100.775 176.805 100.401 177.016 99.9731C177.226 99.5502 177.336 99.0935 177.345 98.6029C177.354 98.1123 177.261 97.6492 177.066 97.2136C176.871 96.7779 176.598 96.3916 176.247 96.0544C175.901 95.7227 175.498 95.4594 175.037 95.2643C174.577 95.0745 174.082 94.9748 173.554 94.9652C173.021 94.9555 172.521 95.0397 172.053 95.2179C171.586 95.3961 171.171 95.6445 170.808 95.9633C170.45 96.2875 170.166 96.6611 169.955 97.084C169.75 97.5123 169.643 97.9717 169.634 98.4623Z" fill="white"/>
<path d="M166.832 111.639L176.929 116.951L176.463 118.499L168.805 119.043L174.89 123.723L174.424 125.271L163.073 124.126L163.647 122.218L170.668 122.928L165.006 118.592L165.391 117.313L172.506 116.823L166.257 113.547L166.832 111.639Z" fill="white"/>
<path d="M159.977 130.488L169.537 136.323L167.454 139.737C167.137 140.256 166.721 140.646 166.206 140.906C165.688 141.171 165.136 141.293 164.549 141.273C163.962 141.252 163.406 141.081 162.883 140.762C162.345 140.434 161.936 140.009 161.655 139.488C161.375 138.973 161.235 138.425 161.233 137.844C161.237 137.265 161.391 136.725 161.697 136.224L162.764 134.476L158.96 132.155L159.977 130.488ZM164.43 135.493L163.472 137.063C163.327 137.3 163.254 137.552 163.253 137.82C163.252 138.088 163.317 138.34 163.448 138.576C163.576 138.817 163.763 139.012 164.009 139.162C164.259 139.315 164.521 139.394 164.793 139.397C165.063 139.406 165.317 139.348 165.555 139.225C165.792 139.101 165.984 138.921 166.128 138.684L167.086 137.114L164.43 135.493Z" fill="white"/>
<path d="M156.442 154.165L154.853 155.756L144.051 150.723L145.515 149.257L147.427 150.149L150.819 146.753L149.924 144.841L151.388 143.375L156.442 154.165ZM151.697 148.636L149.317 151.019L153.777 153.086L151.697 148.636Z" fill="white"/>
<path d="M138.202 155.392L143.93 165.017L142.116 166.097L134.129 161.922L138.053 168.515L136.375 169.513L130.647 159.889L132.455 158.813L140.449 162.983L136.525 156.39L138.202 155.392Z" fill="white"/>
<path d="M119.33 176.308L117.121 176.961L119.066 169.97L117.634 165.13L119.506 164.576L120.937 169.417L126.372 174.225L124.163 174.878L120.605 171.734L119.33 176.308Z" fill="white"/>
<path d="M105.131 167.433C105.407 167.407 105.653 167.48 105.867 167.652C106.077 167.831 106.195 168.061 106.222 168.342C106.248 168.613 106.174 168.855 106.002 169.07C105.824 169.285 105.597 169.406 105.321 169.432C105.045 169.458 104.799 169.382 104.584 169.204C104.369 169.026 104.248 168.802 104.223 168.531C104.196 168.25 104.272 168.002 104.45 167.787C104.628 167.577 104.855 167.459 105.131 167.433Z" fill="white"/>
<defs>
<filter id="filter0_b_2982_78" x="-15" y="-15" width="226" height="226" filterUnits="userSpaceOnUse" color-interpolation-filters="sRGB">
<feFlood flood-opacity="0" result="BackgroundImageFix"/>
<feGaussianBlur in="BackgroundImageFix" stdDeviation="7.5"/>
<feComposite in2="SourceAlpha" operator="in" result="effect1_backgroundBlur_2982_78"/>
<feBlend mode="normal" in="SourceGraphic" in2="effect1_backgroundBlur_2982_78" result="shape"/>
</filter>
<linearGradient id="paint0_linear_2982_78" x1="0" y1="0" x2="196" y2="196" gradientUnits="userSpaceOnUse">
<stop stop-color="#E8112B" stop-opacity="0.3"/>
<stop offset="1" stop-color="#E8112B" stop-opacity="0.1"/>
</linearGradient>
</defs>
</svg>
