<svg width="196" height="196" viewBox="0 0 196 196" fill="none" xmlns="http://www.w3.org/2000/svg">
<g filter="url(#filter0_b_2974_120)">
<circle cx="98" cy="98.001" r="98" fill="url(#paint0_linear_2974_120)"/>
</g>
<path d="M89.8012 167.81L90.5229 179.348L88.5424 178.971L88.0547 171.085L84.7071 178.242L82.9545 177.909L82.4668 170.023L79.127 177.181L77.1465 176.804L82.0363 166.333L84.2133 166.747L84.6595 173.738L87.6164 167.394L89.8012 167.81Z" fill="white"/>
<path d="M61.8782 170.995L59.8786 169.968L61.3741 158.145L63.2171 159.091L62.951 161.185L67.2207 163.378L68.7676 161.943L70.6107 162.889L61.8782 170.995ZM65.6954 164.789L62.6996 163.251L62.0919 168.128L65.6954 164.789Z" fill="white"/>
<path d="M41.516 156.994L42.7811 155.507L45.3886 157.726L51.3823 150.684L52.8688 151.949L46.8751 158.992L49.4827 161.211L48.2176 162.697L41.516 156.994Z" fill="white"/>
<path d="M41.3613 139.513C41.8106 140.122 42.1128 140.784 42.2679 141.498C42.4187 142.215 42.4298 142.936 42.301 143.66C42.1691 144.38 41.9074 145.063 41.5159 145.71C41.1169 146.355 40.5953 146.915 39.9514 147.389C39.3031 147.867 38.6139 148.2 37.8837 148.386C37.1462 148.572 36.4161 148.62 35.6937 148.53C34.9637 148.438 34.2808 148.213 33.6449 147.853C33.0046 147.497 32.4598 147.014 32.0105 146.404C31.4726 145.675 31.147 144.878 31.0337 144.014C30.9161 143.153 30.9898 142.314 31.2547 141.496L33.0429 142.344C32.9162 142.828 32.8976 143.329 32.9871 143.846C33.0735 144.359 33.2718 144.826 33.5819 145.246C33.873 145.641 34.2282 145.953 34.6477 146.18C35.0628 146.411 35.5107 146.551 35.9914 146.601C36.4678 146.654 36.9487 146.614 37.4341 146.482C37.9152 146.353 38.3682 146.131 38.7933 145.818C39.2226 145.502 39.5702 145.133 39.8361 144.711C40.0989 144.286 40.2776 143.836 40.3722 143.362C40.4626 142.892 40.4628 142.424 40.3728 141.961C40.2753 141.496 40.081 141.066 39.7899 140.671C39.4735 140.242 39.0848 139.912 38.6238 139.682C38.1553 139.451 37.671 139.324 37.1709 139.302L36.8961 137.338C37.7517 137.33 38.5753 137.508 39.3669 137.872C40.1586 138.236 40.8234 138.783 41.3613 139.513Z" fill="white"/>
<path d="M21.7055 127.332L20.9709 125.524L31.3473 121.309L32.082 123.117L27.4274 125.008L29.1738 129.307L33.8284 127.416L34.563 129.224L24.1866 133.44L23.4519 131.631L27.3653 130.041L25.6189 125.743L21.7055 127.332Z" fill="white"/>
<path d="M27.6038 100.896C27.6116 101.552 27.4587 102.14 27.1449 102.661C26.8311 103.182 26.4148 103.598 25.8958 103.908C25.3714 104.213 24.8052 104.369 24.1973 104.377C23.856 104.381 23.5569 104.352 23.3002 104.291C23.0434 104.231 22.7942 104.124 22.5523 103.972C22.3051 103.821 22.036 103.613 21.7448 103.35C21.4483 103.087 21.0949 102.755 20.6848 102.355C20.4634 102.576 20.2657 102.765 20.0915 102.922C19.9173 103.073 19.7481 103.195 19.5839 103.288C19.4143 103.381 19.2418 103.449 19.0663 103.494C18.8908 103.534 18.691 103.555 18.467 103.557C17.9764 103.563 17.5377 103.451 17.1509 103.221C16.7588 102.991 16.4484 102.683 16.2198 102.296C15.9911 101.91 15.8741 101.49 15.8686 101.036C15.8629 100.562 15.9724 100.131 16.1971 99.7443C16.4165 99.3523 16.7194 99.0394 17.106 98.8054C17.4924 98.5661 17.9257 98.4435 18.4056 98.4378C18.635 98.435 18.8405 98.4539 19.0224 98.4944C19.2041 98.5295 19.3783 98.5941 19.5447 98.6881C19.7111 98.7768 19.8833 98.8974 20.0611 99.0499C20.2389 99.1972 20.4357 99.3788 20.6517 99.5949L22.7382 97.4577L20.6902 95.4661L23.45 95.433L24.1057 96.0732L25.9392 94.1871L27.3317 95.5545L25.506 97.4245C25.9216 97.8302 26.2644 98.1782 26.5346 98.4683C26.8048 98.7584 27.0186 99.0252 27.1762 99.2686C27.3284 99.5068 27.4354 99.7536 27.4971 100.009C27.5641 100.259 27.5997 100.554 27.6038 100.896ZM25.6519 100.919C25.6497 100.732 25.6264 100.57 25.5821 100.432C25.5324 100.294 25.4508 100.156 25.3371 100.019C25.2181 99.8815 25.0615 99.7207 24.8673 99.5363C24.673 99.3467 24.4301 99.1096 24.1387 98.825L22.0522 100.962C22.3597 101.257 22.6107 101.502 22.805 101.697C22.9993 101.887 23.1664 102.034 23.3064 102.139C23.441 102.244 23.5752 102.32 23.7091 102.366C23.843 102.408 24.0005 102.427 24.1819 102.425C24.4698 102.421 24.725 102.349 24.9473 102.208C25.1696 102.061 25.3434 101.875 25.4687 101.649C25.5939 101.418 25.655 101.175 25.6519 100.919ZM19.5724 100.992C19.3402 100.755 19.1647 100.578 19.046 100.462C18.9272 100.341 18.8249 100.26 18.739 100.218C18.6478 100.171 18.5302 100.148 18.3862 100.15C18.1195 100.153 17.9126 100.246 17.7655 100.43C17.6183 100.613 17.546 100.808 17.5485 101.016C17.5512 101.24 17.6362 101.437 17.8036 101.605C17.9709 101.769 18.1719 101.849 18.4065 101.846C18.5505 101.844 18.6702 101.819 18.7656 101.77C18.861 101.715 18.9666 101.626 19.0824 101.502C19.1983 101.378 19.3616 101.208 19.5724 100.992Z" fill="white"/>
<path d="M30.0905 78.0407L19.5204 74.3377L21.8427 67.7087L23.6849 68.3541L22.008 73.1408L24.1522 73.892L25.4827 70.0943L27.3249 70.7397L25.9944 74.5374L28.8937 75.5531L30.5706 70.7663L32.4128 71.4117L30.0905 78.0407Z" fill="white"/>
<path d="M35.0366 65.3838L32.4087 58.9347L25.5434 59.4406L26.8124 57.3941L31.6448 57.0396L29.8184 52.5465L31.0874 50.5L33.6862 56.8746L40.6312 56.3617L39.3538 58.4217L34.4595 58.785L36.314 63.3237L35.0366 65.3838Z" fill="white"/>
<path d="M44.7348 51.2981L36.817 43.3766L39.6461 40.5489C40.0761 40.1191 40.5721 39.8382 41.1341 39.7064C41.6998 39.5707 42.2655 39.5822 42.8311 39.7407C43.3968 39.8992 43.8964 40.1954 44.33 40.6292C44.7749 41.0743 45.0727 41.5835 45.2234 42.1567C45.3741 42.7225 45.3815 43.2882 45.2456 43.8538C45.1059 44.4157 44.8286 44.904 44.4137 45.3187L42.9652 46.7665L46.1153 49.9182L44.7348 51.2981ZM41.5853 45.386L42.8867 44.0852C43.0828 43.8891 43.213 43.661 43.2771 43.4008C43.3413 43.1406 43.3376 42.8804 43.266 42.6201C43.1982 42.3561 43.0625 42.1223 42.8589 41.9186C42.6515 41.7111 42.4158 41.5734 42.1519 41.5055C41.8917 41.4338 41.6315 41.4299 41.3712 41.494C41.111 41.558 40.8828 41.6881 40.6867 41.8841L39.3853 43.1849L41.5853 45.386Z" fill="white"/>
<path d="M56.4035 40.7544L50.3286 31.3451L51.9685 30.2863L56.9846 38.0557L60.9029 35.526L61.9617 37.1659L56.4035 40.7544Z" fill="white"/>
<path d="M73.496 32.0039C72.7827 32.2584 72.062 32.357 71.3337 32.2998C70.6036 32.2375 69.9104 32.0403 69.254 31.7083C68.5975 31.3762 68.0163 30.9296 67.5103 30.3683C67.0024 29.8021 66.6141 29.1422 66.3452 28.3887C66.0764 27.6352 65.9602 26.8811 65.9966 26.1263C66.0313 25.3664 66.1976 24.6502 66.4956 23.9776C66.7936 23.3051 67.2063 22.7161 67.7338 22.2108C68.2596 21.7004 68.8791 21.318 69.5924 21.0635C70.3107 20.8072 71.0349 20.7101 71.7649 20.7724C72.4932 20.8297 73.1855 21.0243 73.842 21.3564C74.4984 21.6884 75.078 22.1385 75.5808 22.7065C76.0869 23.2678 76.4743 23.9251 76.7432 24.6786C77.012 25.4321 77.1291 26.1887 77.0944 26.9486C77.063 27.7016 76.8983 28.4144 76.6003 29.087C76.3024 29.7596 75.8905 30.3511 75.3648 30.8614C74.8373 31.3668 74.2143 31.7476 73.496 32.0039ZM72.84 30.1654C73.3022 30.0005 73.7026 29.75 74.0414 29.414C74.3802 29.0779 74.6436 28.6895 74.8317 28.2486C75.0231 27.8009 75.1262 27.3281 75.141 26.8302C75.1609 26.3304 75.0821 25.8319 74.9047 25.3346C74.7272 24.8373 74.4727 24.4015 74.1409 24.0272C73.8074 23.6479 73.4257 23.3481 72.996 23.1277C72.5713 22.9055 72.1215 22.7715 71.6465 22.7258C71.1765 22.6783 70.7105 22.737 70.2483 22.9019C69.7862 23.0668 69.3858 23.3173 69.047 23.6534C68.7082 23.9894 68.4432 24.3813 68.2518 24.829C68.0637 25.2698 67.9597 25.7401 67.9398 26.2399C67.925 26.7378 68.0063 27.2354 68.1837 27.7327C68.3629 28.235 68.6184 28.6733 68.9502 29.0476C69.2819 29.4219 69.661 29.7227 70.0875 29.9499C70.5173 30.1703 70.9671 30.3042 71.4371 30.3517C71.9103 30.3924 72.3779 30.3303 72.84 30.1654Z" fill="white"/>
<path d="M86.1141 28.2829L85.0688 17.1318L89.346 16.7308C89.9514 16.6741 90.5125 16.7741 91.0294 17.031C91.5463 17.2879 91.972 17.6578 92.3065 18.1407C92.6406 18.6182 92.8365 19.165 92.8942 19.781C92.9415 20.2854 92.8921 20.7588 92.7461 21.201C92.6049 21.6374 92.3841 22.025 92.0838 22.3639C91.7887 22.7022 91.4363 22.971 91.0264 23.1701L94.127 27.5317L91.8888 27.7416L88.8922 23.5469L87.6417 23.6642L88.0576 28.1007L86.1141 28.2829ZM87.4595 21.7207L89.5703 21.5228C89.8464 21.4969 90.0922 21.4043 90.3075 21.2448C90.5229 21.0853 90.6887 20.8823 90.8049 20.6357C90.921 20.3891 90.9657 20.1225 90.9388 19.8357C90.9114 19.5437 90.8177 19.2873 90.6578 19.0666C90.4978 18.8459 90.2972 18.6772 90.0559 18.5606C89.8146 18.4439 89.5559 18.3985 89.2798 18.4244L87.1691 18.6223L87.4595 21.7207Z" fill="white"/>
<path d="M102.686 27.5963L104.078 16.4831L111.047 17.3563L110.805 19.2931L105.772 18.6626L105.49 20.917L109.482 21.4172L109.24 23.3541L105.247 22.8539L104.865 25.902L109.898 26.5325L109.655 28.4694L102.686 27.5963Z" fill="white"/>
<path d="M129.412 35.3426C128.741 34.993 128.178 34.5318 127.724 33.9591C127.273 33.3817 126.946 32.7395 126.743 32.0325C126.54 31.3255 126.472 30.5956 126.539 29.8429C126.608 29.0855 126.827 28.3519 127.197 27.6423C127.566 26.9326 128.04 26.3344 128.618 25.8475C129.198 25.356 129.836 24.9906 130.532 24.7514C131.228 24.5122 131.94 24.4139 132.669 24.4568C133.401 24.4948 134.103 24.6887 134.775 25.0383C135.451 25.3903 136.015 25.8551 136.466 26.4325C136.919 27.0052 137.248 27.645 137.451 28.352C137.654 29.059 137.719 29.79 137.645 30.545C137.578 31.2977 137.359 32.0289 136.99 32.7386C136.621 33.4482 136.146 34.0488 135.565 34.5404C134.992 35.0297 134.358 35.3939 133.662 35.6331C132.966 35.8724 132.253 35.9729 131.521 35.9349C130.792 35.8921 130.089 35.6946 129.412 35.3426ZM130.313 33.611C130.749 33.8375 131.205 33.9606 131.681 33.9802C132.158 33.9998 132.622 33.9286 133.073 33.7665C133.532 33.6022 133.948 33.3561 134.323 33.0282C134.703 32.7028 135.015 32.3059 135.259 31.8375C135.502 31.3691 135.648 30.886 135.697 30.3883C135.748 29.8857 135.708 29.402 135.577 28.9372C135.451 28.4747 135.243 28.0539 134.954 27.6747C134.669 27.298 134.309 26.9963 133.873 26.7698C133.438 26.5433 132.982 26.4203 132.505 26.4006C132.029 26.381 131.561 26.4533 131.103 26.6177C130.652 26.7798 130.236 27.0235 129.857 27.3489C129.481 27.6768 129.172 28.075 128.928 28.5433C128.682 29.0165 128.535 29.5019 128.486 29.9997C128.438 30.4974 128.475 30.9799 128.599 31.4471C128.73 31.912 128.937 32.3328 129.222 32.7095C129.514 33.084 129.878 33.3845 130.313 33.611Z" fill="white"/>
<path d="M143.933 45.2032C143.264 44.6063 142.823 43.9192 142.61 43.1418C142.4 42.368 142.401 41.5823 142.613 40.7846C142.828 39.9831 143.236 39.2462 143.837 38.574L148.185 33.7055L149.641 35.0059L145.292 39.8744C144.937 40.2721 144.684 40.7038 144.532 41.1693C144.389 41.6345 144.367 42.0909 144.468 42.5384C144.576 42.9856 144.831 43.3886 145.233 43.7475C145.639 44.1099 146.068 44.318 146.52 44.3718C146.977 44.4216 147.424 44.3454 147.862 44.1432C148.307 43.9405 148.708 43.6403 149.063 43.2426L153.412 38.3741L154.868 39.6745L150.519 44.543C150.068 45.0481 149.565 45.4504 149.012 45.7498C148.462 46.0452 147.89 46.2285 147.298 46.2997C146.705 46.3709 146.12 46.317 145.544 46.1379C144.971 45.9625 144.434 45.6509 143.933 45.2032Z" fill="white"/>
<path d="M152.592 53.7229L161.805 47.3535L164.248 50.8872C164.593 51.3873 164.781 51.9256 164.81 52.5021C164.839 53.0786 164.725 53.6308 164.467 54.1589C164.214 54.6839 163.833 55.1224 163.324 55.4742C162.908 55.7623 162.471 55.951 162.014 56.0401C161.564 56.1305 161.118 56.1277 160.675 56.0316C160.236 55.9399 159.829 55.7641 159.455 55.5042L157.169 60.3428L155.89 58.4937L158.082 53.8275L157.367 52.7944L153.702 55.3285L152.592 53.7229ZM158.973 51.6843L160.179 53.4281C160.336 53.6563 160.537 53.8252 160.782 53.935C161.026 54.0448 161.285 54.09 161.556 54.0706C161.828 54.0512 162.083 53.9596 162.32 53.7958C162.561 53.629 162.739 53.4218 162.853 53.1743C162.967 52.9268 163.016 52.6693 163 52.4018C162.983 52.1343 162.896 51.8865 162.738 51.6583L161.533 49.9145L158.973 51.6843Z" fill="white"/>
<path d="M165.669 81.0987C165.491 80.3626 165.469 79.6354 165.602 78.9172C165.741 78.1978 166.01 77.5291 166.41 76.9113C166.81 76.2987 167.316 75.7703 167.927 75.3261C168.545 74.8859 169.243 74.5718 170.021 74.3837C170.803 74.1945 171.568 74.1551 172.313 74.2656C173.065 74.3801 173.757 74.6189 174.388 74.9821C175.025 75.3492 175.567 75.8216 176.014 76.3994C176.466 76.976 176.782 77.6323 176.96 78.3684C177.173 79.2497 177.164 80.1105 176.934 80.9508C176.709 81.7899 176.316 82.5352 175.754 83.1867L174.435 81.7115C174.739 81.3142 174.95 80.8598 175.068 80.3485C175.187 79.8423 175.185 79.3352 175.062 78.8272C174.947 78.3503 174.74 77.9257 174.441 77.5534C174.148 77.1799 173.79 76.877 173.366 76.6448C172.947 76.4113 172.488 76.2616 171.99 76.1957C171.496 76.1285 170.993 76.157 170.479 76.2811C169.961 76.4064 169.498 76.6117 169.089 76.8971C168.682 77.1876 168.343 77.5329 168.072 77.9331C167.807 78.3321 167.625 78.7627 167.529 79.2251C167.438 79.6914 167.451 80.163 167.566 80.6399C167.692 81.1583 167.922 81.6128 168.258 82.0035C168.601 82.398 168.998 82.7025 169.45 82.9169L168.943 84.8339C168.151 84.5096 167.461 84.0263 166.872 83.384C166.283 82.7417 165.882 81.98 165.669 81.0987Z" fill="white"/>
<path d="M167.682 98.4277C167.696 97.6705 167.858 96.9614 168.169 96.3003C168.485 95.6392 168.915 95.0603 169.457 94.5634C169.999 94.0666 170.623 93.6805 171.326 93.4053C172.036 93.1302 172.79 92.9999 173.59 93.0145C174.39 93.0291 175.136 93.1867 175.83 93.4874C176.528 93.7882 177.14 94.1967 177.664 94.713C178.188 95.2293 178.593 95.8235 178.879 96.4955C179.171 97.1676 179.31 97.8822 179.296 98.6394C179.282 99.402 179.117 100.114 178.801 100.775C178.491 101.436 178.064 102.015 177.521 102.512C176.979 103.009 176.353 103.392 175.644 103.662C174.94 103.937 174.189 104.067 173.389 104.053C172.589 104.038 171.84 103.88 171.141 103.58C170.448 103.284 169.839 102.878 169.315 102.362C168.791 101.846 168.383 101.252 168.091 100.58C167.805 99.9075 167.668 99.1903 167.682 98.4277ZM169.634 98.4633C169.625 98.9539 169.718 99.417 169.913 99.8526C170.107 100.288 170.378 100.672 170.724 101.004C171.075 101.341 171.481 101.604 171.942 101.794C172.402 101.989 172.896 102.091 173.424 102.101C173.952 102.111 174.45 102.026 174.917 101.848C175.39 101.67 175.805 101.419 176.163 101.095C176.521 100.776 176.805 100.402 177.016 99.9741C177.226 99.5512 177.336 99.0944 177.345 98.6038C177.354 98.1133 177.261 97.6502 177.066 97.2145C176.871 96.7789 176.598 96.3925 176.247 96.0554C175.901 95.7237 175.498 95.4603 175.037 95.2652C174.577 95.0755 174.082 94.9758 173.554 94.9662C173.021 94.9564 172.521 95.0407 172.053 95.2189C171.586 95.397 171.171 95.6455 170.808 95.9643C170.45 96.2885 170.166 96.662 169.955 97.0849C169.75 97.5133 169.643 97.9727 169.634 98.4633Z" fill="white"/>
<path d="M166.832 111.64L176.929 116.952L176.463 118.5L168.805 119.043L174.89 123.724L174.425 125.272L163.073 124.127L163.647 122.219L170.668 122.929L165.006 118.593L165.391 117.314L172.506 116.824L166.257 113.548L166.832 111.64Z" fill="white"/>
<path d="M159.977 130.489L169.537 136.323L167.454 139.738C167.137 140.257 166.721 140.647 166.206 140.907C165.688 141.172 165.136 141.294 164.549 141.273C163.962 141.253 163.406 141.082 162.883 140.763C162.346 140.435 161.936 140.01 161.655 139.489C161.375 138.974 161.235 138.426 161.234 137.845C161.237 137.266 161.391 136.726 161.697 136.225L162.764 134.477L158.96 132.156L159.977 130.489ZM164.43 135.494L163.472 137.064C163.327 137.301 163.254 137.553 163.253 137.821C163.252 138.089 163.317 138.341 163.448 138.577C163.576 138.818 163.763 139.013 164.009 139.163C164.259 139.316 164.521 139.395 164.793 139.398C165.063 139.407 165.317 139.349 165.555 139.226C165.793 139.102 165.984 138.922 166.128 138.685L167.087 137.115L164.43 135.494Z" fill="white"/>
<path d="M156.442 154.166L154.853 155.757L144.051 150.724L145.515 149.258L147.428 150.15L150.819 146.754L149.924 144.842L151.388 143.376L156.442 154.166ZM151.697 148.637L149.318 151.02L153.777 153.087L151.697 148.637Z" fill="white"/>
<path d="M138.202 155.393L143.93 165.018L142.115 166.098L134.129 161.923L138.053 168.516L136.375 169.514L130.647 159.89L132.455 158.813L140.449 162.984L136.525 156.391L138.202 155.393Z" fill="white"/>
<path d="M119.33 176.309L117.121 176.962L119.066 169.971L117.634 165.131L119.506 164.577L120.938 169.418L126.373 174.226L124.163 174.879L120.605 171.735L119.33 176.309Z" fill="white"/>
<path d="M105.131 167.434C105.407 167.408 105.653 167.481 105.867 167.653C106.077 167.832 106.195 168.062 106.222 168.343C106.248 168.614 106.174 168.856 106.002 169.071C105.824 169.286 105.597 169.407 105.321 169.433C105.045 169.459 104.799 169.383 104.584 169.205C104.369 169.027 104.249 168.803 104.223 168.532C104.196 168.251 104.272 168.003 104.45 167.788C104.628 167.578 104.855 167.46 105.131 167.434Z" fill="white"/>
<defs>
<filter id="filter0_b_2974_120" x="-15" y="-14.999" width="226" height="226" filterUnits="userSpaceOnUse" color-interpolation-filters="sRGB">
<feFlood flood-opacity="0" result="BackgroundImageFix"/>
<feGaussianBlur in="BackgroundImageFix" stdDeviation="7.5"/>
<feComposite in2="SourceAlpha" operator="in" result="effect1_backgroundBlur_2974_120"/>
<feBlend mode="normal" in="SourceGraphic" in2="effect1_backgroundBlur_2974_120" result="shape"/>
</filter>
<linearGradient id="paint0_linear_2974_120" x1="-1.05731e-05" y1="8.02359e-06" x2="196" y2="196" gradientUnits="userSpaceOnUse">
<stop stop-color="#52C459"/>
<stop offset="1" stop-color="#52C459" stop-opacity="0.1"/>
</linearGradient>
</defs>
</svg>
